<?xml version="1.0" encoding="UTF-8"?>
<svg xmlns="http://www.w3.org/2000/svg" xmlns:xlink="http://www.w3.org/1999/xlink" version="1.2" >
<font id="Ropa Soft Pro ExtraLight">
<font-face  font-family="Ropa Soft Pro" units-per-em="1000" ascent="800" descent="-200" font-style="normal" font-weight="300" font-stretch="normal" cap-height="655" x-height="488" underline-position="-75" underline-thickness="50" />
<missing-glyph  horiz-adv-x="494" d="M86 0 L408 0 L408 655 L86 655 L86 0 Z M121 35 L121 620 L373 620 L373 35 L121 35 Z " />
<glyph glyph-name=".null" d="" />
<glyph glyph-name="CR" unicode="&#xd;" horiz-adv-x="250" d="" />
<glyph glyph-name="space" unicode="&#x20;" horiz-adv-x="242" d="" />
<glyph glyph-name="uni000D" horiz-adv-x="242" d="" />
<glyph glyph-name="exclam" unicode="&#x21;" horiz-adv-x="192" d="M85 695 C78 695 74 691 74 683 L77 212 C77 204 82 200 89 200 L103 200 C111 200 115 204 115 212 L119 683 C119 691 115 695 107 695 L85 695 Z M96 58 C75 58 64 49 64 29 L64 15 C64 -3 75 -12 96 -12 C118 -12 128 -3 128 15 L128 29 C128 49 118 58 96 58 L96 58 Z " />
<glyph glyph-name="quotedbl" unicode="&#x22;" horiz-adv-x="290" d="M68 683 C61 683 57 679 57 671 L57 441 C57 433 61 429 68 429 L86 429 C93 429 97 433 97 441 L97 671 C97 679 93 683 86 683 L68 683 Z M205 683 C197 683 193 679 193 671 L193 441 C193 433 197 429 205 429 L222 429 C229 429 234 433 234 441 L234 671 C234 679 229 683 222 683 L205 683 Z " />
<glyph glyph-name="numbersign" unicode="&#x23;" horiz-adv-x="532" d="M390 613 C383 613 379 609 379 601 L379 488 L153 488 L153 601 C153 609 149 613 142 613 L124 613 C117 613 113 609 113 601 L113 488 L35 488 C28 488 23 484 23 476 L23 466 C23 458 28 454 35 454 L113 454 L113 159 L35 159 C28 159 23 155 23 148 L23 137 C23 129 28 125 35 125 L113 125 L113 12 C113 4 117 0 124 0 L142 0 C149 0 153 4 153 12 L153 125 L379 125 L379 12 C379 4 383 0 390 0 L407 0 C415 0 419 4 419 12 L419 125 L497 125 C504 125 509 129 509 137 L509 148 C509 155 504 159 497 159 L419 159 L419 454 L497 454 C504 454 509 458 509 466 L509 476 C509 484 504 488 497 488 L419 488 L419 601 C419 609 415 613 407 613 L390 613 Z M379 454 L379 159 L153 159 L153 454 L379 454 Z " />
<glyph glyph-name="dollar" unicode="&#x24;" horiz-adv-x="445" d="M219 695 C211 695 207 691 207 683 L207 612 C99 606 52 555 52 465 L52 461 C52 375 83 331 168 304 L268 270 C338 247 363 211 363 154 L363 130 C363 62 320 25 203 25 C168 25 121 33 85 41 C77 42 73 40 72 30 L72 15 C72 8 75 4 82 3 C119 -5 169 -12 207 -12 L207 -82 C207 -90 211 -94 219 -94 L233 -94 C240 -94 245 -90 245 -82 L245 -10 C362 -1 403 50 403 138 L403 147 C403 235 368 280 285 307 L194 337 C112 364 92 398 92 455 L92 473 C92 537 133 578 234 578 C270 578 313 571 346 564 C355 562 359 566 359 575 L359 589 C359 596 356 600 349 601 C315 608 274 612 245 614 L245 683 C245 691 240 695 233 695 L219 695 Z " />
<glyph glyph-name="percent" unicode="&#x25;" horiz-adv-x="865" d="M205 625 C107 625 57 570 57 473 L57 428 C57 330 103 275 201 275 C299 275 349 330 349 428 L349 473 C349 570 303 625 205 625 L205 625 Z M593 613 C587 613 582 610 579 604 L258 14 C253 6 257 0 266 0 L283 0 C289 0 294 3 297 9 L619 599 C623 607 619 613 610 613 L593 613 Z M203 588 C286 588 309 538 309 473 L309 428 C309 363 284 312 203 312 C121 312 96 363 96 428 L96 473 C96 537 122 588 203 588 L203 588 Z M675 338 C577 338 527 283 527 186 L527 141 C527 43 573 -12 671 -12 C769 -12 819 43 819 141 L819 186 C819 283 773 338 675 338 L675 338 Z M673 301 C756 301 779 251 779 186 L779 141 C779 76 754 25 673 25 C591 25 566 76 566 141 L566 186 C566 250 592 301 673 301 L673 301 Z " />
<glyph glyph-name="ampersand" unicode="&#x26;" horiz-adv-x="532" d="M238 667 C120 667 73 603 73 508 L73 486 C73 423 99 365 174 338 C88 315 48 254 48 184 L48 162 C48 56 106 -12 269 -12 C327 -12 353 -8 430 9 C438 10 442 15 442 24 L442 316 L503 316 C510 316 514 320 514 328 L514 339 C514 346 510 351 503 351 L442 351 L442 428 C442 436 438 440 430 440 L416 440 C409 440 404 436 404 428 L404 351 L247 351 C160 351 112 415 112 479 L112 501 C112 587 144 632 238 632 C275 632 308 629 339 624 C346 623 351 627 352 635 L352 646 C352 653 349 657 341 659 C302 665 272 667 238 667 L238 667 Z M404 316 L404 41 C364 31 322 24 269 24 C144 24 88 75 88 161 L88 188 C88 249 132 316 236 316 L404 316 Z " />
<glyph glyph-name="quotesingle" unicode="&#x27;" horiz-adv-x="154" d="M68 683 C61 683 57 679 57 671 L57 441 C57 433 61 429 68 429 L86 429 C93 429 97 433 97 441 L97 671 C97 679 93 683 86 683 L68 683 Z " />
<glyph glyph-name="parenleft" unicode="&#x28;" horiz-adv-x="218" d="M231 711 C115 709 78 676 78 545 L78 110 C78 -21 115 -54 231 -56 C239 -56 243 -52 243 -44 L243 -34 C243 -27 239 -22 232 -22 C139 -15 118 5 118 101 L118 554 C118 651 140 670 232 677 C239 677 243 682 243 689 L243 699 C243 707 239 711 231 711 L231 711 Z " />
<glyph glyph-name="parenright" unicode="&#x29;" horiz-adv-x="218" d="M-26 689 C-26 682 -21 677 -14 677 C78 670 100 651 100 554 L100 101 C100 5 79 -15 -14 -22 C-21 -22 -26 -27 -26 -34 L-26 -44 C-26 -52 -21 -56 -13 -56 C103 -54 140 -21 140 110 L140 545 C140 676 103 709 -13 711 C-21 711 -26 707 -26 699 L-26 689 Z " />
<glyph glyph-name="asterisk" unicode="&#x2a;" horiz-adv-x="421" d="M202 695 C195 695 190 691 191 683 L198 565 L92 612 C85 615 79 613 76 605 L71 591 C68 583 71 578 79 575 L190 540 L115 454 C110 448 110 442 117 438 L131 427 C137 422 143 423 148 430 L211 525 L274 429 C278 423 284 422 290 427 L304 438 C310 442 310 448 306 454 L232 540 L342 575 C350 578 353 583 350 591 L345 605 C342 613 336 615 329 612 L224 566 L230 683 C230 691 226 695 218 695 L202 695 Z " />
<glyph glyph-name="plus" unicode="&#x2b;" horiz-adv-x="398" d="M192 488 C185 488 180 484 180 476 L180 324 L44 324 C36 324 32 319 32 312 L32 299 C32 292 36 288 44 288 L180 288 L180 135 C180 127 185 123 192 123 L205 123 C212 123 217 127 217 135 L217 288 L353 288 C361 288 365 292 365 299 L365 312 C365 319 361 324 353 324 L217 324 L217 476 C217 484 212 488 205 488 L192 488 Z " />
<glyph glyph-name="comma" unicode="&#x2c;" horiz-adv-x="198" d="M99 59 C79 59 68 50 68 32 L68 15 C68 1 74 -8 88 -10 L69 -89 C68 -96 71 -100 79 -100 L93 -100 C100 -100 104 -98 105 -91 L127 -16 C130 -7 132 2 132 14 L132 32 C132 50 120 59 99 59 L99 59 Z " />
<glyph glyph-name="hyphen" unicode="&#x2d;" horiz-adv-x="350" d="M88 313 C81 313 77 309 77 301 L77 290 C77 283 81 279 88 279 L262 279 C269 279 273 283 273 290 L273 301 C273 309 269 313 262 313 L88 313 Z " />
<glyph glyph-name="period" unicode="&#x2e;" horiz-adv-x="198" d="M99 59 C77 59 67 49 67 30 L67 15 C67 -3 77 -12 99 -12 C121 -12 132 -3 132 15 L132 30 C132 49 121 59 99 59 L99 59 Z " />
<glyph glyph-name="slash" unicode="&#x2f;" horiz-adv-x="255" d="M221 683 C214 683 209 680 208 673 L10 13 C7 5 11 0 19 0 L34 0 C41 0 45 3 47 10 L245 670 C248 678 243 683 235 683 L221 683 Z " />
<glyph glyph-name="zero" unicode="0" horiz-adv-x="502" d="M251 613 C141 613 77 551 77 412 L77 185 C77 46 144 -12 252 -12 C358 -12 426 50 426 187 L426 413 C426 554 362 613 251 613 L251 613 Z M251 577 C337 577 386 530 386 421 L386 182 C386 69 331 24 252 24 C171 24 117 69 117 182 L117 421 C117 529 165 577 251 577 L251 577 Z " />
<glyph glyph-name="one" unicode="1" horiz-adv-x="276" d="M161 601 C155 601 150 600 145 597 L6 536 C-1 533 -3 529 0 521 L4 507 C6 499 11 496 20 500 L148 560 L150 560 L150 12 C150 4 154 0 161 0 L178 0 C185 0 190 4 190 12 L190 589 C190 597 185 601 178 601 L161 601 Z " />
<glyph glyph-name="two" unicode="2" horiz-adv-x="400" d="M165 613 C121 613 80 604 39 594 C32 592 28 588 28 580 L28 568 C28 559 33 555 41 557 C75 566 122 577 165 577 C253 577 293 545 293 464 L293 449 C293 406 277 365 227 302 L15 37 C11 33 10 28 10 22 L10 12 C10 4 14 0 22 0 L333 0 C340 0 345 4 345 12 L345 25 C345 32 340 37 333 37 L62 37 L242 259 C316 350 333 397 333 449 L333 466 C333 567 279 613 165 613 L165 613 Z " />
<glyph glyph-name="three" unicode="3" horiz-adv-x="384" d="M166 613 C133 613 91 607 51 600 C42 599 38 595 38 588 L38 576 C38 567 42 564 51 564 C84 570 131 578 165 578 C237 578 278 540 278 467 L278 445 C278 368 240 327 182 327 L77 327 C69 327 65 323 65 315 L65 305 C65 297 69 293 77 293 L182 293 C245 293 291 249 291 175 L291 154 C291 67 250 23 166 23 C131 23 84 30 51 37 C42 38 38 34 38 25 L38 13 C38 6 41 2 48 1 C89 -7 134 -12 166 -12 C277 -12 331 49 331 163 L331 173 C331 242 296 293 243 312 C290 334 318 384 318 449 L318 459 C318 560 265 613 166 613 L166 613 Z " />
<glyph glyph-name="four" unicode="4" horiz-adv-x="405" d="M294 601 C287 601 283 599 279 593 L-5 166 C-8 161 -9 157 -9 151 L-9 141 C-9 133 -5 129 3 129 L284 129 L284 12 C284 4 288 0 296 0 L312 0 C319 0 324 4 324 12 L324 129 L372 129 C380 129 384 133 384 141 L384 153 C384 161 380 165 372 165 L324 165 L324 589 C324 597 319 601 312 601 L294 601 Z M285 543 L285 165 L36 165 L285 543 Z " />
<glyph glyph-name="five" unicode="5" horiz-adv-x="441" d="M77 604 C70 604 66 600 66 591 L66 258 C66 250 70 246 77 246 L86 246 C92 246 95 248 99 253 C148 316 202 346 256 346 C325 346 358 313 358 215 L358 176 C358 79 311 24 213 24 C181 24 125 33 86 42 C78 43 73 40 73 31 L73 17 C73 10 76 6 83 4 C121 -6 169 -12 215 -12 C337 -12 398 55 398 176 L398 212 C398 336 352 382 266 382 C204 382 146 354 104 301 L104 567 L337 567 C344 567 349 571 349 579 L349 592 C349 600 344 604 337 604 L77 604 Z " />
<glyph glyph-name="six" unicode="6" horiz-adv-x="479" d="M358 606 C153 597 76 521 76 385 L76 173 C76 48 136 -12 248 -12 C361 -12 422 53 422 173 L422 212 C422 334 367 389 280 389 C230 389 163 359 116 314 L116 389 C116 498 173 559 358 569 C366 569 370 574 370 581 L370 594 C370 602 366 606 358 606 L358 606 Z M274 352 C342 352 382 305 382 215 L382 168 C382 73 336 24 247 24 C159 24 116 74 116 172 L116 278 C161 319 228 352 274 352 L274 352 Z " />
<glyph glyph-name="seven" unicode="7" horiz-adv-x="373" d="M28 600 C21 600 17 596 17 588 L17 575 C17 568 21 563 28 563 L308 563 L308 561 L87 13 C84 6 87 0 96 0 L116 0 C123 0 127 3 130 9 L347 560 C349 566 350 571 350 577 L350 588 C350 596 346 600 339 600 L28 600 Z " />
<glyph glyph-name="eight" unicode="8" horiz-adv-x="460" d="M230 613 C132 613 72 560 72 461 L72 452 C72 397 104 344 153 323 C83 301 47 242 47 174 L47 159 C47 47 107 -12 230 -12 C352 -12 413 50 413 159 L413 174 C413 242 375 302 306 323 C355 344 388 397 388 452 L388 461 C388 561 328 613 230 613 L230 613 Z M230 579 C308 579 348 540 348 463 L348 448 C348 391 311 336 230 336 C150 336 112 390 112 448 L112 463 C112 539 153 579 230 579 L230 579 Z M230 304 C319 304 373 257 373 176 L373 150 C373 69 321 24 230 24 C139 24 87 69 87 150 L87 176 C87 257 141 304 230 304 L230 304 Z " />
<glyph glyph-name="nine" unicode="9" horiz-adv-x="475" d="M231 612 C117 612 57 548 57 427 L57 388 C57 270 113 211 203 211 C254 211 317 240 363 284 L363 201 C363 79 320 24 211 24 C184 24 126 31 95 38 C87 40 82 36 82 28 L82 15 C82 7 85 4 92 2 C123 -5 172 -12 211 -12 C349 -12 403 56 403 208 L403 422 C403 544 343 612 231 612 L231 612 Z M231 576 C319 576 363 526 363 427 L363 322 C325 287 257 248 211 248 C136 248 97 295 97 385 L97 432 C97 528 142 576 231 576 L231 576 Z " />
<glyph glyph-name="colon" unicode="&#x3a;" horiz-adv-x="198" d="M99 59 C77 59 67 49 67 30 L67 15 C67 -3 77 -12 99 -12 C121 -12 132 -3 132 15 L132 30 C132 49 121 59 99 59 L99 59 Z M99 453 C77 453 67 443 67 424 L67 409 C67 391 77 382 99 382 C121 382 132 391 132 409 L132 424 C132 443 121 453 99 453 L99 453 Z " />
<glyph glyph-name="semicolon" unicode="&#x3b;" horiz-adv-x="199" d="M98 59 C78 59 67 50 67 32 L67 15 C67 1 73 -8 87 -10 L68 -89 C67 -96 70 -100 78 -100 L92 -100 C99 -100 103 -98 104 -91 L126 -16 C129 -7 131 2 131 14 L131 32 C131 50 119 59 98 59 L98 59 Z M99 453 C77 453 67 443 67 424 L67 409 C67 391 77 382 99 382 C121 382 132 391 132 409 L132 424 C132 443 121 453 99 453 L99 453 Z " />
<glyph glyph-name="less" unicode="&#x3c;" horiz-adv-x="398" d="M37 325 C31 322 28 318 28 311 L28 292 C28 285 31 281 37 278 L355 129 C363 126 369 129 369 138 L369 155 C369 162 366 166 360 169 L67 302 L360 434 C366 437 369 441 369 448 L369 466 C369 475 363 478 355 474 L37 325 Z " />
<glyph glyph-name="equal" unicode="&#x3d;" horiz-adv-x="404" d="M48 412 C40 412 36 407 36 400 L36 389 C36 382 40 377 48 377 L356 377 C363 377 368 382 368 389 L368 400 C368 407 363 412 356 412 L48 412 Z M48 227 C40 227 36 222 36 215 L36 203 C36 196 40 192 48 192 L356 192 C363 192 368 196 368 203 L368 215 C368 222 363 227 356 227 L48 227 Z " />
<glyph glyph-name="greater" unicode="&#x3e;" horiz-adv-x="398" d="M28 448 C28 441 31 437 37 434 L330 302 L37 169 C31 166 28 162 28 155 L28 138 C28 129 34 126 42 129 L360 278 C366 281 369 285 369 292 L369 311 C369 318 367 322 360 325 L42 474 C34 478 28 475 28 466 L28 448 Z " />
<glyph glyph-name="question" unicode="&#x3f;" horiz-adv-x="396" d="M161 695 C127 695 90 690 50 682 C41 680 37 676 37 669 L37 655 C37 646 41 643 50 645 C82 652 120 660 156 660 C256 660 289 626 289 555 L289 534 C289 488 281 466 244 422 L186 354 C151 313 143 297 143 232 L143 212 C143 204 147 200 155 200 L170 200 C178 200 182 204 182 212 L182 245 C182 286 191 302 210 324 L263 386 C305 434 329 474 329 532 L329 556 C329 646 284 695 161 695 L161 695 Z M165 58 C144 58 133 49 133 29 L133 15 C133 -3 144 -12 165 -12 C187 -12 197 -3 197 15 L197 29 C197 49 187 58 165 58 L165 58 Z " />
<glyph glyph-name="at" unicode="&#x40;" horiz-adv-x="953" d="M471 695 C209 695 83 527 83 288 L83 188 C83 -52 207 -185 466 -185 L589 -185 C597 -185 601 -181 601 -173 L601 -160 C601 -152 597 -148 589 -148 L466 -148 C206 -148 123 3 123 188 L123 288 C123 477 214 658 471 658 C749 658 830 503 830 318 L830 268 C830 139 792 51 698 51 C636 51 606 105 606 149 L647 463 C648 470 644 475 635 475 L623 475 C617 475 612 471 612 464 L605 408 C579 442 523 487 461 487 C372 487 321 426 307 320 L289 182 C275 78 314 15 401 15 C463 15 531 54 575 117 C586 53 640 15 698 15 C819 15 869 119 869 268 L869 318 C869 559 750 695 471 695 L471 695 Z M464 450 C512 450 570 412 596 376 L567 145 C524 86 458 52 411 52 C344 52 318 101 330 193 L345 308 C357 397 392 450 464 450 L464 450 Z " />
<glyph glyph-name="A" unicode="A" horiz-adv-x="512" d="M235 655 C228 655 223 652 222 645 L19 13 C16 6 20 0 29 0 L48 0 C55 0 59 3 61 10 L111 171 L396 171 L450 10 C451 3 456 0 463 0 L483 0 C492 0 496 6 493 13 L281 646 C280 652 275 655 268 655 L235 655 Z M251 617 L385 209 L123 209 L251 617 Z " />
<glyph glyph-name="B" unicode="B" horiz-adv-x="527" d="M245 667 C194 667 141 664 98 662 C90 661 87 657 87 650 L87 6 C87 -2 91 -6 98 -6 C186 -11 200 -12 258 -12 C417 -12 481 57 481 161 L481 182 C481 263 430 322 350 336 C419 362 454 417 454 493 L454 508 C454 607 390 667 245 667 L245 667 Z M234 630 C364 630 414 589 414 499 L414 485 C414 412 359 349 281 349 L127 349 L127 627 C160 629 213 630 234 630 L234 630 Z M287 315 C385 315 441 259 441 184 L441 162 C441 76 388 25 258 25 C224 25 181 26 127 31 L127 315 L287 315 Z " />
<glyph glyph-name="C" unicode="C" horiz-adv-x="479" d="M282 667 C135 667 82 606 82 466 L82 188 C82 54 136 -12 281 -12 C325 -12 362 -6 402 2 C408 4 413 8 413 15 L412 30 C411 39 406 42 399 40 C367 34 329 27 283 26 C168 24 122 77 122 185 L122 469 C122 587 166 630 281 630 C326 630 367 622 398 616 C406 614 410 618 411 627 L412 641 C412 649 408 652 401 654 C362 662 325 667 282 667 L282 667 Z " />
<glyph glyph-name="D" unicode="D" horiz-adv-x="570" d="M246 667 C194 667 137 665 96 662 C89 662 87 658 87 650 L87 5 C87 -3 91 -7 98 -7 C145 -10 194 -12 250 -12 C413 -12 494 76 494 232 L494 416 C494 587 407 667 246 667 L246 667 Z M243 631 C384 631 454 563 454 418 L454 228 C454 96 380 25 250 25 C216 25 180 26 127 31 L127 627 C159 629 205 631 243 631 L243 631 Z " />
<glyph glyph-name="E" unicode="E" horiz-adv-x="477" d="M98 655 C91 655 87 651 87 643 L87 12 C87 4 91 0 98 0 L389 0 C396 0 401 4 401 12 L401 26 C401 33 396 37 389 37 L127 37 L127 314 L369 314 C376 314 381 319 381 326 L381 340 C381 347 376 352 369 352 L127 352 L127 618 L389 618 C396 618 401 622 401 629 L401 643 C401 651 396 655 389 655 L98 655 Z " />
<glyph glyph-name="F" unicode="F" horiz-adv-x="452" d="M98 655 C91 655 87 651 87 643 L87 12 C87 4 91 0 98 0 L115 0 C122 0 127 4 127 12 L127 314 L322 314 C330 314 334 319 334 326 L334 340 C334 347 330 352 322 352 L127 352 L127 618 L389 618 C396 618 401 622 401 629 L401 643 C401 651 396 655 389 655 L98 655 Z " />
<glyph glyph-name="G" unicode="G" horiz-adv-x="557" d="M283 667 C137 667 82 610 82 473 L82 182 C82 51 137 -12 282 -12 C343 -12 408 3 460 18 C469 20 472 24 472 34 L472 350 C472 357 467 362 460 362 L311 362 C303 362 299 357 299 350 L299 335 C299 328 303 324 311 324 L432 324 L432 47 C376 33 323 25 282 25 C168 25 122 70 122 175 L122 483 C122 586 164 630 283 630 C331 630 389 621 429 613 C438 612 442 616 442 624 L442 638 C443 645 440 649 432 650 C387 659 326 667 283 667 L283 667 Z " />
<glyph glyph-name="H" unicode="H" horiz-adv-x="579" d="M464 655 C457 655 453 651 453 643 L453 357 L127 357 L127 643 C127 651 122 655 115 655 L98 655 C91 655 87 651 87 643 L87 12 C87 4 91 0 98 0 L115 0 C122 0 127 4 127 12 L127 320 L453 320 L453 12 C453 4 457 0 464 0 L481 0 C488 0 493 4 493 12 L493 643 C493 651 488 655 481 655 L464 655 Z " />
<glyph glyph-name="I" unicode="I" horiz-adv-x="213" d="M98 655 C91 655 87 651 87 643 L87 12 C87 4 91 0 98 0 L115 0 C122 0 127 4 127 12 L127 643 C127 651 122 655 115 655 L98 655 Z " />
<glyph glyph-name="J" unicode="J" horiz-adv-x="272" d="M157 655 C150 655 146 651 146 643 L146 113 C146 50 120 25 73 25 C49 25 29 28 16 31 C7 32 3 28 3 19 L3 7 C3 -1 7 -5 14 -6 C28 -9 53 -12 69 -12 C150 -12 186 25 186 114 L186 643 C186 651 181 655 174 655 L157 655 Z " />
<glyph glyph-name="K" unicode="K" horiz-adv-x="498" d="M438 655 C432 655 427 653 423 649 L127 339 L127 643 C127 651 122 655 115 655 L98 655 C91 655 87 651 87 643 L87 12 C87 4 91 0 98 0 L115 0 C122 0 127 4 127 12 L127 330 L441 6 C446 2 450 0 456 0 L482 0 C492 0 495 7 488 15 L173 337 L465 640 C472 648 469 655 458 655 L438 655 Z " />
<glyph glyph-name="L" unicode="L" horiz-adv-x="443" d="M98 655 C91 655 87 651 87 643 L87 12 C87 4 91 0 98 0 L393 0 C401 0 405 4 405 12 L405 25 C405 33 401 37 393 37 L127 37 L127 643 C127 651 122 655 115 655 L98 655 Z " />
<glyph glyph-name="M" unicode="M" horiz-adv-x="698" d="M605 0 C612 0 617 4 617 12 L611 643 C611 651 607 655 600 655 L560 655 C553 655 549 652 547 646 L350 108 L152 646 C150 652 146 655 139 655 L99 655 C91 655 87 651 87 643 L82 12 C82 4 86 0 93 0 L110 0 C118 0 122 4 122 12 L127 599 L320 77 C321 71 326 68 333 68 L365 68 C373 68 377 71 379 77 L571 599 L576 12 C576 4 581 0 588 0 L605 0 Z " />
<glyph glyph-name="N" unicode="N" horiz-adv-x="582" d="M484 0 C491 0 495 4 495 12 L495 643 C495 651 491 655 484 655 L467 655 C460 655 456 651 456 643 L456 53 L152 646 C149 652 145 655 139 655 L98 655 C91 655 87 651 87 643 L87 12 C87 4 91 0 98 0 L115 0 C122 0 126 4 126 12 L126 606 L434 9 C437 3 441 0 447 0 L484 0 Z " />
<glyph glyph-name="O" unicode="O" horiz-adv-x="576" d="M288 667 C138 667 82 589 82 451 L82 204 C82 60 144 -12 288 -12 C429 -12 494 60 494 204 L494 451 C494 589 437 667 288 667 L288 667 Z M288 631 C400 631 454 575 454 460 L454 195 C454 80 400 24 288 24 C176 24 122 80 122 195 L122 461 C122 576 176 631 288 631 L288 631 Z " />
<glyph glyph-name="P" unicode="P" horiz-adv-x="506" d="M247 667 C184 667 133 664 96 662 C90 662 87 658 87 650 L87 12 C87 4 91 0 98 0 L115 0 C122 0 127 4 127 12 L127 279 C183 271 218 267 254 267 C398 267 468 339 468 466 L468 486 C468 606 397 667 247 667 L247 667 Z M246 631 C372 631 428 582 428 483 L428 467 C428 362 374 304 252 304 C210 304 172 308 127 315 L127 627 C153 628 201 631 246 631 L246 631 Z " />
<glyph glyph-name="Q" unicode="Q" horiz-adv-x="576" d="M288 667 C138 667 82 589 82 451 L82 204 C82 60 144 -12 288 -12 C310 -12 333 -10 352 -5 L489 -58 C508 -65 512 -66 516 -66 C521 -66 525 -62 525 -55 L525 -40 C525 -33 522 -30 515 -28 L396 12 C462 44 494 104 494 204 L494 451 C494 589 437 667 288 667 L288 667 Z M288 631 C400 631 454 575 454 460 L454 195 C454 79 401 24 288 24 C176 24 122 80 122 195 L122 461 C122 576 176 631 288 631 L288 631 Z " />
<glyph glyph-name="R" unicode="R" horiz-adv-x="538" d="M248 667 C199 667 154 666 99 663 C91 663 87 659 87 651 L87 12 C87 4 91 0 98 0 L115 0 C122 0 127 4 127 12 L127 286 C202 280 263 280 304 286 L462 8 C465 3 469 0 476 0 L496 0 C505 0 509 6 503 14 L343 293 C423 317 466 380 466 467 L466 490 C466 601 398 667 248 667 L248 667 Z M246 631 C371 631 426 582 426 486 L426 469 C426 368 372 317 249 317 C220 317 171 319 127 322 L127 627 C154 628 224 631 246 631 L246 631 Z " />
<glyph glyph-name="S" unicode="S" horiz-adv-x="453" d="M237 667 C110 667 57 614 57 503 L57 485 C57 401 91 361 170 334 L279 298 C345 275 370 242 370 182 L370 148 C370 65 326 26 214 26 C173 26 125 34 87 44 C80 45 75 42 75 33 L74 17 C74 10 77 6 84 5 C125 -5 180 -12 214 -12 C357 -12 410 43 410 156 L410 175 C410 263 379 306 298 333 L200 365 C118 392 97 424 97 482 L97 509 C97 589 132 630 237 630 C276 630 315 624 349 617 C358 616 362 620 363 628 L363 642 C363 650 359 653 352 655 C313 663 270 667 237 667 L237 667 Z " />
<glyph glyph-name="T" unicode="T" horiz-adv-x="519" d="M50 655 C42 655 38 651 38 643 L38 629 C38 622 42 618 50 618 L239 618 L239 12 C239 4 244 0 251 0 L268 0 C275 0 279 4 279 12 L279 618 L469 618 C477 618 481 622 481 629 L481 643 C481 651 477 655 469 655 L50 655 Z " />
<glyph glyph-name="U" unicode="U" horiz-adv-x="578" d="M462 655 C454 655 450 651 450 643 L450 194 C450 83 395 26 289 26 C182 26 127 83 127 194 L127 643 C127 651 123 655 116 655 L98 655 C91 655 87 651 87 643 L87 202 C87 57 157 -12 289 -12 C421 -12 491 62 491 204 L491 643 C491 651 487 655 479 655 L462 655 Z " />
<glyph glyph-name="V" unicode="V" horiz-adv-x="514" d="M462 655 C455 655 450 652 449 645 L257 41 L66 645 C65 652 60 655 53 655 L33 655 C24 655 20 649 23 642 L225 10 C227 3 231 0 238 0 L274 0 C281 0 285 3 287 10 L491 642 C494 649 490 655 481 655 L462 655 Z " />
<glyph glyph-name="W" unicode="W" horiz-adv-x="832" d="M770 655 C763 655 758 652 757 645 L610 44 L448 645 C447 652 442 655 435 655 L397 655 C390 655 386 652 384 645 L224 44 L76 645 C74 652 70 655 63 655 L42 655 C34 655 30 650 32 642 L190 10 C191 3 196 0 203 0 L242 0 C249 0 253 3 255 10 L416 609 L579 10 C580 3 584 0 592 0 L631 0 C638 0 642 3 644 10 L801 642 C802 650 799 655 790 655 L770 655 Z " />
<glyph glyph-name="X" unicode="X" horiz-adv-x="491" d="M425 655 C419 655 414 652 411 647 L248 370 L83 647 C80 652 75 655 69 655 L46 655 C37 655 33 649 38 641 L221 336 L27 14 C22 6 26 0 35 0 L58 0 C65 0 69 3 72 8 L245 302 L419 8 C422 3 426 0 432 0 L456 0 C466 0 470 6 464 14 L272 337 L454 641 C459 649 455 655 446 655 L425 655 Z " />
<glyph glyph-name="Y" unicode="Y" horiz-adv-x="463" d="M409 655 C402 655 397 652 394 646 L232 270 L70 646 C67 652 63 655 56 655 L33 655 C24 655 21 649 24 642 L212 225 L212 12 C212 4 216 0 223 0 L240 0 C247 0 252 4 252 12 L252 225 L439 642 C442 649 439 655 430 655 L409 655 Z " />
<glyph glyph-name="Z" unicode="Z" horiz-adv-x="472" d="M66 655 C58 655 54 651 54 643 L54 629 C54 622 58 618 66 618 L372 618 L52 39 C49 34 48 30 48 24 L48 12 C48 4 52 0 60 0 L408 0 C415 0 419 4 419 12 L419 26 C419 33 415 37 408 37 L96 37 L415 616 C418 621 419 625 419 631 L419 643 C419 651 415 655 408 655 L66 655 Z " />
<glyph glyph-name="bracketleft" unicode="&#x5b;" horiz-adv-x="229" d="M93 712 C86 712 82 708 82 700 L82 -45 C82 -53 86 -57 93 -57 L240 -57 C247 -57 252 -53 252 -45 L252 -34 C252 -26 247 -22 240 -22 L122 -22 L122 677 L240 677 C247 677 252 681 252 689 L252 700 C252 708 247 712 240 712 L93 712 Z " />
<glyph glyph-name="backslash" unicode="&#x5c;" horiz-adv-x="255" d="M19 683 C11 683 7 678 10 670 L208 10 C209 3 214 0 221 0 L235 0 C243 0 248 5 245 13 L47 673 C45 680 41 683 34 683 L19 683 Z " />
<glyph glyph-name="bracketright" unicode="&#x5d;" horiz-adv-x="229" d="M-11 712 C-18 712 -23 708 -23 700 L-23 689 C-23 681 -18 677 -11 677 L107 677 L107 -22 L-11 -22 C-18 -22 -23 -26 -23 -34 L-23 -45 C-23 -53 -18 -57 -11 -57 L136 -57 C143 -57 147 -53 147 -45 L147 700 C147 708 143 712 136 712 L-11 712 Z " />
<glyph glyph-name="asciicircum" unicode="&#x5e;" horiz-adv-x="471" d="M227 683 C220 683 216 680 213 674 L84 417 C80 410 83 404 93 404 L105 404 C112 404 116 407 119 412 L235 647 L351 412 C354 407 358 404 365 404 L378 404 C388 404 391 410 387 417 L257 674 C254 680 250 683 243 683 L227 683 Z " />
<glyph glyph-name="underscore" unicode="&#x5f;" horiz-adv-x="610" d="M88 -150 C81 -150 77 -155 77 -162 L77 -173 C77 -181 81 -185 88 -185 L522 -185 C529 -185 533 -181 533 -173 L533 -162 C533 -155 529 -150 522 -150 L88 -150 Z " />
<glyph glyph-name="grave" unicode="&#x60;" horiz-adv-x="180" d="M46 673 C37 673 34 668 38 660 L110 553 C113 548 117 546 122 546 L135 546 C143 546 147 551 142 559 L81 666 C78 671 74 673 69 673 L46 673 Z " />
<glyph glyph-name="a" unicode="a" horiz-adv-x="457" d="M232 500 C198 500 152 493 111 486 C103 485 99 481 99 473 L99 459 C99 451 103 447 112 449 C147 455 195 463 232 463 C309 463 336 434 336 353 L336 286 C302 292 246 299 212 299 C115 299 61 238 61 160 L61 134 C61 39 108 -12 184 -12 C241 -12 291 21 339 99 L339 12 C339 4 344 0 351 0 L364 0 C372 0 376 4 376 12 L376 351 C376 462 335 500 232 500 L232 500 Z M226 264 C252 264 305 259 336 253 L336 142 C301 77 242 26 194 26 C137 26 102 61 102 141 L102 152 C102 222 141 264 226 264 L226 264 Z " />
<glyph glyph-name="b" unicode="b" horiz-adv-x="479" d="M92 683 C85 683 81 679 81 671 L81 160 C81 41 132 -12 242 -12 C352 -12 403 46 403 167 L403 328 C403 452 357 500 279 500 C215 500 159 453 121 393 L121 671 C121 679 117 683 109 683 L92 683 Z M272 463 C329 463 363 426 363 321 L363 158 C363 68 323 23 241 23 C166 23 121 64 121 158 L121 345 C156 409 216 463 272 463 L272 463 Z " />
<glyph glyph-name="c" unicode="c" horiz-adv-x="393" d="M234 500 C128 500 76 442 76 323 L76 165 C76 45 128 -12 239 -12 C270 -12 289 -9 320 -2 C329 0 332 4 331 12 L330 25 C329 34 325 37 316 36 C289 28 270 25 240 25 C159 25 116 67 116 164 L116 327 C116 422 159 463 233 463 C261 463 286 459 316 452 C326 450 330 453 330 462 L331 474 C332 482 329 486 322 488 C291 495 260 500 234 500 L234 500 Z " />
<glyph glyph-name="d" unicode="d" horiz-adv-x="484" d="M369 683 C362 683 357 679 357 671 L357 433 C327 461 275 500 214 500 C126 500 76 440 76 334 L76 152 C76 36 122 -12 200 -12 C263 -12 322 43 361 116 L361 12 C361 4 365 0 373 0 L386 0 C394 0 398 4 398 12 L398 671 C398 679 394 683 386 683 L369 683 Z M221 463 C272 463 327 427 357 393 L357 158 C323 91 269 25 210 25 C153 25 116 57 116 160 L116 327 C116 420 155 463 221 463 L221 463 Z " />
<glyph glyph-name="e" unicode="e" horiz-adv-x="459" d="M235 500 C127 500 76 441 76 320 L76 160 C76 37 123 -12 248 -12 C282 -12 326 -6 367 3 C374 5 378 9 377 16 L376 31 C375 39 371 43 363 41 C330 34 288 26 249 26 C155 26 116 58 116 157 L116 238 L373 238 C389 238 395 244 395 260 L395 319 C395 444 338 500 235 500 L235 500 Z M234 464 C310 464 355 423 355 326 L355 273 L116 273 L116 329 C116 423 155 464 234 464 L234 464 Z " />
<glyph glyph-name="f" unicode="f" horiz-adv-x="299" d="M228 695 C155 695 116 655 116 555 L116 488 L57 488 C50 488 46 484 46 476 L46 466 C46 458 50 454 57 454 L116 454 L116 12 C116 4 120 0 127 0 L144 0 C152 0 156 4 156 12 L156 454 L237 454 C244 454 249 458 249 466 L249 476 C249 484 244 488 237 488 L156 488 L156 561 C156 632 182 660 228 660 C242 660 261 658 276 655 C285 654 288 657 288 666 L288 677 C288 684 286 688 279 689 C260 693 241 695 228 695 L228 695 Z " />
<glyph glyph-name="g" unicode="g" horiz-adv-x="472" d="M230 500 C111 500 70 433 70 344 L70 322 C70 260 79 218 105 192 C76 174 61 149 61 116 L61 98 C61 51 83 22 145 18 L293 8 C355 4 373 -13 373 -63 L373 -82 C373 -137 351 -160 236 -160 C186 -160 135 -151 92 -139 C83 -136 78 -139 78 -148 L77 -164 C77 -172 80 -176 87 -178 C129 -188 189 -197 233 -197 C377 -197 412 -159 412 -89 L412 -53 C412 4 379 38 321 43 L155 55 C113 58 98 71 98 104 L98 120 C98 141 109 163 129 176 C153 162 185 157 228 157 C342 157 389 227 389 319 L389 341 C389 375 381 431 365 454 L442 452 C451 452 454 457 454 464 L454 477 C454 485 451 488 443 488 L329 485 C306 494 270 500 230 500 L230 500 Z M230 465 C274 465 310 459 333 452 C344 424 349 390 349 343 L349 313 C349 236 309 192 224 192 C136 192 110 221 110 313 L110 346 C110 429 152 465 230 465 L230 465 Z " />
<glyph glyph-name="h" unicode="h" horiz-adv-x="489" d="M97 683 C90 683 86 679 86 671 L86 12 C86 4 90 0 97 0 L114 0 C121 0 126 4 126 12 L126 343 C162 416 220 462 278 462 C337 462 368 430 368 326 L368 12 C368 4 373 0 380 0 L396 0 C404 0 408 4 408 12 L408 331 C408 452 368 500 284 500 C222 500 168 463 126 390 L126 671 C126 679 121 683 114 683 L97 683 Z " />
<glyph glyph-name="i" unicode="i" horiz-adv-x="211" d="M97 488 C90 488 86 484 86 476 L86 12 C86 4 90 0 97 0 L114 0 C121 0 126 4 126 12 L126 476 C126 484 121 488 114 488 L97 488 Z M105 648 C86 648 75 638 75 621 L75 604 C75 586 86 577 105 577 C126 577 137 586 137 604 L137 621 C137 638 126 648 105 648 L105 648 Z " />
<glyph glyph-name="j" unicode="j" horiz-adv-x="211" d="M97 488 C90 488 86 484 86 476 L86 -89 C86 -137 63 -160 24 -160 C6 -160 -3 -159 -20 -156 C-28 -155 -32 -159 -32 -168 L-32 -181 C-32 -188 -29 -192 -22 -193 C-12 -195 4 -197 20 -197 C96 -197 126 -161 126 -82 L126 476 C126 484 121 488 114 488 L97 488 Z M105 648 C86 648 75 638 75 621 L75 604 C75 586 86 577 105 577 C126 577 137 586 137 604 L137 621 C137 638 126 648 105 648 L105 648 Z " />
<glyph glyph-name="k" unicode="k" horiz-adv-x="405" d="M97 683 C90 683 86 679 86 671 L86 12 C86 4 90 0 97 0 L114 0 C121 0 126 4 126 12 L126 264 L335 7 C339 2 342 0 349 0 L374 0 C384 0 387 7 380 14 L167 272 L367 473 C373 481 370 488 360 488 L338 488 C332 488 328 486 324 482 L126 277 L126 671 C126 679 121 683 114 683 L97 683 Z " />
<glyph glyph-name="l" unicode="l" horiz-adv-x="211" d="M97 683 C90 683 86 679 86 671 L86 12 C86 4 90 0 97 0 L114 0 C121 0 126 4 126 12 L126 671 C126 679 121 683 114 683 L97 683 Z " />
<glyph glyph-name="m" unicode="m" horiz-adv-x="767" d="M560 500 C498 500 443 461 400 385 C389 466 350 500 282 500 C221 500 165 460 122 385 L122 476 C122 484 118 488 110 488 L97 488 C90 488 86 484 86 476 L86 12 C86 4 90 0 97 0 L114 0 C121 0 126 4 126 12 L126 343 C162 416 220 462 276 462 C334 462 364 430 364 326 L364 12 C364 4 368 0 376 0 L392 0 C399 0 404 4 404 12 L404 342 C440 416 498 462 554 462 C612 462 642 430 642 326 L642 12 C642 4 646 0 654 0 L670 0 C678 0 682 4 682 12 L682 331 C682 452 643 500 560 500 L560 500 Z " />
<glyph glyph-name="n" unicode="n" horiz-adv-x="494" d="M284 500 C221 500 165 460 122 385 L122 476 C122 484 118 488 110 488 L97 488 C90 488 86 484 86 476 L86 12 C86 4 90 0 97 0 L114 0 C121 0 126 4 126 12 L126 343 C162 416 220 462 278 462 C338 462 368 430 368 326 L368 12 C368 4 373 0 380 0 L396 0 C404 0 408 4 408 12 L408 331 C408 452 368 500 284 500 L284 500 Z " />
<glyph glyph-name="o" unicode="o" horiz-adv-x="481" d="M240 500 C129 500 76 440 76 317 L76 171 C76 49 127 -12 240 -12 C350 -12 405 52 405 171 L405 317 C405 441 351 500 240 500 L240 500 Z M240 464 C321 464 364 419 364 325 L364 164 C364 70 320 24 240 24 C160 24 116 69 116 164 L116 324 C116 417 157 464 240 464 L240 464 Z " />
<glyph glyph-name="p" unicode="p" horiz-adv-x="482" d="M281 500 C216 500 158 450 121 386 L121 476 C121 484 116 488 109 488 L97 488 C90 488 86 484 86 476 L86 -173 C86 -181 90 -185 97 -185 L114 -185 C121 -185 126 -181 126 -173 L126 43 C167 11 229 -12 273 -12 C359 -12 406 41 406 155 L406 328 C406 452 360 500 281 500 L281 500 Z M275 463 C332 463 366 425 366 322 L366 160 C366 64 333 25 264 25 C225 25 164 49 126 81 L126 347 C160 410 220 463 275 463 L275 463 Z " />
<glyph glyph-name="q" unicode="q" horiz-adv-x="485" d="M214 500 C126 500 76 440 76 334 L76 152 C76 36 121 -12 200 -12 C262 -12 319 40 358 112 L358 -173 C358 -181 363 -185 370 -185 L387 -185 C395 -185 399 -181 399 -173 L399 476 C399 484 395 488 387 488 L373 488 C366 488 361 484 361 476 L361 429 C331 458 278 500 214 500 L214 500 Z M221 463 C273 463 328 426 358 393 L358 160 C324 92 269 25 210 25 C152 25 116 58 116 159 L116 327 C116 420 155 463 221 463 L221 463 Z " />
<glyph glyph-name="r" unicode="r" horiz-adv-x="337" d="M283 500 C210 500 163 461 122 387 L122 476 C122 484 118 488 110 488 L97 488 C90 488 86 484 86 476 L86 12 C86 4 90 0 97 0 L114 0 C121 0 126 4 126 12 L126 344 C159 412 209 456 264 456 C275 456 282 455 289 454 C297 453 301 457 301 465 L301 486 C301 495 297 500 283 500 L283 500 Z " />
<glyph glyph-name="s" unicode="s" horiz-adv-x="381" d="M201 500 C96 500 52 457 52 376 L52 362 C52 318 78 281 132 258 L237 213 C282 194 299 170 299 122 L299 109 C299 53 271 25 185 25 C153 25 112 33 82 42 C73 45 68 41 68 32 L67 17 C66 11 69 6 76 4 C111 -5 153 -12 186 -12 C294 -12 338 30 338 110 L338 135 C338 183 312 223 258 246 L157 290 C107 311 91 334 91 370 L91 379 C91 437 121 464 203 464 C225 464 256 460 281 453 C290 450 294 455 294 463 L294 477 C294 484 291 488 284 489 C254 496 223 500 201 500 L201 500 Z " />
<glyph glyph-name="t" unicode="t" horiz-adv-x="336" d="M117 618 C111 618 108 614 107 607 L101 488 L42 488 C35 488 31 484 31 476 L31 466 C31 458 35 454 42 454 L101 454 L101 135 C101 21 132 -12 223 -12 C245 -12 276 -7 296 -2 C303 -1 306 3 306 11 L305 24 C304 32 300 36 292 34 C272 29 247 25 222 25 C168 25 141 45 141 128 L141 454 L274 454 C282 454 286 458 286 466 L286 476 C286 484 282 488 274 488 L141 488 L141 606 C141 614 137 618 129 618 L117 618 Z " />
<glyph glyph-name="u" unicode="u" horiz-adv-x="488" d="M374 488 C367 488 362 484 362 476 L362 145 C325 71 268 26 213 26 C155 26 126 58 126 163 L126 476 C126 484 121 488 114 488 L97 488 C90 488 86 484 86 476 L86 157 C86 35 126 -12 207 -12 C268 -12 322 26 366 103 L366 12 C366 4 370 0 378 0 L390 0 C398 0 402 4 402 12 L402 476 C402 484 398 488 390 488 L374 488 Z " />
<glyph glyph-name="v" unicode="v" horiz-adv-x="424" d="M374 488 C367 488 363 485 361 479 L212 39 L63 479 C62 485 57 488 50 488 L32 488 C23 488 19 482 22 475 L183 9 C185 3 190 0 197 0 L227 0 C234 0 238 3 240 9 L402 475 C405 482 401 488 392 488 L374 488 Z " />
<glyph glyph-name="w" unicode="w" horiz-adv-x="666" d="M606 488 C599 488 594 485 593 478 L493 43 L361 478 C360 485 355 488 348 488 L318 488 C310 488 306 485 305 478 L172 42 L73 478 C71 485 67 488 60 488 L41 488 C33 488 29 483 31 475 L141 10 C142 3 147 0 154 0 L185 0 C192 0 197 3 198 10 L333 447 L466 10 C468 3 472 0 479 0 L511 0 C518 0 522 3 524 10 L635 475 C637 483 633 488 625 488 L606 488 Z " />
<glyph glyph-name="x" unicode="x" horiz-adv-x="393" d="M330 488 C324 488 320 485 317 480 L197 282 L76 480 C73 485 69 488 63 488 L41 488 C32 488 28 482 33 474 L171 253 L21 14 C17 6 20 0 29 0 L52 0 C58 0 62 3 65 8 L195 225 L327 8 C330 3 334 0 341 0 L364 0 C373 0 376 6 372 14 L221 253 L359 474 C364 482 361 488 351 488 L330 488 Z " />
<glyph glyph-name="y" unicode="y" horiz-adv-x="428" d="M378 488 C371 488 366 485 365 479 L207 28 L63 478 C62 485 57 488 50 488 L32 488 C23 488 19 482 22 475 L173 10 C176 3 180 0 187 0 L197 0 L135 -172 C132 -179 136 -185 145 -185 L161 -185 C168 -185 172 -182 174 -176 L406 475 C409 482 405 488 396 488 L378 488 Z " />
<glyph glyph-name="z" unicode="z" horiz-adv-x="403" d="M63 488 C55 488 51 484 51 476 L51 463 C51 456 55 451 63 451 L302 451 L52 39 C47 32 47 28 47 22 L47 12 C47 4 51 0 58 0 L340 0 C347 0 352 4 352 12 L352 26 C352 33 347 37 340 37 L96 37 L344 446 C349 454 351 458 351 466 L351 476 C351 484 347 488 339 488 L63 488 Z " />
<glyph glyph-name="braceleft" unicode="&#x7b;" horiz-adv-x="239" d="M252 711 C133 709 99 678 99 545 L99 443 C99 381 82 346 35 346 L21 346 C13 346 9 341 9 334 L9 322 C9 314 13 310 21 310 L35 310 C82 310 99 274 99 213 L99 110 C99 -22 133 -54 252 -56 C260 -56 264 -51 264 -44 L264 -34 C264 -26 260 -22 253 -22 C158 -18 139 3 139 99 L139 213 C139 281 122 314 81 328 C121 341 139 375 139 443 L139 556 C139 651 157 673 253 677 C260 677 264 681 264 689 L264 699 C264 706 260 711 252 711 L252 711 Z " />
<glyph glyph-name="bar" unicode="&#x7c;" horiz-adv-x="204" d="M93 722 C86 722 82 718 82 711 L82 -55 C82 -62 86 -67 93 -67 L111 -67 C118 -67 122 -62 122 -55 L122 711 C122 718 118 722 111 722 L93 722 Z " />
<glyph glyph-name="braceright" unicode="&#x7d;" horiz-adv-x="239" d="M-25 689 C-25 681 -21 677 -13 677 C82 673 100 651 100 556 L100 443 C100 375 118 341 158 328 C118 314 100 281 100 213 L100 99 C100 3 81 -18 -13 -22 C-21 -22 -25 -26 -25 -34 L-25 -44 C-25 -51 -21 -56 -13 -56 C106 -54 140 -22 140 110 L140 213 C140 274 157 310 205 310 L218 310 C226 310 230 314 230 322 L230 334 C230 341 226 346 218 346 L205 346 C157 346 140 381 140 443 L140 545 C140 678 106 709 -13 711 C-21 711 -25 706 -25 699 L-25 689 Z " />
<glyph glyph-name="asciitilde" unicode="&#x7e;" horiz-adv-x="398" d="M130 338 C91 338 56 324 42 317 C36 314 34 310 34 304 L34 289 C34 281 39 277 47 280 C65 288 101 298 128 298 C192 298 201 266 268 266 C307 266 342 280 356 286 C362 289 364 294 364 300 L364 314 C364 323 358 327 351 323 C332 316 297 305 270 305 C207 305 197 338 130 338 L130 338 Z " />
<glyph glyph-name="uni00A0" unicode="&#xa0;" horiz-adv-x="242" d="" />
<glyph glyph-name="exclamdown" unicode="&#xa1;" horiz-adv-x="192" d="M107 -185 C115 -185 119 -181 119 -173 L115 298 C115 306 111 310 103 310 L89 310 C82 310 77 306 77 298 L74 -173 C74 -181 78 -185 85 -185 L107 -185 Z M96 452 C118 452 128 461 128 481 L128 495 C128 513 118 522 96 522 C75 522 64 513 64 495 L64 481 C64 461 75 452 96 452 L96 452 Z " />
<glyph glyph-name="cent" unicode="&#xa2;" horiz-adv-x="388" d="M216 576 C209 576 204 572 204 564 L204 498 C111 490 67 432 67 323 L67 165 C67 56 109 -1 204 -10 L204 -76 C204 -84 209 -88 216 -88 L230 -88 C237 -88 241 -84 241 -76 L241 -12 C267 -12 287 -8 315 -3 C322 -2 326 2 326 10 L325 22 C324 31 320 34 311 33 C284 27 262 25 233 25 C150 25 107 67 107 164 L107 327 C107 422 151 463 228 463 C255 463 282 460 312 455 C320 455 323 458 324 466 L325 478 C326 486 322 490 315 491 C290 496 262 499 241 500 L241 564 C241 572 237 576 230 576 L216 576 Z " />
<glyph glyph-name="sterling" unicode="&#xa3;" horiz-adv-x="387" d="M235 613 C136 613 89 565 89 458 L89 358 L31 358 C23 358 19 354 19 346 L19 334 C19 326 23 322 31 322 L89 322 L89 150 C89 114 77 68 54 37 C50 32 49 28 49 22 L49 12 C49 4 53 0 61 0 L366 0 C374 0 378 4 378 12 L378 25 C378 32 374 37 366 37 L91 37 C118 67 130 105 130 161 L130 322 L241 322 C249 322 253 326 253 334 L253 346 C253 354 249 358 241 358 L130 358 L130 460 C130 545 161 577 244 577 C266 577 296 573 314 569 C323 568 328 571 328 580 L328 591 C328 599 324 602 317 604 C293 609 262 613 235 613 L235 613 Z " />
<glyph glyph-name="currency" unicode="&#xa4;" horiz-adv-x="478" d="M354 447 C329 478 291 494 238 494 C186 494 146 478 120 447 L71 498 C65 504 59 504 53 498 L45 490 C39 484 39 478 45 472 L98 418 C87 393 81 361 81 328 L81 298 C81 260 88 225 103 198 L46 143 C40 137 40 131 46 126 L55 116 C61 111 66 111 72 116 L126 170 C151 144 187 131 235 131 C283 131 321 145 347 171 L402 116 C407 110 413 110 419 116 L427 124 C433 130 433 136 427 141 L369 197 C384 224 392 259 392 298 L392 328 C392 360 386 391 375 416 L432 471 C438 477 438 482 432 488 L423 497 C417 503 411 503 405 497 L354 447 Z M238 458 C325 458 353 402 353 328 L353 298 C353 223 322 167 236 167 C149 167 119 223 119 298 L119 328 C119 402 151 458 238 458 L238 458 Z " />
<glyph glyph-name="yen" unicode="&#xa5;" horiz-adv-x="396" d="M357 601 C350 601 346 598 343 592 L199 261 L54 592 C51 598 47 601 40 601 L18 601 C9 601 6 595 9 588 L166 248 L85 248 C77 248 73 244 73 236 L73 226 C73 218 77 214 85 214 L178 214 L178 148 L85 148 C77 148 73 144 73 136 L73 125 C73 117 77 113 85 113 L178 113 L178 12 C178 4 182 0 190 0 L206 0 C214 0 218 4 218 12 L218 113 L312 113 C319 113 324 117 324 125 L324 136 C324 144 319 148 312 148 L218 148 L218 214 L312 214 C319 214 324 218 324 226 L324 236 C324 244 319 248 312 248 L229 248 L387 588 C390 595 387 601 378 601 L357 601 Z " />
<glyph glyph-name="brokenbar" unicode="&#xa6;" horiz-adv-x="204" d="M93 722 C86 722 82 718 82 711 L82 403 C82 395 86 391 93 391 L111 391 C118 391 122 395 122 403 L122 711 C122 718 118 722 111 722 L93 722 Z M93 264 C86 264 82 260 82 253 L82 -55 C82 -62 86 -67 93 -67 L111 -67 C118 -67 122 -62 122 -55 L122 253 C122 260 118 264 111 264 L93 264 Z " />
<glyph glyph-name="section" unicode="&#xa7;" horiz-adv-x="466" d="M244 695 C132 695 91 646 91 569 L91 537 C91 491 110 454 191 428 C105 423 61 381 61 315 L61 274 C61 221 86 192 158 166 L265 129 C316 111 341 90 341 43 L341 13 C341 -51 310 -79 219 -79 C177 -79 149 -74 119 -67 C111 -65 106 -69 105 -77 L105 -94 C105 -100 109 -105 115 -107 C153 -114 179 -119 219 -119 C344 -119 381 -73 381 13 L381 52 C381 99 359 133 288 156 C371 170 411 219 411 271 L411 305 C411 352 379 391 315 416 L208 459 C143 485 132 503 132 541 L132 569 C132 627 163 659 248 659 C276 659 298 656 326 651 C335 649 339 653 339 662 L340 673 C341 680 337 685 330 686 C293 693 274 695 244 695 L244 695 Z M275 392 C345 366 371 342 371 296 L371 270 C371 225 321 183 239 178 L198 192 C142 212 102 233 102 272 L102 313 C102 371 135 402 244 403 L275 392 Z " />
<glyph glyph-name="dieresis" unicode="&#xa8;" horiz-adv-x="241" d="M57 642 C41 642 30 633 30 619 L30 602 C30 588 41 579 57 579 C74 579 86 588 86 602 L86 619 C86 633 74 642 57 642 L57 642 Z M182 642 C166 642 155 633 155 619 L155 602 C155 588 166 579 182 579 C200 579 211 588 211 602 L211 619 C211 633 200 642 182 642 L182 642 Z " />
<glyph glyph-name="copyright" unicode="&#xa9;" horiz-adv-x="646" d="M323 616 C143 616 82 528 82 404 L82 197 C82 73 143 -15 323 -15 C503 -15 564 73 564 197 L564 404 C564 528 503 616 323 616 L323 616 Z M323 581 C463 581 528 519 528 416 L528 186 C528 83 463 20 323 20 C183 20 119 83 119 186 L119 415 C119 518 183 581 323 581 L323 581 Z M334 481 C247 481 207 426 207 321 L207 279 C207 174 250 128 334 128 C359 128 372 129 400 135 C407 136 411 141 411 148 L410 160 C409 168 405 171 396 170 C371 166 357 164 335 164 C276 164 247 192 247 275 L247 327 C247 411 278 445 334 445 C356 445 370 445 396 440 C405 438 410 443 410 450 L410 461 C410 468 407 473 400 474 C374 479 355 481 334 481 L334 481 Z " />
<glyph glyph-name="ordfeminine" unicode="&#xaa;" horiz-adv-x="461" d="M230 667 C198 667 159 663 119 656 C110 655 106 651 106 644 L106 631 C106 622 111 619 119 619 C152 625 195 630 230 630 C314 630 343 601 343 521 L343 489 C307 496 249 503 216 503 C123 503 68 447 68 371 L68 350 C68 261 115 214 192 214 C247 214 298 249 347 327 L347 238 C347 230 351 226 359 226 L372 226 C379 226 383 230 383 238 L383 518 C383 627 340 667 230 667 L230 667 Z M223 468 C254 468 306 462 343 456 L343 365 C308 300 250 252 201 252 C143 252 110 285 110 353 L110 364 C110 430 149 468 223 468 L223 468 Z M80 35 C72 35 68 31 68 23 L68 12 C68 4 72 0 80 0 L372 0 C379 0 383 4 383 12 L383 23 C383 31 379 35 372 35 L80 35 Z " />
<glyph glyph-name="guillemotleft" unicode="&#xab;" horiz-adv-x="414" d="M184 438 C179 438 175 436 172 431 L81 276 C78 270 78 266 81 260 L171 106 C174 100 178 98 183 98 L200 98 C209 98 212 103 208 111 L123 268 L209 425 C213 433 209 438 201 438 L184 438 Z M305 438 C300 438 296 436 293 431 L202 276 C199 270 199 266 202 260 L292 106 C295 100 299 98 304 98 L322 98 C330 98 333 103 329 111 L244 268 L330 425 C334 433 331 438 322 438 L305 438 Z " />
<glyph glyph-name="logicalnot" unicode="&#xac;" horiz-adv-x="398" d="M41 323 C33 323 29 319 29 312 L29 299 C29 292 33 288 41 288 L332 288 L332 135 C332 127 337 123 344 123 L357 123 C364 123 369 127 369 135 L369 311 C369 319 364 323 356 323 L41 323 Z " />
<glyph glyph-name="uni00AD" unicode="&#xad;" horiz-adv-x="350" d="M88 313 C81 313 77 309 77 301 L77 290 C77 283 81 279 88 279 L262 279 C269 279 273 283 273 290 L273 301 C273 309 269 313 262 313 L88 313 Z " />
<glyph glyph-name="registered" unicode="&#xae;" horiz-adv-x="534" d="M267 695 C136 695 84 630 84 515 L84 481 C84 366 136 301 267 301 C398 301 450 366 450 481 L450 515 C450 630 398 695 267 695 L267 695 Z M267 665 C368 665 419 622 419 524 L419 472 C419 375 368 331 267 331 C166 331 116 375 116 472 L116 523 C116 620 166 665 267 665 L267 665 Z M264 611 C250 611 233 610 212 609 C204 609 199 605 199 599 L199 395 C199 390 202 386 208 386 L221 386 C227 386 230 390 230 395 L230 472 C244 471 259 471 278 471 L320 392 C322 388 325 386 329 386 L344 386 C351 386 355 392 351 398 L307 478 C334 489 349 513 349 535 L349 546 C349 585 325 611 264 611 L264 611 Z M267 583 C305 583 318 567 318 545 L318 536 C318 515 305 498 268 498 C260 498 244 498 230 499 L230 581 C238 582 260 583 267 583 L267 583 Z " />
<glyph glyph-name="macron" unicode="&#xaf;" horiz-adv-x="252" d="M41 634 C34 634 30 631 30 624 L30 606 C30 599 34 595 41 595 L211 595 C218 595 222 599 222 606 L222 624 C222 631 218 634 211 634 L41 634 Z " />
<glyph glyph-name="degree" unicode="&#xb0;" horiz-adv-x="399" d="M200 695 C98 695 47 636 47 530 L47 495 C47 389 98 330 200 330 C301 330 352 389 352 495 L352 530 C352 636 301 695 200 695 L200 695 Z M200 660 C286 660 313 605 313 530 L313 495 C313 419 284 365 200 365 C114 365 85 419 85 495 L85 530 C85 605 114 660 200 660 L200 660 Z " />
<glyph glyph-name="plusminus" unicode="&#xb1;" horiz-adv-x="398" d="M192 488 C185 488 180 484 180 476 L180 324 L44 324 C36 324 32 319 32 312 L32 299 C32 292 36 288 44 288 L180 288 L180 135 C180 127 185 123 192 123 L205 123 C212 123 217 127 217 135 L217 288 L353 288 C361 288 365 292 365 299 L365 312 C365 319 361 324 353 324 L217 324 L217 476 C217 484 212 488 205 488 L192 488 Z M43 36 C36 36 32 32 32 24 L32 12 C32 4 36 0 43 0 L353 0 C361 0 365 4 365 12 L365 24 C365 32 361 36 353 36 L43 36 Z " />
<glyph glyph-name="twosuperior" unicode="&#xb2;" horiz-adv-x="400" d="M189 760 C166 760 139 757 110 750 C102 749 98 745 98 738 L98 726 C98 718 103 715 110 716 C135 722 163 727 189 727 C249 727 276 704 276 653 L276 642 C276 608 264 579 237 546 L89 366 C85 361 84 358 84 351 L84 342 C84 335 88 331 95 331 L306 331 C312 331 316 335 316 342 L316 354 C316 361 312 364 306 364 L132 364 L254 510 C302 566 314 599 314 642 L314 656 C314 725 274 760 189 760 L189 760 Z " />
<glyph glyph-name="threesuperior" unicode="&#xb3;" horiz-adv-x="400" d="M184 760 C160 760 128 757 99 750 C91 749 87 746 87 739 L87 728 C87 721 91 717 99 719 C124 724 158 728 184 728 C237 728 264 703 264 657 L264 641 C264 591 238 563 193 563 L120 563 C113 563 109 559 109 552 L109 543 C109 537 113 533 120 533 L193 533 C241 533 273 504 273 454 L273 439 C273 383 245 355 185 355 C159 355 124 359 99 364 C91 366 87 362 87 355 L87 344 C87 337 90 334 97 333 C127 327 161 323 185 323 C270 323 312 367 312 445 L312 452 C312 499 287 535 245 550 C283 567 303 600 303 646 L303 653 C303 722 263 760 184 760 L184 760 Z " />
<glyph glyph-name="acute" unicode="&#xb4;" horiz-adv-x="180" d="M111 673 C106 673 102 671 99 666 L38 559 C33 551 36 546 45 546 L58 546 C63 546 67 548 70 553 L141 660 C146 668 143 673 134 673 L111 673 Z " />
<glyph glyph-name="mu" unicode="&#xb5;" horiz-adv-x="488" d="M374 488 C367 488 362 484 362 476 L362 145 C325 71 268 26 213 26 C156 26 126 58 126 163 L126 476 C126 484 121 488 114 488 L97 488 C90 488 86 484 86 476 L86 -173 C86 -181 90 -185 97 -185 L111 -185 C119 -185 123 -181 123 -173 L123 34 C138 6 170 -12 208 -12 C267 -12 322 26 366 103 L366 12 C366 4 370 0 378 0 L390 0 C398 0 402 4 402 12 L402 476 C402 484 398 488 390 488 L374 488 Z " />
<glyph glyph-name="paragraph" unicode="&#xb6;" horiz-adv-x="546" d="M148 683 C65 683 32 638 32 560 L32 431 C32 355 64 309 146 309 L208 309 L208 -173 C208 -181 212 -185 220 -185 L236 -185 C244 -185 248 -181 248 -173 L248 670 C248 679 244 683 235 683 L148 683 Z M431 683 C423 683 419 679 419 671 L419 -173 C419 -181 423 -185 431 -185 L448 -185 C455 -185 459 -181 459 -173 L459 671 C459 679 455 683 448 683 L431 683 Z M208 646 L208 346 L152 346 C88 346 71 375 71 449 L71 549 C71 624 91 646 152 646 L208 646 Z " />
<glyph glyph-name="periodcentered" unicode="&#xb7;" horiz-adv-x="198" d="M99 260 C77 260 67 250 67 231 L67 216 C67 198 77 189 99 189 C121 189 132 198 132 216 L132 231 C132 250 121 260 99 260 L99 260 Z " />
<glyph glyph-name="cedilla" unicode="&#xb8;" horiz-adv-x="194" d="M73 9 C67 9 63 6 61 -1 L46 -47 C42 -60 45 -68 59 -68 L81 -68 C112 -68 128 -83 129 -111 L129 -120 C129 -152 115 -167 81 -167 C69 -167 55 -165 41 -162 C34 -160 30 -163 30 -171 L30 -180 C30 -187 33 -190 42 -192 C58 -196 73 -197 88 -197 C139 -197 164 -169 164 -122 L164 -110 C164 -71 137 -43 97 -43 L81 -43 L93 -4 C95 4 91 9 84 9 L73 9 Z " />
<glyph glyph-name="onesuperior" unicode="&#xb9;" horiz-adv-x="400" d="M205 752 C199 752 195 751 191 750 L85 706 C79 704 77 699 78 693 L82 679 C84 672 89 669 96 672 L191 713 L192 713 L192 364 L102 364 C95 364 91 361 91 354 L91 342 C91 335 95 331 102 331 L311 331 C318 331 322 335 322 342 L322 354 C322 361 318 364 311 364 L231 364 L231 741 C231 748 227 752 220 752 L205 752 Z " />
<glyph glyph-name="ordmasculine" unicode="&#xba;" horiz-adv-x="485" d="M242 667 C131 667 78 607 78 484 L78 398 C78 274 131 215 242 215 C351 215 407 277 407 398 L407 484 C407 609 353 667 242 667 L242 667 Z M242 631 C323 631 366 586 366 492 L366 391 C366 298 322 251 242 251 C163 251 118 297 118 391 L118 491 C118 584 160 631 242 631 L242 631 Z M91 35 C83 35 79 31 79 23 L79 12 C79 4 83 0 91 0 L394 0 C402 0 406 4 406 12 L406 23 C406 31 402 35 394 35 L91 35 Z " />
<glyph glyph-name="guillemotright" unicode="&#xbb;" horiz-adv-x="414" d="M91 438 C83 438 79 433 83 425 L170 268 L84 111 C80 103 84 98 92 98 L109 98 C115 98 119 100 121 105 L212 260 C215 266 215 270 212 275 L121 431 C118 436 114 438 108 438 L91 438 Z M212 438 C204 438 200 433 205 425 L291 268 L205 111 C201 103 205 98 213 98 L230 98 C236 98 240 100 243 105 L333 260 C336 266 336 270 333 275 L242 431 C239 436 235 438 229 438 L212 438 Z " />
<glyph glyph-name="onequarter" unicode="&#xbc;" horiz-adv-x="1000" d="M731 421 C724 421 721 418 719 412 L625 124 C622 117 622 112 624 107 L628 98 C630 93 635 90 641 90 L826 90 L826 11 C826 4 830 0 836 0 L853 0 C860 0 864 4 864 11 L864 90 L909 90 C916 90 920 94 920 101 L920 112 C920 119 916 123 909 123 L864 123 L864 275 C864 282 860 286 853 286 L837 286 C831 286 827 282 827 275 L827 123 L662 123 L752 409 C755 416 751 421 744 421 L731 421 Z M211 602 C205 602 201 601 197 600 L91 556 C85 554 83 549 84 543 L88 529 C90 522 95 519 102 522 L197 563 L198 563 L198 214 L108 214 C101 214 97 211 97 204 L97 192 C97 185 101 181 108 181 L317 181 C324 181 328 185 328 192 L328 204 C328 211 324 214 317 214 L237 214 L237 591 C237 598 233 602 226 602 L211 602 Z M615 601 C608 601 604 598 601 592 L308 14 C303 6 307 0 316 0 L329 0 C335 0 339 3 342 9 L635 587 C640 595 636 601 627 601 L615 601 Z " />
<glyph glyph-name="onehalf" unicode="&#xbd;" horiz-adv-x="1000" d="M245 602 C239 602 235 601 231 600 L125 556 C119 554 117 549 118 543 L122 529 C124 522 129 519 136 522 L231 563 L232 563 L232 214 L142 214 C135 214 131 211 131 204 L131 192 C131 185 135 181 142 181 L351 181 C358 181 362 185 362 192 L362 204 C362 211 358 214 351 214 L271 214 L271 591 C271 598 267 602 260 602 L245 602 Z M650 601 C643 601 639 598 636 592 L343 14 C338 6 342 0 351 0 L364 0 C370 0 374 3 377 9 L670 587 C675 595 671 601 662 601 L650 601 Z M757 429 C734 429 707 426 678 419 C670 418 666 414 666 407 L666 395 C666 387 671 384 678 385 C703 391 731 396 757 396 C817 396 844 373 844 322 L844 311 C844 277 832 248 805 215 L657 35 C653 30 652 27 652 20 L652 11 C652 4 656 0 663 0 L874 0 C880 0 884 4 884 11 L884 23 C884 30 880 33 874 33 L700 33 L822 179 C870 235 882 268 882 311 L882 325 C882 394 842 429 757 429 L757 429 Z " />
<glyph glyph-name="threequarters" unicode="&#xbe;" horiz-adv-x="1000" d="M177 610 C153 610 121 607 92 600 C84 599 80 596 80 589 L80 578 C80 571 84 567 92 569 C117 574 151 578 177 578 C230 578 257 553 257 507 L257 491 C257 441 231 413 186 413 L113 413 C106 413 102 409 102 402 L102 393 C102 387 106 383 113 383 L186 383 C234 383 266 354 266 304 L266 289 C266 233 238 205 178 205 C152 205 117 209 92 214 C84 216 80 212 80 205 L80 194 C80 187 83 184 90 183 C120 177 154 173 178 173 C263 173 305 217 305 295 L305 302 C305 349 280 385 238 400 C276 417 296 450 296 496 L296 503 C296 572 256 610 177 610 L177 610 Z M728 421 C721 421 718 418 716 412 L622 124 C619 117 619 112 621 107 L625 98 C627 93 632 90 638 90 L823 90 L823 11 C823 4 827 0 833 0 L850 0 C857 0 861 4 861 11 L861 90 L906 90 C913 90 917 94 917 101 L917 112 C917 119 913 123 906 123 L861 123 L861 275 C861 282 857 286 850 286 L834 286 C828 286 824 282 824 275 L824 123 L659 123 L749 409 C752 416 748 421 741 421 L728 421 Z M609 601 C602 601 598 598 595 592 L302 14 C297 6 301 0 310 0 L323 0 C329 0 333 3 336 9 L629 587 C634 595 630 601 621 601 L609 601 Z " />
<glyph glyph-name="questiondown" unicode="&#xbf;" horiz-adv-x="395" d="M234 -197 C268 -197 305 -192 345 -184 C354 -182 358 -178 358 -171 L358 -157 C358 -148 354 -145 345 -147 C313 -154 275 -162 239 -162 C139 -162 106 -128 106 -57 L106 -36 C106 10 114 32 151 76 L209 144 C244 185 252 201 252 266 L252 286 C252 294 248 298 240 298 L225 298 C217 298 213 294 213 286 L213 253 C213 212 204 196 185 174 L132 112 C90 64 66 24 66 -34 L66 -58 C66 -148 111 -197 234 -197 L234 -197 Z M230 440 C251 440 262 449 262 469 L262 483 C262 501 251 510 230 510 C208 510 198 501 198 483 L198 469 C198 449 208 440 230 440 L230 440 Z " />
<glyph glyph-name="Agrave" unicode="&#xc0;" horiz-adv-x="512" d="M234 655 C227 655 222 652 221 645 L18 13 C15 6 19 0 28 0 L47 0 C54 0 58 3 60 10 L110 171 L395 171 L449 10 C450 3 455 0 462 0 L482 0 C491 0 495 6 492 13 L280 646 C279 652 274 655 267 655 L234 655 Z M250 617 L384 209 L122 209 L250 617 Z M178 825 C170 825 167 820 171 812 L236 713 C239 709 243 706 248 706 L261 706 C269 706 273 711 269 719 L214 817 C211 823 207 825 201 825 L178 825 Z " />
<glyph glyph-name="Aacute" unicode="&#xc1;" horiz-adv-x="512" d="M234 655 C227 655 222 652 221 645 L18 13 C15 6 19 0 28 0 L47 0 C54 0 58 3 60 10 L110 171 L395 171 L449 10 C450 3 455 0 462 0 L482 0 C491 0 495 6 492 13 L280 646 C279 652 274 655 267 655 L234 655 Z M250 617 L384 209 L122 209 L250 617 Z M299 825 C294 825 290 823 287 817 L232 719 C228 711 231 706 240 706 L252 706 C258 706 262 709 265 713 L329 812 C333 820 331 825 322 825 L299 825 Z " />
<glyph glyph-name="Acircumflex" unicode="&#xc2;" horiz-adv-x="512" d="M234 655 C227 655 222 652 221 645 L18 13 C15 6 19 0 28 0 L47 0 C54 0 58 3 60 10 L110 171 L395 171 L449 10 C450 3 455 0 462 0 L482 0 C491 0 495 6 492 13 L280 646 C279 652 274 655 267 655 L234 655 Z M250 617 L384 209 L122 209 L250 617 Z M139 760 C133 757 131 753 131 747 L131 733 C131 726 136 723 143 725 L251 772 L359 725 C366 723 371 726 371 733 L371 746 C371 753 369 757 363 760 L258 811 C253 813 248 813 244 811 L139 760 Z " />
<glyph glyph-name="Atilde" unicode="&#xc3;" horiz-adv-x="512" d="M234 655 C227 655 222 652 221 645 L18 13 C15 6 19 0 28 0 L47 0 C54 0 58 3 60 10 L110 171 L395 171 L449 10 C450 3 455 0 462 0 L482 0 C491 0 495 6 492 13 L280 646 C279 652 274 655 267 655 L234 655 Z M250 617 L384 209 L122 209 L250 617 Z M369 779 C353 773 327 763 305 763 C278 763 244 788 201 788 C170 788 143 776 131 768 C126 765 124 761 124 756 L124 741 C124 733 129 731 136 733 C151 740 177 749 199 749 C229 749 270 724 303 724 C334 724 362 738 373 744 C379 747 381 751 381 757 L381 771 C381 779 376 782 369 779 L369 779 Z " />
<glyph glyph-name="Adieresis" unicode="&#xc4;" horiz-adv-x="512" d="M234 655 C227 655 222 652 221 645 L18 13 C15 6 19 0 28 0 L47 0 C54 0 58 3 60 10 L110 171 L395 171 L449 10 C450 3 455 0 462 0 L482 0 C491 0 495 6 492 13 L280 646 C279 652 274 655 267 655 L234 655 Z M250 617 L384 209 L122 209 L250 617 Z M188 795 C172 795 161 785 161 771 L161 754 C161 739 172 730 188 730 C206 730 217 739 217 754 L217 771 C217 785 206 795 188 795 L188 795 Z M313 795 C297 795 286 785 286 771 L286 754 C286 739 297 730 313 730 C331 730 342 739 342 754 L342 771 C342 785 331 795 313 795 L313 795 Z " />
<glyph glyph-name="Aring" unicode="&#xc5;" horiz-adv-x="512" d="M250 798 C191 798 156 769 156 712 C156 668 178 640 217 632 L19 13 C16 6 20 0 29 0 L48 0 C55 0 59 3 61 10 L111 171 L396 171 L450 10 C451 3 456 0 463 0 L483 0 C492 0 496 6 493 13 L286 632 C322 642 344 670 344 712 C344 769 308 798 250 798 L250 798 Z M250 770 C294 770 311 745 311 712 C311 680 294 655 250 655 C206 655 189 680 189 712 C189 746 206 770 250 770 L250 770 Z M251 618 L385 209 L123 209 L251 618 Z " />
<glyph glyph-name="AE" unicode="&#xc6;" horiz-adv-x="786" d="M379 655 C373 655 368 652 366 646 L20 14 C16 6 20 0 29 0 L48 0 C54 0 59 3 61 9 L150 172 L395 172 L395 12 C395 4 400 0 407 0 L698 0 C705 0 709 4 709 12 L709 26 C709 33 705 37 698 37 L435 37 L435 314 L678 314 C685 314 689 319 689 326 L689 340 C689 347 685 352 678 352 L435 352 L435 618 L698 618 C705 618 709 622 709 629 L709 643 C709 651 705 655 698 655 L379 655 Z M395 626 L395 209 L169 209 L395 626 Z " />
<glyph glyph-name="Ccedilla" unicode="&#xc7;" horiz-adv-x="479" d="M282 667 C135 667 82 606 82 466 L82 188 C82 65 127 0 245 -11 L233 -47 C228 -60 231 -68 245 -68 L267 -68 C298 -68 314 -83 315 -111 L315 -120 C315 -152 301 -167 268 -167 C256 -167 241 -165 228 -162 C220 -160 217 -163 217 -171 L217 -180 C217 -187 219 -190 228 -192 C245 -196 260 -197 274 -197 C326 -197 350 -169 350 -122 L350 -110 C350 -71 324 -43 283 -43 L267 -43 L276 -12 C326 -12 362 -6 402 2 C408 4 413 8 413 15 L412 30 C411 39 406 42 399 40 C367 34 329 27 283 26 C168 24 122 77 122 185 L122 469 C122 587 166 630 281 630 C326 630 367 622 398 616 C406 614 410 618 411 627 L412 641 C412 649 408 652 401 654 C362 662 325 667 282 667 L282 667 Z " />
<glyph glyph-name="Egrave" unicode="&#xc8;" horiz-adv-x="477" d="M98 655 C91 655 87 651 87 643 L87 12 C87 4 91 0 98 0 L389 0 C396 0 401 4 401 12 L401 26 C401 33 396 37 389 37 L127 37 L127 314 L369 314 C376 314 381 319 381 326 L381 340 C381 347 376 352 369 352 L127 352 L127 618 L389 618 C396 618 401 622 401 629 L401 643 C401 651 396 655 389 655 L98 655 Z M177 825 C169 825 166 820 170 812 L235 713 C238 709 242 706 247 706 L260 706 C268 706 272 711 268 719 L213 817 C210 823 206 825 200 825 L177 825 Z " />
<glyph glyph-name="Eacute" unicode="&#xc9;" horiz-adv-x="477" d="M98 655 C91 655 87 651 87 643 L87 12 C87 4 91 0 98 0 L389 0 C396 0 401 4 401 12 L401 26 C401 33 396 37 389 37 L127 37 L127 314 L369 314 C376 314 381 319 381 326 L381 340 C381 347 376 352 369 352 L127 352 L127 618 L389 618 C396 618 401 622 401 629 L401 643 C401 651 396 655 389 655 L98 655 Z M297 825 C292 825 288 823 285 817 L230 719 C226 711 229 706 238 706 L250 706 C256 706 260 709 263 713 L327 812 C331 820 329 825 320 825 L297 825 Z " />
<glyph glyph-name="Ecircumflex" unicode="&#xca;" horiz-adv-x="477" d="M98 655 C91 655 87 651 87 643 L87 12 C87 4 91 0 98 0 L389 0 C396 0 401 4 401 12 L401 26 C401 33 396 37 389 37 L127 37 L127 314 L369 314 C376 314 381 319 381 326 L381 340 C381 347 376 352 369 352 L127 352 L127 618 L389 618 C396 618 401 622 401 629 L401 643 C401 651 396 655 389 655 L98 655 Z M138 760 C132 757 130 753 130 747 L130 733 C130 726 135 723 142 725 L250 772 L358 725 C365 723 370 726 370 733 L370 746 C370 753 368 757 362 760 L257 811 C252 813 247 813 243 811 L138 760 Z " />
<glyph glyph-name="Edieresis" unicode="&#xcb;" horiz-adv-x="477" d="M98 655 C91 655 87 651 87 643 L87 12 C87 4 91 0 98 0 L389 0 C396 0 401 4 401 12 L401 26 C401 33 396 37 389 37 L127 37 L127 314 L369 314 C376 314 381 319 381 326 L381 340 C381 347 376 352 369 352 L127 352 L127 618 L389 618 C396 618 401 622 401 629 L401 643 C401 651 396 655 389 655 L98 655 Z M187 795 C171 795 160 785 160 771 L160 754 C160 739 171 730 187 730 C205 730 216 739 216 754 L216 771 C216 785 205 795 187 795 L187 795 Z M312 795 C296 795 285 785 285 771 L285 754 C285 739 296 730 312 730 C330 730 341 739 341 754 L341 771 C341 785 330 795 312 795 L312 795 Z " />
<glyph glyph-name="Igrave" unicode="&#xcc;" horiz-adv-x="213" d="M98 655 C91 655 87 651 87 643 L87 12 C87 4 91 0 98 0 L115 0 C122 0 127 4 127 12 L127 643 C127 651 122 655 115 655 L98 655 Z M34 825 C26 825 23 820 27 812 L92 713 C95 709 99 706 104 706 L117 706 C125 706 129 711 125 719 L70 817 C67 823 63 825 57 825 L34 825 Z " />
<glyph glyph-name="Iacute" unicode="&#xcd;" horiz-adv-x="213" d="M98 655 C91 655 87 651 87 643 L87 12 C87 4 91 0 98 0 L115 0 C122 0 127 4 127 12 L127 643 C127 651 122 655 115 655 L98 655 Z M154 825 C149 825 145 823 142 817 L87 719 C83 711 86 706 95 706 L107 706 C113 706 117 709 120 713 L184 812 C188 820 186 825 177 825 L154 825 Z " />
<glyph glyph-name="Icircumflex" unicode="&#xce;" horiz-adv-x="213" d="M98 655 C91 655 87 651 87 643 L87 12 C87 4 91 0 98 0 L115 0 C122 0 127 4 127 12 L127 643 C127 651 122 655 115 655 L98 655 Z M-5 760 C-11 757 -13 753 -13 747 L-13 733 C-13 726 -8 723 -1 725 L107 772 L215 725 C222 723 227 726 227 733 L227 746 C227 753 225 757 219 760 L114 811 C109 813 104 813 100 811 L-5 760 Z " />
<glyph glyph-name="Idieresis" unicode="&#xcf;" horiz-adv-x="213" d="M98 655 C91 655 87 651 87 643 L87 12 C87 4 91 0 98 0 L115 0 C122 0 127 4 127 12 L127 643 C127 651 122 655 115 655 L98 655 Z M43 795 C27 795 16 785 16 771 L16 754 C16 739 27 730 43 730 C61 730 72 739 72 754 L72 771 C72 785 61 795 43 795 L43 795 Z M168 795 C152 795 141 785 141 771 L141 754 C141 739 152 730 168 730 C186 730 197 739 197 754 L197 771 C197 785 186 795 168 795 L168 795 Z " />
<glyph glyph-name="Eth" unicode="&#xd0;" horiz-adv-x="571" d="M247 667 C195 667 138 665 97 663 C90 663 88 659 88 651 L88 366 L20 366 C12 366 8 362 8 354 L8 342 C8 335 12 330 20 330 L88 330 L88 5 C88 -3 92 -7 99 -7 C146 -10 195 -12 251 -12 C414 -12 495 76 495 232 L495 416 C495 587 409 667 247 667 L247 667 Z M244 631 C385 631 455 563 455 418 L455 228 C455 96 381 25 251 25 C217 25 181 26 128 31 L128 330 L264 330 C271 330 275 335 275 342 L275 354 C275 362 271 366 264 366 L128 366 L128 628 C160 630 206 631 244 631 L244 631 Z " />
<glyph glyph-name="Ntilde" unicode="&#xd1;" horiz-adv-x="582" d="M484 0 C491 0 495 4 495 12 L495 643 C495 651 491 655 484 655 L467 655 C460 655 456 651 456 643 L456 53 L152 646 C149 652 145 655 139 655 L98 655 C91 655 87 651 87 643 L87 12 C87 4 91 0 98 0 L115 0 C122 0 126 4 126 12 L126 606 L434 9 C437 3 441 0 447 0 L484 0 Z M415 779 C399 773 373 763 351 763 C324 763 290 788 247 788 C216 788 189 776 177 768 C172 765 170 761 170 756 L170 741 C170 733 175 731 182 733 C197 740 223 749 245 749 C275 749 316 724 349 724 C380 724 408 738 419 744 C425 747 427 751 427 757 L427 771 C427 779 422 782 415 779 L415 779 Z " />
<glyph glyph-name="Ograve" unicode="&#xd2;" horiz-adv-x="576" d="M288 667 C138 667 82 589 82 451 L82 204 C82 60 144 -12 288 -12 C429 -12 494 60 494 204 L494 451 C494 589 437 667 288 667 L288 667 Z M288 631 C400 631 454 575 454 460 L454 195 C454 80 400 24 288 24 C176 24 122 80 122 195 L122 461 C122 576 176 631 288 631 L288 631 Z M214 825 C206 825 203 820 207 812 L272 713 C275 709 279 706 284 706 L297 706 C305 706 309 711 305 719 L250 817 C247 823 243 825 237 825 L214 825 Z " />
<glyph glyph-name="Oacute" unicode="&#xd3;" horiz-adv-x="576" d="M288 667 C138 667 82 589 82 451 L82 204 C82 60 144 -12 288 -12 C429 -12 494 60 494 204 L494 451 C494 589 437 667 288 667 L288 667 Z M288 631 C400 631 454 575 454 460 L454 195 C454 80 400 24 288 24 C176 24 122 80 122 195 L122 461 C122 576 176 631 288 631 L288 631 Z M335 825 C330 825 326 823 323 817 L268 719 C264 711 267 706 276 706 L288 706 C294 706 298 709 301 713 L365 812 C369 820 367 825 358 825 L335 825 Z " />
<glyph glyph-name="Ocircumflex" unicode="&#xd4;" horiz-adv-x="576" d="M288 667 C138 667 82 589 82 451 L82 204 C82 60 144 -12 288 -12 C429 -12 494 60 494 204 L494 451 C494 589 437 667 288 667 L288 667 Z M288 631 C400 631 454 575 454 460 L454 195 C454 80 400 24 288 24 C176 24 122 80 122 195 L122 461 C122 576 176 631 288 631 L288 631 Z M175 760 C169 757 167 753 167 747 L167 733 C167 726 172 723 179 725 L287 772 L395 725 C402 723 407 726 407 733 L407 746 C407 753 405 757 399 760 L294 811 C289 813 284 813 280 811 L175 760 Z " />
<glyph glyph-name="Otilde" unicode="&#xd5;" horiz-adv-x="576" d="M288 667 C138 667 82 589 82 451 L82 204 C82 60 144 -12 288 -12 C429 -12 494 60 494 204 L494 451 C494 589 437 667 288 667 L288 667 Z M288 631 C400 631 454 575 454 460 L454 195 C454 80 400 24 288 24 C176 24 122 80 122 195 L122 461 C122 576 176 631 288 631 L288 631 Z M405 779 C389 773 363 763 341 763 C314 763 280 788 237 788 C206 788 179 776 167 768 C162 765 160 761 160 756 L160 741 C160 733 165 731 172 733 C187 740 213 749 235 749 C265 749 306 724 339 724 C370 724 398 738 409 744 C415 747 417 751 417 757 L417 771 C417 779 412 782 405 779 L405 779 Z " />
<glyph glyph-name="Odieresis" unicode="&#xd6;" horiz-adv-x="576" d="M288 667 C138 667 82 589 82 451 L82 204 C82 60 144 -12 288 -12 C429 -12 494 60 494 204 L494 451 C494 589 437 667 288 667 L288 667 Z M288 631 C400 631 454 575 454 460 L454 195 C454 80 400 24 288 24 C176 24 122 80 122 195 L122 461 C122 576 176 631 288 631 L288 631 Z M224 795 C208 795 197 785 197 771 L197 754 C197 739 208 730 224 730 C242 730 253 739 253 754 L253 771 C253 785 242 795 224 795 L224 795 Z M349 795 C333 795 322 785 322 771 L322 754 C322 739 333 730 349 730 C367 730 378 739 378 754 L378 771 C378 785 367 795 349 795 L349 795 Z " />
<glyph glyph-name="multiply" unicode="&#xd7;" horiz-adv-x="398" d="M198 331 L90 438 C84 444 78 444 72 438 L64 430 C59 424 59 419 64 413 L172 305 L65 198 C59 192 59 186 65 180 L73 173 C79 167 84 167 90 173 L197 280 L305 172 C311 166 317 166 323 172 L331 180 C336 186 336 191 331 197 L224 305 L332 414 C337 420 337 426 332 431 L324 439 C318 445 312 445 307 439 L198 331 Z " />
<glyph glyph-name="Oslash" unicode="&#xd8;" horiz-adv-x="576" d="M488 705 C481 705 477 702 474 697 L432 623 C399 652 352 667 288 667 C138 667 82 589 82 451 L82 204 C82 141 93 92 119 56 L65 -36 C60 -44 64 -50 73 -50 L88 -50 C95 -50 99 -47 102 -42 L145 30 C178 2 225 -12 288 -12 C429 -12 494 60 494 204 L494 451 C494 511 483 560 458 596 L512 691 C516 699 512 705 503 705 L488 705 Z M288 631 C345 631 387 617 415 588 L142 95 C128 120 122 153 122 195 L122 461 C122 576 176 631 288 631 L288 631 Z M434 558 C448 534 454 500 454 460 L454 195 C454 80 400 24 288 24 C231 24 190 37 162 65 L434 558 Z " />
<glyph glyph-name="Ugrave" unicode="&#xd9;" horiz-adv-x="578" d="M462 655 C454 655 450 651 450 643 L450 194 C450 83 395 26 289 26 C182 26 127 83 127 194 L127 643 C127 651 123 655 116 655 L98 655 C91 655 87 651 87 643 L87 202 C87 57 157 -12 289 -12 C421 -12 491 62 491 204 L491 643 C491 651 487 655 479 655 L462 655 Z M215 825 C207 825 204 820 208 812 L273 713 C276 709 280 706 285 706 L298 706 C306 706 310 711 306 719 L251 817 C248 823 244 825 238 825 L215 825 Z " />
<glyph glyph-name="Uacute" unicode="&#xda;" horiz-adv-x="578" d="M462 655 C454 655 450 651 450 643 L450 194 C450 83 395 26 289 26 C182 26 127 83 127 194 L127 643 C127 651 123 655 116 655 L98 655 C91 655 87 651 87 643 L87 202 C87 57 157 -12 289 -12 C421 -12 491 62 491 204 L491 643 C491 651 487 655 479 655 L462 655 Z M335 825 C330 825 326 823 323 817 L268 719 C264 711 267 706 276 706 L288 706 C294 706 298 709 301 713 L365 812 C369 820 367 825 358 825 L335 825 Z " />
<glyph glyph-name="Ucircumflex" unicode="&#xdb;" horiz-adv-x="578" d="M462 655 C454 655 450 651 450 643 L450 194 C450 83 395 26 289 26 C182 26 127 83 127 194 L127 643 C127 651 123 655 116 655 L98 655 C91 655 87 651 87 643 L87 202 C87 57 157 -12 289 -12 C421 -12 491 62 491 204 L491 643 C491 651 487 655 479 655 L462 655 Z M176 760 C170 757 168 753 168 747 L168 733 C168 726 173 723 180 725 L288 772 L396 725 C403 723 408 726 408 733 L408 746 C408 753 406 757 400 760 L295 811 C290 813 285 813 281 811 L176 760 Z " />
<glyph glyph-name="Udieresis" unicode="&#xdc;" horiz-adv-x="578" d="M462 655 C454 655 450 651 450 643 L450 194 C450 83 395 26 289 26 C182 26 127 83 127 194 L127 643 C127 651 123 655 116 655 L98 655 C91 655 87 651 87 643 L87 202 C87 57 157 -12 289 -12 C421 -12 491 62 491 204 L491 643 C491 651 487 655 479 655 L462 655 Z M225 795 C209 795 198 785 198 771 L198 754 C198 739 209 730 225 730 C243 730 254 739 254 754 L254 771 C254 785 243 795 225 795 L225 795 Z M350 795 C334 795 323 785 323 771 L323 754 C323 739 334 730 350 730 C368 730 379 739 379 754 L379 771 C379 785 368 795 350 795 L350 795 Z " />
<glyph glyph-name="Yacute" unicode="&#xdd;" horiz-adv-x="463" d="M409 655 C402 655 397 652 394 646 L232 270 L70 646 C67 652 63 655 56 655 L33 655 C24 655 21 649 24 642 L212 225 L212 12 C212 4 216 0 223 0 L240 0 C247 0 252 4 252 12 L252 225 L439 642 C442 649 439 655 430 655 L409 655 Z M279 825 C274 825 270 823 267 817 L212 719 C208 711 211 706 220 706 L232 706 C238 706 242 709 245 713 L309 812 C313 820 311 825 302 825 L279 825 Z " />
<glyph glyph-name="Thorn" unicode="&#xde;" horiz-adv-x="495" d="M98 655 C91 655 87 651 87 643 L87 12 C87 4 91 0 98 0 L115 0 C122 0 127 4 127 12 L127 151 C183 143 218 140 254 140 C397 140 467 211 467 338 L467 358 C467 478 396 539 247 539 C202 539 160 537 127 535 L127 643 C127 651 122 655 115 655 L98 655 Z M246 503 C373 503 427 454 427 355 L427 339 C427 234 373 176 252 176 C210 176 172 180 127 187 L127 499 C153 501 201 503 246 503 L246 503 Z " />
<glyph glyph-name="germandbls" unicode="&#xdf;" horiz-adv-x="485" d="M232 695 C130 695 86 650 86 537 L86 12 C86 4 90 0 97 0 L114 0 C121 0 126 4 126 12 L126 545 C126 626 154 659 229 659 C304 659 338 629 338 573 L338 547 C338 473 254 470 254 385 L254 361 C254 326 269 300 306 276 L354 244 C395 215 408 193 408 147 L408 116 C408 46 390 25 337 25 C312 25 269 30 237 40 C228 42 224 38 224 29 L223 15 C222 8 225 4 232 2 C272 -7 315 -12 337 -12 C421 -12 448 23 448 124 L448 157 C448 208 427 239 373 278 L326 311 C301 329 293 343 293 366 L293 385 C293 450 378 462 378 548 L378 573 C378 649 326 695 232 695 L232 695 Z " />
<glyph glyph-name="agrave" unicode="&#xe0;" horiz-adv-x="457" d="M232 500 C198 500 152 493 111 486 C103 485 99 481 99 473 L99 459 C99 451 103 447 112 449 C147 455 195 463 232 463 C309 463 336 434 336 353 L336 286 C302 292 246 299 212 299 C115 299 61 238 61 160 L61 134 C61 39 108 -12 184 -12 C241 -12 291 21 339 99 L339 12 C339 4 344 0 351 0 L364 0 C372 0 376 4 376 12 L376 351 C376 462 335 500 232 500 L232 500 Z M226 264 C252 264 305 259 336 253 L336 142 C301 77 242 26 194 26 C137 26 102 61 102 141 L102 152 C102 222 141 264 226 264 L226 264 Z M148 673 C139 673 136 668 140 660 L212 553 C215 548 219 546 224 546 L237 546 C245 546 249 551 244 559 L183 666 C180 671 176 673 171 673 L148 673 Z " />
<glyph glyph-name="aacute" unicode="&#xe1;" horiz-adv-x="457" d="M232 500 C198 500 152 493 111 486 C103 485 99 481 99 473 L99 459 C99 451 103 447 112 449 C147 455 195 463 232 463 C309 463 336 434 336 353 L336 286 C302 292 246 299 212 299 C115 299 61 238 61 160 L61 134 C61 39 108 -12 184 -12 C241 -12 291 21 339 99 L339 12 C339 4 344 0 351 0 L364 0 C372 0 376 4 376 12 L376 351 C376 462 335 500 232 500 L232 500 Z M226 264 C252 264 305 259 336 253 L336 142 C301 77 242 26 194 26 C137 26 102 61 102 141 L102 152 C102 222 141 264 226 264 L226 264 Z M289 673 C284 673 280 671 277 666 L216 559 C211 551 214 546 223 546 L236 546 C241 546 245 548 248 553 L319 660 C324 668 321 673 312 673 L289 673 Z " />
<glyph glyph-name="acircumflex" unicode="&#xe2;" horiz-adv-x="457" d="M232 500 C198 500 152 493 111 486 C103 485 99 481 99 473 L99 459 C99 451 103 447 112 449 C147 455 195 463 232 463 C309 463 336 434 336 353 L336 286 C302 292 246 299 212 299 C115 299 61 238 61 160 L61 134 C61 39 108 -12 184 -12 C241 -12 291 21 339 99 L339 12 C339 4 344 0 351 0 L364 0 C372 0 376 4 376 12 L376 351 C376 462 335 500 232 500 L232 500 Z M226 264 C252 264 305 259 336 253 L336 142 C301 77 242 26 194 26 C137 26 102 61 102 141 L102 152 C102 222 141 264 226 264 L226 264 Z M125 602 C120 599 118 596 118 590 L118 577 C118 569 123 565 131 569 L232 625 L335 569 C342 565 348 569 348 577 L348 590 C348 596 346 599 341 602 L240 663 C235 666 230 666 225 663 L125 602 Z " />
<glyph glyph-name="atilde" unicode="&#xe3;" horiz-adv-x="457" d="M232 500 C198 500 152 493 111 486 C103 485 99 481 99 473 L99 459 C99 451 103 447 112 449 C147 455 195 463 232 463 C309 463 336 434 336 353 L336 286 C302 292 246 299 212 299 C115 299 61 238 61 160 L61 134 C61 39 108 -12 184 -12 C241 -12 291 21 339 99 L339 12 C339 4 344 0 351 0 L364 0 C372 0 376 4 376 12 L376 351 C376 462 335 500 232 500 L232 500 Z M226 264 C252 264 305 259 336 253 L336 142 C301 77 242 26 194 26 C137 26 102 61 102 141 L102 152 C102 222 141 264 226 264 L226 264 Z M333 632 C320 625 298 617 277 617 C250 617 234 642 192 642 C161 642 138 630 128 623 C122 619 121 615 121 610 L121 596 C121 588 126 585 133 588 C147 595 169 604 190 604 C219 604 242 579 275 579 C304 579 328 591 339 598 C344 601 345 605 345 611 L345 624 C345 632 340 636 333 632 L333 632 Z " />
<glyph glyph-name="adieresis" unicode="&#xe4;" horiz-adv-x="457" d="M232 500 C198 500 152 493 111 486 C103 485 99 481 99 473 L99 459 C99 451 103 447 112 449 C147 455 195 463 232 463 C309 463 336 434 336 353 L336 286 C302 292 246 299 212 299 C115 299 61 238 61 160 L61 134 C61 39 108 -12 184 -12 C241 -12 291 21 339 99 L339 12 C339 4 344 0 351 0 L364 0 C372 0 376 4 376 12 L376 351 C376 462 335 500 232 500 L232 500 Z M226 264 C252 264 305 259 336 253 L336 142 C301 77 242 26 194 26 C137 26 102 61 102 141 L102 152 C102 222 141 264 226 264 L226 264 Z M169 642 C153 642 142 633 142 619 L142 602 C142 588 153 579 169 579 C186 579 198 588 198 602 L198 619 C198 633 186 642 169 642 L169 642 Z M294 642 C278 642 267 633 267 619 L267 602 C267 588 278 579 294 579 C312 579 323 588 323 602 L323 619 C323 633 312 642 294 642 L294 642 Z " />
<glyph glyph-name="aring" unicode="&#xe5;" horiz-adv-x="457" d="M232 500 C198 500 152 493 111 486 C103 485 99 481 99 473 L99 459 C99 451 103 447 112 449 C147 455 195 463 232 463 C309 463 336 434 336 353 L336 286 C302 292 246 299 212 299 C115 299 61 238 61 160 L61 134 C61 39 108 -12 184 -12 C241 -12 291 21 339 99 L339 12 C339 4 344 0 351 0 L364 0 C372 0 376 4 376 12 L376 351 C376 462 335 500 232 500 L232 500 Z M226 264 C252 264 305 259 336 253 L336 142 C301 77 242 26 194 26 C137 26 102 61 102 141 L102 152 C102 222 141 264 226 264 L226 264 Z M233 710 C175 710 140 680 140 625 C140 570 175 541 233 541 C291 541 326 572 326 625 C326 681 291 710 233 710 L233 710 Z M233 683 C277 683 294 658 294 625 C294 593 277 568 233 568 C189 568 172 593 172 625 C172 659 189 683 233 683 L233 683 Z " />
<glyph glyph-name="ae" unicode="&#xe6;" horiz-adv-x="721" d="M496 500 C429 500 385 475 362 426 C345 477 304 500 232 500 C198 500 152 493 111 486 C103 485 99 481 99 473 L99 459 C99 451 103 447 112 449 C147 455 195 463 232 463 C309 463 336 434 336 353 L336 280 C302 287 247 296 212 296 C116 296 61 235 61 159 L61 134 C61 40 107 -12 184 -12 C243 -12 297 24 345 103 C359 22 406 -12 510 -12 C543 -12 587 -6 628 3 C636 5 639 9 639 16 L638 31 C637 39 632 43 625 41 C591 34 550 26 511 26 C418 26 379 58 379 157 L379 238 L635 238 C651 238 656 244 656 260 L656 319 C656 444 599 500 496 500 L496 500 Z M496 464 C571 464 617 423 617 326 L617 276 L376 276 L376 330 C377 424 417 464 496 464 L496 464 Z M225 261 C251 261 305 252 336 246 L336 142 C301 77 242 26 195 26 C137 26 102 61 102 141 L102 150 C102 220 140 260 225 261 L225 261 Z " />
<glyph glyph-name="ccedilla" unicode="&#xe7;" horiz-adv-x="393" d="M234 500 C128 500 76 442 76 323 L76 165 C76 61 115 4 199 -9 L187 -47 C183 -60 186 -68 200 -68 L222 -68 C253 -68 269 -83 270 -111 L270 -120 C270 -152 256 -167 222 -167 C210 -167 196 -165 182 -162 C175 -160 171 -163 171 -171 L171 -180 C171 -187 174 -190 183 -192 C199 -196 214 -197 229 -197 C280 -197 305 -169 305 -122 L305 -110 C305 -71 278 -43 238 -43 L222 -43 L231 -12 C270 -12 289 -9 320 -2 C329 0 332 4 331 12 L330 25 C329 34 325 37 316 36 C289 28 270 25 240 25 C159 25 116 67 116 164 L116 327 C116 422 159 463 233 463 C261 463 286 459 316 452 C326 450 330 453 330 462 L331 474 C332 482 329 486 322 488 C291 495 260 500 234 500 L234 500 Z " />
<glyph glyph-name="egrave" unicode="&#xe8;" horiz-adv-x="459" d="M235 500 C127 500 76 441 76 320 L76 160 C76 37 123 -12 248 -12 C282 -12 326 -6 367 3 C374 5 378 9 377 16 L376 31 C375 39 371 43 363 41 C330 34 288 26 249 26 C155 26 116 58 116 157 L116 238 L373 238 C389 238 395 244 395 260 L395 319 C395 444 338 500 235 500 L235 500 Z M234 464 C310 464 355 423 355 326 L355 273 L116 273 L116 329 C116 423 155 464 234 464 L234 464 Z M153 673 C144 673 141 668 145 660 L217 553 C220 548 224 546 229 546 L242 546 C250 546 254 551 249 559 L188 666 C185 671 181 673 176 673 L153 673 Z " />
<glyph glyph-name="eacute" unicode="&#xe9;" horiz-adv-x="459" d="M235 500 C127 500 76 441 76 320 L76 160 C76 37 123 -12 248 -12 C282 -12 326 -6 367 3 C374 5 378 9 377 16 L376 31 C375 39 371 43 363 41 C330 34 288 26 249 26 C155 26 116 58 116 157 L116 238 L373 238 C389 238 395 244 395 260 L395 319 C395 444 338 500 235 500 L235 500 Z M234 464 C310 464 355 423 355 326 L355 273 L116 273 L116 329 C116 423 155 464 234 464 L234 464 Z M293 673 C288 673 284 671 281 666 L220 559 C215 551 218 546 227 546 L240 546 C245 546 249 548 252 553 L323 660 C328 668 325 673 316 673 L293 673 Z " />
<glyph glyph-name="ecircumflex" unicode="&#xea;" horiz-adv-x="459" d="M235 500 C127 500 76 441 76 320 L76 160 C76 37 123 -12 248 -12 C282 -12 326 -6 367 3 C374 5 378 9 377 16 L376 31 C375 39 371 43 363 41 C330 34 288 26 249 26 C155 26 116 58 116 157 L116 238 L373 238 C389 238 395 244 395 260 L395 319 C395 444 338 500 235 500 L235 500 Z M234 464 C310 464 355 423 355 326 L355 273 L116 273 L116 329 C116 423 155 464 234 464 L234 464 Z M129 602 C124 599 122 596 122 590 L122 577 C122 569 127 565 135 569 L236 625 L339 569 C346 565 352 569 352 577 L352 590 C352 596 350 599 345 602 L244 663 C239 666 234 666 229 663 L129 602 Z " />
<glyph glyph-name="edieresis" unicode="&#xeb;" horiz-adv-x="459" d="M235 500 C127 500 76 441 76 320 L76 160 C76 37 123 -12 248 -12 C282 -12 326 -6 367 3 C374 5 378 9 377 16 L376 31 C375 39 371 43 363 41 C330 34 288 26 249 26 C155 26 116 58 116 157 L116 238 L373 238 C389 238 395 244 395 260 L395 319 C395 444 338 500 235 500 L235 500 Z M234 464 C310 464 355 423 355 326 L355 273 L116 273 L116 329 C116 423 155 464 234 464 L234 464 Z M173 642 C157 642 146 633 146 619 L146 602 C146 588 157 579 173 579 C190 579 202 588 202 602 L202 619 C202 633 190 642 173 642 L173 642 Z M298 642 C282 642 271 633 271 619 L271 602 C271 588 282 579 298 579 C316 579 327 588 327 602 L327 619 C327 633 316 642 298 642 L298 642 Z " />
<glyph glyph-name="igrave" unicode="&#xec;" horiz-adv-x="211" d="M97 488 C90 488 86 484 86 476 L86 12 C86 4 90 0 97 0 L114 0 C121 0 126 4 126 12 L126 476 C126 484 121 488 114 488 L97 488 Z M22 673 C13 673 10 668 14 660 L86 553 C89 548 93 546 98 546 L111 546 C119 546 123 551 118 559 L57 666 C54 671 50 673 45 673 L22 673 Z " />
<glyph glyph-name="iacute" unicode="&#xed;" horiz-adv-x="211" d="M97 488 C90 488 86 484 86 476 L86 12 C86 4 90 0 97 0 L114 0 C121 0 126 4 126 12 L126 476 C126 484 121 488 114 488 L97 488 Z M162 673 C157 673 153 671 150 666 L89 559 C84 551 87 546 96 546 L109 546 C114 546 118 548 121 553 L192 660 C197 668 194 673 185 673 L162 673 Z " />
<glyph glyph-name="icircumflex" unicode="&#xee;" horiz-adv-x="211" d="M97 488 C90 488 86 484 86 476 L86 12 C86 4 90 0 97 0 L114 0 C121 0 126 4 126 12 L126 476 C126 484 121 488 114 488 L97 488 Z M-2 602 C-7 599 -9 596 -9 590 L-9 577 C-9 569 -4 565 4 569 L105 625 L208 569 C215 565 221 569 221 577 L221 590 C221 596 219 599 214 602 L113 663 C108 666 103 666 98 663 L-2 602 Z " />
<glyph glyph-name="idieresis" unicode="&#xef;" horiz-adv-x="211" d="M97 488 C90 488 86 484 86 476 L86 12 C86 4 90 0 97 0 L114 0 C121 0 126 4 126 12 L126 476 C126 484 121 488 114 488 L97 488 Z M42 642 C26 642 15 633 15 619 L15 602 C15 588 26 579 42 579 C59 579 71 588 71 602 L71 619 C71 633 59 642 42 642 L42 642 Z M167 642 C151 642 140 633 140 619 L140 602 C140 588 151 579 167 579 C185 579 196 588 196 602 L196 619 C196 633 185 642 167 642 L167 642 Z " />
<glyph glyph-name="eth" unicode="&#xf0;" horiz-adv-x="494" d="M126 674 C126 666 130 662 137 662 C205 659 259 632 298 587 L198 558 C191 556 188 552 188 545 L188 536 C188 528 193 524 202 527 L318 562 C351 511 368 442 368 360 L368 325 C333 382 276 439 207 439 C120 439 86 377 86 272 L86 157 C86 38 131 -12 247 -12 C362 -12 408 51 408 166 L408 328 C408 432 390 514 355 573 L408 590 C415 591 418 596 418 603 L418 608 C418 616 414 620 405 618 L338 598 C291 660 223 692 138 695 C130 695 126 691 126 683 L126 674 Z M215 402 C274 402 338 333 368 281 L368 148 C368 62 326 24 247 24 C164 24 126 59 126 148 L126 260 C126 367 154 402 215 402 L215 402 Z " />
<glyph glyph-name="ntilde" unicode="&#xf1;" horiz-adv-x="494" d="M284 500 C221 500 165 460 122 385 L122 476 C122 484 118 488 110 488 L97 488 C90 488 86 484 86 476 L86 12 C86 4 90 0 97 0 L114 0 C121 0 126 4 126 12 L126 343 C162 416 220 462 278 462 C338 462 368 430 368 326 L368 12 C368 4 373 0 380 0 L396 0 C404 0 408 4 408 12 L408 331 C408 452 368 500 284 500 L284 500 Z M348 632 C335 625 313 617 292 617 C265 617 249 642 207 642 C176 642 153 630 143 623 C137 619 136 615 136 610 L136 596 C136 588 141 585 148 588 C162 595 184 604 205 604 C234 604 257 579 290 579 C319 579 343 591 354 598 C359 601 360 605 360 611 L360 624 C360 632 355 636 348 632 L348 632 Z " />
<glyph glyph-name="ograve" unicode="&#xf2;" horiz-adv-x="481" d="M240 500 C129 500 76 440 76 317 L76 171 C76 49 127 -12 240 -12 C350 -12 405 52 405 171 L405 317 C405 441 351 500 240 500 L240 500 Z M240 464 C321 464 364 419 364 325 L364 164 C364 70 320 24 240 24 C160 24 116 69 116 164 L116 324 C116 417 157 464 240 464 L240 464 Z M156 673 C147 673 144 668 148 660 L220 553 C223 548 227 546 232 546 L245 546 C253 546 257 551 252 559 L191 666 C188 671 184 673 179 673 L156 673 Z " />
<glyph glyph-name="oacute" unicode="&#xf3;" horiz-adv-x="481" d="M240 500 C129 500 76 440 76 317 L76 171 C76 49 127 -12 240 -12 C350 -12 405 52 405 171 L405 317 C405 441 351 500 240 500 L240 500 Z M240 464 C321 464 364 419 364 325 L364 164 C364 70 320 24 240 24 C160 24 116 69 116 164 L116 324 C116 417 157 464 240 464 L240 464 Z M297 673 C292 673 288 671 285 666 L224 559 C219 551 222 546 231 546 L244 546 C249 546 253 548 256 553 L327 660 C332 668 329 673 320 673 L297 673 Z " />
<glyph glyph-name="ocircumflex" unicode="&#xf4;" horiz-adv-x="481" d="M240 500 C129 500 76 440 76 317 L76 171 C76 49 127 -12 240 -12 C350 -12 405 52 405 171 L405 317 C405 441 351 500 240 500 L240 500 Z M240 464 C321 464 364 419 364 325 L364 164 C364 70 320 24 240 24 C160 24 116 69 116 164 L116 324 C116 417 157 464 240 464 L240 464 Z M132 602 C127 599 125 596 125 590 L125 577 C125 569 130 565 138 569 L239 625 L342 569 C349 565 355 569 355 577 L355 590 C355 596 353 599 348 602 L247 663 C242 666 237 666 232 663 L132 602 Z " />
<glyph glyph-name="otilde" unicode="&#xf5;" horiz-adv-x="481" d="M240 500 C129 500 76 440 76 317 L76 171 C76 49 127 -12 240 -12 C350 -12 405 52 405 171 L405 317 C405 441 351 500 240 500 L240 500 Z M240 464 C321 464 364 419 364 325 L364 164 C364 70 320 24 240 24 C160 24 116 69 116 164 L116 324 C116 417 157 464 240 464 L240 464 Z M341 632 C328 625 306 617 285 617 C258 617 242 642 200 642 C169 642 146 630 136 623 C130 619 129 615 129 610 L129 596 C129 588 134 585 141 588 C155 595 177 604 198 604 C227 604 250 579 283 579 C312 579 336 591 347 598 C352 601 353 605 353 611 L353 624 C353 632 348 636 341 632 L341 632 Z " />
<glyph glyph-name="odieresis" unicode="&#xf6;" horiz-adv-x="481" d="M240 500 C129 500 76 440 76 317 L76 171 C76 49 127 -12 240 -12 C350 -12 405 52 405 171 L405 317 C405 441 351 500 240 500 L240 500 Z M240 464 C321 464 364 419 364 325 L364 164 C364 70 320 24 240 24 C160 24 116 69 116 164 L116 324 C116 417 157 464 240 464 L240 464 Z M177 642 C161 642 150 633 150 619 L150 602 C150 588 161 579 177 579 C194 579 206 588 206 602 L206 619 C206 633 194 642 177 642 L177 642 Z M302 642 C286 642 275 633 275 619 L275 602 C275 588 286 579 302 579 C320 579 331 588 331 602 L331 619 C331 633 320 642 302 642 L302 642 Z " />
<glyph glyph-name="divide" unicode="&#xf7;" horiz-adv-x="398" d="M197 489 C177 489 167 479 167 461 L167 449 C167 431 177 422 197 422 C219 422 228 431 228 449 L228 461 C228 479 219 489 197 489 L197 489 Z M44 323 C36 323 32 319 32 312 L32 299 C32 292 36 288 44 288 L353 288 C361 288 365 292 365 299 L365 312 C365 319 361 323 353 323 L44 323 Z M197 189 C177 189 167 179 167 160 L167 149 C167 131 177 122 197 122 C219 122 228 131 228 149 L228 160 C228 179 219 189 197 189 L197 189 Z " />
<glyph glyph-name="oslash" unicode="&#xf8;" horiz-adv-x="481" d="M416 538 C410 538 406 535 403 531 L358 460 C331 487 292 500 240 500 C129 500 76 440 76 317 L76 171 C76 120 85 80 103 51 L48 -37 C43 -45 46 -51 55 -51 L71 -51 C77 -51 82 -48 85 -44 L126 24 C153 0 190 -12 240 -12 C350 -12 405 52 405 171 L405 317 C405 364 397 402 381 430 L440 524 C445 532 441 538 432 538 L416 538 Z M240 464 C284 464 316 451 338 424 L130 91 C120 110 116 134 116 165 L116 324 C116 417 157 464 240 464 L240 464 Z M353 390 C360 372 364 349 364 323 L364 164 C364 70 320 24 240 24 C200 24 168 35 147 59 L353 390 Z " />
<glyph glyph-name="ugrave" unicode="&#xf9;" horiz-adv-x="488" d="M374 488 C367 488 362 484 362 476 L362 145 C325 71 268 26 213 26 C155 26 126 58 126 163 L126 476 C126 484 121 488 114 488 L97 488 C90 488 86 484 86 476 L86 157 C86 35 126 -12 207 -12 C268 -12 322 26 366 103 L366 12 C366 4 370 0 378 0 L390 0 C398 0 402 4 402 12 L402 476 C402 484 398 488 390 488 L374 488 Z M160 673 C151 673 148 668 152 660 L224 553 C227 548 231 546 236 546 L249 546 C257 546 261 551 256 559 L195 666 C192 671 188 673 183 673 L160 673 Z " />
<glyph glyph-name="uacute" unicode="&#xfa;" horiz-adv-x="488" d="M374 488 C367 488 362 484 362 476 L362 145 C325 71 268 26 213 26 C155 26 126 58 126 163 L126 476 C126 484 121 488 114 488 L97 488 C90 488 86 484 86 476 L86 157 C86 35 126 -12 207 -12 C268 -12 322 26 366 103 L366 12 C366 4 370 0 378 0 L390 0 C398 0 402 4 402 12 L402 476 C402 484 398 488 390 488 L374 488 Z M300 673 C295 673 291 671 288 666 L227 559 C222 551 225 546 234 546 L247 546 C252 546 256 548 259 553 L330 660 C335 668 332 673 323 673 L300 673 Z " />
<glyph glyph-name="ucircumflex" unicode="&#xfb;" horiz-adv-x="488" d="M374 488 C367 488 362 484 362 476 L362 145 C325 71 268 26 213 26 C155 26 126 58 126 163 L126 476 C126 484 121 488 114 488 L97 488 C90 488 86 484 86 476 L86 157 C86 35 126 -12 207 -12 C268 -12 322 26 366 103 L366 12 C366 4 370 0 378 0 L390 0 C398 0 402 4 402 12 L402 476 C402 484 398 488 390 488 L374 488 Z M136 602 C131 599 129 596 129 590 L129 577 C129 569 134 565 142 569 L243 625 L346 569 C353 565 359 569 359 577 L359 590 C359 596 357 599 352 602 L251 663 C246 666 241 666 236 663 L136 602 Z " />
<glyph glyph-name="udieresis" unicode="&#xfc;" horiz-adv-x="488" d="M374 488 C367 488 362 484 362 476 L362 145 C325 71 268 26 213 26 C155 26 126 58 126 163 L126 476 C126 484 121 488 114 488 L97 488 C90 488 86 484 86 476 L86 157 C86 35 126 -12 207 -12 C268 -12 322 26 366 103 L366 12 C366 4 370 0 378 0 L390 0 C398 0 402 4 402 12 L402 476 C402 484 398 488 390 488 L374 488 Z M180 642 C164 642 153 633 153 619 L153 602 C153 588 164 579 180 579 C197 579 209 588 209 602 L209 619 C209 633 197 642 180 642 L180 642 Z M305 642 C289 642 278 633 278 619 L278 602 C278 588 289 579 305 579 C323 579 334 588 334 602 L334 619 C334 633 323 642 305 642 L305 642 Z " />
<glyph glyph-name="yacute" unicode="&#xfd;" horiz-adv-x="428" d="M378 488 C371 488 366 485 365 479 L207 28 L63 478 C62 485 57 488 50 488 L32 488 C23 488 19 482 22 475 L173 10 C176 3 180 0 187 0 L197 0 L135 -172 C132 -179 136 -185 145 -185 L161 -185 C168 -185 172 -182 174 -176 L406 475 C409 482 405 488 396 488 L378 488 Z M271 673 C266 673 262 671 259 666 L198 559 C193 551 196 546 205 546 L218 546 C223 546 227 548 230 553 L301 660 C306 668 303 673 294 673 L271 673 Z " />
<glyph glyph-name="thorn" unicode="&#xfe;" horiz-adv-x="482" d="M97 683 C90 683 86 679 86 671 L86 -173 C86 -181 90 -185 97 -185 L114 -185 C121 -185 126 -181 126 -173 L126 43 C167 11 229 -12 273 -12 C359 -12 406 41 406 155 L406 328 C406 452 360 500 281 500 C219 500 163 454 126 394 L126 671 C126 679 121 683 114 683 L97 683 Z M275 463 C332 463 366 425 366 322 L366 160 C366 64 333 25 264 25 C225 25 164 49 126 81 L126 347 C160 410 220 463 275 463 L275 463 Z " />
<glyph glyph-name="ydieresis" unicode="&#xff;" horiz-adv-x="428" d="M378 488 C371 488 366 485 365 479 L207 28 L63 478 C62 485 57 488 50 488 L32 488 C23 488 19 482 22 475 L173 10 C176 3 180 0 187 0 L197 0 L135 -172 C132 -179 136 -185 145 -185 L161 -185 C168 -185 172 -182 174 -176 L406 475 C409 482 405 488 396 488 L378 488 Z M150 642 C134 642 123 633 123 619 L123 602 C123 588 134 579 150 579 C167 579 179 588 179 602 L179 619 C179 633 167 642 150 642 L150 642 Z M275 642 C259 642 248 633 248 619 L248 602 C248 588 259 579 275 579 C293 579 304 588 304 602 L304 619 C304 633 293 642 275 642 L275 642 Z " />
<glyph glyph-name="Amacron" unicode="&#x100;" horiz-adv-x="512" d="M234 655 C227 655 222 652 221 645 L18 13 C15 6 19 0 28 0 L47 0 C54 0 58 3 60 10 L110 171 L395 171 L449 10 C450 3 455 0 462 0 L482 0 C491 0 495 6 492 13 L280 646 C279 652 274 655 267 655 L234 655 Z M250 617 L384 209 L122 209 L250 617 Z M157 765 C150 765 146 761 146 754 L146 737 C146 730 150 726 157 726 L347 726 C354 726 358 730 358 737 L358 754 C358 761 354 765 347 765 L157 765 Z " />
<glyph glyph-name="amacron" unicode="&#x101;" horiz-adv-x="457" d="M232 500 C198 500 152 493 111 486 C103 485 99 481 99 473 L99 459 C99 451 103 447 112 449 C147 455 195 463 232 463 C309 463 336 434 336 353 L336 286 C302 292 246 299 212 299 C115 299 61 238 61 160 L61 134 C61 39 108 -12 184 -12 C241 -12 291 21 339 99 L339 12 C339 4 344 0 351 0 L364 0 C372 0 376 4 376 12 L376 351 C376 462 335 500 232 500 L232 500 Z M226 264 C252 264 305 259 336 253 L336 142 C301 77 242 26 194 26 C137 26 102 61 102 141 L102 152 C102 222 141 264 226 264 L226 264 Z M147 634 C140 634 136 631 136 624 L136 606 C136 599 140 595 147 595 L317 595 C324 595 328 599 328 606 L328 624 C328 631 324 634 317 634 L147 634 Z " />
<glyph glyph-name="Abreve" unicode="&#x102;" horiz-adv-x="512" d="M234 655 C227 655 222 652 221 645 L18 13 C15 6 19 0 28 0 L47 0 C54 0 58 3 60 10 L110 171 L395 171 L449 10 C450 3 455 0 462 0 L482 0 C491 0 495 6 492 13 L280 646 C279 652 274 655 267 655 L234 655 Z M250 617 L384 209 L122 209 L250 617 Z M359 789 C340 776 300 752 252 752 C203 752 163 776 144 789 C136 794 131 792 131 783 L131 763 C131 758 133 754 137 750 C152 739 192 714 252 714 C312 714 349 738 365 749 C371 753 372 758 372 764 L372 783 C372 792 367 794 359 789 L359 789 Z " />
<glyph glyph-name="abreve" unicode="&#x103;" horiz-adv-x="457" d="M232 500 C198 500 152 493 111 486 C103 485 99 481 99 473 L99 459 C99 451 103 447 112 449 C147 455 195 463 232 463 C309 463 336 434 336 353 L336 286 C302 292 246 299 212 299 C115 299 61 238 61 160 L61 134 C61 39 108 -12 184 -12 C241 -12 291 21 339 99 L339 12 C339 4 344 0 351 0 L364 0 C372 0 376 4 376 12 L376 351 C376 462 335 500 232 500 L232 500 Z M226 264 C252 264 305 259 336 253 L336 142 C301 77 242 26 194 26 C137 26 102 61 102 141 L102 152 C102 222 141 264 226 264 L226 264 Z M334 642 C317 625 282 597 233 597 C184 597 149 625 132 642 C125 648 120 647 120 637 L120 619 C120 614 121 610 124 606 C136 593 170 559 233 559 C295 559 327 591 341 605 C345 609 346 614 346 619 L346 637 C346 647 341 648 334 642 L334 642 Z " />
<glyph glyph-name="Aogonek" unicode="&#x104;" horiz-adv-x="512" d="M235 655 C228 655 223 652 222 645 L19 13 C16 6 20 0 29 0 L48 0 C55 0 59 3 61 10 L111 171 L396 171 L452 2 C408 -16 374 -64 374 -110 L374 -119 C374 -166 404 -197 457 -197 C466 -197 478 -196 491 -194 C498 -193 501 -189 501 -181 L501 -171 C501 -163 497 -159 488 -160 C481 -162 473 -163 464 -163 C428 -163 411 -146 411 -112 L411 -104 C411 -67 442 -21 487 0 L488 0 C493 0 496 6 493 13 L281 646 C280 652 275 655 268 655 L235 655 Z M251 617 L385 209 L123 209 L251 617 Z " />
<glyph glyph-name="aogonek" unicode="&#x105;" horiz-adv-x="465" d="M232 500 C198 500 152 493 111 486 C103 485 99 481 99 473 L99 459 C99 451 103 447 112 449 C147 455 195 463 232 463 C309 463 336 434 336 353 L336 286 C302 292 246 299 212 299 C115 299 61 238 61 160 L61 134 C61 39 108 -12 184 -12 C241 -12 291 21 339 99 L339 4 C294 -13 257 -63 257 -110 L257 -119 C257 -166 287 -197 340 -197 C349 -197 361 -196 373 -194 C381 -193 384 -189 384 -181 L384 -171 C384 -163 380 -159 371 -160 C364 -162 356 -163 347 -163 C311 -163 294 -146 294 -112 L294 -104 C294 -67 326 -21 370 0 C374 0 376 3 376 10 L376 351 C376 462 335 500 232 500 L232 500 Z M226 264 C252 264 305 259 336 253 L336 142 C301 77 242 26 194 26 C137 26 102 61 102 141 L102 152 C102 222 141 264 226 264 L226 264 Z " />
<glyph glyph-name="Cacute" unicode="&#x106;" horiz-adv-x="479" d="M282 667 C135 667 82 606 82 466 L82 188 C82 54 136 -12 281 -12 C325 -12 362 -6 402 2 C408 4 413 8 413 15 L412 30 C411 39 406 42 399 40 C367 34 329 27 283 26 C168 24 122 77 122 185 L122 469 C122 587 166 630 281 630 C326 630 367 622 398 616 C406 614 410 618 411 627 L412 641 C412 649 408 652 401 654 C362 662 325 667 282 667 L282 667 Z M315 825 C310 825 306 823 303 817 L248 719 C244 711 247 706 256 706 L268 706 C274 706 278 709 281 713 L345 812 C349 820 347 825 338 825 L315 825 Z " />
<glyph glyph-name="cacute" unicode="&#x107;" horiz-adv-x="393" d="M234 500 C128 500 76 442 76 323 L76 165 C76 45 128 -12 239 -12 C270 -12 289 -9 320 -2 C329 0 332 4 331 12 L330 25 C329 34 325 37 316 36 C289 28 270 25 240 25 C159 25 116 67 116 164 L116 327 C116 422 159 463 233 463 C261 463 286 459 316 452 C326 450 330 453 330 462 L331 474 C332 482 329 486 322 488 C291 495 260 500 234 500 L234 500 Z M283 673 C278 673 274 671 271 666 L210 559 C205 551 208 546 217 546 L230 546 C235 546 239 548 242 553 L313 660 C318 668 315 673 306 673 L283 673 Z " />
<glyph glyph-name="Ccircumflex" unicode="&#x108;" horiz-adv-x="479" d="M282 667 C135 667 82 606 82 466 L82 188 C82 54 136 -12 281 -12 C325 -12 362 -6 402 2 C408 4 413 8 413 15 L412 30 C411 39 406 42 399 40 C367 34 329 27 283 26 C168 24 122 77 122 185 L122 469 C122 587 166 630 281 630 C326 630 367 622 398 616 C406 614 410 618 411 627 L412 641 C412 649 408 652 401 654 C362 662 325 667 282 667 L282 667 Z M156 760 C150 757 148 753 148 747 L148 733 C148 726 153 723 160 725 L268 772 L376 725 C383 723 388 726 388 733 L388 746 C388 753 386 757 380 760 L275 811 C270 813 265 813 261 811 L156 760 Z " />
<glyph glyph-name="ccircumflex" unicode="&#x109;" horiz-adv-x="393" d="M234 500 C128 500 76 442 76 323 L76 165 C76 45 128 -12 239 -12 C270 -12 289 -9 320 -2 C329 0 332 4 331 12 L330 25 C329 34 325 37 316 36 C289 28 270 25 240 25 C159 25 116 67 116 164 L116 327 C116 422 159 463 233 463 C261 463 286 459 316 452 C326 450 330 453 330 462 L331 474 C332 482 329 486 322 488 C291 495 260 500 234 500 L234 500 Z M119 602 C114 599 112 596 112 590 L112 577 C112 569 117 565 125 569 L226 625 L329 569 C336 565 342 569 342 577 L342 590 C342 596 340 599 335 602 L234 663 C229 666 224 666 219 663 L119 602 Z " />
<glyph glyph-name="Cdotaccent" unicode="&#x10a;" horiz-adv-x="479" d="M282 667 C135 667 82 606 82 466 L82 188 C82 54 136 -12 281 -12 C325 -12 362 -6 402 2 C408 4 413 8 413 15 L412 30 C411 39 406 42 399 40 C367 34 329 27 283 26 C168 24 122 77 122 185 L122 469 C122 587 166 630 281 630 C326 630 367 622 398 616 C406 614 410 618 411 627 L412 641 C412 649 408 652 401 654 C362 662 325 667 282 667 L282 667 Z M267 801 C248 801 237 791 237 774 L237 757 C237 739 248 730 267 730 C288 730 299 739 299 757 L299 774 C299 791 288 801 267 801 L267 801 Z " />
<glyph glyph-name="cdotaccent" unicode="&#x10b;" horiz-adv-x="393" d="M234 500 C128 500 76 442 76 323 L76 165 C76 45 128 -12 239 -12 C270 -12 289 -9 320 -2 C329 0 332 4 331 12 L330 25 C329 34 325 37 316 36 C289 28 270 25 240 25 C159 25 116 67 116 164 L116 327 C116 422 159 463 233 463 C261 463 286 459 316 452 C326 450 330 453 330 462 L331 474 C332 482 329 486 322 488 C291 495 260 500 234 500 L234 500 Z M226 648 C207 648 196 638 196 621 L196 604 C196 586 207 577 226 577 C247 577 258 586 258 604 L258 621 C258 638 247 648 226 648 L226 648 Z " />
<glyph glyph-name="Ccaron" unicode="&#x10c;" horiz-adv-x="479" d="M282 667 C135 667 82 606 82 466 L82 188 C82 54 136 -12 281 -12 C325 -12 362 -6 402 2 C408 4 413 8 413 15 L412 30 C411 39 406 42 399 40 C367 34 329 27 283 26 C168 24 122 77 122 185 L122 469 C122 587 166 630 281 630 C326 630 367 622 398 616 C406 614 410 618 411 627 L412 641 C412 649 408 652 401 654 C362 662 325 667 282 667 L282 667 Z M268 765 L160 811 C153 814 148 811 148 803 L148 789 C148 783 150 780 156 777 L261 726 C265 723 270 723 275 726 L380 777 C386 780 388 783 388 789 L388 803 C388 811 383 814 376 811 L268 765 Z " />
<glyph glyph-name="ccaron" unicode="&#x10d;" horiz-adv-x="393" d="M234 500 C128 500 76 442 76 323 L76 165 C76 45 128 -12 239 -12 C270 -12 289 -9 320 -2 C329 0 332 4 331 12 L330 25 C329 34 325 37 316 36 C289 28 270 25 240 25 C159 25 116 67 116 164 L116 327 C116 422 159 463 233 463 C261 463 286 459 316 452 C326 450 330 453 330 462 L331 474 C332 482 329 486 322 488 C291 495 260 500 234 500 L234 500 Z M226 607 L125 663 C117 667 112 663 112 655 L112 642 C112 636 114 633 119 630 L219 570 C224 567 229 567 234 570 L335 630 C340 633 342 636 342 642 L342 655 C342 663 336 667 329 663 L226 607 Z " />
<glyph glyph-name="Dcaron" unicode="&#x10e;" horiz-adv-x="570" d="M246 667 C194 667 137 665 96 662 C89 662 87 658 87 650 L87 5 C87 -3 91 -7 98 -7 C145 -10 194 -12 250 -12 C413 -12 494 76 494 232 L494 416 C494 587 407 667 246 667 L246 667 Z M243 631 C384 631 454 563 454 418 L454 228 C454 96 380 25 250 25 C216 25 180 26 127 31 L127 627 C159 629 205 631 243 631 L243 631 Z M263 765 L155 811 C148 814 143 811 143 803 L143 789 C143 783 145 780 151 777 L256 726 C260 723 265 723 270 726 L375 777 C381 780 383 783 383 789 L383 803 C383 811 378 814 371 811 L263 765 Z " />
<glyph glyph-name="dcaron" unicode="&#x10f;" horiz-adv-x="504" d="M369 683 C362 683 357 679 357 671 L357 433 C327 461 275 500 214 500 C126 500 76 440 76 334 L76 152 C76 36 122 -12 200 -12 C263 -12 322 43 361 116 L361 12 C361 4 365 0 373 0 L386 0 C394 0 398 4 398 12 L398 671 C398 679 394 683 386 683 L369 683 Z M221 463 C272 463 327 427 357 393 L357 158 C323 91 269 25 210 25 C153 25 116 57 116 160 L116 327 C116 420 155 463 221 463 L221 463 Z M473 695 C454 695 445 685 445 668 L445 656 C445 639 451 632 468 629 L457 575 C455 567 458 563 466 563 L473 563 C479 563 483 565 484 572 L495 609 C500 625 503 638 503 655 L503 667 C503 684 496 695 473 695 L473 695 Z " />
<glyph glyph-name="Dcroat" unicode="&#x110;" horiz-adv-x="571" d="M247 667 C195 667 138 665 97 663 C90 663 88 659 88 651 L88 366 L20 366 C12 366 8 362 8 354 L8 342 C8 335 12 330 20 330 L88 330 L88 5 C88 -3 92 -7 99 -7 C146 -10 195 -12 251 -12 C414 -12 495 76 495 232 L495 416 C495 587 409 667 247 667 L247 667 Z M244 631 C385 631 455 563 455 418 L455 228 C455 96 381 25 251 25 C217 25 181 26 128 31 L128 330 L264 330 C271 330 275 335 275 342 L275 354 C275 362 271 366 264 366 L128 366 L128 628 C160 630 206 631 244 631 L244 631 Z " />
<glyph glyph-name="dcroat" unicode="&#x111;" horiz-adv-x="489" d="M369 683 C362 683 357 679 357 671 L357 617 L231 617 C223 617 219 612 219 605 L219 594 C219 587 223 582 231 582 L357 582 L357 433 C327 461 275 500 214 500 C126 500 76 440 76 334 L76 152 C76 36 122 -12 200 -12 C263 -12 322 43 361 116 L361 12 C361 4 365 0 373 0 L386 0 C394 0 398 4 398 12 L398 582 L460 582 C468 582 472 587 472 594 L472 605 C472 612 468 617 460 617 L398 617 L398 671 C398 679 394 683 386 683 L369 683 Z M221 463 C272 463 327 427 357 393 L357 158 C323 91 269 25 210 25 C153 25 116 57 116 160 L116 327 C116 420 155 463 221 463 L221 463 Z " />
<glyph glyph-name="Emacron" unicode="&#x112;" horiz-adv-x="477" d="M98 655 C91 655 87 651 87 643 L87 12 C87 4 91 0 98 0 L389 0 C396 0 401 4 401 12 L401 26 C401 33 396 37 389 37 L127 37 L127 314 L369 314 C376 314 381 319 381 326 L381 340 C381 347 376 352 369 352 L127 352 L127 618 L389 618 C396 618 401 622 401 629 L401 643 C401 651 396 655 389 655 L98 655 Z M155 765 C148 765 144 761 144 754 L144 737 C144 730 148 726 155 726 L345 726 C352 726 356 730 356 737 L356 754 C356 761 352 765 345 765 L155 765 Z " />
<glyph glyph-name="emacron" unicode="&#x113;" horiz-adv-x="459" d="M235 500 C127 500 76 441 76 320 L76 160 C76 37 123 -12 248 -12 C282 -12 326 -6 367 3 C374 5 378 9 377 16 L376 31 C375 39 371 43 363 41 C330 34 288 26 249 26 C155 26 116 58 116 157 L116 238 L373 238 C389 238 395 244 395 260 L395 319 C395 444 338 500 235 500 L235 500 Z M234 464 C310 464 355 423 355 326 L355 273 L116 273 L116 329 C116 423 155 464 234 464 L234 464 Z M152 634 C145 634 141 631 141 624 L141 606 C141 599 145 595 152 595 L322 595 C329 595 333 599 333 606 L333 624 C333 631 329 634 322 634 L152 634 Z " />
<glyph glyph-name="Ebreve" unicode="&#x114;" horiz-adv-x="477" d="M98 655 C91 655 87 651 87 643 L87 12 C87 4 91 0 98 0 L389 0 C396 0 401 4 401 12 L401 26 C401 33 396 37 389 37 L127 37 L127 314 L369 314 C376 314 381 319 381 326 L381 340 C381 347 376 352 369 352 L127 352 L127 618 L389 618 C396 618 401 622 401 629 L401 643 C401 651 396 655 389 655 L98 655 Z M358 789 C339 776 299 752 251 752 C202 752 162 776 143 789 C135 794 130 792 130 783 L130 763 C130 758 132 754 136 750 C151 739 191 714 251 714 C311 714 348 738 364 749 C370 753 371 758 371 764 L371 783 C371 792 366 794 358 789 L358 789 Z " />
<glyph glyph-name="ebreve" unicode="&#x115;" horiz-adv-x="459" d="M235 500 C127 500 76 441 76 320 L76 160 C76 37 123 -12 248 -12 C282 -12 326 -6 367 3 C374 5 378 9 377 16 L376 31 C375 39 371 43 363 41 C330 34 288 26 249 26 C155 26 116 58 116 157 L116 238 L373 238 C389 238 395 244 395 260 L395 319 C395 444 338 500 235 500 L235 500 Z M234 464 C310 464 355 423 355 326 L355 273 L116 273 L116 329 C116 423 155 464 234 464 L234 464 Z M338 642 C321 625 286 597 237 597 C188 597 153 625 136 642 C129 648 124 647 124 637 L124 619 C124 614 125 610 128 606 C140 593 174 559 237 559 C299 559 331 591 345 605 C349 609 350 614 350 619 L350 637 C350 647 345 648 338 642 L338 642 Z " />
<glyph glyph-name="Edotaccent" unicode="&#x116;" horiz-adv-x="477" d="M98 655 C91 655 87 651 87 643 L87 12 C87 4 91 0 98 0 L389 0 C396 0 401 4 401 12 L401 26 C401 33 396 37 389 37 L127 37 L127 314 L369 314 C376 314 381 319 381 326 L381 340 C381 347 376 352 369 352 L127 352 L127 618 L389 618 C396 618 401 622 401 629 L401 643 C401 651 396 655 389 655 L98 655 Z M250 801 C231 801 220 791 220 774 L220 757 C220 739 231 730 250 730 C271 730 282 739 282 757 L282 774 C282 791 271 801 250 801 L250 801 Z " />
<glyph glyph-name="edotaccent" unicode="&#x117;" horiz-adv-x="459" d="M235 500 C127 500 76 441 76 320 L76 160 C76 37 123 -12 248 -12 C282 -12 326 -6 367 3 C374 5 378 9 377 16 L376 31 C375 39 371 43 363 41 C330 34 288 26 249 26 C155 26 116 58 116 157 L116 238 L373 238 C389 238 395 244 395 260 L395 319 C395 444 338 500 235 500 L235 500 Z M234 464 C310 464 355 423 355 326 L355 273 L116 273 L116 329 C116 423 155 464 234 464 L234 464 Z M236 648 C217 648 206 638 206 621 L206 604 C206 586 217 577 236 577 C257 577 268 586 268 604 L268 621 C268 638 257 648 236 648 L236 648 Z " />
<glyph glyph-name="Eogonek" unicode="&#x118;" horiz-adv-x="477" d="M127 618 L389 618 C396 618 401 622 401 629 L401 643 C401 651 396 655 389 655 L98 655 C91 655 87 651 87 643 L87 12 C87 4 91 0 98 0 L299 0 C258 -21 226 -67 226 -110 L226 -119 C226 -166 257 -197 309 -197 C321 -197 330 -197 344 -194 C351 -193 353 -189 353 -182 L353 -169 C353 -162 349 -159 342 -160 C333 -162 324 -163 315 -163 C280 -163 263 -146 263 -112 L263 -104 C263 -69 298 -17 339 0 L389 0 C396 0 401 4 401 12 L401 26 C401 33 396 37 389 37 L127 37 L127 314 L369 314 C376 314 381 319 381 326 L381 340 C381 347 376 352 369 352 L127 352 L127 618 Z " />
<glyph glyph-name="eogonek" unicode="&#x119;" horiz-adv-x="459" d="M235 500 C127 500 76 441 76 320 L76 160 C76 37 123 -12 248 -12 C268 -12 291 -10 313 -7 C279 -30 252 -71 252 -110 L252 -119 C252 -166 284 -197 335 -197 C347 -197 357 -197 370 -194 C377 -193 380 -189 380 -182 L380 -169 C380 -162 376 -159 368 -160 C360 -162 351 -163 341 -163 C307 -163 289 -146 289 -112 L289 -104 C289 -68 321 -20 368 1 C374 4 377 8 377 16 L376 32 C375 39 370 43 362 40 C327 31 288 26 249 26 C155 26 116 58 116 157 L116 238 L373 238 C389 238 395 244 395 260 L395 319 C395 444 338 500 235 500 L235 500 Z M234 464 C310 464 355 423 355 326 L355 273 L116 273 L116 329 C116 423 155 464 234 464 L234 464 Z " />
<glyph glyph-name="Ecaron" unicode="&#x11a;" horiz-adv-x="477" d="M98 655 C91 655 87 651 87 643 L87 12 C87 4 91 0 98 0 L389 0 C396 0 401 4 401 12 L401 26 C401 33 396 37 389 37 L127 37 L127 314 L369 314 C376 314 381 319 381 326 L381 340 C381 347 376 352 369 352 L127 352 L127 618 L389 618 C396 618 401 622 401 629 L401 643 C401 651 396 655 389 655 L98 655 Z M250 765 L142 811 C135 814 130 811 130 803 L130 789 C130 783 132 780 138 777 L243 726 C247 723 252 723 257 726 L362 777 C368 780 370 783 370 789 L370 803 C370 811 365 814 358 811 L250 765 Z " />
<glyph glyph-name="ecaron" unicode="&#x11b;" horiz-adv-x="459" d="M235 500 C127 500 76 441 76 320 L76 160 C76 37 123 -12 248 -12 C282 -12 326 -6 367 3 C374 5 378 9 377 16 L376 31 C375 39 371 43 363 41 C330 34 288 26 249 26 C155 26 116 58 116 157 L116 238 L373 238 C389 238 395 244 395 260 L395 319 C395 444 338 500 235 500 L235 500 Z M234 464 C310 464 355 423 355 326 L355 273 L116 273 L116 329 C116 423 155 464 234 464 L234 464 Z M236 607 L135 663 C127 667 122 663 122 655 L122 642 C122 636 124 633 129 630 L229 570 C234 567 239 567 244 570 L345 630 C350 633 352 636 352 642 L352 655 C352 663 346 667 339 663 L236 607 Z " />
<glyph glyph-name="Gcircumflex" unicode="&#x11c;" horiz-adv-x="557" d="M283 667 C137 667 82 610 82 473 L82 182 C82 51 137 -12 282 -12 C343 -12 408 3 460 18 C469 20 472 24 472 34 L472 350 C472 357 467 362 460 362 L311 362 C303 362 299 357 299 350 L299 335 C299 328 303 324 311 324 L432 324 L432 47 C376 33 323 25 282 25 C168 25 122 70 122 175 L122 483 C122 586 164 630 283 630 C331 630 389 621 429 613 C438 612 442 616 442 624 L442 638 C443 645 440 649 432 650 C387 659 326 667 283 667 L283 667 Z M163 760 C157 757 155 753 155 747 L155 733 C155 726 160 723 167 725 L275 772 L383 725 C390 723 395 726 395 733 L395 746 C395 753 393 757 387 760 L282 811 C277 813 272 813 268 811 L163 760 Z " />
<glyph glyph-name="gcircumflex" unicode="&#x11d;" horiz-adv-x="472" d="M230 500 C111 500 70 433 70 344 L70 322 C70 260 79 218 105 192 C76 174 61 149 61 116 L61 98 C61 51 83 22 145 18 L293 8 C355 4 373 -13 373 -63 L373 -82 C373 -137 351 -160 236 -160 C186 -160 135 -151 92 -139 C83 -136 78 -139 78 -148 L77 -164 C77 -172 80 -176 87 -178 C129 -188 189 -197 233 -197 C377 -197 412 -159 412 -89 L412 -53 C412 4 379 38 321 43 L155 55 C113 58 98 71 98 104 L98 120 C98 141 109 163 129 176 C153 162 185 157 228 157 C342 157 389 227 389 319 L389 341 C389 375 381 431 365 454 L442 452 C451 452 454 457 454 464 L454 477 C454 485 451 488 443 488 L329 485 C306 494 270 500 230 500 L230 500 Z M230 465 C274 465 310 459 333 452 C344 424 349 390 349 343 L349 313 C349 236 309 192 224 192 C136 192 110 221 110 313 L110 346 C110 429 152 465 230 465 L230 465 Z M124 602 C119 599 117 596 117 590 L117 577 C117 569 122 565 130 569 L231 625 L334 569 C341 565 347 569 347 577 L347 590 C347 596 345 599 340 602 L239 663 C234 666 229 666 224 663 L124 602 Z " />
<glyph glyph-name="Gbreve" unicode="&#x11e;" horiz-adv-x="557" d="M283 667 C137 667 82 610 82 473 L82 182 C82 51 137 -12 282 -12 C343 -12 408 3 460 18 C469 20 472 24 472 34 L472 350 C472 357 467 362 460 362 L311 362 C303 362 299 357 299 350 L299 335 C299 328 303 324 311 324 L432 324 L432 47 C376 33 323 25 282 25 C168 25 122 70 122 175 L122 483 C122 586 164 630 283 630 C331 630 389 621 429 613 C438 612 442 616 442 624 L442 638 C443 645 440 649 432 650 C387 659 326 667 283 667 L283 667 Z M383 789 C364 776 324 752 276 752 C227 752 187 776 168 789 C160 794 155 792 155 783 L155 763 C155 758 157 754 161 750 C176 739 216 714 276 714 C336 714 373 738 389 749 C395 753 396 758 396 764 L396 783 C396 792 391 794 383 789 L383 789 Z " />
<glyph glyph-name="gbreve" unicode="&#x11f;" horiz-adv-x="472" d="M230 500 C111 500 70 433 70 344 L70 322 C70 260 79 218 105 192 C76 174 61 149 61 116 L61 98 C61 51 83 22 145 18 L293 8 C355 4 373 -13 373 -63 L373 -82 C373 -137 351 -160 236 -160 C186 -160 135 -151 92 -139 C83 -136 78 -139 78 -148 L77 -164 C77 -172 80 -176 87 -178 C129 -188 189 -197 233 -197 C377 -197 412 -159 412 -89 L412 -53 C412 4 379 38 321 43 L155 55 C113 58 98 71 98 104 L98 120 C98 141 109 163 129 176 C153 162 185 157 228 157 C342 157 389 227 389 319 L389 341 C389 375 381 431 365 454 L442 452 C451 452 454 457 454 464 L454 477 C454 485 451 488 443 488 L329 485 C306 494 270 500 230 500 L230 500 Z M230 465 C274 465 310 459 333 452 C344 424 349 390 349 343 L349 313 C349 236 309 192 224 192 C136 192 110 221 110 313 L110 346 C110 429 152 465 230 465 L230 465 Z M333 642 C316 625 281 597 232 597 C183 597 148 625 131 642 C124 648 119 647 119 637 L119 619 C119 614 120 610 123 606 C135 593 169 559 232 559 C294 559 326 591 340 605 C344 609 345 614 345 619 L345 637 C345 647 340 648 333 642 L333 642 Z " />
<glyph glyph-name="Gdotaccent" unicode="&#x120;" horiz-adv-x="557" d="M283 667 C137 667 82 610 82 473 L82 182 C82 51 137 -12 282 -12 C343 -12 408 3 460 18 C469 20 472 24 472 34 L472 350 C472 357 467 362 460 362 L311 362 C303 362 299 357 299 350 L299 335 C299 328 303 324 311 324 L432 324 L432 47 C376 33 323 25 282 25 C168 25 122 70 122 175 L122 483 C122 586 164 630 283 630 C331 630 389 621 429 613 C438 612 442 616 442 624 L442 638 C443 645 440 649 432 650 C387 659 326 667 283 667 L283 667 Z M274 801 C255 801 244 791 244 774 L244 757 C244 739 255 730 274 730 C295 730 306 739 306 757 L306 774 C306 791 295 801 274 801 L274 801 Z " />
<glyph glyph-name="gdotaccent" unicode="&#x121;" horiz-adv-x="472" d="M230 500 C111 500 70 433 70 344 L70 322 C70 260 79 218 105 192 C76 174 61 149 61 116 L61 98 C61 51 83 22 145 18 L293 8 C355 4 373 -13 373 -63 L373 -82 C373 -137 351 -160 236 -160 C186 -160 135 -151 92 -139 C83 -136 78 -139 78 -148 L77 -164 C77 -172 80 -176 87 -178 C129 -188 189 -197 233 -197 C377 -197 412 -159 412 -89 L412 -53 C412 4 379 38 321 43 L155 55 C113 58 98 71 98 104 L98 120 C98 141 109 163 129 176 C153 162 185 157 228 157 C342 157 389 227 389 319 L389 341 C389 375 381 431 365 454 L442 452 C451 452 454 457 454 464 L454 477 C454 485 451 488 443 488 L329 485 C306 494 270 500 230 500 L230 500 Z M230 465 C274 465 310 459 333 452 C344 424 349 390 349 343 L349 313 C349 236 309 192 224 192 C136 192 110 221 110 313 L110 346 C110 429 152 465 230 465 L230 465 Z M231 648 C212 648 201 638 201 621 L201 604 C201 586 212 577 231 577 C252 577 263 586 263 604 L263 621 C263 638 252 648 231 648 L231 648 Z " />
<glyph glyph-name="Gcommaaccent" unicode="&#x122;" horiz-adv-x="557" d="M283 667 C137 667 82 610 82 473 L82 182 C82 51 137 -12 282 -12 C343 -12 408 3 460 18 C469 20 472 24 472 34 L472 350 C472 357 467 362 460 362 L311 362 C303 362 299 357 299 350 L299 335 C299 328 303 324 311 324 L432 324 L432 47 C376 33 323 25 282 25 C168 25 122 70 122 175 L122 483 C122 586 164 630 283 630 C331 630 389 621 429 613 C438 612 442 616 442 624 L442 638 C443 645 440 649 432 650 C387 659 326 667 283 667 L283 667 Z M280 -56 C261 -56 252 -66 252 -83 L252 -95 C252 -112 258 -119 275 -122 L264 -176 C262 -184 265 -188 273 -188 L280 -188 C286 -188 290 -186 291 -179 L302 -143 C307 -126 310 -113 310 -96 L310 -84 C310 -67 303 -56 280 -56 L280 -56 Z " />
<glyph glyph-name="gcommaaccent" unicode="&#x123;" horiz-adv-x="472" d="M230 500 C111 500 70 433 70 344 L70 322 C70 260 79 218 105 192 C76 174 61 149 61 116 L61 98 C61 51 83 22 145 18 L293 8 C355 4 373 -13 373 -63 L373 -82 C373 -137 351 -160 236 -160 C186 -160 135 -151 92 -139 C83 -136 78 -139 78 -148 L77 -164 C77 -172 80 -176 87 -178 C129 -188 189 -197 233 -197 C377 -197 412 -159 412 -89 L412 -53 C412 4 379 38 321 43 L155 55 C113 58 98 71 98 104 L98 120 C98 141 109 163 129 176 C153 162 185 157 228 157 C342 157 389 227 389 319 L389 341 C389 375 381 431 365 454 L442 452 C451 452 454 457 454 464 L454 477 C454 485 451 488 443 488 L329 485 C306 494 270 500 230 500 L230 500 Z M230 465 C274 465 310 459 333 452 C344 424 349 390 349 343 L349 313 C349 236 309 192 224 192 C136 192 110 221 110 313 L110 346 C110 429 152 465 230 465 L230 465 Z M233 544 C252 544 261 554 261 571 L261 583 C261 600 255 607 238 610 L249 664 C251 672 248 676 240 676 L233 676 C227 676 223 674 222 667 L211 631 C206 614 203 601 203 584 L203 572 C203 555 210 544 233 544 L233 544 Z " />
<glyph glyph-name="Hcircumflex" unicode="&#x124;" horiz-adv-x="579" d="M464 655 C457 655 453 651 453 643 L453 357 L127 357 L127 643 C127 651 122 655 115 655 L98 655 C91 655 87 651 87 643 L87 12 C87 4 91 0 98 0 L115 0 C122 0 127 4 127 12 L127 320 L453 320 L453 12 C453 4 457 0 464 0 L481 0 C488 0 493 4 493 12 L493 643 C493 651 488 655 481 655 L464 655 Z M177 760 C171 757 169 753 169 747 L169 733 C169 726 174 723 181 725 L289 772 L397 725 C404 723 409 726 409 733 L409 746 C409 753 407 757 401 760 L296 811 C291 813 286 813 282 811 L177 760 Z " />
<glyph glyph-name="hcircumflex" unicode="&#x125;" horiz-adv-x="489" d="M97 683 C90 683 86 679 86 671 L86 12 C86 4 90 0 97 0 L114 0 C121 0 126 4 126 12 L126 343 C162 416 220 462 278 462 C337 462 368 430 368 326 L368 12 C368 4 373 0 380 0 L396 0 C404 0 408 4 408 12 L408 331 C408 452 368 500 284 500 C222 500 168 463 126 390 L126 671 C126 679 121 683 114 683 L97 683 Z M93 760 C87 757 85 753 85 747 L85 733 C85 726 90 723 97 725 L205 772 L313 725 C320 723 325 726 325 733 L325 746 C325 753 323 757 317 760 L212 811 C207 813 202 813 198 811 L93 760 Z " />
<glyph glyph-name="Hbar" unicode="&#x126;" horiz-adv-x="581" d="M466 655 C458 655 454 651 454 643 L454 577 L128 577 L128 643 C128 651 123 655 116 655 L100 655 C92 655 88 651 88 643 L88 577 L49 577 C42 577 38 573 38 565 L38 554 C38 547 42 542 49 542 L88 542 L88 12 C88 4 92 0 100 0 L116 0 C123 0 128 4 128 12 L128 320 L454 320 L454 12 C454 4 458 0 466 0 L482 0 C489 0 494 4 494 12 L494 542 L532 542 C540 542 544 547 544 554 L544 565 C544 573 540 577 532 577 L494 577 L494 643 C494 651 489 655 482 655 L466 655 Z M454 542 L454 357 L128 357 L128 542 L454 542 Z " />
<glyph glyph-name="hbar" unicode="&#x127;" horiz-adv-x="494" d="M102 683 C95 683 91 679 91 671 L91 607 L32 607 C25 607 21 603 21 596 L21 585 C21 578 25 573 32 573 L91 573 L91 12 C91 4 95 0 102 0 L119 0 C126 0 131 4 131 12 L131 343 C167 416 225 462 283 462 C342 462 373 430 373 326 L373 12 C373 4 378 0 385 0 L401 0 C409 0 413 4 413 12 L413 331 C413 452 373 500 289 500 C227 500 173 463 131 390 L131 573 L262 573 C269 573 274 578 274 585 L274 596 C274 603 269 607 262 607 L131 607 L131 671 C131 679 126 683 119 683 L102 683 Z " />
<glyph glyph-name="Itilde" unicode="&#x128;" horiz-adv-x="213" d="M98 655 C91 655 87 651 87 643 L87 12 C87 4 91 0 98 0 L115 0 C122 0 127 4 127 12 L127 643 C127 651 122 655 115 655 L98 655 Z M224 779 C208 773 182 763 160 763 C133 763 99 788 56 788 C25 788 -2 776 -14 768 C-19 765 -21 761 -21 756 L-21 741 C-21 733 -16 731 -9 733 C6 740 32 749 54 749 C84 749 125 724 158 724 C189 724 217 738 228 744 C234 747 236 751 236 757 L236 771 C236 779 231 782 224 779 L224 779 Z " />
<glyph glyph-name="itilde" unicode="&#x129;" horiz-adv-x="211" d="M97 488 C90 488 86 484 86 476 L86 12 C86 4 90 0 97 0 L114 0 C121 0 126 4 126 12 L126 476 C126 484 121 488 114 488 L97 488 Z M206 632 C193 625 171 617 150 617 C123 617 107 642 65 642 C34 642 11 630 1 623 C-5 619 -6 615 -6 610 L-6 596 C-6 588 -1 585 6 588 C20 595 42 604 63 604 C92 604 115 579 148 579 C177 579 201 591 212 598 C217 601 218 605 218 611 L218 624 C218 632 213 636 206 632 L206 632 Z " />
<glyph glyph-name="Imacron" unicode="&#x12a;" horiz-adv-x="213" d="M98 655 C91 655 87 651 87 643 L87 12 C87 4 91 0 98 0 L115 0 C122 0 127 4 127 12 L127 643 C127 651 122 655 115 655 L98 655 Z M12 765 C5 765 1 761 1 754 L1 737 C1 730 5 726 12 726 L202 726 C209 726 213 730 213 737 L213 754 C213 761 209 765 202 765 L12 765 Z " />
<glyph glyph-name="imacron" unicode="&#x12b;" horiz-adv-x="211" d="M97 488 C90 488 86 484 86 476 L86 12 C86 4 90 0 97 0 L114 0 C121 0 126 4 126 12 L126 476 C126 484 121 488 114 488 L97 488 Z M21 634 C14 634 10 631 10 624 L10 606 C10 599 14 595 21 595 L191 595 C198 595 202 599 202 606 L202 624 C202 631 198 634 191 634 L21 634 Z " />
<glyph glyph-name="Ibreve" unicode="&#x12c;" horiz-adv-x="213" d="M98 655 C91 655 87 651 87 643 L87 12 C87 4 91 0 98 0 L115 0 C122 0 127 4 127 12 L127 643 C127 651 122 655 115 655 L98 655 Z M215 789 C196 776 156 752 108 752 C59 752 19 776 0 789 C-8 794 -13 792 -13 783 L-13 763 C-13 758 -11 754 -7 750 C8 739 48 714 108 714 C168 714 205 738 221 749 C227 753 228 758 228 764 L228 783 C228 792 223 794 215 789 L215 789 Z " />
<glyph glyph-name="ibreve" unicode="&#x12d;" horiz-adv-x="211" d="M97 488 C90 488 86 484 86 476 L86 12 C86 4 90 0 97 0 L114 0 C121 0 126 4 126 12 L126 476 C126 484 121 488 114 488 L97 488 Z M207 642 C190 625 155 597 106 597 C57 597 22 625 5 642 C-2 648 -7 647 -7 637 L-7 619 C-7 614 -6 610 -3 606 C9 593 43 559 106 559 C168 559 200 591 214 605 C218 609 219 614 219 619 L219 637 C219 647 214 648 207 642 L207 642 Z " />
<glyph glyph-name="Iogonek" unicode="&#x12e;" horiz-adv-x="213" d="M98 655 C91 655 87 651 87 643 L87 2 C45 -19 12 -66 12 -110 L12 -119 C12 -166 43 -197 95 -197 C107 -197 116 -197 130 -194 C137 -193 140 -189 140 -182 L140 -169 C140 -162 135 -159 128 -160 C120 -162 111 -163 101 -163 C67 -163 49 -146 49 -112 L49 -104 C49 -69 74 -28 116 0 C123 0 127 4 127 12 L127 643 C127 651 122 655 115 655 L98 655 Z " />
<glyph glyph-name="iogonek" unicode="&#x12f;" horiz-adv-x="211" d="M105 673 C86 673 75 663 75 647 L75 629 C75 612 86 603 105 603 C126 603 137 612 137 629 L137 647 C137 663 126 673 105 673 L105 673 Z M97 488 C90 488 86 484 86 476 L86 1 C44 -19 12 -66 12 -110 L12 -119 C12 -166 44 -197 95 -197 C107 -197 117 -197 130 -194 C137 -193 140 -189 140 -182 L140 -169 C140 -162 136 -159 128 -160 C120 -162 111 -163 101 -163 C67 -163 49 -146 49 -112 L49 -104 C49 -66 82 -22 117 -2 L118 -2 C123 -2 126 2 126 9 L126 476 C126 484 121 488 114 488 L97 488 Z " />
<glyph glyph-name="Idotaccent" unicode="&#x130;" horiz-adv-x="213" d="M98 655 C91 655 87 651 87 643 L87 12 C87 4 91 0 98 0 L115 0 C122 0 127 4 127 12 L127 643 C127 651 122 655 115 655 L98 655 Z M106 801 C87 801 76 791 76 774 L76 757 C76 739 87 730 106 730 C127 730 138 739 138 757 L138 774 C138 791 127 801 106 801 L106 801 Z " />
<glyph glyph-name="dotlessi" unicode="&#x131;" horiz-adv-x="211" d="M97 488 C90 488 86 484 86 476 L86 12 C86 4 90 0 97 0 L114 0 C121 0 126 4 126 12 L126 476 C126 484 121 488 114 488 L97 488 Z " />
<glyph glyph-name="IJ" unicode="&#x132;" horiz-adv-x="485" d="M98 655 C91 655 87 651 87 643 L87 12 C87 4 91 0 98 0 L115 0 C122 0 127 4 127 12 L127 643 C127 651 122 655 115 655 L98 655 Z M370 655 C363 655 359 651 359 643 L359 113 C359 50 333 25 286 25 C262 25 242 28 229 31 C220 32 216 28 216 19 L216 7 C216 -1 220 -5 227 -6 C241 -9 266 -12 282 -12 C363 -12 399 25 399 114 L399 643 C399 651 394 655 387 655 L370 655 Z " />
<glyph glyph-name="ij" unicode="&#x133;" horiz-adv-x="422" d="M105 648 C86 648 75 638 75 621 L75 604 C75 586 86 577 105 577 C126 577 137 586 137 604 L137 621 C137 638 126 648 105 648 L105 648 Z M316 648 C297 648 286 638 286 621 L286 604 C286 586 297 577 316 577 C337 577 348 586 348 604 L348 621 C348 638 337 648 316 648 L316 648 Z M97 488 C90 488 86 484 86 476 L86 12 C86 4 90 0 97 0 L114 0 C121 0 126 4 126 12 L126 476 C126 484 121 488 114 488 L97 488 Z M308 488 C301 488 297 484 297 476 L297 -89 C297 -137 274 -160 235 -160 C217 -160 208 -159 191 -156 C183 -155 179 -159 179 -168 L179 -181 C179 -188 182 -192 189 -193 C199 -195 215 -197 231 -197 C307 -197 337 -161 337 -82 L337 476 C337 484 332 488 325 488 L308 488 Z " />
<glyph glyph-name="Jcircumflex" unicode="&#x134;" horiz-adv-x="272" d="M157 655 C150 655 146 651 146 643 L146 113 C146 50 120 25 73 25 C49 25 29 28 16 31 C7 32 3 28 3 19 L3 7 C3 -1 7 -5 14 -6 C28 -9 53 -12 69 -12 C150 -12 186 25 186 114 L186 643 C186 651 181 655 174 655 L157 655 Z M53 760 C47 757 45 753 45 747 L45 733 C45 726 50 723 57 725 L165 772 L273 725 C280 723 285 726 285 733 L285 746 C285 753 283 757 277 760 L172 811 C167 813 162 813 158 811 L53 760 Z " />
<glyph glyph-name="jcircumflex" unicode="&#x135;" horiz-adv-x="211" d="M97 488 C90 488 86 484 86 476 L86 -89 C86 -137 63 -160 24 -160 C6 -160 -3 -159 -20 -156 C-28 -155 -32 -159 -32 -168 L-32 -181 C-32 -188 -29 -192 -22 -193 C-12 -195 4 -197 20 -197 C96 -197 126 -161 126 -82 L126 476 C126 484 121 488 114 488 L97 488 Z M-2 602 C-7 599 -9 596 -9 590 L-9 577 C-9 569 -4 565 4 569 L105 625 L208 569 C215 565 221 569 221 577 L221 590 C221 596 219 599 214 602 L113 663 C108 666 103 666 98 663 L-2 602 Z " />
<glyph glyph-name="Kcommaaccent" unicode="&#x136;" horiz-adv-x="498" d="M438 655 C432 655 427 653 423 649 L127 339 L127 643 C127 651 122 655 115 655 L98 655 C91 655 87 651 87 643 L87 12 C87 4 91 0 98 0 L115 0 C122 0 127 4 127 12 L127 330 L441 6 C446 2 450 0 456 0 L482 0 C492 0 495 7 488 15 L173 337 L465 640 C472 648 469 655 458 655 L438 655 Z M269 -56 C250 -56 241 -66 241 -83 L241 -95 C241 -112 247 -119 264 -122 L253 -176 C251 -184 254 -188 262 -188 L269 -188 C275 -188 279 -186 280 -179 L291 -143 C296 -126 299 -113 299 -96 L299 -84 C299 -67 292 -56 269 -56 L269 -56 Z " />
<glyph glyph-name="kcommaaccent" unicode="&#x137;" horiz-adv-x="405" d="M97 683 C90 683 86 679 86 671 L86 12 C86 4 90 0 97 0 L114 0 C121 0 126 4 126 12 L126 264 L335 7 C339 2 342 0 349 0 L374 0 C384 0 387 7 380 14 L167 272 L367 473 C373 481 370 488 360 488 L338 488 C332 488 328 486 324 482 L126 277 L126 671 C126 679 121 683 114 683 L97 683 Z M206 -56 C187 -56 178 -66 178 -83 L178 -95 C178 -112 184 -119 201 -122 L190 -176 C188 -184 191 -188 199 -188 L206 -188 C212 -188 216 -186 217 -179 L228 -143 C233 -126 236 -113 236 -96 L236 -84 C236 -67 229 -56 206 -56 L206 -56 Z " />
<glyph glyph-name="kgreenlandic" unicode="&#x138;" horiz-adv-x="407" d="M337 488 C331 488 327 486 322 481 L126 265 L126 476 C126 484 121 488 114 488 L97 488 C90 488 86 484 86 476 L86 12 C86 4 90 0 97 0 L114 0 C121 0 126 4 126 12 L126 252 L337 7 C341 2 345 0 351 0 L376 0 C386 0 389 7 382 14 L168 260 L366 474 C372 481 369 488 359 488 L337 488 Z " />
<glyph glyph-name="Lacute" unicode="&#x139;" horiz-adv-x="443" d="M98 655 C91 655 87 651 87 643 L87 12 C87 4 91 0 98 0 L393 0 C401 0 405 4 405 12 L405 25 C405 33 401 37 393 37 L127 37 L127 643 C127 651 122 655 115 655 L98 655 Z M163 825 C158 825 154 823 151 817 L96 719 C92 711 95 706 104 706 L116 706 C122 706 126 709 129 713 L193 812 C197 820 195 825 186 825 L163 825 Z " />
<glyph glyph-name="lacute" unicode="&#x13a;" horiz-adv-x="211" d="M97 683 C90 683 86 679 86 671 L86 12 C86 4 90 0 97 0 L114 0 C121 0 126 4 126 12 L126 671 C126 679 121 683 114 683 L97 683 Z M164 825 C159 825 155 823 152 817 L97 719 C93 711 96 706 105 706 L117 706 C123 706 127 709 130 713 L194 812 C198 820 196 825 187 825 L164 825 Z " />
<glyph glyph-name="Lcommaaccent" unicode="&#x13b;" horiz-adv-x="443" d="M98 655 C91 655 87 651 87 643 L87 12 C87 4 91 0 98 0 L393 0 C401 0 405 4 405 12 L405 25 C405 33 401 37 393 37 L127 37 L127 643 C127 651 122 655 115 655 L98 655 Z M251 -56 C232 -56 223 -66 223 -83 L223 -95 C223 -112 229 -119 246 -122 L235 -176 C233 -184 236 -188 244 -188 L251 -188 C257 -188 261 -186 262 -179 L273 -143 C278 -126 281 -113 281 -96 L281 -84 C281 -67 274 -56 251 -56 L251 -56 Z " />
<glyph glyph-name="lcommaaccent" unicode="&#x13c;" horiz-adv-x="211" d="M97 683 C90 683 86 679 86 671 L86 12 C86 4 90 0 97 0 L114 0 C121 0 126 4 126 12 L126 671 C126 679 121 683 114 683 L97 683 Z M105 -56 C86 -56 77 -66 77 -83 L77 -95 C77 -112 83 -119 100 -122 L89 -176 C87 -184 90 -188 98 -188 L105 -188 C111 -188 115 -186 116 -179 L127 -143 C132 -126 135 -113 135 -96 L135 -84 C135 -67 128 -56 105 -56 L105 -56 Z " />
<glyph glyph-name="Lcaron" unicode="&#x13d;" horiz-adv-x="443" d="M98 655 C91 655 87 651 87 643 L87 12 C87 4 91 0 98 0 L393 0 C401 0 405 4 405 12 L405 25 C405 33 401 37 393 37 L127 37 L127 643 C127 651 122 655 115 655 L98 655 Z M247 667 C228 667 219 657 219 640 L219 628 C219 611 225 604 242 601 L231 547 C229 539 232 535 240 535 L247 535 C253 535 257 537 258 544 L269 581 C274 597 277 610 277 627 L277 639 C277 656 270 667 247 667 L247 667 Z " />
<glyph glyph-name="lcaron" unicode="&#x13e;" horiz-adv-x="233" d="M97 683 C90 683 86 679 86 671 L86 12 C86 4 90 0 97 0 L114 0 C121 0 126 4 126 12 L126 671 C126 679 121 683 114 683 L97 683 Z M203 695 C184 695 175 685 175 668 L175 656 C175 639 181 632 198 629 L187 575 C185 567 188 563 196 563 L203 563 C209 563 213 565 214 572 L225 609 C230 625 233 638 233 655 L233 667 C233 684 226 695 203 695 L203 695 Z " />
<glyph glyph-name="Ldot" unicode="&#x13f;" horiz-adv-x="443" d="M98 655 C91 655 87 651 87 643 L87 12 C87 4 91 0 98 0 L393 0 C401 0 405 4 405 12 L405 25 C405 33 401 37 393 37 L127 37 L127 643 C127 651 122 655 115 655 L98 655 Z M310 381 C291 381 280 371 280 354 L280 337 C280 319 291 310 310 310 C331 310 342 319 342 337 L342 354 C342 371 331 381 310 381 L310 381 Z " />
<glyph glyph-name="ldot" unicode="&#x140;" horiz-adv-x="211" d="M97 683 C90 683 86 679 86 671 L86 12 C86 4 90 0 97 0 L114 0 C121 0 126 4 126 12 L126 671 C126 679 121 683 114 683 L97 683 Z M210 465 C191 465 180 455 180 438 L180 421 C180 403 191 394 210 394 C231 394 242 403 242 421 L242 438 C242 455 231 465 210 465 L210 465 Z " />
<glyph glyph-name="Lslash" unicode="&#x141;" horiz-adv-x="448" d="M103 655 C96 655 92 651 92 643 L92 358 L32 341 C25 339 22 335 22 327 L22 314 C22 306 26 302 35 305 L92 320 L92 12 C92 4 96 0 103 0 L398 0 C406 0 410 4 410 12 L410 25 C410 33 406 37 398 37 L132 37 L132 331 L277 372 C284 374 287 378 287 386 L287 399 C287 407 282 411 274 408 L132 368 L132 643 C132 651 127 655 120 655 L103 655 Z " />
<glyph glyph-name="lslash" unicode="&#x142;" horiz-adv-x="221" d="M102 683 C95 683 91 679 91 671 L91 413 L0 386 C-7 384 -10 380 -10 373 L-10 362 C-10 354 -6 350 3 352 L91 378 L91 12 C91 4 95 0 102 0 L119 0 C126 0 131 4 131 12 L131 390 L221 418 C228 420 231 424 231 432 L231 443 C231 451 227 455 218 452 L131 425 L131 671 C131 679 126 683 119 683 L102 683 Z " />
<glyph glyph-name="Nacute" unicode="&#x143;" horiz-adv-x="582" d="M484 0 C491 0 495 4 495 12 L495 643 C495 651 491 655 484 655 L467 655 C460 655 456 651 456 643 L456 53 L152 646 C149 652 145 655 139 655 L98 655 C91 655 87 651 87 643 L87 12 C87 4 91 0 98 0 L115 0 C122 0 126 4 126 12 L126 606 L434 9 C437 3 441 0 447 0 L484 0 Z M345 825 C340 825 336 823 333 817 L278 719 C274 711 277 706 286 706 L298 706 C304 706 308 709 311 713 L375 812 C379 820 377 825 368 825 L345 825 Z " />
<glyph glyph-name="nacute" unicode="&#x144;" horiz-adv-x="494" d="M284 500 C221 500 165 460 122 385 L122 476 C122 484 118 488 110 488 L97 488 C90 488 86 484 86 476 L86 12 C86 4 90 0 97 0 L114 0 C121 0 126 4 126 12 L126 343 C162 416 220 462 278 462 C338 462 368 430 368 326 L368 12 C368 4 373 0 380 0 L396 0 C404 0 408 4 408 12 L408 331 C408 452 368 500 284 500 L284 500 Z M304 673 C299 673 295 671 292 666 L231 559 C226 551 229 546 238 546 L251 546 C256 546 260 548 263 553 L334 660 C339 668 336 673 327 673 L304 673 Z " />
<glyph glyph-name="Ncommaaccent" unicode="&#x145;" horiz-adv-x="582" d="M484 0 C491 0 495 4 495 12 L495 643 C495 651 491 655 484 655 L467 655 C460 655 456 651 456 643 L456 53 L152 646 C149 652 145 655 139 655 L98 655 C91 655 87 651 87 643 L87 12 C87 4 91 0 98 0 L115 0 C122 0 126 4 126 12 L126 606 L434 9 C437 3 441 0 447 0 L484 0 Z M300 -56 C281 -56 272 -66 272 -83 L272 -95 C272 -112 278 -119 295 -122 L284 -176 C282 -184 285 -188 293 -188 L300 -188 C306 -188 310 -186 311 -179 L322 -143 C327 -126 330 -113 330 -96 L330 -84 C330 -67 323 -56 300 -56 L300 -56 Z " />
<glyph glyph-name="ncommaaccent" unicode="&#x146;" horiz-adv-x="494" d="M284 500 C221 500 165 460 122 385 L122 476 C122 484 118 488 110 488 L97 488 C90 488 86 484 86 476 L86 12 C86 4 90 0 97 0 L114 0 C121 0 126 4 126 12 L126 343 C162 416 220 462 278 462 C338 462 368 430 368 326 L368 12 C368 4 373 0 380 0 L396 0 C404 0 408 4 408 12 L408 331 C408 452 368 500 284 500 L284 500 Z M255 -56 C236 -56 227 -66 227 -83 L227 -95 C227 -112 233 -119 250 -122 L239 -176 C237 -184 240 -188 248 -188 L255 -188 C261 -188 265 -186 266 -179 L277 -143 C282 -126 285 -113 285 -96 L285 -84 C285 -67 278 -56 255 -56 L255 -56 Z " />
<glyph glyph-name="Ncaron" unicode="&#x147;" horiz-adv-x="582" d="M484 0 C491 0 495 4 495 12 L495 643 C495 651 491 655 484 655 L467 655 C460 655 456 651 456 643 L456 53 L152 646 C149 652 145 655 139 655 L98 655 C91 655 87 651 87 643 L87 12 C87 4 91 0 98 0 L115 0 C122 0 126 4 126 12 L126 606 L434 9 C437 3 441 0 447 0 L484 0 Z M298 765 L190 811 C183 814 178 811 178 803 L178 789 C178 783 180 780 186 777 L291 726 C295 723 300 723 305 726 L410 777 C416 780 418 783 418 789 L418 803 C418 811 413 814 406 811 L298 765 Z " />
<glyph glyph-name="ncaron" unicode="&#x148;" horiz-adv-x="494" d="M284 500 C221 500 165 460 122 385 L122 476 C122 484 118 488 110 488 L97 488 C90 488 86 484 86 476 L86 12 C86 4 90 0 97 0 L114 0 C121 0 126 4 126 12 L126 343 C162 416 220 462 278 462 C338 462 368 430 368 326 L368 12 C368 4 373 0 380 0 L396 0 C404 0 408 4 408 12 L408 331 C408 452 368 500 284 500 L284 500 Z M247 607 L146 663 C138 667 133 663 133 655 L133 642 C133 636 135 633 140 630 L240 570 C245 567 250 567 255 570 L356 630 C361 633 363 636 363 642 L363 655 C363 663 357 667 350 663 L247 607 Z " />
<glyph glyph-name="napostrophe" unicode="&#x149;" horiz-adv-x="494" d="M284 500 C221 500 165 460 122 385 L122 476 C122 484 118 488 110 488 L97 488 C90 488 86 484 86 476 L86 12 C86 4 90 0 97 0 L114 0 C121 0 126 4 126 12 L126 343 C162 416 220 462 278 462 C338 462 368 430 368 326 L368 12 C368 4 373 0 380 0 L396 0 C404 0 408 4 408 12 L408 331 C408 452 368 500 284 500 L284 500 Z M31 695 C13 695 4 685 4 668 L4 656 C4 639 10 632 27 629 L15 575 C14 567 16 563 24 563 L32 563 C38 563 42 565 43 572 L54 609 C59 625 62 638 62 655 L62 667 C62 684 55 695 31 695 L31 695 Z " />
<glyph glyph-name="Eng" unicode="&#x14a;" horiz-adv-x="582" d="M467 655 C460 655 456 651 456 643 L456 53 L152 646 C149 652 145 655 139 655 L98 655 C91 655 87 651 87 643 L87 12 C87 4 91 0 98 0 L115 0 C122 0 126 4 126 12 L126 606 L434 9 C437 3 441 0 447 0 L456 0 L456 -30 C456 -93 431 -117 383 -117 C359 -117 339 -115 325 -112 C317 -110 313 -115 313 -124 L313 -136 C313 -144 317 -148 324 -149 C338 -152 363 -155 379 -155 C459 -155 495 -117 495 -29 L495 643 C495 651 491 655 484 655 L467 655 Z " />
<glyph glyph-name="eng" unicode="&#x14b;" horiz-adv-x="494" d="M284 500 C221 500 165 460 122 385 L122 476 C122 484 118 488 110 488 L97 488 C90 488 86 484 86 476 L86 12 C86 4 90 0 97 0 L114 0 C121 0 126 4 126 12 L126 343 C162 416 220 462 278 462 C338 462 368 430 368 326 L368 -89 C368 -137 346 -160 306 -160 C289 -160 279 -159 262 -156 C255 -155 250 -159 250 -168 L250 -181 C250 -188 253 -192 261 -193 C271 -195 287 -197 303 -197 C378 -197 408 -161 408 -82 L408 331 C408 452 368 500 284 500 L284 500 Z " />
<glyph glyph-name="Omacron" unicode="&#x14c;" horiz-adv-x="576" d="M288 667 C138 667 82 589 82 451 L82 204 C82 60 144 -12 288 -12 C429 -12 494 60 494 204 L494 451 C494 589 437 667 288 667 L288 667 Z M288 631 C400 631 454 575 454 460 L454 195 C454 80 400 24 288 24 C176 24 122 80 122 195 L122 461 C122 576 176 631 288 631 L288 631 Z M193 765 C186 765 182 761 182 754 L182 737 C182 730 186 726 193 726 L383 726 C390 726 394 730 394 737 L394 754 C394 761 390 765 383 765 L193 765 Z " />
<glyph glyph-name="omacron" unicode="&#x14d;" horiz-adv-x="481" d="M240 500 C129 500 76 440 76 317 L76 171 C76 49 127 -12 240 -12 C350 -12 405 52 405 171 L405 317 C405 441 351 500 240 500 L240 500 Z M240 464 C321 464 364 419 364 325 L364 164 C364 70 320 24 240 24 C160 24 116 69 116 164 L116 324 C116 417 157 464 240 464 L240 464 Z M155 634 C148 634 144 631 144 624 L144 606 C144 599 148 595 155 595 L325 595 C332 595 336 599 336 606 L336 624 C336 631 332 634 325 634 L155 634 Z " />
<glyph glyph-name="Obreve" unicode="&#x14e;" horiz-adv-x="576" d="M288 667 C138 667 82 589 82 451 L82 204 C82 60 144 -12 288 -12 C429 -12 494 60 494 204 L494 451 C494 589 437 667 288 667 L288 667 Z M288 631 C400 631 454 575 454 460 L454 195 C454 80 400 24 288 24 C176 24 122 80 122 195 L122 461 C122 576 176 631 288 631 L288 631 Z M395 789 C376 776 336 752 288 752 C239 752 199 776 180 789 C172 794 167 792 167 783 L167 763 C167 758 169 754 173 750 C188 739 228 714 288 714 C348 714 385 738 401 749 C407 753 408 758 408 764 L408 783 C408 792 403 794 395 789 L395 789 Z " />
<glyph glyph-name="obreve" unicode="&#x14f;" horiz-adv-x="481" d="M240 500 C129 500 76 440 76 317 L76 171 C76 49 127 -12 240 -12 C350 -12 405 52 405 171 L405 317 C405 441 351 500 240 500 L240 500 Z M240 464 C321 464 364 419 364 325 L364 164 C364 70 320 24 240 24 C160 24 116 69 116 164 L116 324 C116 417 157 464 240 464 L240 464 Z M342 642 C325 625 290 597 241 597 C192 597 157 625 140 642 C133 648 128 647 128 637 L128 619 C128 614 129 610 132 606 C144 593 178 559 241 559 C303 559 335 591 349 605 C353 609 354 614 354 619 L354 637 C354 647 349 648 342 642 L342 642 Z " />
<glyph glyph-name="Ohungarumlaut" unicode="&#x150;" horiz-adv-x="576" d="M288 667 C138 667 82 589 82 451 L82 204 C82 60 144 -12 288 -12 C429 -12 494 60 494 204 L494 451 C494 589 437 667 288 667 L288 667 Z M288 631 C400 631 454 575 454 460 L454 195 C454 80 400 24 288 24 C176 24 122 80 122 195 L122 461 C122 576 176 631 288 631 L288 631 Z M268 825 C262 825 258 822 255 817 L207 718 C203 711 206 706 215 706 L226 706 C232 706 235 709 238 714 L292 812 C296 820 292 825 284 825 L268 825 Z M375 825 C369 825 365 822 362 817 L314 718 C310 711 313 706 322 706 L333 706 C339 706 342 709 345 714 L399 812 C403 820 399 825 391 825 L375 825 Z " />
<glyph glyph-name="ohungarumlaut" unicode="&#x151;" horiz-adv-x="481" d="M240 500 C129 500 76 440 76 317 L76 171 C76 49 127 -12 240 -12 C350 -12 405 52 405 171 L405 317 C405 441 351 500 240 500 L240 500 Z M240 464 C321 464 364 419 364 325 L364 164 C364 70 320 24 240 24 C160 24 116 69 116 164 L116 324 C116 417 157 464 240 464 L240 464 Z M231 673 C224 673 221 671 218 665 L174 557 C171 550 174 545 182 545 L192 545 C199 545 203 548 206 553 L257 661 C260 668 257 673 249 673 L231 673 Z M328 673 C322 673 318 671 316 665 L272 557 C269 550 272 545 280 545 L290 545 C296 545 300 548 303 553 L354 661 C358 668 355 673 346 673 L328 673 Z " />
<glyph glyph-name="OE" unicode="&#x152;" horiz-adv-x="763" d="M285 667 C140 667 82 591 82 451 L82 204 C82 59 145 -12 286 -12 C321 -12 344 -10 379 0 L675 0 C682 0 686 4 686 12 L686 26 C686 33 682 37 675 37 L416 37 L416 314 L655 314 C662 314 666 319 666 326 L666 340 C666 347 662 352 655 352 L416 352 L416 618 L675 618 C682 618 686 622 686 629 L686 643 C686 651 682 655 675 655 L379 655 C351 664 322 667 285 667 L285 667 Z M287 631 C324 631 352 628 376 619 L376 35 C352 28 322 24 287 24 C176 24 122 80 122 195 L122 461 C122 576 176 631 287 631 L287 631 Z " />
<glyph glyph-name="oe" unicode="&#x153;" horiz-adv-x="748" d="M523 500 C451 500 406 469 384 418 C359 470 312 500 240 500 C129 500 76 439 76 317 L76 171 C76 49 127 -12 240 -12 C309 -12 356 17 381 68 C404 15 453 -12 538 -12 C571 -12 617 -5 656 3 C663 5 667 9 666 16 L665 31 C664 39 660 43 652 41 C618 34 577 26 539 26 C432 26 404 67 404 168 L404 238 L662 238 C678 238 684 244 684 260 L684 319 C684 444 626 500 523 500 L523 500 Z M240 464 C318 464 361 422 363 335 L363 160 C363 66 316 24 240 24 C160 24 116 69 116 164 L116 324 C116 417 157 464 240 464 L240 464 Z M523 464 C598 464 644 423 644 326 L644 273 L404 273 L404 338 C407 425 446 464 523 464 L523 464 Z " />
<glyph glyph-name="Racute" unicode="&#x154;" horiz-adv-x="538" d="M248 667 C199 667 154 666 99 663 C91 663 87 659 87 651 L87 12 C87 4 91 0 98 0 L115 0 C122 0 127 4 127 12 L127 286 C202 280 263 280 304 286 L462 8 C465 3 469 0 476 0 L496 0 C505 0 509 6 503 14 L343 293 C423 317 466 380 466 467 L466 490 C466 601 398 667 248 667 L248 667 Z M246 631 C371 631 426 582 426 486 L426 469 C426 368 372 317 249 317 C220 317 171 319 127 322 L127 627 C154 628 224 631 246 631 L246 631 Z M305 825 C300 825 296 823 293 817 L238 719 C234 711 237 706 246 706 L258 706 C264 706 268 709 271 713 L335 812 C339 820 337 825 328 825 L305 825 Z " />
<glyph glyph-name="racute" unicode="&#x155;" horiz-adv-x="337" d="M283 500 C210 500 163 461 122 387 L122 476 C122 484 118 488 110 488 L97 488 C90 488 86 484 86 476 L86 12 C86 4 90 0 97 0 L114 0 C121 0 126 4 126 12 L126 344 C159 412 209 456 264 456 C275 456 282 455 289 454 C297 453 301 457 301 465 L301 486 C301 495 297 500 283 500 L283 500 Z M241 673 C236 673 232 671 229 666 L168 559 C163 551 166 546 175 546 L188 546 C193 546 197 548 200 553 L271 660 C276 668 273 673 264 673 L241 673 Z " />
<glyph glyph-name="Rcommaaccent" unicode="&#x156;" horiz-adv-x="538" d="M248 667 C199 667 154 666 99 663 C91 663 87 659 87 651 L87 12 C87 4 91 0 98 0 L115 0 C122 0 127 4 127 12 L127 286 C202 280 263 280 304 286 L462 8 C465 3 469 0 476 0 L496 0 C505 0 509 6 503 14 L343 293 C423 317 466 380 466 467 L466 490 C466 601 398 667 248 667 L248 667 Z M246 631 C371 631 426 582 426 486 L426 469 C426 368 372 317 249 317 C220 317 171 319 127 322 L127 627 C154 628 224 631 246 631 L246 631 Z M272 -56 C253 -56 244 -66 244 -83 L244 -95 C244 -112 250 -119 267 -122 L256 -176 C254 -184 257 -188 265 -188 L272 -188 C278 -188 282 -186 283 -179 L294 -143 C299 -126 302 -113 302 -96 L302 -84 C302 -67 295 -56 272 -56 L272 -56 Z " />
<glyph glyph-name="rcommaaccent" unicode="&#x157;" horiz-adv-x="337" d="M283 500 C210 500 163 461 122 387 L122 476 C122 484 118 488 110 488 L97 488 C90 488 86 484 86 476 L86 12 C86 4 90 0 97 0 L114 0 C121 0 126 4 126 12 L126 344 C159 412 209 456 264 456 C275 456 282 455 289 454 C297 453 301 457 301 465 L301 486 C301 495 297 500 283 500 L283 500 Z M106 -56 C87 -56 78 -66 78 -83 L78 -95 C78 -112 84 -119 101 -122 L90 -176 C88 -184 91 -188 99 -188 L106 -188 C112 -188 116 -186 117 -179 L128 -143 C133 -126 136 -113 136 -96 L136 -84 C136 -67 129 -56 106 -56 L106 -56 Z " />
<glyph glyph-name="Rcaron" unicode="&#x158;" horiz-adv-x="538" d="M248 667 C199 667 154 666 99 663 C91 663 87 659 87 651 L87 12 C87 4 91 0 98 0 L115 0 C122 0 127 4 127 12 L127 286 C202 280 263 280 304 286 L462 8 C465 3 469 0 476 0 L496 0 C505 0 509 6 503 14 L343 293 C423 317 466 380 466 467 L466 490 C466 601 398 667 248 667 L248 667 Z M246 631 C371 631 426 582 426 486 L426 469 C426 368 372 317 249 317 C220 317 171 319 127 322 L127 627 C154 628 224 631 246 631 L246 631 Z M257 765 L149 811 C142 814 137 811 137 803 L137 789 C137 783 139 780 145 777 L250 726 C254 723 259 723 264 726 L369 777 C375 780 377 783 377 789 L377 803 C377 811 372 814 365 811 L257 765 Z " />
<glyph glyph-name="rcaron" unicode="&#x159;" horiz-adv-x="337" d="M283 500 C210 500 163 461 122 387 L122 476 C122 484 118 488 110 488 L97 488 C90 488 86 484 86 476 L86 12 C86 4 90 0 97 0 L114 0 C121 0 126 4 126 12 L126 344 C159 412 209 456 264 456 C275 456 282 455 289 454 C297 453 301 457 301 465 L301 486 C301 495 297 500 283 500 L283 500 Z M183 607 L82 663 C74 667 69 663 69 655 L69 642 C69 636 71 633 76 630 L176 570 C181 567 186 567 191 570 L292 630 C297 633 299 636 299 642 L299 655 C299 663 293 667 286 663 L183 607 Z " />
<glyph glyph-name="Sacute" unicode="&#x15a;" horiz-adv-x="453" d="M237 667 C110 667 57 614 57 503 L57 485 C57 401 91 361 170 334 L279 298 C345 275 370 242 370 182 L370 148 C370 65 326 26 214 26 C173 26 125 34 87 44 C80 45 75 42 75 33 L74 17 C74 10 77 6 84 5 C125 -5 180 -12 214 -12 C357 -12 410 43 410 156 L410 175 C410 263 379 306 298 333 L200 365 C118 392 97 424 97 482 L97 509 C97 589 132 630 237 630 C276 630 315 624 349 617 C358 616 362 620 363 628 L363 642 C363 650 359 653 352 655 C313 663 270 667 237 667 L237 667 Z M274 825 C269 825 265 823 262 817 L207 719 C203 711 206 706 215 706 L227 706 C233 706 237 709 240 713 L304 812 C308 820 306 825 297 825 L274 825 Z " />
<glyph glyph-name="sacute" unicode="&#x15b;" horiz-adv-x="381" d="M201 500 C96 500 52 457 52 376 L52 362 C52 318 78 281 132 258 L237 213 C282 194 299 170 299 122 L299 109 C299 53 271 25 185 25 C153 25 112 33 82 42 C73 45 68 41 68 32 L67 17 C66 11 69 6 76 4 C111 -5 153 -12 186 -12 C294 -12 338 30 338 110 L338 135 C338 183 312 223 258 246 L157 290 C107 311 91 334 91 370 L91 379 C91 437 121 464 203 464 C225 464 256 460 281 453 C290 450 294 455 294 463 L294 477 C294 484 291 488 284 489 C254 496 223 500 201 500 L201 500 Z M244 673 C239 673 235 671 232 666 L171 559 C166 551 169 546 178 546 L191 546 C196 546 200 548 203 553 L274 660 C279 668 276 673 267 673 L244 673 Z " />
<glyph glyph-name="Scircumflex" unicode="&#x15c;" horiz-adv-x="453" d="M237 667 C110 667 57 614 57 503 L57 485 C57 401 91 361 170 334 L279 298 C345 275 370 242 370 182 L370 148 C370 65 326 26 214 26 C173 26 125 34 87 44 C80 45 75 42 75 33 L74 17 C74 10 77 6 84 5 C125 -5 180 -12 214 -12 C357 -12 410 43 410 156 L410 175 C410 263 379 306 298 333 L200 365 C118 392 97 424 97 482 L97 509 C97 589 132 630 237 630 C276 630 315 624 349 617 C358 616 362 620 363 628 L363 642 C363 650 359 653 352 655 C313 663 270 667 237 667 L237 667 Z M115 760 C109 757 107 753 107 747 L107 733 C107 726 112 723 119 725 L227 772 L335 725 C342 723 347 726 347 733 L347 746 C347 753 345 757 339 760 L234 811 C229 813 224 813 220 811 L115 760 Z " />
<glyph glyph-name="scircumflex" unicode="&#x15d;" horiz-adv-x="381" d="M201 500 C96 500 52 457 52 376 L52 362 C52 318 78 281 132 258 L237 213 C282 194 299 170 299 122 L299 109 C299 53 271 25 185 25 C153 25 112 33 82 42 C73 45 68 41 68 32 L67 17 C66 11 69 6 76 4 C111 -5 153 -12 186 -12 C294 -12 338 30 338 110 L338 135 C338 183 312 223 258 246 L157 290 C107 311 91 334 91 370 L91 379 C91 437 121 464 203 464 C225 464 256 460 281 453 C290 450 294 455 294 463 L294 477 C294 484 291 488 284 489 C254 496 223 500 201 500 L201 500 Z M79 602 C74 599 72 596 72 590 L72 577 C72 569 77 565 85 569 L186 625 L289 569 C296 565 302 569 302 577 L302 590 C302 596 300 599 295 602 L194 663 C189 666 184 666 179 663 L79 602 Z " />
<glyph glyph-name="Scedilla" unicode="&#x15e;" horiz-adv-x="453" d="M237 667 C110 667 57 614 57 503 L57 485 C57 401 91 361 170 334 L279 298 C345 275 370 242 370 182 L370 148 C370 65 326 26 214 26 C173 26 125 34 87 44 C80 45 75 42 75 33 L74 17 C74 10 77 6 84 5 C123 -5 177 -12 214 -12 L202 -47 C198 -60 201 -68 215 -68 L237 -68 C268 -68 284 -83 285 -111 L285 -120 C285 -152 271 -167 237 -167 C225 -167 211 -165 197 -162 C190 -160 186 -163 186 -171 L186 -180 C186 -187 189 -190 198 -192 C214 -196 229 -197 244 -197 C295 -197 320 -169 320 -122 L320 -110 C320 -71 294 -43 253 -43 L237 -43 L247 -11 C365 -3 410 52 410 156 L410 175 C410 263 379 306 298 333 L200 365 C118 392 97 424 97 482 L97 509 C97 589 132 630 237 630 C276 630 315 624 349 617 C358 616 362 620 363 628 L363 642 C363 650 359 653 352 655 C313 663 270 667 237 667 L237 667 Z " />
<glyph glyph-name="scedilla" unicode="&#x15f;" horiz-adv-x="381" d="M201 500 C96 500 52 457 52 376 L52 362 C52 318 78 281 132 258 L237 213 C282 194 299 170 299 122 L299 109 C299 53 271 25 185 25 C153 25 112 33 82 42 C73 45 68 41 68 32 L67 17 C66 11 69 6 76 4 C108 -4 146 -11 177 -12 L166 -47 C161 -60 164 -68 178 -68 L200 -68 C231 -68 247 -83 248 -111 L248 -120 C248 -152 234 -167 201 -167 C189 -167 174 -165 160 -162 C153 -160 149 -163 149 -171 L149 -180 C149 -187 152 -190 161 -192 C178 -196 193 -197 207 -197 C259 -197 283 -169 283 -122 L283 -110 C283 -71 257 -43 216 -43 L200 -43 L210 -11 C301 -5 338 36 338 110 L338 135 C338 183 312 223 258 246 L157 290 C107 311 91 334 91 370 L91 379 C91 437 121 464 203 464 C225 464 256 460 281 453 C290 450 294 455 294 463 L294 477 C294 484 291 488 284 489 C254 496 223 500 201 500 L201 500 Z " />
<glyph glyph-name="Scaron" unicode="&#x160;" horiz-adv-x="453" d="M237 667 C110 667 57 614 57 503 L57 485 C57 401 91 361 170 334 L279 298 C345 275 370 242 370 182 L370 148 C370 65 326 26 214 26 C173 26 125 34 87 44 C80 45 75 42 75 33 L74 17 C74 10 77 6 84 5 C125 -5 180 -12 214 -12 C357 -12 410 43 410 156 L410 175 C410 263 379 306 298 333 L200 365 C118 392 97 424 97 482 L97 509 C97 589 132 630 237 630 C276 630 315 624 349 617 C358 616 362 620 363 628 L363 642 C363 650 359 653 352 655 C313 663 270 667 237 667 L237 667 Z M227 765 L119 811 C112 814 107 811 107 803 L107 789 C107 783 109 780 115 777 L220 726 C224 723 229 723 234 726 L339 777 C345 780 347 783 347 789 L347 803 C347 811 342 814 335 811 L227 765 Z " />
<glyph glyph-name="scaron" unicode="&#x161;" horiz-adv-x="381" d="M201 500 C96 500 52 457 52 376 L52 362 C52 318 78 281 132 258 L237 213 C282 194 299 170 299 122 L299 109 C299 53 271 25 185 25 C153 25 112 33 82 42 C73 45 68 41 68 32 L67 17 C66 11 69 6 76 4 C111 -5 153 -12 186 -12 C294 -12 338 30 338 110 L338 135 C338 183 312 223 258 246 L157 290 C107 311 91 334 91 370 L91 379 C91 437 121 464 203 464 C225 464 256 460 281 453 C290 450 294 455 294 463 L294 477 C294 484 291 488 284 489 C254 496 223 500 201 500 L201 500 Z M186 607 L85 663 C77 667 72 663 72 655 L72 642 C72 636 74 633 79 630 L179 570 C184 567 189 567 194 570 L295 630 C300 633 302 636 302 642 L302 655 C302 663 296 667 289 663 L186 607 Z " />
<glyph glyph-name="Tcommaaccent" unicode="&#x162;" horiz-adv-x="519" d="M50 655 C42 655 38 651 38 643 L38 629 C38 622 42 618 50 618 L239 618 L239 10 L221 -47 C217 -60 220 -68 234 -68 L256 -68 C287 -68 303 -83 304 -111 L304 -120 C304 -152 290 -167 256 -167 C244 -167 230 -165 216 -162 C209 -160 205 -163 205 -171 L205 -180 C205 -187 208 -190 217 -192 C233 -196 248 -197 263 -197 C314 -197 339 -169 339 -122 L339 -110 C339 -71 312 -43 272 -43 L256 -43 L269 0 L270 0 C277 0 279 4 279 10 L279 618 L469 618 C477 618 481 622 481 629 L481 643 C481 651 477 655 469 655 L50 655 Z " />
<glyph glyph-name="tcommaaccent" unicode="&#x163;" horiz-adv-x="336" d="M117 618 C111 618 108 614 107 607 L101 488 L42 488 C35 488 31 484 31 476 L31 466 C31 458 35 454 42 454 L101 454 L101 135 C101 48 118 9 167 -5 L154 -47 C149 -60 153 -68 166 -68 L188 -68 C219 -68 236 -83 236 -111 L236 -120 C236 -152 223 -167 189 -167 C177 -167 162 -165 149 -162 C142 -160 138 -163 138 -171 L138 -180 C138 -187 140 -190 150 -192 C166 -196 181 -197 195 -197 C247 -197 272 -169 272 -122 L272 -110 C272 -71 245 -43 204 -43 L189 -43 L198 -11 C206 -12 214 -12 223 -12 C245 -12 276 -7 296 -2 C303 -1 306 3 306 11 L305 24 C304 32 300 36 292 34 C272 29 247 25 222 25 C168 25 141 45 141 128 L141 454 L274 454 C282 454 286 458 286 466 L286 476 C286 484 282 488 274 488 L141 488 L141 606 C141 614 137 618 129 618 L117 618 Z " />
<glyph glyph-name="Tcaron" unicode="&#x164;" horiz-adv-x="519" d="M50 655 C42 655 38 651 38 643 L38 629 C38 622 42 618 50 618 L239 618 L239 12 C239 4 244 0 251 0 L268 0 C275 0 279 4 279 12 L279 618 L469 618 C477 618 481 622 481 629 L481 643 C481 651 477 655 469 655 L50 655 Z M259 765 L151 811 C144 814 139 811 139 803 L139 789 C139 783 141 780 147 777 L252 726 C256 723 261 723 266 726 L371 777 C377 780 379 783 379 789 L379 803 C379 811 374 814 367 811 L259 765 Z " />
<glyph glyph-name="tcaron" unicode="&#x165;" horiz-adv-x="336" d="M117 618 C111 618 108 614 107 607 L101 488 L42 488 C35 488 31 484 31 476 L31 466 C31 458 35 454 42 454 L101 454 L101 135 C101 21 132 -12 223 -12 C245 -12 276 -7 296 -2 C303 -1 306 3 306 11 L305 24 C304 32 300 36 292 34 C272 29 247 25 222 25 C168 25 141 45 141 128 L141 454 L274 454 C282 454 286 458 286 466 L286 476 C286 484 282 488 274 488 L141 488 L141 606 C141 614 137 618 129 618 L117 618 Z M259 695 C240 695 231 685 231 668 L231 656 C231 639 237 632 254 629 L243 575 C241 567 244 563 252 563 L259 563 C265 563 269 565 270 572 L281 609 C286 625 289 638 289 655 L289 667 C289 684 282 695 259 695 L259 695 Z " />
<glyph glyph-name="Tbar" unicode="&#x166;" horiz-adv-x="519" d="M50 655 C42 655 38 651 38 643 L38 629 C38 622 42 618 50 618 L239 618 L239 366 L140 366 C132 366 129 361 129 354 L129 340 C129 333 132 328 140 328 L239 328 L239 12 C239 4 244 0 251 0 L268 0 C275 0 279 4 279 12 L279 328 L379 328 C386 328 390 333 390 340 L390 354 C390 361 386 366 379 366 L279 366 L279 618 L469 618 C477 618 481 622 481 629 L481 643 C481 651 477 655 469 655 L50 655 Z " />
<glyph glyph-name="tbar" unicode="&#x167;" horiz-adv-x="336" d="M117 618 C111 618 108 614 107 607 L101 488 L42 488 C35 488 31 484 31 476 L31 466 C31 458 35 454 42 454 L101 454 L101 333 L38 333 C30 333 26 329 26 321 L26 311 C26 303 30 299 38 299 L101 299 L101 135 C101 21 132 -12 223 -12 C245 -12 276 -7 296 -2 C303 -1 306 3 306 11 L305 24 C304 32 300 36 292 34 C272 29 247 25 222 25 C168 25 141 45 141 128 L141 299 L270 299 C277 299 281 303 281 311 L281 321 C281 329 277 333 270 333 L141 333 L141 454 L274 454 C282 454 286 458 286 466 L286 476 C286 484 282 488 274 488 L141 488 L141 606 C141 614 137 618 129 618 L117 618 Z " />
<glyph glyph-name="Utilde" unicode="&#x168;" horiz-adv-x="578" d="M462 655 C454 655 450 651 450 643 L450 194 C450 83 395 26 289 26 C182 26 127 83 127 194 L127 643 C127 651 123 655 116 655 L98 655 C91 655 87 651 87 643 L87 202 C87 57 157 -12 289 -12 C421 -12 491 62 491 204 L491 643 C491 651 487 655 479 655 L462 655 Z M405 779 C389 773 363 763 341 763 C314 763 280 788 237 788 C206 788 179 776 167 768 C162 765 160 761 160 756 L160 741 C160 733 165 731 172 733 C187 740 213 749 235 749 C265 749 306 724 339 724 C370 724 398 738 409 744 C415 747 417 751 417 757 L417 771 C417 779 412 782 405 779 L405 779 Z " />
<glyph glyph-name="utilde" unicode="&#x169;" horiz-adv-x="488" d="M374 488 C367 488 362 484 362 476 L362 145 C325 71 268 26 213 26 C155 26 126 58 126 163 L126 476 C126 484 121 488 114 488 L97 488 C90 488 86 484 86 476 L86 157 C86 35 126 -12 207 -12 C268 -12 322 26 366 103 L366 12 C366 4 370 0 378 0 L390 0 C398 0 402 4 402 12 L402 476 C402 484 398 488 390 488 L374 488 Z M344 632 C331 625 309 617 288 617 C261 617 245 642 203 642 C172 642 149 630 139 623 C133 619 132 615 132 610 L132 596 C132 588 137 585 144 588 C158 595 180 604 201 604 C230 604 253 579 286 579 C315 579 339 591 350 598 C355 601 356 605 356 611 L356 624 C356 632 351 636 344 632 L344 632 Z " />
<glyph glyph-name="Umacron" unicode="&#x16a;" horiz-adv-x="578" d="M462 655 C454 655 450 651 450 643 L450 194 C450 83 395 26 289 26 C182 26 127 83 127 194 L127 643 C127 651 123 655 116 655 L98 655 C91 655 87 651 87 643 L87 202 C87 57 157 -12 289 -12 C421 -12 491 62 491 204 L491 643 C491 651 487 655 479 655 L462 655 Z M193 765 C186 765 182 761 182 754 L182 737 C182 730 186 726 193 726 L383 726 C390 726 394 730 394 737 L394 754 C394 761 390 765 383 765 L193 765 Z " />
<glyph glyph-name="umacron" unicode="&#x16b;" horiz-adv-x="488" d="M374 488 C367 488 362 484 362 476 L362 145 C325 71 268 26 213 26 C155 26 126 58 126 163 L126 476 C126 484 121 488 114 488 L97 488 C90 488 86 484 86 476 L86 157 C86 35 126 -12 207 -12 C268 -12 322 26 366 103 L366 12 C366 4 370 0 378 0 L390 0 C398 0 402 4 402 12 L402 476 C402 484 398 488 390 488 L374 488 Z M159 634 C152 634 148 631 148 624 L148 606 C148 599 152 595 159 595 L329 595 C336 595 340 599 340 606 L340 624 C340 631 336 634 329 634 L159 634 Z " />
<glyph glyph-name="Ubreve" unicode="&#x16c;" horiz-adv-x="578" d="M462 655 C454 655 450 651 450 643 L450 194 C450 83 395 26 289 26 C182 26 127 83 127 194 L127 643 C127 651 123 655 116 655 L98 655 C91 655 87 651 87 643 L87 202 C87 57 157 -12 289 -12 C421 -12 491 62 491 204 L491 643 C491 651 487 655 479 655 L462 655 Z M396 789 C377 776 337 752 289 752 C240 752 200 776 181 789 C173 794 168 792 168 783 L168 763 C168 758 170 754 174 750 C189 739 229 714 289 714 C349 714 386 738 402 749 C408 753 409 758 409 764 L409 783 C409 792 404 794 396 789 L396 789 Z " />
<glyph glyph-name="ubreve" unicode="&#x16d;" horiz-adv-x="488" d="M374 488 C367 488 362 484 362 476 L362 145 C325 71 268 26 213 26 C155 26 126 58 126 163 L126 476 C126 484 121 488 114 488 L97 488 C90 488 86 484 86 476 L86 157 C86 35 126 -12 207 -12 C268 -12 322 26 366 103 L366 12 C366 4 370 0 378 0 L390 0 C398 0 402 4 402 12 L402 476 C402 484 398 488 390 488 L374 488 Z M345 642 C328 625 293 597 244 597 C195 597 160 625 143 642 C136 648 131 647 131 637 L131 619 C131 614 132 610 135 606 C147 593 181 559 244 559 C306 559 338 591 352 605 C356 609 357 614 357 619 L357 637 C357 647 352 648 345 642 L345 642 Z " />
<glyph glyph-name="Uring" unicode="&#x16e;" horiz-adv-x="578" d="M462 655 C454 655 450 651 450 643 L450 194 C450 83 395 26 289 26 C182 26 127 83 127 194 L127 643 C127 651 123 655 116 655 L98 655 C91 655 87 651 87 643 L87 202 C87 57 157 -12 289 -12 C421 -12 491 62 491 204 L491 643 C491 651 487 655 479 655 L462 655 Z M289 840 C231 840 195 811 195 755 C195 699 230 670 289 670 C347 670 383 700 383 755 C383 811 347 840 289 840 L289 840 Z M289 812 C333 812 350 787 350 755 C350 723 333 698 289 698 C245 698 228 723 228 755 C228 789 245 812 289 812 L289 812 Z " />
<glyph glyph-name="uring" unicode="&#x16f;" horiz-adv-x="488" d="M374 488 C367 488 362 484 362 476 L362 145 C325 71 268 26 213 26 C155 26 126 58 126 163 L126 476 C126 484 121 488 114 488 L97 488 C90 488 86 484 86 476 L86 157 C86 35 126 -12 207 -12 C268 -12 322 26 366 103 L366 12 C366 4 370 0 378 0 L390 0 C398 0 402 4 402 12 L402 476 C402 484 398 488 390 488 L374 488 Z M244 710 C186 710 151 680 151 625 C151 570 186 541 244 541 C302 541 337 572 337 625 C337 681 302 710 244 710 L244 710 Z M244 683 C288 683 305 658 305 625 C305 593 288 568 244 568 C200 568 183 593 183 625 C183 659 200 683 244 683 L244 683 Z " />
<glyph glyph-name="Uhungarumlaut" unicode="&#x170;" horiz-adv-x="578" d="M462 655 C454 655 450 651 450 643 L450 194 C450 83 395 26 289 26 C182 26 127 83 127 194 L127 643 C127 651 123 655 116 655 L98 655 C91 655 87 651 87 643 L87 202 C87 57 157 -12 289 -12 C421 -12 491 62 491 204 L491 643 C491 651 487 655 479 655 L462 655 Z M269 825 C263 825 259 822 256 817 L208 718 C204 711 207 706 216 706 L227 706 C233 706 236 709 239 714 L293 812 C297 820 293 825 285 825 L269 825 Z M376 825 C370 825 366 822 363 817 L315 718 C311 711 314 706 323 706 L334 706 C340 706 343 709 346 714 L400 812 C404 820 400 825 392 825 L376 825 Z " />
<glyph glyph-name="uhungarumlaut" unicode="&#x171;" horiz-adv-x="488" d="M374 488 C367 488 362 484 362 476 L362 145 C325 71 268 26 213 26 C155 26 126 58 126 163 L126 476 C126 484 121 488 114 488 L97 488 C90 488 86 484 86 476 L86 157 C86 35 126 -12 207 -12 C268 -12 322 26 366 103 L366 12 C366 4 370 0 378 0 L390 0 C398 0 402 4 402 12 L402 476 C402 484 398 488 390 488 L374 488 Z M235 673 C228 673 225 671 222 665 L178 557 C175 550 178 545 186 545 L196 545 C203 545 207 548 210 553 L261 661 C264 668 261 673 253 673 L235 673 Z M332 673 C326 673 322 671 320 665 L276 557 C273 550 276 545 284 545 L294 545 C300 545 304 548 307 553 L358 661 C362 668 359 673 350 673 L332 673 Z " />
<glyph glyph-name="Uogonek" unicode="&#x172;" horiz-adv-x="578" d="M462 655 C454 655 450 651 450 643 L450 194 C450 83 395 26 289 26 C182 26 127 83 127 194 L127 643 C127 651 123 655 116 655 L98 655 C91 655 87 651 87 643 L87 202 C87 16 202 -18 313 -10 C282 -34 259 -73 259 -110 L259 -119 C259 -166 290 -197 342 -197 C354 -197 363 -197 377 -194 C383 -193 386 -189 386 -182 L386 -169 C386 -162 382 -159 375 -160 C366 -162 357 -163 348 -163 C313 -163 296 -146 296 -112 L296 -104 C296 -64 332 -15 382 4 C451 31 491 99 491 204 L491 643 C491 651 487 655 479 655 L462 655 Z " />
<glyph glyph-name="uogonek" unicode="&#x173;" horiz-adv-x="501" d="M374 488 C367 488 362 484 362 476 L362 145 C325 71 268 26 213 26 C155 26 126 58 126 163 L126 476 C126 484 121 488 114 488 L97 488 C90 488 86 484 86 476 L86 157 C86 35 126 -12 207 -12 C268 -12 322 26 366 103 L366 4 C322 -16 288 -65 288 -110 L288 -119 C288 -166 319 -197 371 -197 C383 -197 392 -197 406 -194 C412 -193 415 -189 415 -182 L415 -169 C415 -162 411 -159 404 -160 C395 -162 386 -163 377 -163 C342 -163 325 -146 325 -112 L325 -104 C325 -69 351 -24 392 0 C399 0 402 4 402 12 L402 476 C402 484 398 488 390 488 L374 488 Z " />
<glyph glyph-name="Wcircumflex" unicode="&#x174;" horiz-adv-x="832" d="M770 655 C763 655 758 652 757 645 L610 44 L448 645 C447 652 442 655 435 655 L397 655 C390 655 386 652 384 645 L224 44 L76 645 C74 652 70 655 63 655 L42 655 C34 655 30 650 32 642 L190 10 C191 3 196 0 203 0 L242 0 C249 0 253 3 255 10 L416 609 L579 10 C580 3 584 0 592 0 L631 0 C638 0 642 3 644 10 L801 642 C802 650 799 655 790 655 L770 655 Z M304 760 C298 757 296 753 296 747 L296 733 C296 726 301 723 308 725 L416 772 L524 725 C531 723 536 726 536 733 L536 746 C536 753 534 757 528 760 L423 811 C418 813 413 813 409 811 L304 760 Z " />
<glyph glyph-name="wcircumflex" unicode="&#x175;" horiz-adv-x="666" d="M606 488 C599 488 594 485 593 478 L493 43 L361 478 C360 485 355 488 348 488 L318 488 C310 488 306 485 305 478 L172 42 L73 478 C71 485 67 488 60 488 L41 488 C33 488 29 483 31 475 L141 10 C142 3 147 0 154 0 L185 0 C192 0 197 3 198 10 L333 447 L466 10 C468 3 472 0 479 0 L511 0 C518 0 522 3 524 10 L635 475 C637 483 633 488 625 488 L606 488 Z M225 602 C220 599 218 596 218 590 L218 577 C218 569 223 565 231 569 L332 625 L435 569 C442 565 448 569 448 577 L448 590 C448 596 446 599 441 602 L340 663 C335 666 330 666 325 663 L225 602 Z " />
<glyph glyph-name="Ycircumflex" unicode="&#x176;" horiz-adv-x="463" d="M409 655 C402 655 397 652 394 646 L232 270 L70 646 C67 652 63 655 56 655 L33 655 C24 655 21 649 24 642 L212 225 L212 12 C212 4 216 0 223 0 L240 0 C247 0 252 4 252 12 L252 225 L439 642 C442 649 439 655 430 655 L409 655 Z M119 760 C113 757 111 753 111 747 L111 733 C111 726 116 723 123 725 L231 772 L339 725 C346 723 351 726 351 733 L351 746 C351 753 349 757 343 760 L238 811 C233 813 228 813 224 811 L119 760 Z " />
<glyph glyph-name="ycircumflex" unicode="&#x177;" horiz-adv-x="428" d="M378 488 C371 488 366 485 365 479 L207 28 L63 478 C62 485 57 488 50 488 L32 488 C23 488 19 482 22 475 L173 10 C176 3 180 0 187 0 L197 0 L135 -172 C132 -179 136 -185 145 -185 L161 -185 C168 -185 172 -182 174 -176 L406 475 C409 482 405 488 396 488 L378 488 Z M106 602 C101 599 99 596 99 590 L99 577 C99 569 104 565 112 569 L213 625 L316 569 C323 565 329 569 329 577 L329 590 C329 596 327 599 322 602 L221 663 C216 666 211 666 206 663 L106 602 Z " />
<glyph glyph-name="Ydieresis" unicode="&#x178;" horiz-adv-x="463" d="M409 655 C402 655 397 652 394 646 L232 270 L70 646 C67 652 63 655 56 655 L33 655 C24 655 21 649 24 642 L212 225 L212 12 C212 4 216 0 223 0 L240 0 C247 0 252 4 252 12 L252 225 L439 642 C442 649 439 655 430 655 L409 655 Z M168 795 C152 795 141 785 141 771 L141 754 C141 739 152 730 168 730 C186 730 197 739 197 754 L197 771 C197 785 186 795 168 795 L168 795 Z M293 795 C277 795 266 785 266 771 L266 754 C266 739 277 730 293 730 C311 730 322 739 322 754 L322 771 C322 785 311 795 293 795 L293 795 Z " />
<glyph glyph-name="Zacute" unicode="&#x179;" horiz-adv-x="472" d="M66 655 C58 655 54 651 54 643 L54 629 C54 622 58 618 66 618 L372 618 L52 39 C49 34 48 30 48 24 L48 12 C48 4 52 0 60 0 L408 0 C415 0 419 4 419 12 L419 26 C419 33 415 37 408 37 L96 37 L415 616 C418 621 419 625 419 631 L419 643 C419 651 415 655 408 655 L66 655 Z M279 825 C274 825 270 823 267 817 L212 719 C208 711 211 706 220 706 L232 706 C238 706 242 709 245 713 L309 812 C313 820 311 825 302 825 L279 825 Z " />
<glyph glyph-name="zacute" unicode="&#x17a;" horiz-adv-x="403" d="M63 488 C55 488 51 484 51 476 L51 463 C51 456 55 451 63 451 L302 451 L52 39 C47 32 47 28 47 22 L47 12 C47 4 51 0 58 0 L340 0 C347 0 352 4 352 12 L352 26 C352 33 347 37 340 37 L96 37 L344 446 C349 454 351 458 351 466 L351 476 C351 484 347 488 339 488 L63 488 Z M258 673 C253 673 249 671 246 666 L185 559 C180 551 183 546 192 546 L205 546 C210 546 214 548 217 553 L288 660 C293 668 290 673 281 673 L258 673 Z " />
<glyph glyph-name="Zdotaccent" unicode="&#x17b;" horiz-adv-x="472" d="M66 655 C58 655 54 651 54 643 L54 629 C54 622 58 618 66 618 L372 618 L52 39 C49 34 48 30 48 24 L48 12 C48 4 52 0 60 0 L408 0 C415 0 419 4 419 12 L419 26 C419 33 415 37 408 37 L96 37 L415 616 C418 621 419 625 419 631 L419 643 C419 651 415 655 408 655 L66 655 Z M231 801 C212 801 201 791 201 774 L201 757 C201 739 212 730 231 730 C252 730 263 739 263 757 L263 774 C263 791 252 801 231 801 L231 801 Z " />
<glyph glyph-name="zdotaccent" unicode="&#x17c;" horiz-adv-x="403" d="M63 488 C55 488 51 484 51 476 L51 463 C51 456 55 451 63 451 L302 451 L52 39 C47 32 47 28 47 22 L47 12 C47 4 51 0 58 0 L340 0 C347 0 352 4 352 12 L352 26 C352 33 347 37 340 37 L96 37 L344 446 C349 454 351 458 351 466 L351 476 C351 484 347 488 339 488 L63 488 Z M200 648 C181 648 170 638 170 621 L170 604 C170 586 181 577 200 577 C221 577 232 586 232 604 L232 621 C232 638 221 648 200 648 L200 648 Z " />
<glyph glyph-name="Zcaron" unicode="&#x17d;" horiz-adv-x="472" d="M66 655 C58 655 54 651 54 643 L54 629 C54 622 58 618 66 618 L372 618 L52 39 C49 34 48 30 48 24 L48 12 C48 4 52 0 60 0 L408 0 C415 0 419 4 419 12 L419 26 C419 33 415 37 408 37 L96 37 L415 616 C418 621 419 625 419 631 L419 643 C419 651 415 655 408 655 L66 655 Z M231 765 L123 811 C116 814 111 811 111 803 L111 789 C111 783 113 780 119 777 L224 726 C228 723 233 723 238 726 L343 777 C349 780 351 783 351 789 L351 803 C351 811 346 814 339 811 L231 765 Z " />
<glyph glyph-name="zcaron" unicode="&#x17e;" horiz-adv-x="403" d="M63 488 C55 488 51 484 51 476 L51 463 C51 456 55 451 63 451 L302 451 L52 39 C47 32 47 28 47 22 L47 12 C47 4 51 0 58 0 L340 0 C347 0 352 4 352 12 L352 26 C352 33 347 37 340 37 L96 37 L344 446 C349 454 351 458 351 466 L351 476 C351 484 347 488 339 488 L63 488 Z M200 607 L99 663 C91 667 86 663 86 655 L86 642 C86 636 88 633 93 630 L193 570 C198 567 203 567 208 570 L309 630 C314 633 316 636 316 642 L316 655 C316 663 310 667 303 663 L200 607 Z " />
<glyph glyph-name="longs" unicode="&#x17f;" horiz-adv-x="254" d="M228 695 C155 695 116 655 116 555 L116 488 L57 488 C50 488 46 484 46 476 L46 466 C46 458 50 454 57 454 L116 454 L116 12 C116 4 120 0 127 0 L144 0 C152 0 156 4 156 12 L156 561 C156 632 182 660 228 660 C242 660 261 658 276 655 C285 654 288 657 288 666 L288 677 C288 684 286 688 279 689 C260 693 242 695 228 695 L228 695 Z " />
<glyph glyph-name="florin" unicode="&#x192;" horiz-adv-x="292" d="M215 613 C141 613 102 573 102 473 L102 406 L43 406 C36 406 32 402 32 394 L32 384 C32 376 36 372 43 372 L102 372 L102 -173 C102 -181 106 -185 113 -185 L131 -185 C138 -185 142 -181 142 -173 L142 372 L223 372 C230 372 235 376 235 384 L235 394 C235 402 230 406 223 406 L142 406 L142 479 C142 550 168 578 214 578 C229 578 247 576 262 573 C271 572 274 575 274 584 L274 595 C274 602 272 606 265 607 C246 611 227 613 215 613 L215 613 Z " />
<glyph glyph-name="AEacute" unicode="&#x1fc;" horiz-adv-x="786" d="M378 655 C372 655 367 652 365 646 L19 14 C15 6 19 0 28 0 L47 0 C53 0 58 3 60 9 L149 172 L394 172 L394 12 C394 4 399 0 406 0 L697 0 C704 0 708 4 708 12 L708 26 C708 33 704 37 697 37 L434 37 L434 314 L677 314 C684 314 688 319 688 326 L688 340 C688 347 684 352 677 352 L434 352 L434 618 L697 618 C704 618 708 622 708 629 L708 643 C708 651 704 655 697 655 L378 655 Z M394 626 L394 209 L168 209 L394 626 Z M581 825 C576 825 572 823 569 817 L514 719 C510 711 513 706 522 706 L534 706 C540 706 544 709 547 713 L611 812 C615 820 613 825 604 825 L581 825 Z " />
<glyph glyph-name="aeacute" unicode="&#x1fd;" horiz-adv-x="721" d="M496 500 C429 500 385 475 362 426 C345 477 304 500 232 500 C198 500 152 493 111 486 C103 485 99 481 99 473 L99 459 C99 451 103 447 112 449 C147 455 195 463 232 463 C309 463 336 434 336 353 L336 280 C302 287 247 296 212 296 C116 296 61 235 61 159 L61 134 C61 40 107 -12 184 -12 C243 -12 297 24 345 103 C359 22 406 -12 510 -12 C543 -12 587 -6 628 3 C636 5 639 9 639 16 L638 31 C637 39 632 43 625 41 C591 34 550 26 511 26 C418 26 379 58 379 157 L379 238 L635 238 C651 238 656 244 656 260 L656 319 C656 444 599 500 496 500 L496 500 Z M496 464 C571 464 617 423 617 326 L617 276 L376 276 L376 330 C377 424 417 464 496 464 L496 464 Z M225 261 C251 261 305 252 336 246 L336 142 C301 77 242 26 195 26 C137 26 102 61 102 141 L102 150 C102 220 140 260 225 261 L225 261 Z M426 673 C421 673 417 671 414 666 L353 559 C348 551 351 546 360 546 L373 546 C378 546 382 548 385 553 L456 660 C461 668 458 673 449 673 L426 673 Z " />
<glyph glyph-name="Oslashacute" unicode="&#x1fe;" horiz-adv-x="576" d="M486 705 C479 705 475 702 472 697 L430 623 C397 652 350 667 286 667 C136 667 80 589 80 451 L80 204 C80 141 91 92 117 56 L63 -36 C58 -44 62 -50 71 -50 L86 -50 C93 -50 97 -47 100 -42 L143 30 C176 2 223 -12 286 -12 C427 -12 492 60 492 204 L492 451 C492 511 481 560 456 596 L510 691 C514 699 510 705 501 705 L486 705 Z M286 631 C343 631 385 617 413 588 L140 95 C126 120 120 153 120 195 L120 461 C120 576 174 631 286 631 L286 631 Z M432 558 C446 534 452 500 452 460 L452 195 C452 80 398 24 286 24 C229 24 188 37 160 65 L432 558 Z M334 825 C329 825 325 823 322 817 L267 719 C263 711 266 706 275 706 L287 706 C293 706 297 709 300 713 L364 812 C368 820 366 825 357 825 L334 825 Z " />
<glyph glyph-name="oslashacute" unicode="&#x1ff;" horiz-adv-x="481" d="M414 538 C408 538 404 535 401 531 L356 460 C329 487 290 500 238 500 C127 500 74 440 74 317 L74 171 C74 120 83 80 101 51 L46 -37 C41 -45 44 -51 53 -51 L69 -51 C75 -51 80 -48 83 -44 L124 24 C151 0 188 -12 238 -12 C348 -12 403 52 403 171 L403 317 C403 364 395 402 379 430 L438 524 C443 532 439 538 430 538 L414 538 Z M238 464 C282 464 314 451 336 424 L128 91 C118 110 114 134 114 165 L114 324 C114 417 155 464 238 464 L238 464 Z M351 390 C358 372 362 349 362 323 L362 164 C362 70 318 24 238 24 C198 24 166 35 145 59 L351 390 Z M291 691 C286 691 282 689 279 684 L218 577 C213 569 216 564 225 564 L238 564 C243 564 247 566 250 571 L321 678 C326 686 323 691 314 691 L291 691 Z " />
<glyph glyph-name="Scommaaccent" unicode="&#x218;" horiz-adv-x="453" d="M237 667 C110 667 57 614 57 503 L57 485 C57 401 91 361 170 334 L279 298 C345 275 370 242 370 182 L370 148 C370 65 326 26 214 26 C173 26 125 34 87 44 C80 45 75 42 75 33 L74 17 C74 10 77 6 84 5 C125 -5 180 -12 214 -12 C357 -12 410 43 410 156 L410 175 C410 263 379 306 298 333 L200 365 C118 392 97 424 97 482 L97 509 C97 589 132 630 237 630 C276 630 315 624 349 617 C358 616 362 620 363 628 L363 642 C363 650 359 653 352 655 C313 663 270 667 237 667 L237 667 Z M239 -56 C220 -56 211 -66 211 -83 L211 -95 C211 -112 217 -119 234 -122 L223 -176 C221 -184 224 -188 232 -188 L239 -188 C245 -188 249 -186 250 -179 L261 -143 C266 -126 269 -113 269 -96 L269 -84 C269 -67 262 -56 239 -56 L239 -56 Z " />
<glyph glyph-name="scommaaccent" unicode="&#x219;" horiz-adv-x="381" d="M201 500 C96 500 52 457 52 376 L52 362 C52 318 78 281 132 258 L237 213 C282 194 299 170 299 122 L299 109 C299 53 271 25 185 25 C153 25 112 33 82 42 C73 45 68 41 68 32 L67 17 C66 11 69 6 76 4 C111 -5 153 -12 186 -12 C294 -12 338 30 338 110 L338 135 C338 183 312 223 258 246 L157 290 C107 311 91 334 91 370 L91 379 C91 437 121 464 203 464 C225 464 256 460 281 453 C290 450 294 455 294 463 L294 477 C294 484 291 488 284 489 C254 496 223 500 201 500 L201 500 Z M208 -56 C189 -56 180 -66 180 -83 L180 -95 C180 -112 186 -119 203 -122 L192 -176 C190 -184 193 -188 201 -188 L208 -188 C214 -188 218 -186 219 -179 L230 -143 C235 -126 238 -113 238 -96 L238 -84 C238 -67 231 -56 208 -56 L208 -56 Z " />
<glyph glyph-name="uni021A" unicode="&#x21a;" horiz-adv-x="519" d="M50 655 C42 655 38 651 38 643 L38 629 C38 622 42 618 50 618 L239 618 L239 12 C239 4 244 0 251 0 L268 0 C275 0 279 4 279 12 L279 618 L469 618 C477 618 481 622 481 629 L481 643 C481 651 477 655 469 655 L50 655 Z M259 -56 C240 -56 231 -66 231 -83 L231 -95 C231 -112 237 -119 254 -122 L243 -176 C241 -184 244 -188 252 -188 L259 -188 C265 -188 269 -186 270 -179 L281 -143 C286 -126 289 -113 289 -96 L289 -84 C289 -67 282 -56 259 -56 L259 -56 Z " />
<glyph glyph-name="uni021B" unicode="&#x21b;" horiz-adv-x="336" d="M117 618 C111 618 108 614 107 607 L101 488 L42 488 C35 488 31 484 31 476 L31 466 C31 458 35 454 42 454 L101 454 L101 135 C101 21 132 -12 223 -12 C245 -12 276 -7 296 -2 C303 -1 306 3 306 11 L305 24 C304 32 300 36 292 34 C272 29 247 25 222 25 C168 25 141 45 141 128 L141 454 L274 454 C282 454 286 458 286 466 L286 476 C286 484 282 488 274 488 L141 488 L141 606 C141 614 137 618 129 618 L117 618 Z M190 -56 C171 -56 162 -66 162 -83 L162 -95 C162 -112 168 -119 185 -122 L174 -176 C172 -184 175 -188 183 -188 L190 -188 C196 -188 200 -186 201 -179 L212 -143 C217 -126 220 -113 220 -96 L220 -84 C220 -67 213 -56 190 -56 L190 -56 Z " />
<glyph glyph-name="dotlessj" unicode="&#x237;" horiz-adv-x="211" d="M97 488 C90 488 86 484 86 476 L86 -89 C86 -137 63 -160 24 -160 C6 -160 -3 -159 -20 -156 C-28 -155 -32 -159 -32 -168 L-32 -181 C-32 -188 -29 -192 -22 -193 C-12 -195 4 -197 20 -197 C96 -197 126 -161 126 -82 L126 476 C126 484 121 488 114 488 L97 488 Z " />
<glyph glyph-name="uni02BC" unicode="&#x2bc;" horiz-adv-x="125" d="M64 695 C46 695 37 685 37 668 L37 656 C37 639 43 632 60 629 L48 575 C47 567 49 563 57 563 L65 563 C71 563 75 565 76 572 L87 609 C92 625 95 638 95 655 L95 667 C95 684 88 695 64 695 L64 695 Z " />
<glyph glyph-name="circumflex" unicode="&#x2c6;" horiz-adv-x="290" d="M37 602 C32 599 30 596 30 590 L30 577 C30 569 35 565 43 569 L144 625 L247 569 C254 565 260 569 260 577 L260 590 C260 596 258 599 253 602 L152 663 C147 666 142 666 137 663 L37 602 Z " />
<glyph glyph-name="caron" unicode="&#x2c7;" horiz-adv-x="290" d="M144 607 L43 663 C35 667 30 663 30 655 L30 642 C30 636 32 633 37 630 L137 570 C142 567 147 567 152 570 L253 630 C258 633 260 636 260 642 L260 655 C260 663 254 667 247 663 L144 607 Z " />
<glyph glyph-name="uni02C9" unicode="&#x2c9;" horiz-adv-x="252" d="M41 634 C34 634 30 631 30 624 L30 606 C30 599 34 595 41 595 L211 595 C218 595 222 599 222 606 L222 624 C222 631 218 634 211 634 L41 634 Z " />
<glyph glyph-name="breve" unicode="&#x2d8;" horiz-adv-x="286" d="M244 642 C227 625 192 597 143 597 C94 597 59 625 42 642 C35 648 30 647 30 637 L30 619 C30 614 31 610 34 606 C46 593 80 559 143 559 C205 559 237 591 251 605 C255 609 256 614 256 619 L256 637 C256 647 251 648 244 642 L244 642 Z " />
<glyph glyph-name="dotaccent" unicode="&#x2d9;" horiz-adv-x="122" d="M60 648 C41 648 30 638 30 621 L30 604 C30 586 41 577 60 577 C81 577 92 586 92 604 L92 621 C92 638 81 648 60 648 L60 648 Z " />
<glyph glyph-name="ring" unicode="&#x2da;" horiz-adv-x="246" d="M123 710 C65 710 30 680 30 625 C30 570 65 541 123 541 C181 541 216 572 216 625 C216 681 181 710 123 710 L123 710 Z M123 683 C167 683 184 658 184 625 C184 593 167 568 123 568 C79 568 62 593 62 625 C62 659 79 683 123 683 L123 683 Z " />
<glyph glyph-name="ogonek" unicode="&#x2db;" horiz-adv-x="188" d="M125 9 C73 -5 30 -59 30 -110 L30 -119 C30 -166 61 -197 113 -197 C125 -197 134 -197 148 -194 C155 -193 158 -189 158 -182 L158 -169 C158 -162 153 -159 146 -160 C138 -162 129 -163 119 -163 C85 -163 67 -146 67 -112 L67 -104 C67 -69 96 -26 137 -4 C145 1 146 6 139 8 C134 10 130 10 125 9 L125 9 Z " />
<glyph glyph-name="tilde" unicode="&#x2dc;" horiz-adv-x="284" d="M242 632 C229 625 207 617 186 617 C159 617 143 642 101 642 C70 642 47 630 37 623 C31 619 30 615 30 610 L30 596 C30 588 35 585 42 588 C56 595 78 604 99 604 C128 604 151 579 184 579 C213 579 237 591 248 598 C253 601 254 605 254 611 L254 624 C254 632 249 636 242 632 L242 632 Z " />
<glyph glyph-name="hungarumlaut" unicode="&#x2dd;" horiz-adv-x="255" d="M94 673 C87 673 84 671 81 665 L37 557 C34 550 37 545 45 545 L55 545 C62 545 66 548 69 553 L120 661 C123 668 120 673 112 673 L94 673 Z M191 673 C185 673 181 671 179 665 L135 557 C132 550 135 545 143 545 L153 545 C159 545 163 548 166 553 L217 661 C221 668 218 673 209 673 L191 673 Z " />
<glyph glyph-name="uni0312" unicode="&#x312;" d="M60 691 C54 691 50 689 49 682 L38 646 C33 629 30 616 30 599 L30 587 C30 570 37 559 60 559 C79 559 88 569 88 586 L88 598 C88 615 82 622 65 625 L77 679 C78 687 76 691 68 691 L60 691 Z " />
<glyph glyph-name="uni0313" unicode="&#x313;" d="M58 695 C39 695 30 685 30 668 L30 656 C30 639 36 632 53 629 L42 575 C40 567 43 563 51 563 L58 563 C64 563 68 565 69 572 L80 609 C85 625 88 638 88 655 L88 667 C88 684 81 695 58 695 L58 695 Z " />
<glyph glyph-name="uni0326" unicode="&#x326;" d="M58 -56 C39 -56 30 -66 30 -83 L30 -95 C30 -112 36 -119 53 -122 L42 -176 C40 -184 43 -188 51 -188 L58 -188 C64 -188 68 -186 69 -179 L80 -143 C85 -126 88 -113 88 -96 L88 -84 C88 -67 81 -56 58 -56 L58 -56 Z " />
<glyph glyph-name="tonos" unicode="&#x384;" horiz-adv-x="132" d="M65 683 C59 683 56 680 55 674 L32 556 C31 548 34 544 42 544 L53 544 C61 544 64 547 65 553 L99 671 C101 679 97 683 90 683 L65 683 Z " />
<glyph glyph-name="dieresistonos" unicode="&#x385;" horiz-adv-x="247" d="M140 807 C133 807 130 805 129 798 L107 680 C105 673 108 668 116 668 L128 668 C134 668 138 671 139 677 L173 795 C175 803 171 807 164 807 L140 807 Z M56 643 C41 643 30 633 30 619 L30 603 C30 589 41 580 56 580 C72 580 84 589 84 603 L84 619 C84 633 72 643 56 643 L56 643 Z M189 643 C174 643 163 633 163 619 L163 603 C163 589 174 580 189 580 C205 580 217 589 217 603 L217 619 C217 633 205 643 189 643 L189 643 Z " />
<glyph glyph-name="Alphatonos" unicode="&#x386;" horiz-adv-x="512" d="M234 655 C227 655 222 652 221 645 L18 13 C15 6 19 0 28 0 L47 0 C54 0 58 3 60 10 L110 171 L395 171 L449 10 C450 3 455 0 462 0 L482 0 C491 0 495 6 492 13 L280 646 C279 652 274 655 267 655 L234 655 Z M250 617 L384 209 L122 209 L250 617 Z M127 655 C121 655 118 652 117 646 L94 528 C93 520 96 516 104 516 L115 516 C122 516 126 519 127 525 L161 643 C163 651 159 655 152 655 L127 655 Z " />
<glyph glyph-name="anoteleia" unicode="&#x387;" horiz-adv-x="198" d="M99 260 C77 260 67 250 67 231 L67 216 C67 198 77 189 99 189 C121 189 132 198 132 216 L132 231 C132 250 121 260 99 260 L99 260 Z " />
<glyph glyph-name="Epsilontonos" unicode="&#x388;" horiz-adv-x="477" d="M98 655 C91 655 87 651 87 643 L87 12 C87 4 91 0 98 0 L389 0 C396 0 401 4 401 12 L401 26 C401 33 396 37 389 37 L127 37 L127 314 L369 314 C376 314 381 319 381 326 L381 340 C381 347 376 352 369 352 L127 352 L127 618 L389 618 C396 618 401 622 401 629 L401 643 C401 651 396 655 389 655 L98 655 Z M16 655 C10 655 7 652 6 646 L-17 528 C-18 520 -15 516 -7 516 L4 516 C11 516 15 519 16 525 L50 643 C52 651 48 655 41 655 L16 655 Z " />
<glyph glyph-name="Etatonos" unicode="&#x389;" horiz-adv-x="579" d="M464 655 C457 655 453 651 453 643 L453 357 L127 357 L127 643 C127 651 122 655 115 655 L98 655 C91 655 87 651 87 643 L87 12 C87 4 91 0 98 0 L115 0 C122 0 127 4 127 12 L127 320 L453 320 L453 12 C453 4 457 0 464 0 L481 0 C488 0 493 4 493 12 L493 643 C493 651 488 655 481 655 L464 655 Z M16 655 C10 655 7 652 6 646 L-17 528 C-18 520 -15 516 -7 516 L4 516 C11 516 15 519 16 525 L50 643 C52 651 48 655 41 655 L16 655 Z " />
<glyph glyph-name="Iotatonos" unicode="&#x38a;" horiz-adv-x="213" d="M98 655 C91 655 87 651 87 643 L87 12 C87 4 91 0 98 0 L115 0 C122 0 127 4 127 12 L127 643 C127 651 122 655 115 655 L98 655 Z M16 655 C10 655 7 652 6 646 L-17 528 C-18 520 -15 516 -7 516 L4 516 C11 516 15 519 16 525 L50 643 C52 651 48 655 41 655 L16 655 Z " />
<glyph glyph-name="Omicrontonos" unicode="&#x38c;" horiz-adv-x="576" d="M288 667 C138 667 82 589 82 451 L82 204 C82 60 144 -12 288 -12 C429 -12 494 60 494 204 L494 451 C494 589 437 667 288 667 L288 667 Z M288 631 C400 631 454 575 454 460 L454 195 C454 80 400 24 288 24 C176 24 122 80 122 195 L122 461 C122 576 176 631 288 631 L288 631 Z M51 655 C45 655 42 652 41 646 L18 528 C17 520 20 516 28 516 L39 516 C46 516 50 519 51 525 L85 643 C87 651 83 655 76 655 L51 655 Z " />
<glyph glyph-name="Upsilontonos" unicode="&#x38e;" horiz-adv-x="534" d="M480 655 C473 655 468 652 465 646 L303 270 L141 646 C138 652 134 655 127 655 L104 655 C95 655 92 649 95 642 L283 225 L283 12 C283 4 287 0 294 0 L311 0 C318 0 323 4 323 12 L323 225 L510 642 C513 649 510 655 501 655 L480 655 Z M34 655 C28 655 25 652 24 646 L1 528 C0 520 3 516 11 516 L22 516 C29 516 33 519 34 525 L68 643 C70 651 66 655 59 655 L34 655 Z " />
<glyph glyph-name="Omegatonos" unicode="&#x38f;" horiz-adv-x="576" d="M288 667 C140 667 82 590 82 452 L82 217 C82 132 112 71 169 38 L83 38 C76 38 72 34 72 26 L72 12 C72 4 76 0 83 0 L248 0 C256 0 260 4 260 12 L260 26 C260 32 257 35 251 35 L250 35 C177 35 122 114 122 209 L122 462 C122 577 177 631 288 631 C400 631 455 576 455 461 L455 209 C455 114 400 36 326 35 L325 35 C319 35 316 32 316 26 L316 12 C316 4 321 0 328 0 L493 0 C500 0 505 4 505 12 L505 26 C505 34 500 38 493 38 L407 38 C464 71 495 132 495 217 L495 452 C495 590 436 667 288 667 L288 667 Z M47 655 C41 655 38 652 37 646 L14 528 C13 520 16 516 24 516 L35 516 C42 516 46 519 47 525 L81 643 C83 651 79 655 72 655 L47 655 Z " />
<glyph glyph-name="iotadieresistonos" unicode="&#x390;" horiz-adv-x="211" d="M97 488 C90 488 86 484 86 476 L86 12 C86 4 90 0 97 0 L114 0 C121 0 126 4 126 12 L126 476 C126 484 121 488 114 488 L97 488 Z M122 807 C115 807 112 805 111 798 L89 680 C87 673 90 668 98 668 L110 668 C116 668 120 671 121 677 L155 795 C157 803 153 807 146 807 L122 807 Z M38 643 C23 643 12 633 12 619 L12 603 C12 589 23 580 38 580 C54 580 66 589 66 603 L66 619 C66 633 54 643 38 643 L38 643 Z M171 643 C156 643 145 633 145 619 L145 603 C145 589 156 580 171 580 C187 580 199 589 199 603 L199 619 C199 633 187 643 171 643 L171 643 Z " />
<glyph glyph-name="Alpha" unicode="&#x391;" horiz-adv-x="512" d="M234 655 C227 655 222 652 221 645 L18 13 C15 6 19 0 28 0 L47 0 C54 0 58 3 60 10 L110 171 L395 171 L449 10 C450 3 455 0 462 0 L482 0 C491 0 495 6 492 13 L280 646 C279 652 274 655 267 655 L234 655 Z M250 617 L384 209 L122 209 L250 617 Z " />
<glyph glyph-name="Beta" unicode="&#x392;" horiz-adv-x="527" d="M245 667 C194 667 141 664 98 662 C90 661 87 657 87 650 L87 6 C87 -2 91 -6 98 -6 C186 -11 200 -12 258 -12 C417 -12 481 57 481 161 L481 182 C481 263 430 322 350 336 C419 362 454 417 454 493 L454 508 C454 607 390 667 245 667 L245 667 Z M234 630 C364 630 414 589 414 499 L414 485 C414 412 359 349 281 349 L127 349 L127 627 C160 629 213 630 234 630 L234 630 Z M287 315 C385 315 441 259 441 184 L441 162 C441 76 388 25 258 25 C224 25 181 26 127 31 L127 315 L287 315 Z " />
<glyph glyph-name="Gamma" unicode="&#x393;" horiz-adv-x="434" d="M98 655 C91 655 87 651 87 643 L87 12 C87 4 91 0 98 0 L115 0 C122 0 127 4 127 12 L127 618 L385 618 C392 618 396 622 396 629 L396 643 C396 651 392 655 385 655 L98 655 Z " />
<glyph glyph-name="uni0394" unicode="&#x394;" horiz-adv-x="501" d="M235 655 C228 655 224 652 222 645 L23 35 C20 30 20 26 20 20 L20 12 C20 4 24 0 32 0 L469 0 C476 0 480 4 480 12 L480 22 C480 27 480 31 478 36 L278 645 C276 652 272 655 264 655 L235 655 Z M250 616 L435 37 L64 37 L250 616 Z " />
<glyph glyph-name="Epsilon" unicode="&#x395;" horiz-adv-x="477" d="M98 655 C91 655 87 651 87 643 L87 12 C87 4 91 0 98 0 L389 0 C396 0 401 4 401 12 L401 26 C401 33 396 37 389 37 L127 37 L127 314 L369 314 C376 314 381 319 381 326 L381 340 C381 347 376 352 369 352 L127 352 L127 618 L389 618 C396 618 401 622 401 629 L401 643 C401 651 396 655 389 655 L98 655 Z " />
<glyph glyph-name="Zeta" unicode="&#x396;" horiz-adv-x="472" d="M66 655 C58 655 54 651 54 643 L54 629 C54 622 58 618 66 618 L372 618 L52 39 C49 34 48 30 48 24 L48 12 C48 4 52 0 60 0 L408 0 C415 0 419 4 419 12 L419 26 C419 33 415 37 408 37 L96 37 L415 616 C418 621 419 625 419 631 L419 643 C419 651 415 655 408 655 L66 655 Z " />
<glyph glyph-name="Eta" unicode="&#x397;" horiz-adv-x="579" d="M464 655 C457 655 453 651 453 643 L453 357 L127 357 L127 643 C127 651 122 655 115 655 L98 655 C91 655 87 651 87 643 L87 12 C87 4 91 0 98 0 L115 0 C122 0 127 4 127 12 L127 320 L453 320 L453 12 C453 4 457 0 464 0 L481 0 C488 0 493 4 493 12 L493 643 C493 651 488 655 481 655 L464 655 Z " />
<glyph glyph-name="Theta" unicode="&#x398;" horiz-adv-x="576" d="M288 667 C138 667 82 589 82 451 L82 204 C82 60 144 -12 288 -12 C429 -12 494 60 494 204 L494 451 C494 589 437 667 288 667 L288 667 Z M288 631 C400 631 454 575 454 460 L454 195 C454 80 400 24 288 24 C176 24 122 80 122 195 L122 461 C122 576 176 631 288 631 L288 631 Z M217 357 C210 357 205 352 205 345 L205 330 C205 323 210 319 217 319 L360 319 C367 319 372 323 372 330 L372 345 C372 352 367 357 360 357 L217 357 Z " />
<glyph glyph-name="Iota" unicode="&#x399;" horiz-adv-x="213" d="M98 655 C91 655 87 651 87 643 L87 12 C87 4 91 0 98 0 L115 0 C122 0 127 4 127 12 L127 643 C127 651 122 655 115 655 L98 655 Z " />
<glyph glyph-name="Kappa" unicode="&#x39a;" horiz-adv-x="498" d="M438 655 C432 655 427 653 423 649 L127 339 L127 643 C127 651 122 655 115 655 L98 655 C91 655 87 651 87 643 L87 12 C87 4 91 0 98 0 L115 0 C122 0 127 4 127 12 L127 330 L441 6 C446 2 450 0 456 0 L482 0 C492 0 495 7 488 15 L173 337 L465 640 C472 648 469 655 458 655 L438 655 Z " />
<glyph glyph-name="Lambda" unicode="&#x39b;" horiz-adv-x="511" d="M235 655 C228 655 224 652 222 645 L19 13 C16 6 20 0 29 0 L49 0 C56 0 60 3 62 10 L253 617 L448 10 C450 3 454 0 462 0 L482 0 C491 0 495 6 492 13 L286 645 C285 652 280 655 273 655 L235 655 Z " />
<glyph glyph-name="Mu" unicode="&#x39c;" horiz-adv-x="698" d="M605 0 C612 0 617 4 617 12 L611 643 C611 651 607 655 600 655 L560 655 C553 655 549 652 547 646 L350 108 L152 646 C150 652 146 655 139 655 L99 655 C91 655 87 651 87 643 L82 12 C82 4 86 0 93 0 L110 0 C118 0 122 4 122 12 L127 599 L320 77 C321 71 326 68 333 68 L365 68 C373 68 377 71 379 77 L571 599 L576 12 C576 4 581 0 588 0 L605 0 Z " />
<glyph glyph-name="Nu" unicode="&#x39d;" horiz-adv-x="582" d="M484 0 C491 0 495 4 495 12 L495 643 C495 651 491 655 484 655 L467 655 C460 655 456 651 456 643 L456 53 L152 646 C149 652 145 655 139 655 L98 655 C91 655 87 651 87 643 L87 12 C87 4 91 0 98 0 L115 0 C122 0 126 4 126 12 L126 606 L434 9 C437 3 441 0 447 0 L484 0 Z " />
<glyph glyph-name="Xi" unicode="&#x39e;" horiz-adv-x="476" d="M68 655 C61 655 57 651 57 643 L57 625 C57 618 61 613 68 613 L407 613 C415 613 419 618 419 625 L419 643 C419 651 415 655 407 655 L68 655 Z M135 354 C128 354 124 349 124 342 L124 324 C124 317 128 312 135 312 L339 312 C347 312 351 317 351 324 L351 342 C351 349 347 354 339 354 L135 354 Z M68 42 C61 42 57 37 57 30 L57 12 C57 4 61 0 68 0 L407 0 C415 0 419 4 419 12 L419 30 C419 37 415 42 407 42 L68 42 Z " />
<glyph glyph-name="Omicron" unicode="&#x39f;" horiz-adv-x="576" d="M288 667 C138 667 82 589 82 451 L82 204 C82 60 144 -12 288 -12 C429 -12 494 60 494 204 L494 451 C494 589 437 667 288 667 L288 667 Z M288 631 C400 631 454 575 454 460 L454 195 C454 80 400 24 288 24 C176 24 122 80 122 195 L122 461 C122 576 176 631 288 631 L288 631 Z " />
<glyph glyph-name="Pi" unicode="&#x3a0;" horiz-adv-x="579" d="M98 655 C91 655 87 651 87 643 L87 12 C87 4 91 0 98 0 L115 0 C122 0 127 4 127 12 L127 618 L453 618 L453 12 C453 4 457 0 464 0 L481 0 C488 0 493 4 493 12 L493 643 C493 651 488 655 481 655 L98 655 Z " />
<glyph glyph-name="Rho" unicode="&#x3a1;" horiz-adv-x="506" d="M247 667 C184 667 133 664 96 662 C90 662 87 658 87 650 L87 12 C87 4 91 0 98 0 L115 0 C122 0 127 4 127 12 L127 279 C183 271 218 267 254 267 C398 267 468 339 468 466 L468 486 C468 606 397 667 247 667 L247 667 Z M246 631 C372 631 428 582 428 483 L428 467 C428 362 374 304 252 304 C210 304 172 308 127 315 L127 627 C153 628 201 631 246 631 L246 631 Z " />
<glyph glyph-name="Sigma" unicode="&#x3a3;" horiz-adv-x="457" d="M62 655 C55 655 51 651 51 643 L51 633 C51 626 51 621 55 616 L247 331 L55 38 C51 33 51 29 51 22 L51 12 C51 4 55 0 62 0 L400 0 C407 0 412 4 412 12 L412 26 C412 33 407 37 400 37 L98 37 L276 308 C281 315 282 320 282 327 L282 334 C282 341 281 346 276 353 L97 618 L400 618 C407 618 412 622 412 629 L412 643 C412 651 407 655 400 655 L62 655 Z " />
<glyph glyph-name="Tau" unicode="&#x3a4;" horiz-adv-x="519" d="M50 655 C42 655 38 651 38 643 L38 629 C38 622 42 618 50 618 L239 618 L239 12 C239 4 244 0 251 0 L268 0 C275 0 279 4 279 12 L279 618 L469 618 C477 618 481 622 481 629 L481 643 C481 651 477 655 469 655 L50 655 Z " />
<glyph glyph-name="Upsilon" unicode="&#x3a5;" horiz-adv-x="463" d="M409 655 C402 655 397 652 394 646 L232 270 L70 646 C67 652 63 655 56 655 L33 655 C24 655 21 649 24 642 L212 225 L212 12 C212 4 216 0 223 0 L240 0 C247 0 252 4 252 12 L252 225 L439 642 C442 649 439 655 430 655 L409 655 Z " />
<glyph glyph-name="Phi" unicode="&#x3a6;" horiz-adv-x="756" d="M369 695 C362 695 357 691 357 683 L357 610 C332 614 306 617 281 617 C129 617 79 547 79 415 L79 270 C79 135 132 68 281 68 C306 68 332 70 357 74 L357 0 C357 -8 362 -12 369 -12 L385 -12 C393 -12 397 -8 397 0 L397 75 C423 70 450 68 475 68 C626 68 676 137 676 270 L676 415 C676 549 625 617 475 617 C450 617 423 614 397 611 L397 683 C397 691 393 695 385 695 L369 695 Z M281 582 C306 582 332 579 357 576 L357 107 C332 103 306 101 281 101 C164 101 119 151 119 259 L119 426 C119 533 163 582 281 582 L281 582 Z M475 582 C591 582 636 534 636 426 L636 259 C636 152 592 101 475 101 C449 101 422 104 397 107 L397 576 C422 580 449 582 475 582 L475 582 Z " />
<glyph glyph-name="Chi" unicode="&#x3a7;" horiz-adv-x="491" d="M423 655 C417 655 412 652 409 647 L246 370 L81 647 C78 652 73 655 67 655 L44 655 C35 655 31 649 36 641 L219 336 L25 14 C20 6 24 0 33 0 L56 0 C63 0 67 3 70 8 L243 302 L417 8 C420 3 424 0 430 0 L454 0 C464 0 468 6 462 14 L270 337 L452 641 C457 649 453 655 444 655 L423 655 Z " />
<glyph glyph-name="Psi" unicode="&#x3a8;" horiz-adv-x="726" d="M613 655 C605 655 601 651 601 643 L601 344 C601 262 557 218 483 218 L383 218 L383 643 C383 651 379 655 371 655 L355 655 C348 655 343 651 343 643 L343 218 L243 218 C170 218 128 263 124 343 L124 643 C124 651 120 655 113 655 L96 655 C89 655 84 651 84 643 L84 355 C84 247 134 182 243 182 L343 182 L343 12 C343 4 348 0 355 0 L371 0 C379 0 383 4 383 12 L383 182 L483 182 C588 182 641 245 641 355 L641 643 C641 651 637 655 629 655 L613 655 Z " />
<glyph glyph-name="uni03A9" unicode="&#x3a9;" horiz-adv-x="576" d="M288 667 C140 667 82 590 82 452 L82 217 C82 132 112 71 169 38 L83 38 C76 38 72 34 72 26 L72 12 C72 4 76 0 83 0 L248 0 C256 0 260 4 260 12 L260 26 C260 32 257 35 251 35 L250 35 C177 35 122 114 122 209 L122 462 C122 577 177 631 288 631 C400 631 455 576 455 461 L455 209 C455 114 400 36 326 35 L325 35 C319 35 316 32 316 26 L316 12 C316 4 321 0 328 0 L493 0 C500 0 505 4 505 12 L505 26 C505 34 500 38 493 38 L407 38 C464 71 495 132 495 217 L495 452 C495 590 436 667 288 667 L288 667 Z " />
<glyph glyph-name="Iotadieresis" unicode="&#x3aa;" horiz-adv-x="213" d="M98 655 C91 655 87 651 87 643 L87 12 C87 4 91 0 98 0 L115 0 C122 0 127 4 127 12 L127 643 C127 651 122 655 115 655 L98 655 Z M43 795 C27 795 16 785 16 771 L16 754 C16 739 27 730 43 730 C61 730 72 739 72 754 L72 771 C72 785 61 795 43 795 L43 795 Z M168 795 C152 795 141 785 141 771 L141 754 C141 739 152 730 168 730 C186 730 197 739 197 754 L197 771 C197 785 186 795 168 795 L168 795 Z " />
<glyph glyph-name="Upsilondieresis" unicode="&#x3ab;" horiz-adv-x="463" d="M409 655 C402 655 397 652 394 646 L232 270 L70 646 C67 652 63 655 56 655 L33 655 C24 655 21 649 24 642 L212 225 L212 12 C212 4 216 0 223 0 L240 0 C247 0 252 4 252 12 L252 225 L439 642 C442 649 439 655 430 655 L409 655 Z M168 795 C152 795 141 785 141 771 L141 754 C141 739 152 730 168 730 C186 730 197 739 197 754 L197 771 C197 785 186 795 168 795 L168 795 Z M293 795 C277 795 266 785 266 771 L266 754 C266 739 277 730 293 730 C311 730 322 739 322 754 L322 771 C322 785 311 795 293 795 L293 795 Z " />
<glyph glyph-name="alphatonos" unicode="&#x3ac;" horiz-adv-x="484" d="M214 500 C126 500 76 440 76 334 L76 152 C76 36 122 -12 200 -12 C263 -12 322 43 361 116 L361 12 C361 4 365 0 373 0 L386 0 C394 0 398 4 398 12 L398 476 C398 484 394 488 386 488 L373 488 C365 488 361 484 361 476 L361 430 C331 458 277 500 214 500 L214 500 Z M221 463 C272 463 327 427 357 393 L357 158 C323 91 269 25 210 25 C153 25 116 57 116 160 L116 327 C116 420 155 463 221 463 L221 463 Z M260 683 C254 683 251 680 250 674 L227 556 C226 548 229 544 237 544 L248 544 C256 544 259 547 260 553 L294 671 C296 679 292 683 285 683 L260 683 Z " />
<glyph glyph-name="epsilontonos" unicode="&#x3ad;" horiz-adv-x="378" d="M214 500 C109 500 64 449 64 368 L64 358 C64 305 91 263 153 246 C88 234 56 185 56 132 L56 122 C56 37 102 -12 218 -12 C250 -12 270 -10 307 -3 C314 -2 318 2 318 11 L317 23 C316 32 311 34 304 33 C273 27 249 25 218 25 C133 25 95 60 95 126 L95 135 C95 190 132 230 213 230 L279 230 C287 230 291 234 291 241 L291 252 C291 259 287 264 279 264 L215 264 C138 264 103 301 103 358 L103 371 C103 431 134 465 212 465 C244 465 273 461 304 455 C311 453 317 457 317 465 L317 476 C317 484 314 488 307 489 C271 497 243 500 214 500 L214 500 Z M206 683 C200 683 197 680 196 674 L173 556 C172 548 175 544 183 544 L194 544 C202 544 205 547 206 553 L240 671 C242 679 238 683 231 683 L206 683 Z " />
<glyph glyph-name="etatonos" unicode="&#x3ae;" horiz-adv-x="494" d="M284 500 C221 500 165 460 122 385 L122 476 C122 484 118 488 110 488 L97 488 C90 488 86 484 86 476 L86 12 C86 4 90 0 97 0 L114 0 C121 0 126 4 126 12 L126 343 C162 416 220 462 278 462 C338 462 368 430 368 326 L368 -173 C368 -181 373 -185 380 -185 L396 -185 C404 -185 408 -181 408 -173 L408 331 C408 452 368 500 284 500 L284 500 Z M263 683 C257 683 254 680 253 674 L230 556 C229 548 232 544 240 544 L251 544 C259 544 262 547 263 553 L297 671 C299 679 295 683 288 683 L263 683 Z " />
<glyph glyph-name="iotatonos" unicode="&#x3af;" horiz-adv-x="211" d="M97 488 C90 488 86 484 86 476 L86 12 C86 4 90 0 97 0 L114 0 C121 0 126 4 126 12 L126 476 C126 484 121 488 114 488 L97 488 Z M124 683 C118 683 115 680 114 674 L91 556 C90 548 93 544 101 544 L112 544 C120 544 123 547 124 553 L158 671 C160 679 156 683 149 683 L124 683 Z " />
<glyph glyph-name="upsilondieresistonos" unicode="&#x3b0;" horiz-adv-x="488" d="M374 488 C367 488 362 484 362 476 L362 154 C362 71 315 23 244 23 C173 23 126 70 126 153 L126 476 C126 484 122 488 114 488 L97 488 C90 488 86 484 86 476 L86 165 C86 55 135 -12 244 -12 C353 -12 402 55 402 165 L402 476 C402 484 398 488 390 488 L374 488 Z M260 807 C253 807 250 805 249 798 L227 680 C225 673 228 668 236 668 L248 668 C254 668 258 671 259 677 L293 795 C295 803 291 807 284 807 L260 807 Z M176 643 C161 643 150 633 150 619 L150 603 C150 589 161 580 176 580 C192 580 204 589 204 603 L204 619 C204 633 192 643 176 643 L176 643 Z M309 643 C294 643 283 633 283 619 L283 603 C283 589 294 580 309 580 C325 580 337 589 337 603 L337 619 C337 633 325 643 309 643 L309 643 Z " />
<glyph glyph-name="alpha" unicode="&#x3b1;" horiz-adv-x="484" d="M214 500 C126 500 76 440 76 334 L76 152 C76 36 122 -12 200 -12 C263 -12 322 43 361 116 L361 12 C361 4 365 0 373 0 L386 0 C394 0 398 4 398 12 L398 476 C398 484 394 488 386 488 L373 488 C365 488 361 484 361 476 L361 430 C331 458 277 500 214 500 L214 500 Z M221 463 C272 463 327 427 357 393 L357 158 C323 91 269 25 210 25 C153 25 116 57 116 160 L116 327 C116 420 155 463 221 463 L221 463 Z " />
<glyph glyph-name="beta" unicode="&#x3b2;" horiz-adv-x="474" d="M228 695 C127 695 86 649 86 534 L86 -173 C86 -181 90 -185 97 -185 L114 -185 C121 -185 126 -181 126 -173 L126 42 C162 15 216 -12 266 -12 C352 -12 408 40 408 147 L408 251 C408 332 368 377 307 387 C344 407 368 453 368 506 L368 548 C368 640 316 695 228 695 L228 695 Z M226 658 C293 658 328 619 328 546 L328 510 C328 429 298 396 254 396 L219 396 C211 396 207 391 207 384 L207 374 C207 366 211 362 219 362 L270 362 C333 362 368 332 368 239 L368 159 C368 69 331 25 261 25 C222 25 165 48 126 83 L126 545 C126 626 157 658 226 658 L226 658 Z " />
<glyph glyph-name="gamma" unicode="&#x3b3;" horiz-adv-x="426" d="M375 488 C368 488 364 485 362 479 L213 52 L64 479 C62 485 58 488 51 488 L32 488 C23 488 19 482 22 475 L193 0 L193 -173 C193 -181 197 -185 205 -185 L221 -185 C228 -185 233 -181 233 -173 L233 0 L404 475 C407 482 402 488 394 488 L375 488 Z " />
<glyph glyph-name="delta" unicode="&#x3b4;" horiz-adv-x="474" d="M130 672 C130 664 133 661 140 658 C267 613 353 499 353 371 L353 334 C318 390 262 448 192 448 C105 448 71 386 71 281 L71 157 C71 37 114 -12 232 -12 C347 -12 393 52 393 166 L393 362 C393 500 309 611 218 652 L384 648 C392 648 396 652 396 660 L396 670 C396 678 392 682 384 682 L142 686 C134 686 130 682 130 675 L130 672 Z M200 411 C260 411 323 341 353 290 L353 148 C353 62 310 24 232 24 C149 24 111 59 111 148 L111 269 C111 376 139 411 200 411 L200 411 Z " />
<glyph glyph-name="epsilon" unicode="&#x3b5;" horiz-adv-x="378" d="M214 500 C109 500 64 449 64 368 L64 358 C64 305 91 263 153 246 C88 234 56 185 56 132 L56 122 C56 37 102 -12 218 -12 C250 -12 270 -10 307 -3 C314 -2 318 2 318 11 L317 23 C316 32 311 34 304 33 C273 27 249 25 218 25 C133 25 95 60 95 126 L95 135 C95 190 132 230 213 230 L279 230 C287 230 291 234 291 241 L291 252 C291 259 287 264 279 264 L215 264 C138 264 103 301 103 358 L103 371 C103 431 134 465 212 465 C244 465 273 461 304 455 C311 453 317 457 317 465 L317 476 C317 484 314 488 307 489 C271 497 243 500 214 500 L214 500 Z " />
<glyph glyph-name="zeta" unicode="&#x3b6;" horiz-adv-x="404" d="M72 683 C65 683 61 679 61 671 L61 659 C61 651 65 647 73 647 L316 647 L205 499 C114 379 75 264 75 177 C75 59 130 0 243 0 L261 0 C325 0 334 -11 334 -55 L334 -118 C334 -126 338 -130 346 -130 L362 -130 C369 -130 373 -126 373 -118 L373 -46 C373 22 356 36 256 36 C156 36 115 82 115 171 C115 254 155 367 241 485 L359 646 C362 651 363 654 363 661 L363 671 C363 679 359 683 351 683 L72 683 Z " />
<glyph glyph-name="eta" unicode="&#x3b7;" horiz-adv-x="494" d="M284 500 C221 500 165 460 122 385 L122 476 C122 484 118 488 110 488 L97 488 C90 488 86 484 86 476 L86 12 C86 4 90 0 97 0 L114 0 C121 0 126 4 126 12 L126 343 C162 416 220 462 278 462 C338 462 368 430 368 326 L368 -173 C368 -181 373 -185 380 -185 L396 -185 C404 -185 408 -181 408 -173 L408 331 C408 452 368 500 284 500 L284 500 Z " />
<glyph glyph-name="theta" unicode="&#x3b8;" horiz-adv-x="505" d="M252 695 C139 695 86 635 86 512 L86 171 C86 49 139 -12 252 -12 C364 -12 419 51 419 171 L419 512 C419 636 365 695 252 695 L252 695 Z M252 659 C333 659 378 614 378 520 L378 374 L126 374 L126 519 C126 612 169 659 252 659 L252 659 Z M378 340 L378 164 C378 70 332 25 252 25 C172 25 126 69 126 164 L126 340 L378 340 Z " />
<glyph glyph-name="iota" unicode="&#x3b9;" horiz-adv-x="211" d="M97 488 C90 488 86 484 86 476 L86 12 C86 4 90 0 97 0 L114 0 C121 0 126 4 126 12 L126 476 C126 484 121 488 114 488 L97 488 Z " />
<glyph glyph-name="kappa" unicode="&#x3ba;" horiz-adv-x="407" d="M337 488 C331 488 327 486 322 481 L126 265 L126 476 C126 484 121 488 114 488 L97 488 C90 488 86 484 86 476 L86 12 C86 4 90 0 97 0 L114 0 C121 0 126 4 126 12 L126 252 L337 7 C341 2 345 0 351 0 L376 0 C386 0 389 7 382 14 L168 260 L366 474 C372 481 369 488 359 488 L337 488 Z " />
<glyph glyph-name="lambda" unicode="&#x3bb;" horiz-adv-x="423" d="M143 683 C134 683 130 677 133 670 L197 488 L190 488 C183 488 179 485 177 479 L22 13 C19 6 23 0 32 0 L49 0 C56 0 60 3 62 10 L207 460 L367 9 C369 3 373 0 381 0 L396 0 C405 0 409 6 406 13 L172 674 C170 680 165 683 158 683 L143 683 Z " />
<glyph glyph-name="uni03BC" unicode="&#x3bc;" horiz-adv-x="488" d="M374 488 C367 488 362 484 362 476 L362 145 C325 71 268 26 213 26 C156 26 126 58 126 163 L126 476 C126 484 121 488 114 488 L97 488 C90 488 86 484 86 476 L86 -173 C86 -181 90 -185 97 -185 L111 -185 C119 -185 123 -181 123 -173 L123 34 C138 6 170 -12 208 -12 C267 -12 322 26 366 103 L366 12 C366 4 370 0 378 0 L390 0 C398 0 402 4 402 12 L402 476 C402 484 398 488 390 488 L374 488 Z " />
<glyph glyph-name="nu" unicode="&#x3bd;" horiz-adv-x="424" d="M374 488 C367 488 363 485 361 479 L212 39 L63 479 C62 485 57 488 50 488 L32 488 C23 488 19 482 22 475 L183 9 C185 3 190 0 197 0 L227 0 C234 0 238 3 240 9 L402 475 C405 482 401 488 392 488 L374 488 Z " />
<glyph glyph-name="xi" unicode="&#x3be;" horiz-adv-x="385" d="M65 683 C57 683 53 679 53 671 L53 660 C53 652 57 648 65 648 L219 648 C135 625 89 564 89 488 L89 463 C89 415 116 377 162 358 C106 339 82 292 82 232 L82 144 C82 57 124 0 255 0 L266 0 C321 0 333 -11 333 -52 L333 -118 C333 -126 337 -130 344 -130 L358 -130 C365 -130 370 -126 370 -118 L370 -47 C370 19 350 35 255 35 C158 35 122 68 122 146 L122 236 C122 299 157 340 224 340 L282 340 C290 340 294 345 294 352 L294 363 C294 370 290 374 282 374 L236 374 C169 374 129 414 129 458 L129 486 C129 597 213 646 335 648 L339 648 C348 648 351 652 351 660 L351 671 C351 679 347 683 339 683 L65 683 Z " />
<glyph glyph-name="omicron" unicode="&#x3bf;" horiz-adv-x="481" d="M240 500 C129 500 76 440 76 317 L76 171 C76 49 127 -12 240 -12 C350 -12 405 52 405 171 L405 317 C405 441 351 500 240 500 L240 500 Z M240 464 C321 464 364 419 364 325 L364 164 C364 70 320 24 240 24 C160 24 116 69 116 164 L116 324 C116 417 157 464 240 464 L240 464 Z " />
<glyph glyph-name="pi" unicode="&#x3c0;" horiz-adv-x="545" d="M47 488 C40 488 36 484 36 476 L36 464 C36 456 40 452 47 452 L106 452 L106 12 C106 4 110 0 117 0 L134 0 C141 0 146 4 146 12 L146 452 L389 452 L389 109 C389 13 416 -12 475 -12 C484 -12 498 -10 508 -7 C516 -6 519 -3 519 5 L519 16 C519 24 515 28 507 27 C497 25 483 24 471 24 C443 24 429 37 429 96 L429 452 L487 452 C495 452 499 456 499 464 L499 476 C499 484 495 488 487 488 L47 488 Z " />
<glyph glyph-name="rho" unicode="&#x3c1;" horiz-adv-x="479" d="M240 500 C129 500 81 438 81 314 L81 -173 C81 -181 85 -185 92 -185 L109 -185 C116 -185 121 -181 121 -173 L121 44 C162 12 223 -12 269 -12 C356 -12 403 41 403 155 L403 317 C403 443 349 500 240 500 L240 500 Z M240 464 C319 464 363 419 363 326 L363 162 C363 65 329 25 260 25 C221 25 159 50 121 82 L121 323 C121 416 158 464 240 464 L240 464 Z " />
<glyph glyph-name="sigma1" unicode="&#x3c2;" horiz-adv-x="401" d="M236 500 C128 500 76 439 76 326 L76 180 C76 57 133 0 233 0 L251 0 C312 0 321 -9 321 -55 L321 -118 C321 -126 325 -130 333 -130 L349 -130 C356 -130 360 -126 360 -118 L360 -50 C360 23 345 36 245 36 C158 36 116 78 116 175 L116 327 C116 420 158 464 235 464 C262 464 290 461 319 456 C327 455 332 458 333 467 L333 478 C333 486 330 490 322 491 C293 496 260 500 236 500 L236 500 Z " />
<glyph glyph-name="sigma" unicode="&#x3c3;" horiz-adv-x="481" d="M240 500 C129 500 76 440 76 317 L76 171 C76 49 127 -12 240 -12 C350 -12 405 52 405 171 L405 317 C405 380 389 425 360 454 L457 453 C465 453 469 458 469 465 L469 477 C469 485 465 489 457 489 L314 488 C293 496 270 500 240 500 L240 500 Z M240 465 C321 465 364 419 364 325 L364 164 C364 70 320 24 240 24 C160 24 116 69 116 164 L116 324 C116 417 157 465 240 465 L240 465 Z " />
<glyph glyph-name="tau" unicode="&#x3c4;" horiz-adv-x="427" d="M53 488 C46 488 42 484 42 476 L42 462 C42 454 46 450 53 450 L193 450 L193 12 C193 4 198 0 205 0 L222 0 C230 0 234 4 234 12 L234 450 L374 450 C381 450 386 454 386 462 L386 476 C386 484 381 488 374 488 L53 488 Z " />
<glyph glyph-name="upsilon" unicode="&#x3c5;" horiz-adv-x="488" d="M374 488 C367 488 362 484 362 476 L362 154 C362 71 315 23 244 23 C173 23 126 70 126 153 L126 476 C126 484 122 488 114 488 L97 488 C90 488 86 484 86 476 L86 165 C86 55 135 -12 244 -12 C353 -12 402 55 402 165 L402 476 C402 484 398 488 390 488 L374 488 Z " />
<glyph glyph-name="phi" unicode="&#x3c6;" horiz-adv-x="693" d="M452 500 C419 500 377 496 343 492 C334 490 331 486 331 478 L331 36 L247 36 C170 36 126 83 126 171 L126 476 C126 484 121 488 114 488 L97 488 C90 488 86 484 86 476 L86 179 C86 62 136 0 247 0 L331 0 L331 -173 C331 -181 336 -185 343 -185 L359 -185 C367 -185 371 -181 371 -173 L371 0 L456 0 C567 0 617 69 617 182 L617 318 C617 439 562 500 452 500 L452 500 Z M456 464 C532 464 577 417 577 329 L577 171 C577 84 533 36 456 36 L371 36 L371 459 C398 462 427 464 456 464 L456 464 Z " />
<glyph glyph-name="chi" unicode="&#x3c7;" horiz-adv-x="393" d="M329 488 C323 488 319 485 316 480 L196 282 L75 480 C72 485 68 488 62 488 L40 488 C31 488 27 482 32 474 L170 253 L20 14 C16 6 19 0 28 0 L51 0 C57 0 61 3 64 8 L194 225 L326 8 C329 3 333 0 340 0 L363 0 C372 0 375 6 371 14 L220 253 L358 474 C363 482 360 488 350 488 L329 488 Z " />
<glyph glyph-name="psi" unicode="&#x3c8;" horiz-adv-x="714" d="M600 488 C593 488 589 484 589 476 L589 167 C589 85 541 36 467 36 L378 36 L378 476 C378 484 373 488 366 488 L349 488 C342 488 338 484 338 476 L338 36 L249 36 C176 36 130 83 126 166 L126 476 C126 484 122 488 114 488 L97 488 C90 488 86 484 86 476 L86 177 C86 69 138 0 249 0 L338 0 L338 -173 C338 -181 342 -185 349 -185 L366 -185 C373 -185 378 -181 378 -173 L378 0 L467 0 C579 0 629 69 629 177 L629 476 C629 484 624 488 617 488 L600 488 Z " />
</font>
</svg>
