<?xml version="1.0" encoding="utf-8"?>
<!-- Generator: Adobe Illustrator 17.0.0, SVG Export Plug-In . SVG Version: 6.00 Build 0)  -->
<!DOCTYPE svg PUBLIC "-//W3C//DTD SVG 1.1//EN" "http://www.w3.org/Graphics/SVG/1.1/DTD/svg11.dtd">
<svg version="1.1" id="Layer_1" xmlns="http://www.w3.org/2000/svg" xmlns:xlink="http://www.w3.org/1999/xlink" x="0px" y="0px"
	 width="480px" height="273.371px" viewBox="0 0 480 273.371" enable-background="new 0 0 480 273.371" xml:space="preserve">
<g>
	<rect y="0" fill="#FFCB39" width="480" height="273.371"/>
	<path fill="#FFFFFF" d="M188.918,46.603H22.252c-6.6,0-12-5.4-12-12v0c0-6.6,5.4-12,12-12h166.667c6.6,0,12,5.4,12,12v0
		C200.918,41.203,195.518,46.603,188.918,46.603z"/>
	<g>
		<path fill="#FFCB39" d="M142.39,124.855c-0.237-0.057-0.537-0.066-0.874-0.032C141.806,124.815,142.097,124.819,142.39,124.855z"
			/>
		<path fill="#FFCB39" d="M145.684,137.78c0.76-6.133-2.046-11.529-6.268-12.053c-0.156-0.019-0.311-0.011-0.466-0.016
			c-0.919,0.507-1.891,1.246-2.818,2.241c1.226-1.077,2.637-1.7,4.094-1.696c0.65,0.32,1.248,0.767,1.784,1.321
			c-3.624-0.416-7.082,3.493-7.735,8.76c-0.655,5.287,1.764,9.939,5.403,10.39c0.105,0.013,0.209,0.013,0.313,0.019
			c-0.366,0.259-0.743,0.48-1.131,0.66c-0.209,0-0.419-0.008-0.63-0.034c-4.007-0.497-6.67-5.618-5.949-11.439
			c-1.719,8.791,4.758,12.037,4.758,12.037C141.122,148.188,144.946,143.731,145.684,137.78z"/>
		<g>
			<path fill="#FFCB39" d="M142.01,150.22c0,0,6.299,1.66,11.444,2.656c5.145,0.996,9.377,0.747,10.124,0.249
				s3.818-3.877,5.394-8.299c2.003-5.621-1.93-10.989-5.924-13.914l-3.288-1.853l-16.221-3.925
				c3.897,1.321,6.358,6.684,5.609,12.721c-0.82,6.615-5.176,11.52-9.73,10.955c-0.852-0.106-1.651-0.395-2.381-0.84l4.336,2.778
				C141.764,150.425,142.01,150.22,142.01,150.22z"/>
			<polygon fill="#FFCB39" points="159.495,154.402 159.346,154.286 159.174,154.353 			"/>
		</g>
	</g>
	<g>
		<path fill="#FFCB39" d="M193.476,80.514c-0.105-0.06-0.469-0.281-0.941-0.262c-0.283,0.011-0.076,0.979,0.294,2.086
			s1.051,1.024,1.432,1.027s0.046-1.083-0.112-1.631C193.99,81.186,193.934,80.778,193.476,80.514z"/>
		<path fill="#FFCB39" d="M180.406,76.911c-0.105-0.06-0.469-0.281-0.941-0.262c-0.283,0.011-0.076,0.979,0.294,2.086
			c0.37,1.107,1.051,1.024,1.432,1.027s0.046-1.083-0.112-1.631C180.92,77.583,180.865,77.175,180.406,76.911z"/>
		<path fill="#FFCB39" d="M203.278,83.216c-0.105-0.06-0.469-0.281-0.941-0.262c-0.283,0.011-0.076,0.979,0.294,2.086
			s1.051,1.024,1.432,1.027s0.046-1.083-0.112-1.631C203.792,83.888,203.737,83.48,203.278,83.216z"/>
		<path fill="#FFCB39" d="M200.011,82.316c-0.105-0.06-0.469-0.281-0.941-0.262c-0.283,0.011-0.076,0.979,0.294,2.086
			s1.051,1.024,1.432,1.027s0.046-1.083-0.112-1.631S200.469,82.58,200.011,82.316z"/>
		<path fill="#FFCB39" d="M190.208,79.613c-0.105-0.06-0.469-0.281-0.941-0.262c-0.283,0.011-0.076,0.979,0.295,2.086
			c0.37,1.107,1.051,1.024,1.432,1.027c0.381,0.003,0.046-1.083-0.112-1.631C190.722,80.285,190.667,79.878,190.208,79.613z"/>
		<path fill="#FFCB39" d="M183.673,77.812c-0.105-0.06-0.469-0.281-0.941-0.262c-0.283,0.011-0.076,0.979,0.294,2.086
			c0.37,1.107,1.051,1.024,1.432,1.027c0.381,0.003,0.046-1.083-0.112-1.631C184.187,78.484,184.132,78.076,183.673,77.812z"/>
		<path fill="#FFCB39" d="M186.941,78.713c-0.105-0.06-0.469-0.281-0.941-0.262c-0.283,0.011-0.076,0.979,0.294,2.086
			c0.37,1.107,1.051,1.024,1.432,1.027s0.046-1.083-0.112-1.631C187.455,79.384,187.4,78.977,186.941,78.713z"/>
		<path fill="#FFCB39" d="M196.743,81.415c-0.105-0.06-0.469-0.281-0.941-0.262c-0.283,0.011-0.076,0.979,0.294,2.086
			c0.37,1.107,1.051,1.024,1.432,1.027s0.046-1.083-0.112-1.631C197.257,82.086,197.202,81.679,196.743,81.415z"/>
		<path fill="#FFCB39" d="M206.545,84.117c-0.105-0.06-0.469-0.281-0.941-0.262c-0.283,0.011-0.076,0.979,0.294,2.086
			c0.37,1.107,1.051,1.024,1.432,1.027c0.381,0.003,0.046-1.083-0.112-1.631S207.004,84.381,206.545,84.117z"/>
		<path fill="#FFCB39" d="M219.615,87.72c-0.105-0.06-0.469-0.281-0.941-0.262c-0.283,0.011-0.076,0.979,0.294,2.086
			c0.37,1.107,1.051,1.024,1.432,1.027c0.381,0.003,0.046-1.083-0.112-1.631C220.129,88.392,220.074,87.984,219.615,87.72z"/>
		<path fill="#FFCB39" d="M222.883,88.621c-0.105-0.06-0.469-0.281-0.941-0.262c-0.283,0.011-0.076,0.979,0.294,2.086
			c0.37,1.107,1.051,1.024,1.432,1.027s0.046-1.083-0.112-1.631S223.341,88.885,222.883,88.621z"/>
		<path fill="#FFCB39" d="M216.348,86.819c-0.105-0.06-0.469-0.281-0.941-0.262c-0.283,0.011-0.076,0.979,0.294,2.086
			c0.37,1.107,1.051,1.024,1.432,1.027s0.046-1.083-0.112-1.631C216.862,87.491,216.806,87.083,216.348,86.819z"/>
		<path fill="#FFCB39" d="M213.08,85.919c-0.105-0.06-0.469-0.281-0.941-0.262c-0.283,0.011-0.076,0.979,0.295,2.086
			c0.37,1.107,1.051,1.024,1.432,1.027c0.381,0.003,0.046-1.083-0.112-1.631C213.594,86.59,213.539,86.183,213.08,85.919z"/>
		<path fill="#FFCB39" d="M209.813,85.018c-0.105-0.06-0.469-0.281-0.941-0.262c-0.283,0.011-0.076,0.979,0.294,2.086
			s1.051,1.024,1.432,1.027s0.046-1.083-0.112-1.631C210.327,85.689,210.272,85.282,209.813,85.018z"/>
		<path fill="#FFCB39" d="M231.323,84.292c-0.497,0.683-4.273,4.071-4.273,10.793c0,8.167,4.952,10.969,5.646,11.423
			c4.254,2.784,20.938,7.221,27.8,5.541c4.726-1.157,9.313-6.697,7.79-17.143c0,0-0.002-0.001-0.002-0.001s0.06-0.84-0.409-1.901
			c-0.02-0.005-0.04-0.01-0.04-0.01s-0.225-0.992-2.234-2.533c-0.004-0.002-0.007-0.005-0.011-0.008
			c-2.884-1.827-26.6-9.079-26.6-9.079l-9.863,2.284C229.861,83.871,230.593,84.082,231.323,84.292z"/>
		<path fill="#FFCB39" d="M147.62,67.653c-0.105-0.06-0.469-0.281-0.941-0.262c-0.283,0.011-0.076,0.979,0.294,2.086
			c0.37,1.107,1.051,1.024,1.432,1.027c0.381,0.003,0.046-1.083-0.112-1.631S148.079,67.917,147.62,67.653z"/>
		<path fill="#FFCB39" d="M177.125,75.495c-0.105-0.06-0.469-0.281-0.941-0.262c-0.283,0.011-0.076,0.979,0.294,2.086
			s1.051,1.024,1.432,1.027s0.046-1.083-0.112-1.631C177.639,76.166,177.584,75.759,177.125,75.495z"/>
		<path fill="#FFCB39" d="M154.257,69.334c-0.105-0.06-0.469-0.281-0.941-0.262c-0.283,0.011-0.076,0.979,0.294,2.086
			s1.051,1.024,1.432,1.027s0.046-1.083-0.112-1.631S154.716,69.598,154.257,69.334z"/>
		<path fill="#FFCB39" d="M144.261,66.768c-0.105-0.06-0.469-0.281-0.941-0.262c-0.283,0.011-0.076,0.979,0.294,2.086
			c0.37,1.107,1.051,1.024,1.432,1.027s0.046-1.083-0.112-1.631S144.72,67.032,144.261,66.768z"/>
		<path fill="#FFCB39" d="M141.018,65.976c-0.105-0.06-0.469-0.281-0.941-0.262c-0.283,0.011-0.076,0.979,0.294,2.086
			c0.37,1.107,1.051,1.024,1.432,1.027s0.046-1.083-0.112-1.631S141.477,66.24,141.018,65.976z"/>
		<path fill="#FFCB39" d="M137.598,65.066c-0.105-0.06-0.469-0.281-0.941-0.262c-0.283,0.011-0.076,0.979,0.294,2.086
			c0.37,1.107,1.051,1.024,1.432,1.027c0.381,0.003,0.046-1.083-0.112-1.631C138.112,65.738,138.056,65.33,137.598,65.066z"/>
		<path fill="#FFCB39" d="M150.925,68.487c-0.105-0.06-0.469-0.281-0.942-0.262c-0.283,0.011-0.076,0.979,0.294,2.086
			c0.37,1.107,1.051,1.024,1.432,1.027c0.381,0.003,0.046-1.083-0.112-1.631S151.384,68.752,150.925,68.487z"/>
		<path fill="#FFCB39" d="M170.59,73.693c-0.105-0.06-0.469-0.281-0.941-0.262c-0.283,0.011-0.076,0.979,0.294,2.086
			s1.051,1.024,1.432,1.027s0.046-1.083-0.112-1.631C171.104,74.365,171.049,73.957,170.59,73.693z"/>
		<path fill="#FFCB39" d="M173.858,74.594c-0.105-0.06-0.469-0.281-0.941-0.262c-0.283,0.011-0.076,0.979,0.294,2.086
			c0.37,1.107,1.051,1.024,1.432,1.027c0.381,0.003,0.046-1.083-0.112-1.631S174.317,74.858,173.858,74.594z"/>
		<path fill="#FFCB39" d="M157.521,70.09c-0.105-0.06-0.469-0.281-0.941-0.262c-0.283,0.011-0.076,0.979,0.295,2.086
			c0.37,1.107,1.051,1.024,1.432,1.027s0.046-1.083-0.112-1.631C158.035,70.762,157.979,70.354,157.521,70.09z"/>
		<path fill="#FFCB39" d="M167.323,72.792c-0.105-0.06-0.469-0.281-0.941-0.262c-0.283,0.011-0.076,0.979,0.294,2.086
			s1.051,1.024,1.432,1.027c0.381,0.003,0.046-1.083-0.112-1.631S167.782,73.057,167.323,72.792z"/>
		<path fill="#FFCB39" d="M160.788,70.991c-0.105-0.06-0.469-0.281-0.941-0.262c-0.283,0.011-0.076,0.979,0.294,2.086
			c0.37,1.107,1.051,1.024,1.432,1.027s0.046-1.083-0.112-1.631S161.247,71.255,160.788,70.991z"/>
		<path fill="#FFCB39" d="M164.056,71.892c-0.105-0.06-0.469-0.281-0.941-0.262c-0.283,0.011-0.076,0.979,0.294,2.086
			c0.37,1.107,1.051,1.024,1.432,1.027s0.046-1.083-0.112-1.631C164.57,72.563,164.514,72.156,164.056,71.892z"/>
		<path fill="#FFCB39" d="M355.343,138.309c-2.126,0.278-29.554-1.541-43.132-2.661c-13.585-1.12-50.419-12.045-54.34-15.266
			c-3.922-3.221-35.854-11.204-45.797-13.491c-9.944-2.286-21.428,0.606-24.509,0s-49.999-12.699-68.906-17.321
			c-18.907-4.622-35.713-14.986-39.495-14.986c-1.553,0-2.008,1.584-1.625,3.644C77.444,78.065,78,77.889,77,77.717v0.512
			c0,0,6.496,13.539,19.801,19.039s74.464,20.836,74.464,20.836s0.08,0.016,0.083,0.019c0.017-0.006,0.073-0.021,0.083-0.019
			c0.332,0.083,5.493,1.079,8.231,2.987c2.739,1.909,9.8,5.477,14.696,6.888c4.896,1.411,28.634,6.888,28.634,6.888
			s6.309,1.772,7.72,1.965c0.528,0.072,0.801,0.722,0.935,1.507c0.39,0.016,34.891,1.438,43.343,2.929
			C283.49,142.768,356.936,142.6,355.343,138.309z"/>
	</g>
	<g>
		<path fill="#FFFFFF" d="M137.039,147.97c0.73,0.444,1.529,0.734,2.381,0.84c4.554,0.565,8.91-4.34,9.73-10.955
			c0.82-6.615-2.206-12.435-6.76-13c-1.347-0.167-2.677,0.148-3.903,0.841c0.308-0.015,0.618-0.007,0.93,0.031
			c4.222,0.523,7.028,5.92,6.268,12.053C144.946,143.731,141.122,148.188,137.039,147.97z"/>
		<path fill="#FFFFFF" d="M132.281,135.933c-0.722,5.821,1.942,10.942,5.949,11.439c0.211,0.026,0.421,0.034,0.63,0.034
			c0.387-0.181,0.765-0.401,1.131-0.66c-0.104-0.006-0.208-0.006-0.313-0.019c-3.639-0.451-6.058-5.103-5.403-10.39
			c0.653-5.267,4.111-9.176,7.735-8.76c-0.536-0.554-1.134-1-1.784-1.321C136.45,126.248,132.966,130.412,132.281,135.933z"/>
		<path fill="#FFFFFF" d="M236.329,82.515c4.508,0.366,6.972,6.081,6.164,12.602c-0.784,6.327-4.85,11.066-9.191,10.834
			c0.776,0.473,1.625,0.781,2.531,0.893c4.841,0.6,9.473-4.615,10.345-11.648c0.872-7.033-2.346-13.221-7.187-13.822
			c-1.433-0.178-3.51,0.318-4.158,1.158C234.64,82.863,235.357,82.436,236.329,82.515z"/>
		<path fill="#FFFFFF" d="M234.567,105.315c0.064,0.008,0.128,0.014,0.191,0.019c0.29,0.023,0.585-0.027,0.842-0.165
			c0.286-0.153,0.354-0.182,0.628-0.376c0.117-0.113-0.01-0.151-0.121-0.165c-3.87-0.48-6.441-5.426-5.744-11.047
			c0.643-5.189,4.036-9.156,7.596-9.359c0.285-0.016,0.393-0.386,0.158-0.549l-0.021-0.015c-0.963-0.665-2.188-0.855-3.295-0.473
			c-3.233,1.118-5.947,5.032-6.558,9.965C227.475,99.342,230.307,104.787,234.567,105.315z"/>
		<path fill="#FFFFFF" d="M230.714,136.832c-1.411-0.193-7.718-1.965-7.718-1.965s-23.734-5.477-28.63-6.888
			c-4.896-1.411-11.95-4.979-14.689-6.888c-2.739-1.909-7.884-2.905-8.216-2.988s-3.983,4.315-11.701,10.954
			c4.564,1.743,11.784,8.548,9.211,15.767c-1.576,4.422-4.647,7.801-5.394,8.299c-0.747,0.498-4.979,0.747-10.124-0.249
			c-5.145-0.996-11.444-2.656-11.444-2.656s-9.053,7.552-10.464,8.631c-1.411,1.079-2.075,2.822-2.075,2.822l3.568-1.411
			c1.494-0.664,8.548,0.913,8.548,0.913l17.759-6.888l4.149,3.236l5.681-1.601l3.379,2.897l-0.625-3.673l13.589-3.83l2.755,2.296
			l0.236-3.139l8.843-2.493l-3.9-6.058l2.407,0.083l4.066-1.494c0,0,1.421,0.43,2.93,2.62c0.554,0.804,0.645,3.29,0.71,3.825
			c0.343,2.85,1.671,2.435,1.92,4.261l-2.495,5.953c-0.339-0.153-0.664-0.19-0.949-0.08c-0.581,0.225-2.33,0.9-2.912,1.125
			c-1.067,0.412-1.187,2.677-0.267,5.058c0.92,2.381,2.531,3.977,3.598,3.565c0.581-0.225,2.33-0.9,2.912-1.125
			c1.066-0.412,1.186-2.67,0.271-5.047c0.923,2.35,2.516,3.918,3.575,3.509c0.581-0.225,2.33-0.9,2.912-1.125
			c0.873-0.337,1.111-1.915,0.665-3.781c0.937,1.846,2.26,2.986,3.181,2.63c0.581-0.225,2.33-0.9,2.912-1.125
			c1.067-0.412,1.187-2.677,0.267-5.058c-0.92-2.381-2.531-3.977-3.598-3.565c-0.433,0.167-1.511,0.584-2.274,0.879l-4.108-1.917
			c0.071-0.148-0.025-0.346-0.287-0.477c-0.498-0.249-0.498-1.909-0.249-2.49c0.249-0.581,0.996-0.166,0.996-0.166l3.07,2.407
			l-0.498-4.73l19.502-4.315C231.71,141.34,232.125,137.025,230.714,136.832z M205.617,160.597c-0.472-1.202-1.12-2.198-1.782-2.83
			c0.435-1.72,1.128-4.285,1.41-4.403c0.42-0.175,0.595,0.662,0.63,0.996c0.022,0.214,0.102,0.765,0.157,1.134
			c-0.053,0.021-0.103,0.04-0.145,0.056C204.822,155.962,204.702,158.22,205.617,160.597z M209.277,154.371
			c-0.065-0.265-0.17-0.626-0.267-0.691c-0.124-0.082-0.58-1.712-0.772-2.413c0.1,0.009,0.205,0.019,0.319,0.032
			c0.115,0.013,0.208,0.008,0.292-0.003c0.944,0.508,2.59,1.452,3.643,2.06c-0.744,0.458-0.929,1.951-0.511,3.701
			C211.195,155.509,210.14,154.461,209.277,154.371z"/>
		<path fill="#FFFFFF" d="M109.745,109.064c-0.299,0.115-0.954,0.369-1.542,0.596c-0.015-0.234-0.032-0.504-0.032-0.651
			c0-0.257,0.263-0.689,0.263-0.899c0-0.21,0-0.788-0.158-1.26c-0.158-0.473-0.525-1.418-0.525-1.418l0.158-4.779l-0.473-0.788
			l1.242-1.471l-3.444-1.681v-4.884l-0.476-0.21c0,0-2.153,1.838-3.781,2.731s-3.781,0.945-3.781,0.945v4.884
			c0,0,3.676,1.943,3.886,2.258c0.21,0.315,0.42,0.63,0.473,1.05c0.053,0.42,0.053,0.683,0.235,1.418
			c0.183,0.735,0.815,0.893,1.655,1.208s1.488,0.026,1.681,0.096c0.193,0.07,0.683-0.149,0.63,0.324
			c-0.053,0.473,0.42,1.628,0.42,2.474c0,0.574,0.14,1.718,0.231,2.396c-0.481-0.399-0.96-0.566-1.353-0.414
			c-0.5,0.193-2.003,0.774-2.503,0.967c-0.917,0.354-1.02,2.301-0.229,4.347c0.791,2.047,2.175,3.418,3.093,3.064
			c0.5-0.193,2.003-0.774,2.503-0.967c0.441-0.17,0.691-0.71,0.747-1.451c0.511,0.454,1.024,0.653,1.442,0.492
			c0.5-0.193,2.003-0.774,2.503-0.967c0.917-0.354,1.02-2.301,0.229-4.347C112.047,110.082,110.662,108.71,109.745,109.064z"/>
		<path fill="#FFFFFF" d="M272.139,128.761c-0.581,0.225-2.33,0.9-2.912,1.125c-0.873,0.337-1.111,1.915-0.665,3.781
			c-0.937-1.846-2.26-2.986-3.181-2.63c-0.581,0.225-2.33,0.9-2.912,1.125c-1.066,0.412-1.186,2.67-0.271,5.047
			c-0.923-2.35-2.516-3.918-3.575-3.509c-0.581,0.225-2.33,0.9-2.912,1.125c-1.067,0.412-1.187,2.677-0.267,5.058
			c0.92,2.381,2.531,3.977,3.598,3.565c0.581-0.225,2.33-0.9,2.912-1.125c1.066-0.412,1.186-2.67,0.271-5.047
			c0.923,2.35,2.516,3.918,3.575,3.509c0.581-0.225,2.33-0.9,2.912-1.125c0.873-0.337,1.111-1.915,0.665-3.781
			c0.937,1.846,2.26,2.986,3.181,2.63c0.581-0.225,2.33-0.9,2.912-1.125c1.067-0.412,1.187-2.677,0.267-5.058
			C274.817,129.944,273.206,128.349,272.139,128.761z"/>
		<path fill="#FFFFFF" d="M414.519,108.32c0,0-6.512-1.576-7.458-1.681c-0.945-0.105-20.325,5.725-24.527,6.88
			c-3.683,1.013-29.314,9.167-35.588,11.165c-0.212-0.157-0.425-0.314-0.641-0.469c0.35-0.147,0.708-0.299,0.936-0.403
			c0.361-0.164,2.379-25.825,3.845-45.089l4.856-2.494l5.287,1.961l-1.821-3.676l15.931-8.228c0,0-2.101-5.077-2.381-5.287
			c-0.28-0.21-16.316,7.108-16.316,7.108l-2.836,1.296l-0.315-1.331c0,0,17.437-7.808,18.697-8.298
			c1.26-0.49,2.346,1.645,2.346,1.645s46.007-21.218,46.007-21.498s-5.672-2.801-8.403-3.011c-1.194-0.092-31.07,9.261-64.327,19.82
			c-0.934-0.212-1.767-0.397-2.233-0.493c-1.541-0.315-2.171,1.471-2.171,1.471s-0.105,0.182-0.299,0.516
			c-41.596,13.221-86.569,27.704-86.569,27.704c10.574,3.851,11.295,7.065,11.295,7.065s17.941,4.63,20.287,5.61
			c2.346,0.98,4.673,1.712,4.673,1.712l9.017-4.478l3.851,5.563l16.773-7.991c-4.595,7.652-8.273,13.567-8.826,13.843
			c-1.123,0.561-2.569,0.373-4.101-0.052c-5.865-2.174-11.502-4.043-16.102-5.235c-3.263-0.845-11.287-3.105-25.123-7.06
			c1.524,10.447-3.063,15.987-7.789,17.144c-6.863,1.681-23.546-2.757-27.8-5.541c-0.693-0.454-5.646-3.256-5.646-11.423
			c0-6.723,3.776-10.111,4.273-10.793c-48.231-13.893-105.557-30.54-105.557-30.54s-15.966-3.571-26.26-2.101
			s-10.7,2.716-13.34,5.304c-2.251,2.207-3.729,4.307-3.729,4.307s-7.51,3.659-7.51,9.611c0,1.981,1.555,5.091,2.862,7.355
			c-0.383-2.06-0.178-3.644,1.375-3.644c3.781,0,20.588,10.364,39.495,14.986s65.825,16.715,68.906,17.321
			c3.081,0.606,14.565-2.287,24.509,0c9.944,2.287,41.876,10.27,45.797,13.491c3.921,3.221,40.755,14.145,54.34,15.266
			c13.585,1.12,41.035,2.941,43.136,2.661c2.101-0.28,2.845-2.1,1.737-3.542c-0.357-0.49-0.752-1.003-1.181-1.532
			c0.153-0.141,0.301-0.277,0.425-0.388C356.853,132.374,414.519,108.32,414.519,108.32z M91.138,59.704l-8.158,1.471l2.241-3.046
			l6.372-1.681L91.138,59.704z M95.689,59.599c-1.085-0.42-3.256-0.21-3.256-0.21l0.28-2.941l4.377-0.35l0.875,4.202
			C97.965,60.299,96.775,60.019,95.689,59.599z M99.506,60.72l-1.05-4.622c0,0,3.151,0.175,3.326,0.175
			c0.175,0,2.171,3.886,2.171,3.886L99.506,60.72z M138.383,67.917c-0.381-0.003-1.062,0.08-1.432-1.027
			c-0.37-1.107-0.577-2.074-0.295-2.086c0.472-0.019,0.837,0.202,0.941,0.262c0.459,0.264,0.514,0.672,0.673,1.219
			C138.429,66.833,138.763,67.92,138.383,67.917z M141.803,68.826c-0.381-0.003-1.062,0.08-1.432-1.027
			c-0.37-1.107-0.577-2.074-0.295-2.086c0.472-0.019,0.837,0.202,0.941,0.262c0.459,0.264,0.514,0.672,0.673,1.219
			C141.85,67.743,142.184,68.83,141.803,68.826z M145.046,69.618c-0.381-0.003-1.062,0.08-1.432-1.027
			c-0.37-1.107-0.577-2.074-0.294-2.086c0.472-0.019,0.837,0.202,0.941,0.262c0.459,0.264,0.514,0.672,0.673,1.219
			C145.092,68.535,145.427,69.622,145.046,69.618z M148.405,70.504c-0.381-0.003-1.062,0.08-1.432-1.027
			c-0.37-1.107-0.577-2.074-0.294-2.086c0.472-0.019,0.837,0.202,0.941,0.262c0.459,0.264,0.514,0.672,0.673,1.219
			C148.451,69.42,148.786,70.507,148.405,70.504z M151.71,71.338c-0.381-0.003-1.062,0.08-1.432-1.027
			c-0.37-1.107-0.577-2.074-0.294-2.086c0.472-0.019,0.837,0.202,0.941,0.262c0.459,0.264,0.514,0.672,0.673,1.219
			C151.757,70.254,152.091,71.341,151.71,71.338z M155.042,72.184c-0.381-0.003-1.062,0.08-1.432-1.027
			c-0.37-1.107-0.577-2.074-0.294-2.086c0.472-0.019,0.837,0.202,0.941,0.262c0.459,0.264,0.514,0.672,0.673,1.219
			C155.088,71.101,155.423,72.187,155.042,72.184z M158.306,72.94c-0.381-0.003-1.062,0.08-1.432-1.027
			c-0.37-1.107-0.577-2.074-0.294-2.086c0.472-0.019,0.837,0.202,0.941,0.262c0.459,0.264,0.514,0.672,0.673,1.219
			C158.352,71.857,158.687,72.944,158.306,72.94z M161.573,73.841c-0.381-0.003-1.062,0.08-1.432-1.027s-0.577-2.074-0.295-2.086
			c0.472-0.019,0.837,0.202,0.941,0.262c0.459,0.264,0.514,0.672,0.673,1.219C161.619,72.758,161.954,73.845,161.573,73.841z
			 M164.84,74.742c-0.381-0.003-1.062,0.08-1.432-1.027c-0.37-1.107-0.577-2.074-0.294-2.086c0.472-0.019,0.837,0.202,0.941,0.262
			c0.459,0.264,0.514,0.672,0.673,1.219C164.887,73.658,165.221,74.745,164.84,74.742z M168.108,75.643
			c-0.381-0.003-1.062,0.08-1.432-1.027c-0.37-1.107-0.577-2.074-0.295-2.086c0.472-0.019,0.837,0.202,0.941,0.262
			c0.459,0.264,0.514,0.672,0.673,1.219C168.154,74.559,168.489,75.646,168.108,75.643z M171.375,76.543
			c-0.381-0.003-1.062,0.08-1.432-1.027c-0.37-1.107-0.577-2.074-0.294-2.086c0.472-0.019,0.837,0.202,0.941,0.262
			c0.459,0.264,0.514,0.672,0.673,1.219C171.422,75.46,171.756,76.547,171.375,76.543z M174.643,77.444
			c-0.381-0.003-1.062,0.08-1.432-1.027c-0.37-1.107-0.577-2.074-0.294-2.086c0.472-0.019,0.837,0.202,0.941,0.262
			c0.459,0.264,0.514,0.672,0.673,1.219C174.689,76.361,175.024,77.447,174.643,77.444z M177.91,78.345
			c-0.381-0.003-1.062,0.08-1.432-1.027c-0.37-1.107-0.577-2.074-0.295-2.086c0.472-0.019,0.837,0.202,0.941,0.262
			c0.459,0.264,0.514,0.672,0.673,1.219C177.956,77.261,178.291,78.348,177.91,78.345z M181.191,79.761
			c-0.381-0.003-1.062,0.08-1.432-1.027c-0.37-1.107-0.577-2.074-0.295-2.086c0.472-0.019,0.837,0.202,0.941,0.262
			c0.459,0.264,0.514,0.672,0.673,1.219C181.237,78.678,181.572,79.765,181.191,79.761z M184.458,80.662
			c-0.381-0.003-1.062,0.08-1.432-1.027c-0.37-1.107-0.577-2.074-0.294-2.086c0.472-0.019,0.837,0.202,0.941,0.262
			c0.459,0.264,0.514,0.672,0.673,1.219C184.505,79.579,184.839,80.665,184.458,80.662z M187.726,81.563
			c-0.381-0.003-1.062,0.08-1.432-1.027c-0.37-1.107-0.577-2.074-0.295-2.086c0.472-0.019,0.837,0.202,0.941,0.262
			c0.459,0.264,0.514,0.672,0.673,1.219C187.772,80.479,188.107,81.566,187.726,81.563z M190.993,82.464
			c-0.381-0.003-1.062,0.08-1.432-1.027s-0.577-2.074-0.294-2.086c0.472-0.019,0.837,0.202,0.941,0.262
			c0.459,0.264,0.514,0.672,0.673,1.219C191.04,81.38,191.374,82.467,190.993,82.464z M194.261,83.364
			c-0.381-0.003-1.062,0.08-1.432-1.027c-0.37-1.107-0.577-2.074-0.295-2.086c0.472-0.019,0.837,0.202,0.941,0.262
			c0.459,0.264,0.514,0.672,0.673,1.219C194.307,82.281,194.642,83.368,194.261,83.364z M197.528,84.265
			c-0.381-0.003-1.062,0.08-1.432-1.027c-0.37-1.107-0.577-2.074-0.294-2.086c0.472-0.019,0.837,0.202,0.941,0.262
			c0.459,0.264,0.514,0.672,0.673,1.219C197.574,83.182,197.909,84.268,197.528,84.265z M200.796,85.166
			c-0.381-0.003-1.062,0.08-1.432-1.027c-0.37-1.107-0.577-2.074-0.295-2.086c0.472-0.019,0.837,0.202,0.941,0.262
			c0.459,0.264,0.514,0.672,0.673,1.219C200.842,84.082,201.177,85.169,200.796,85.166z M204.063,86.067
			c-0.381-0.003-1.062,0.08-1.432-1.027c-0.37-1.107-0.577-2.074-0.294-2.086c0.472-0.019,0.837,0.202,0.941,0.262
			c0.459,0.264,0.514,0.672,0.673,1.219C204.109,84.983,204.444,86.07,204.063,86.067z M207.33,86.967
			c-0.381-0.003-1.062,0.08-1.432-1.027c-0.37-1.107-0.577-2.074-0.294-2.086c0.472-0.019,0.837,0.202,0.941,0.262
			c0.459,0.264,0.514,0.672,0.673,1.219C207.377,85.884,207.711,86.971,207.33,86.967z M210.598,87.868
			c-0.381-0.003-1.062,0.08-1.432-1.027c-0.37-1.107-0.577-2.074-0.295-2.086c0.472-0.019,0.837,0.202,0.941,0.262
			c0.459,0.264,0.514,0.672,0.673,1.219C210.644,86.784,210.979,87.871,210.598,87.868z M213.865,88.769
			c-0.381-0.003-1.062,0.08-1.432-1.027s-0.577-2.074-0.294-2.086c0.472-0.019,0.837,0.202,0.941,0.262
			c0.459,0.264,0.514,0.672,0.673,1.219C213.912,87.685,214.246,88.772,213.865,88.769z M217.133,89.669
			c-0.381-0.003-1.062,0.08-1.432-1.027c-0.37-1.107-0.577-2.074-0.295-2.086c0.472-0.019,0.837,0.202,0.941,0.262
			c0.459,0.264,0.514,0.672,0.673,1.219C217.179,88.586,217.514,89.673,217.133,89.669z M220.4,90.57
			c-0.381-0.003-1.062,0.08-1.432-1.027c-0.37-1.107-0.577-2.074-0.294-2.086c0.472-0.019,0.837,0.202,0.941,0.262
			c0.459,0.264,0.514,0.672,0.673,1.219C220.446,89.487,220.781,90.573,220.4,90.57z M223.668,91.471
			c-0.381-0.003-1.062,0.08-1.432-1.027c-0.37-1.107-0.577-2.074-0.295-2.086c0.472-0.019,0.837,0.202,0.941,0.262
			c0.459,0.264,0.514,0.672,0.673,1.219C223.714,90.387,224.049,91.474,223.668,91.471z M312.867,86.708l-10.898,4.674l0.236,1.208
			l-0.972,0.525c0,0-1.392-2.075-1.339-2.521s1.313-0.972,1.313-0.972l9.296-3.729c0,0,1.024-0.289,1.129-0.289
			s1.234,0.578,1.234,0.578V86.708z M318.828,84.161h-0.236v-1.313l13.454-5.653c-0.339,0.577-0.68,1.157-1.023,1.741
			L318.828,84.161z"/>
		<path fill="#FFFFFF" d="M300.656,151.194c0.35,0.35,4.272,1.19,5.882,1.19c1.611,0,12.605-4.412,12.605-4.412
			s-16.106,1.12-16.946,1.12C302.197,149.093,300.306,150.843,300.656,151.194z"/>
		<path fill="#FFFFFF" d="M112.045,95.518c-0.066-0.118-6.46-3.545-6.46-3.545s0.079,4.32,0.158,4.425
			c0.079,0.105,6.539,3.506,6.539,3.506S112.11,95.636,112.045,95.518z"/>
	</g>
	<path fill="#FFFFFF" d="M419.122,191.018H310.326c-4.308,0-7.833-3.525-7.833-7.833v0c0-4.308,3.525-7.833,7.833-7.833h108.796
		c4.308,0,7.833,3.525,7.833,7.833v0C426.956,187.493,423.431,191.018,419.122,191.018z"/>
	<path fill="#FFFFFF" d="M38.891,162.145h-83.103c-3.291,0-5.983-2.693-5.983-5.983v0c0-3.291,2.693-5.983,5.983-5.983h83.103
		c3.291,0,5.983,2.693,5.983,5.983v0C44.875,159.453,42.182,162.145,38.891,162.145z"/>
</g>
</svg>
