<?xml version="1.0" encoding="utf-8"?>
<!-- Generator: Adobe Illustrator 17.0.0, SVG Export Plug-In . SVG Version: 6.00 Build 0)  -->
<!DOCTYPE svg PUBLIC "-//W3C//DTD SVG 1.1//EN" "http://www.w3.org/Graphics/SVG/1.1/DTD/svg11.dtd">
<svg version="1.1" id="Layer_1" xmlns="http://www.w3.org/2000/svg" xmlns:xlink="http://www.w3.org/1999/xlink" x="0px" y="0px"
	 width="480px" height="273.371px" viewBox="0 0 480 273.371" enable-background="new 0 0 480 273.371" xml:space="preserve">
<g>
	<rect y="0" fill="#72C6EF" width="480" height="273.371"/>
	<g>
		<path fill="#FFFFFF" d="M286.748,106.797c54.416,0.581,90.174,1.167,107.419,1.481c-3.7-4.631-15.316-15.84-34.006-16.769
			c-23.003-1.143-29.29-2.715-29.29-2.715s1.857-4.572-2-4.429c-1.241,0.046-13.039-0.543-29.497-1.136l-20.505-12.859
			l-41.006-0.624c-0.219-0.416-0.511-1.044-0.779-1.621c-1.095-2.361-2.751-5.931-5.596-9.539
			c-4.963-6.294-26.097-18.835-26.308-18.959c-2.393-1.395-6.127-2.116-11.747-2.269c-4.663-0.126-40.383-2.296-42-2.55
			c-0.852-0.136-3.2-1.438-4.603-2.217c-2.224-1.236-3.032-1.663-3.809-1.663c-1.092,0-2.267,0.743-2.927,1.85
			c-0.477,0.802-1.095,2.486,0.134,4.754c1.274,2.352,7.155,19.62,7.9,22.067c0.114,0.439,0.233,1.843,0.35,3.886
			c-0.312,3.348-16.02,28.858-19.546,34.29c-0.38,0.194-0.767,0.387-1.092,0.593c-6.715,4.262-17.718,14.567-19.671,17.358
			C130.563,113.654,217.728,106.08,286.748,106.797z M157.821,91.175l23.587-12.061l3.183,7.011
			C174.59,88.255,165.593,89.841,157.821,91.175z M188.134,85.365c-0.038,0.008-0.074,0.016-0.112,0.024l-3.558-7.837l5.499-2.812
			l10.651,8.826C195.727,84.031,191.49,84.622,188.134,85.365z M215.725,82.58c-2.68,0.114-5.269,0.249-7.745,0.408l-12.624-10.46
			l23.504,0.358L215.725,82.58z M277.857,73.785l14.682,9.207c-2.926-0.097-5.958-0.191-9.072-0.281l-13.875-9.052L277.857,73.785z
			 M263.162,73.561l13.754,8.973c-6.528-0.165-13.308-0.299-20.117-0.381c-3.179-2.089-7.614-4.939-13.801-8.9L263.162,73.561z
			 M250.358,82.094c-10.737-0.07-21.359,0.013-30.984,0.345l3.072-9.499l14.035,0.214C240.601,75.792,245.765,79.115,250.358,82.094
			z M228.794,60.708c2.595,3.293,4.151,6.642,5.179,8.859c0.021,0.045,0.036,0.075,0.056,0.119l-10.479-0.159l3.455-10.68
			C227.732,59.521,228.358,60.154,228.794,60.708z M143.24,35.897c-0.268-0.497-0.362-0.936-0.26-1.236
			c0.025-0.077,0.062-0.141,0.1-0.191c0.519,0.249,1.4,0.737,2.083,1.117c2.507,1.391,4.384,2.393,5.731,2.605
			c2.299,0.363,39.279,2.508,42.442,2.594c4.886,0.131,8.288,0.738,10.113,1.803c2.598,1.515,13.859,8.434,20.726,13.863
			l-4.212,13.02L193.52,69.07l-40.738,20.83c-0.158-7.082-0.47-19.298-0.878-26.248c0-0.001,0.001-0.003,0.001-0.005h-0.001
			c-0.152-2.593-0.318-4.457-0.493-5.035C150.661,56.147,144.735,38.658,143.24,35.897z M148.813,71.051
			c0.232,6.322,0.439,14.14,0.577,20.583l-2.988,1.528c-4.837,0.878-8.924,1.719-12.19,2.648
			C138.109,89.596,144.87,78.597,148.813,71.051z"/>
		<path fill="#FFFFFF" d="M286.694,111.94c-67.472-0.71-152.274,6.541-176.632,8.774c-0.1,4.562-0.264,13.87,0.059,14.516
			c0.429,0.857,1.857-0.143,2.429,1c0.571,1.143,4.858,7.144,5.572,7.573c0.714,0.429,104.16,20.146,114.732,20.146
			c10.573,0,55.295,1.715,61.867,0c6.572-1.715,46.007-18.003,67.439-31.148c14.505-8.896,24.606-15.687,29.633-19.421
			C373.793,113.058,338.8,112.497,286.694,111.94z"/>
	</g>
	<path fill="#FFFFFF" d="M306.25,163.24l3.25-1.875c0,0,19.625,2.625,19.625,7.375s-24.958,8.292-94.292,8.292
		s-117.167-5.667-116.667-5.5s50,3.167,116.333,3.167s87.167-4.167,87.167-6.583C321.667,166.115,316.5,164.948,306.25,163.24z"/>
</g>
</svg>
