<?xml version="1.0" encoding="utf-8"?>
<!-- Generator: Adobe Illustrator 17.0.0, SVG Export Plug-In . SVG Version: 6.00 Build 0)  -->
<!DOCTYPE svg PUBLIC "-//W3C//DTD SVG 1.1//EN" "http://www.w3.org/Graphics/SVG/1.1/DTD/svg11.dtd">
<svg version="1.1" id="Layer_1" xmlns="http://www.w3.org/2000/svg" xmlns:xlink="http://www.w3.org/1999/xlink" x="0px" y="0px"
	 width="480px" height="273.371px" viewBox="0 0 480 273.371" enable-background="new 0 0 480 273.371" xml:space="preserve">
<g>
	<rect x="0.02" y="-0.031" fill="#8484BF" width="480" height="273.371"/>
	<g>
		<polygon fill="#FFFFFF" points="185.127,211.652 168.936,210.206 168.936,74.321 185.127,69.695 		"/>
		<polygon fill="#FFFFFF" points="258.852,104.1 258.852,208.761 258.273,208.761 185.416,211.652 185.416,211.074 258.273,208.182 
			258.273,104.389 185.416,70.274 185.416,69.695 258.273,103.811 		"/>
		<polygon fill="#FFFFFF" points="168.358,74.899 139.157,61.889 139.157,61.311 168.358,74.321 		"/>
		<polygon fill="#FFFFFF" points="168.647,210.206 139.157,210.495 139.157,209.917 168.647,209.628 		"/>
		<polygon fill="#FFFFFF" points="160.841,187.077 155.637,186.823 155.637,169.011 160.841,169.544 		"/>
		<polygon fill="#FFFFFF" points="154.481,186.767 148.987,186.499 148.987,168.329 154.481,168.892 		"/>
		<polygon fill="#FFFFFF" points="249.311,202.111 245.263,202.111 245.263,184.476 249.311,184.798 		"/>
		<polygon fill="#FFFFFF" points="244.107,202.111 238.903,202.111 238.957,183.974 244.107,184.384 		"/>
		<polygon fill="#FFFFFF" points="220.399,202.04 213.749,202.111 213.804,181.971 220.399,182.496 		"/>
		<polygon fill="#FFFFFF" points="226.471,201.975 221.556,202.027 221.556,182.588 226.471,182.979 		"/>
		<polygon fill="#FFFFFF" points="198.715,202.33 192.933,202.4 192.982,180.313 198.715,180.77 		"/>
		<polygon fill="#FFFFFF" points="204.209,202.264 199.872,202.316 199.872,180.862 204.209,181.207 		"/>
		<polygon fill="#FFFFFF" points="244.107,175.955 238.982,175.363 239.1,135.945 244.107,137.355 		"/>
		<polygon fill="#FFFFFF" points="245.263,137.68 249.311,138.82 249.311,176.557 245.263,176.089 		"/>
		<polygon fill="#FFFFFF" points="220.399,173.216 213.829,172.457 213.946,128.864 220.399,130.681 		"/>
		<polygon fill="#FFFFFF" points="221.556,131.006 226.471,132.39 226.471,173.918 221.556,173.35 		"/>
		<polygon fill="#FFFFFF" points="198.715,170.71 193.004,170.05 193.107,122.998 198.715,124.577 		"/>
		<polygon fill="#FFFFFF" points="199.872,124.902 204.209,126.123 204.209,171.345 199.872,170.844 		"/>
		<polygon fill="#FFFFFF" points="244.107,107.363 244.107,123.825 239.142,122.072 239.192,105.257 		"/>
		<polygon fill="#FFFFFF" points="245.263,107.859 249.311,109.594 249.311,125.663 245.263,124.234 		"/>
		<polygon fill="#FFFFFF" points="220.399,97.37 220.399,115.452 213.989,113.188 214.039,94.559 		"/>
		<polygon fill="#FFFFFF" points="221.556,97.881 226.471,100.053 226.471,117.597 221.556,115.861 		"/>
		<polygon fill="#FFFFFF" points="199.872,88.402 204.209,90.223 204.209,109.734 199.872,108.202 		"/>
		<polygon fill="#FFFFFF" points="198.715,87.917 198.715,107.794 193.145,105.826 193.189,85.597 		"/>
		<polygon fill="#FFFFFF" points="160.841,154.002 155.637,153.221 155.637,135.571 160.841,136.617 		"/>
		<polygon fill="#FFFFFF" points="154.481,153.048 148.987,152.224 148.987,134.235 154.481,135.338 		"/>
		<polygon fill="#FFFFFF" points="155.637,104.351 160.841,106.001 160.841,121.322 155.637,119.907 		"/>
		<polygon fill="#FFFFFF" points="148.987,102.242 154.481,103.984 154.481,119.593 148.987,118.1 		"/>
		<path fill="#FFFFFF" d="M138.918,61.311v149.473l-41.827-1.218V180.21l-15.914,0.655v28.238l-1.817-0.053V80.971L138.918,61.311z
			 M94.344,95.543l-5.493,1.55v11.875l5.493-1.253V95.543z M94.344,124.372l-5.493,0.966v12.472l5.493-0.813V124.372z
			 M88.851,170.613l5.493-0.305V156.51l-5.493,0.578V170.613z M83.936,170.886l3.759-0.209V157.21l-3.759,0.396V170.886z
			 M83.936,156.442l10.408-1.096v-6.186l-10.408,1.274V156.442z M83.936,138.537l3.759-0.556v-12.44l-3.759,0.661V138.537z
			 M83.936,125.028l10.408-1.83v-6.079l-10.408,2.029V125.028z M83.936,110.09l3.759-0.858V97.42l-3.759,1.061V110.09z
			 M83.936,97.279l10.408-2.937v-5.854l-10.408,2.891V97.279z"/>
		<path fill="#FFFFFF" d="M95.934,209.243l-13.601-0.396v-27.162l13.601-0.56V209.243z M88.639,208.724l0.887,0.032v-16.572
			l-0.9,0.02L88.639,208.724z M83.647,208.598l4.337,0.126v-7.481h-4.337V208.598z M83.647,200.665h4.337v-8.481l-4.337,0.096
			V200.665z M94.344,182.162l-10.697,0.289v5.493l10.697-0.289V182.162z M94.344,188.233l-10.697,0.265v3.385l10.697-0.181V188.233z
			 M94.344,192.112l-4.337,0.072v8.481h4.337V192.112z M94.344,201.244h-4.337v7.531l4.337,0.126V201.244z"/>
	</g>
	<path fill="#FFFFFF" d="M453.52,63.978H286.853c-6.6,0-12-5.4-12-12v0c0-6.6,5.4-12,12-12H453.52c6.6,0,12,5.4,12,12v0
		C465.52,58.578,460.12,63.978,453.52,63.978z"/>
	<path fill="#FFFFFF" d="M479.125,169.461H-1.32c-0.825,0-1.5-0.675-1.5-1.5l0,0c0-0.825,0.675-1.5,1.5-1.5h480.445
		c0.825,0,1.5,0.675,1.5,1.5l0,0C480.625,168.786,479.95,169.461,479.125,169.461z"/>
	<path fill="#FFFFFF" d="M465.477,87.269h-65.404c-2.59,0-4.709-2.119-4.709-4.709v0c0-2.59,2.119-4.709,4.709-4.709h65.404
		c2.59,0,4.709,2.119,4.709,4.709v0C470.186,85.149,468.067,87.269,465.477,87.269z"/>
	<path fill="#FFFFFF" d="M254.68,47.952H131.609c-2.59,0-4.709-2.119-4.709-4.709v0c0-2.59,2.119-4.709,4.709-4.709H254.68
		c2.59,0,4.709,2.119,4.709,4.709v0C259.39,45.832,257.27,47.952,254.68,47.952z"/>
	<path fill="#FFFFFF" d="M418.163,102.367h-93.869c-2.855,0-5.19-2.336-5.19-5.19v0c0-2.855,2.336-5.19,5.19-5.19h93.869
		c2.855,0,5.19,2.336,5.19,5.19v0C423.353,100.031,421.017,102.367,418.163,102.367z"/>
</g>
</svg>
