<?xml version="1.0" encoding="utf-8"?>
<!-- Generator: Adobe Illustrator 17.0.0, SVG Export Plug-In . SVG Version: 6.00 Build 0)  -->
<!DOCTYPE svg PUBLIC "-//W3C//DTD SVG 1.1//EN" "http://www.w3.org/Graphics/SVG/1.1/DTD/svg11.dtd">
<svg version="1.1" id="Layer_1" xmlns="http://www.w3.org/2000/svg" xmlns:xlink="http://www.w3.org/1999/xlink" x="0px" y="0px"
	 width="480px" height="273.371px" viewBox="0 0 480 273.371" enable-background="new 0 0 480 273.371" xml:space="preserve">
<g>
	<rect x="-0.444" y="0" fill="#8484BF" width="480" height="273.371"/>
	<path fill="#FFFFFF" d="M441.671,35.041c-4.357,0-8.447,1.131-12.002,3.108c-3.623-11.19-14.124-19.285-26.521-19.285
		c-10.983,0-20.478,6.353-25.021,15.583c-1.195-0.437-2.481-0.688-3.828-0.688c-6.163,0-11.16,4.996-11.16,11.16
		c0,0.3,0.022,0.595,0.045,0.889c-8.037,2.52-13.867,10.024-13.867,18.892c0,10.933,8.863,19.796,19.796,19.796
		c9.018,0,62.421,0,72.559,0c13.657,0,24.728-11.071,24.728-24.728S455.328,35.041,441.671,35.041z M384.088,44.642
		c-3.881,0-7.039,3.158-7.039,7.039c0,0.614-0.498,1.111-1.111,1.111s-1.111-0.498-1.111-1.111c0-5.107,4.155-9.261,9.261-9.261
		c0.614,0,1.111,0.498,1.111,1.111S384.702,44.642,384.088,44.642z M442.102,66.195c-0.614,0-1.111-0.498-1.111-1.111
		c0-7.537-6.132-13.669-13.669-13.669c-2.32,0-4.614,0.594-6.634,1.718l-1.182,0.658l-0.416-1.286
		c-2.084-6.435-8.029-10.758-14.796-10.758c-0.614,0-1.111-0.498-1.111-1.111c0-0.614,0.498-1.111,1.111-1.111
		c7.301,0,13.765,4.404,16.469,11.085c2.052-0.929,4.294-1.416,6.558-1.416c8.763,0,15.892,7.129,15.892,15.892
		C443.213,65.697,442.716,66.195,442.102,66.195z"/>
	<path fill="#FFFFFF" d="M295.496,34.806c-2.344,0-4.544,0.608-6.456,1.672c-1.949-6.02-7.598-10.374-14.266-10.374
		c-5.908,0-11.016,3.418-13.46,8.383c-0.643-0.235-1.335-0.37-2.059-0.37c-3.315,0-6.003,2.688-6.003,6.003
		c0,0.161,0.012,0.32,0.024,0.478c-4.323,1.355-7.46,5.392-7.46,10.162c0,5.881,4.768,10.649,10.649,10.649
		c4.851,0,33.578,0,39.031,0c7.346,0,13.302-5.955,13.302-13.302S302.843,34.806,295.496,34.806z M264.521,39.971
		c-2.088,0-3.786,1.699-3.786,3.786c0,0.33-0.268,0.598-0.598,0.598s-0.598-0.268-0.598-0.598c0-2.747,2.235-4.982,4.982-4.982
		c0.33,0,0.598,0.268,0.598,0.598S264.851,39.971,264.521,39.971z M295.728,51.565c-0.33,0-0.598-0.268-0.598-0.598
		c0-4.054-3.299-7.353-7.353-7.353c-1.248,0-2.482,0.32-3.569,0.924l-0.636,0.354l-0.224-0.692
		c-1.121-3.462-4.319-5.787-7.959-5.787c-0.33,0-0.598-0.268-0.598-0.598s0.268-0.598,0.598-0.598c3.927,0,7.405,2.369,8.859,5.963
		c1.104-0.5,2.31-0.762,3.528-0.762c4.714,0,8.549,3.835,8.549,8.549C296.326,51.297,296.058,51.565,295.728,51.565z"/>
	<g>
		<polyline fill="#FFFFFF" points="46.768,115.927 46.768,110.988 63.465,48.903 103.444,108.166 103.444,112.87 63.465,55.253 
			47.474,115.927 		"/>
		<polygon fill="#FFFFFF" points="194.455,113.34 104.62,106.755 65.111,49.139 138.955,61.367 		"/>
		<polygon fill="#FFFFFF" points="206.213,119.219 103.444,112.87 103.444,108.166 206.213,115.457 		"/>
		<polygon fill="#FFFFFF" points="294.759,110.662 192.809,101.582 192.809,96.408 294.523,106.429 		"/>
		<polygon fill="#FFFFFF" points="207.389,198.001 133.781,204.586 133.781,200.588 207.389,194.709 		"/>
		<polygon fill="#FFFFFF" points="203.626,193.298 131.194,198.942 131.194,194.474 203.626,189.3 		"/>
		<polygon fill="#FFFFFF" points="203.626,193.768 131.194,199.412 133.781,200.118 206.448,194.474 		"/>
		<polygon fill="#FFFFFF" points="200.099,188.359 128.372,193.063 128.372,188.594 200.099,184.361 		"/>
		<polygon fill="#FFFFFF" points="200.099,188.83 128.372,193.533 130.959,194.003 203.391,189.065 		"/>
		<polygon fill="#FFFFFF" points="136.368,59.956 140.601,49.609 191.868,101.582 191.868,96.408 140.601,45.611 134.486,59.721 		
			"/>
		<polygon fill="#FFFFFF" points="249.955,71.009 231.141,42.554 210.681,64.66 210.681,71.245 231.141,48.668 249.955,77.594 		"/>
		<polygon fill="#FFFFFF" points="210.446,63.484 190.378,69.835 190.614,57.136 230.436,42.084 		"/>
		<polygon fill="#FFFFFF" points="194.852,74.858 209.407,70.746 209.515,65.149 190.491,71.143 		"/>
		<polygon fill="#FFFFFF" points="122.963,159.904 102.033,160.374 102.033,120.395 122.963,121.806 		"/>
		<polygon fill="#FFFFFF" points="156.298,129.399 125.315,127.921 125.315,122.041 156.182,123.649 		"/>
		<rect x="230.906" y="151.673" fill="#FFFFFF" width="35.746" height="1.176"/>
		<polygon fill="#FFFFFF" points="266.652,118.514 231.141,115.692 231.141,113.105 266.652,116.162 		"/>
		<path fill="#FFFFFF" d="M82.044,114.017l-14.816,3.057v29.19h-2.822v1.881l17.167-0.028L82.044,114.017z M77.575,146.029h-5.409
			V134.74l5.644-0.706L77.575,146.029z M78.516,130.507l-7.602,0.93l0.076-8.926l7.525-1.411V130.507z M80.632,146.029l-1.593,0.058
			l0.51-26.832l-10.209,2.082v24.927h-1.171v-28.456l12.464-2.587V146.029z"/>
		<polygon fill="#FFFFFF" points="177.392,177.043 103.784,180.571 110.969,181.774 122.258,181.304 125.55,182.01 192.103,178.717 
					"/>
		<polygon fill="#FFFFFF" points="196.806,183.185 125.55,187.419 125.55,182.95 196.806,179.188 		"/>
		<polygon fill="#FFFFFF" points="196.806,183.656 125.55,187.889 128.137,188.359 199.768,184.112 		"/>
		<polygon fill="#FFFFFF" points="122.971,178.717 99.454,179.893 99.916,164.372 122.963,163.902 		"/>
		<polygon fill="#FFFFFF" points="177.052,176.13 158.474,177.071 158.474,162.726 177.052,162.726 		"/>
		<polygon fill="#FFFFFF" points="158.474,159.198 177.052,159.198 177.052,124.158 158.944,123.217 		"/>
		<polygon fill="#FFFFFF" points="294.637,188.594 208.095,194.238 204.567,193.298 204.567,188.594 200.804,188.124 
			200.804,183.421 197.512,182.95 197.512,178.247 194.455,177.777 194.455,163.431 294.637,161.785 		"/>
		<polygon fill="#FFFFFF" points="189.281,71.48 208.8,88.412 245.722,93.115 245.722,77.829 250.66,77.829 250.66,70.304 
			245.957,63.484 249.955,64.19 294.637,105.344 192.509,95.1 141.306,44.435 194.69,54.312 189.516,56.194 		"/>
		<path fill="#FFFFFF" d="M125.315,131.918l-0.47,46.799l21.165-0.941l0.235-43.036v-1.881L125.315,131.918z M128.137,144.406
			l7.29,0.091v8.587h-7.29V144.406z M136.838,144.515l7.055,0.088v8.481h-7.055V144.515z M143.893,143.192l-7.055-0.088v-8.677
			l7.055,0.235V143.192z M135.427,134.38v8.706l-7.29-0.091v-8.858L135.427,134.38z M128.137,154.495h7.29v8.936l-7.29,0.158
			V154.495z M136.838,163.401v-8.906h7.055v8.752L136.838,163.401z"/>
		<g>
			<polygon fill="#FFFFFF" points="154.144,143.625 154.102,135.317 148.928,135.082 148.971,143.473 			"/>
			<polygon fill="#FFFFFF" points="149.019,153.084 154.192,153.084 154.151,145.037 148.978,144.885 			"/>
			<polygon fill="#FFFFFF" points="149.026,154.495 149.067,162.726 154.241,162.726 154.199,154.495 			"/>
		</g>
		<path fill="#FFFFFF" d="M231.141,117.103l-0.235,33.394h34.335V119.69L231.141,117.103z M263.124,148.38l-28.702-0.074
			l-0.106-7.083l28.808,0.648V148.38z M263.124,139.679l-28.693-0.772l0.002-18.041l28.691,1.985V139.679z"/>
		<path fill="#FFFFFF" d="M195.631,104.874l0.235,8.466l11.758,0.941v6.35l-12.229,1.411v37.862l95.949-0.47V112.87L195.631,104.874
			z M268.063,154.024h-38.568l0.235-42.331l38.098,3.528L268.063,154.024z"/>
		<polygon fill="#FFFFFF" points="242.429,91.456 210.681,86.988 210.681,73.361 227.614,55.018 242.429,78.535 		"/>
		<polygon fill="#FFFFFF" points="68.169,67.717 55.469,109.577 55.234,158.257 57.351,158.493 57.586,109.812 69.344,70.069 		"/>
		<polygon fill="#FFFFFF" points="122.022,182.49 111.205,182.95 110.969,202.705 122.022,201.553 		"/>
		<polygon fill="#FFFFFF" points="54.529,187.654 54.529,160.609 53.588,160.374 53.823,188.359 108.618,201.999 108.618,200.823 		
			"/>
	</g>
	<path fill="#FFFFFF" d="M480.222,169.898H-0.222c-0.825,0-1.5-0.675-1.5-1.5l0,0c0-0.825,0.675-1.5,1.5-1.5h480.445
		c0.825,0,1.5,0.675,1.5,1.5l0,0C481.722,169.223,481.047,169.898,480.222,169.898z"/>
</g>
</svg>
