<?xml version="1.0" encoding="utf-8"?>
<!-- Generator: Adobe Illustrator 17.0.0, SVG Export Plug-In . SVG Version: 6.00 Build 0)  -->
<!DOCTYPE svg PUBLIC "-//W3C//DTD SVG 1.1//EN" "http://www.w3.org/Graphics/SVG/1.1/DTD/svg11.dtd">
<svg version="1.1" id="Layer_1" xmlns="http://www.w3.org/2000/svg" xmlns:xlink="http://www.w3.org/1999/xlink" x="0px" y="0px"
	 width="480px" height="273.371px" viewBox="0 0 480 273.371" enable-background="new 0 0 480 273.371" xml:space="preserve">
<g>
	<rect x="0.208" y="0.734" fill="#72C6EF" width="480" height="273.371"/>
	<g>
		<path fill="#FFFFFF" d="M356.824,123.592c-6.516-1.261-13.254,5.141-15.024,14.274c-0.85,4.385-0.446,8.749,1.137,12.288
			c1.617,3.614,4.268,5.946,7.466,6.566c0.559,0.108,1.122,0.162,1.686,0.162c2.661,0,5.34-1.195,7.692-3.463
			c2.791-2.691,4.796-6.588,5.646-10.973C367.197,133.313,363.338,124.855,356.824,123.592z M364.196,142.207
			c-0.801,4.135-2.678,7.796-5.285,10.309c-2.547,2.456-5.484,3.512-8.269,2.972c-2.785-0.539-5.114-2.616-6.56-5.846
			c-1.479-3.305-1.852-7.403-1.05-11.537c1.504-7.762,6.752-13.419,12.117-13.419c0.479,0,0.959,0.045,1.437,0.138
			C362.421,125.955,365.835,133.753,364.196,142.207z"/>
		
			<ellipse transform="matrix(-0.1903 0.9817 -0.9817 -0.1903 550.0714 -176.3763)" fill="#FFFFFF" cx="347.771" cy="138.655" rx="2.698" ry="1.759"/>
		
			<ellipse transform="matrix(-0.1903 0.9817 -0.9817 -0.1903 433.9119 -34.5327)" fill="#FFFFFF" cx="231.197" cy="161.674" rx="2.995" ry="2.163"/>
		<path fill="#FFFFFF" d="M197.837,90.941c0.334,0,5.006-1.224,5.228-1.557c0.222-0.334,40.934-22.469,48.61-18.576
			c7.675,3.893,9.677,34.372,9.677,35.484c0,1.112,1.21,1.335,1.328,0c0.118-1.335,0.674-37.597-7.78-39.6
			c-8.454-2.002-13.857-0.803-16.357,0.31c-2.499,1.112-3.84-3.535-7.17-1.153c-1.3,0.93-52.224,35.104-53.225,34.103
			c-1.001-1.001-1.669-9.566,7.786-18.243c9.455-8.676,10.567-13.348,10.567-13.348s-1.224-6.563-3.003-7.675
			c-1.78-1.112-4.227-2.67-8.899,1.669c-4.672,4.338-3.115,8.009-3.671,12.125c-0.556,4.116-1.001,12.569-2.002,14.683
			c-1.001,2.113-3.893,8.231-2.113,12.903C177.334,103.432,197.503,90.941,197.837,90.941z"/>
		<path fill="#FFFFFF" d="M197.149,41.547c1.006,0.002,2.3-1.148,4.816-1.148s3.666,0.216,3.666,0.216l1.006,0.932l2.803,1.224
			l1.366-0.791l0.719-1.509c0,0,4.313-1.294,4.6-1.006c0.287,0.287-0.359,6.11-0.575,6.11c-0.216,0-9.2,11.559-10.853,13.901
			c-1.653,2.343-10.278,14.706-10.422,14.921c-0.144,0.216-5.247,6.253-7.188,7.763c-1.941,1.509-4.672,5.319-5.391,6.469
			c-0.719,1.15-2.444,4.672-2.659,6.613c-0.216,1.941,8.194-2.588,12.363-5.103c4.169-2.516,23.59-15.285,23.878-15.428
			c0.288-0.144,16.197-10.339,15.558-10.385c-1.22-0.089-8.888-2.003-7.666-4.231c1.222-2.228,10.278-5.966,11.141-6.972
			c0.863-1.006,6.397-8.05,7.691-8.482c1.294-0.431,4.097,0.934,5.031,0.934s2.084,1.222,2.444,1.366
			c0.359,0.144,1.581,1.581,1.581,1.581s0.072,1.366,0.431,1.438c0.359,0.072,4.385-0.216,4.816-0.503
			c0.431-0.287,0.503-1.869,0.503-1.869s0.072-0.719,0.287-0.647c0.216,0.072,1.222,1.15,2.013,0.431
			c0.791-0.719,1.725-2.228,0.719-2.228c-1.006,0-1.509-0.144-1.725-0.431c-0.216-0.288,0.359-0.863,0.359-0.863
			c0.216,0,12.075,0.719,12.075,0.719s2.156-0.216,2.013-2.659c-0.144-2.444-2.516-2.013-2.516-2.013l-12.075-0.647
			c0,0-0.791-1.869-2.084-2.156c-1.294-0.287-4.097-0.575-4.816-0.503c-0.719,0.072-2.228,1.294-2.588,1.797
			c-0.359,0.503-0.934,0.863-0.934,0.863s-3.594,0.359-4.816,0.791c-1.222,0.431-2.156,1.15-2.3,1.509
			c-0.144,0.359-5.894,7.835-6.181,7.906c-0.287,0.072-1.725-3.306-4.313-3.666c-2.588-0.359-6.038,0.791-6.038,0.791
			s-5.103-1.869-5.535-2.013c-0.431-0.144,1.769-4.816,1.136-5.678c-0.633-0.863-1.927-1.653-1.999-2.013
			c-0.072-0.359,0-1.15,0-1.15s0.144-2.013-0.503-2.084c-0.647-0.072-5.247,0.575-5.247,0.575l-1.15,0.791l-1.581-0.288
			c0,0-2.084,0.503-2.444,1.725c-0.359,1.222,0,1.366,0,1.366l-1.581,0.647c0,0-2.516-0.216-4.241,0.288
			c-1.725,0.503-3.45,0.287-3.953,0.503C196.287,39.465,196.143,41.545,197.149,41.547z"/>
		<path fill="#FFFFFF" d="M233.41,124.492c-8.33-1.359-16.809,1.406-23.693,7.036c-1.146,0.908-2.244,1.957-2.884,2.632
			c-5.451,5.493-9.559,12.935-11.23,21.555c-3.912,20.18,6.344,39.142,22.906,42.352c16.562,3.21,34.715-7.224,40.18-27.146
			C265.419,146.394,251.695,127.475,233.41,124.492z M257.716,168.549c-3.579,15.743-16.599,26.205-29.081,23.367
			c-12.482-2.838-19.7-17.9-16.121-33.643c3.579-15.743,16.599-26.205,29.081-23.367
			C254.077,137.743,261.295,152.806,257.716,168.549z"/>
		<path fill="#FFFFFF" d="M239.714,146.679c-2.517-0.645-5.088-0.4-7.477,0.558c7.071,1.107,9.732,9.133,8.498,15.499
			c-1.271,6.556-7.334,13.134-15.902,12.324c1.659,2.122,3.869,3.673,6.494,4.346c7.403,1.897,15.281-3.891,17.597-12.929
			C251.24,157.44,247.116,148.576,239.714,146.679z"/>
		<path fill="#FFFFFF" d="M356.316,125.772c-1.89-0.557-3.821-0.345-5.616,0.482c5.31,0.956,7.309,7.89,6.383,13.391
			c-0.954,5.664-5.509,11.348-11.943,10.647c1.246,1.833,2.906,3.174,4.877,3.755c5.56,1.639,11.477-3.362,13.216-11.17
			C364.973,135.069,361.876,127.411,356.316,125.772z"/>
		<path fill="#FFFFFF" d="M240.092,144.623c-4.081-1.046-8.408-0.096-12.18,2.675c-3.734,2.744-6.482,6.952-7.737,11.85
			c-1.255,4.898-0.87,9.909,1.085,14.11c1.974,4.244,5.31,7.157,9.393,8.204c1.082,0.277,2.182,0.415,3.284,0.415
			c3.054,0,6.125-1.053,8.897-3.09c3.734-2.744,6.482-6.952,7.737-11.85c1.255-4.898,0.87-9.909-1.085-14.11
			C247.51,148.582,244.174,145.669,240.092,144.623z M249.354,166.625c-1.183,4.618-3.763,8.578-7.265,11.15
			c-3.464,2.545-7.415,3.423-11.127,2.471c-3.711-0.951-6.754-3.621-8.567-7.518c-1.832-3.94-2.19-8.652-1.007-13.27
			c1.183-4.618,3.763-8.578,7.265-11.15c2.553-1.875,5.369-2.845,8.16-2.845c0.997,0,1.99,0.124,2.967,0.374
			c3.711,0.951,6.754,3.621,8.567,7.518C250.18,157.295,250.538,162.007,249.354,166.625z"/>
		<path fill="#FFFFFF" d="M350.195,105.774c-15.198-2.495-30.78,5.566-34.253,27.569c-2.804,17.771,5.971,34.39,21.091,37.321
			s31.364-2.577,36.112-25.072C377.817,123.455,366.885,108.513,350.195,105.774z M372.223,143.772
			c-2.59,13.364-12.262,22.73-21.602,20.919c-9.34-1.81-14.812-14.112-12.221-27.475c2.59-13.364,12.262-22.73,21.602-20.919
			C369.342,118.107,374.814,130.408,372.223,143.772z"/>
		<path fill="#FFFFFF" d="M227.478,102.065c-1.176,0.078-2.9,1.528-2.9,1.528c1.019,0,11.522,6.897,13.403,8.073
			c1.881,1.176,11.91,9.131,11.91,9.131s-1.063-13.387-2.625-16.043c-0.199-0.338-1.818-2.9-2.366-4.311s-1.222-3.069-1.222-3.069
			l-7.304,1.28l-1.803,0.666l-1.999-1.215c0,0-0.823-0.353-1.254-0.588c-0.431-0.235-1.332,1.764-1.607,1.96
			c-0.274,0.196,0,0.941,0,0.941l-0.666,1.176C229.046,101.595,228.654,101.987,227.478,102.065z"/>
		<path fill="#FFFFFF" d="M186.45,150.326c-6.672,16.365-18.251,19.592-28.453,16.212c-10.202-3.38-14.917-16.85-10.531-30.085
			c3.224-9.73,10.69-16.592,18.512-18.335c-0.748-1.943-1.028-4.809-0.508-5.922c0.147-0.315,0.612-1.187,1.211-2.274
			c-0.279-0.054-0.557-0.113-0.839-0.159c-14.481-2.37-29.43,9.344-32.772,26.586c-3.342,17.242,5.696,33.145,20.031,36.275
			c14.766,3.223,29.385-2.907,35.201-24.403c0.024-0.088,0.041-0.175,0.065-0.263c-0.383,0.212-0.786,0.349-1.183,0.392
			C186.96,149.003,186.721,149.66,186.45,150.326z"/>
		<path fill="#FFFFFF" d="M169.596,132.316l-0.169-5.572c-5.99-0.304-12.365,4.523-14.838,11.986
			c-2.803,8.461,0.211,17.071,6.732,19.232c6.521,2.161,13.924,0.098,18.188-10.363c0.109-0.268,0.209-0.533,0.306-0.798
			c-1.191-0.289-2.355-0.576-3.327-0.816l-0.249-0.062l-0.216-0.138c-0.327-0.208-0.718-0.476-1.056-0.76l-0.038,0.014l-0.533-0.165
			c-0.142-0.046-3.5-1.165-5.016-4.669c-1.081-2.499-1.099-4.928-0.05-7.025C169.544,132.753,169.588,132.403,169.596,132.316z"/>
		<path fill="#FFFFFF" d="M270.302,130.387c0.046,0.609,0.094,1.21,0.144,1.804l15.164-2.766c5.01-0.914,8.331-5.716,7.417-10.727
			l-0.063-0.343c-0.914-5.01-5.716-8.331-10.726-7.417l-16.319,2.977c0.024,0.056,0.05,0.117,0.072,0.169
			C266.736,115.808,269.714,122.666,270.302,130.387z M287.204,113.851c2.48,0,4.491,2.667,4.491,5.957s-2.011,5.957-4.491,5.957
			s-4.491-2.667-4.491-5.957S284.723,113.851,287.204,113.851z"/>
		<path fill="#FFFFFF" d="M308.132,82.199c0,0-6.991,7.411-7.97,9.648c-0.979,2.237-1.258,6.091-1.258,6.091
			s1.142,5.667,2.341,6.023s18.912-8.249,18.912-8.249s2.657-8.619,7.69-11.695s12.774-7.55,17.293-8.809
			c4.519-1.258,21.298-16.639,21.298-16.639s-1.386-2.657-2.72-1.678s-15.646,2.964-20.12,4.921
			c-4.474,1.958-13.284,8.095-19.304,10.378C318.274,74.474,308.132,82.199,308.132,82.199z"/>
		<path fill="#FFFFFF" d="M277.721,67.087c-5.056-0.521-18.357-7.612-18.357-7.612s-7.506-4.257-12.654-4.432
			c-5.149-0.175-14.749,0.873-17.716,2.793c-2.967,1.92-2.444,3.491,0,4.189c2.444,0.698,4.945,1.679,6.378,0.873
			c0,0,13.209-7.854,17.554-4.887c4.344,2.967,32.271,26.356,35.587,26.181c3.316-0.175,23.04-6.284,23.04-6.284
			s4.713-3.491,8.378-5.062c3.665-1.571,8.553-3.84,8.553-3.84s-3.483-8.283-8.203-8.727
			C299.858,58.36,284.498,67.785,277.721,67.087z"/>
		<path fill="#FFFFFF" d="M277.721,109.458c0,0,0.803,0.147,1.828-0.397c1.263-0.669,2.702-0.799,1.322-3.724
			c-1.379-2.925-4.532-6.796-5.715-8.013c-1.182-1.218-12.425-10.479-12.425-10.479l0.602,5.32c0,0,9.557,7.981,10.345,9.36
			C274.467,102.904,277.721,109.458,277.721,109.458z"/>
		<path fill="#FFFFFF" d="M284.964,64.674c2.8-0.825,14.673-3.991,14.673-3.991s-6.496-7.504-8.512-7.952
			c-2.016-0.448-18.569,11.943-18.569,11.943s4.681,1.161,6.361,1.273C280.596,66.06,282.164,65.5,284.964,64.674z"/>
		<path fill="#FFFFFF" d="M233.804,121.855c3.907,0.637,7.654,1.904,11.096,3.716c-1.302-0.964-3.177-2.372-5.205-3.961
			c-3.761-2.948-14.637-9.758-15.959-10.876c-1.321-1.118-4.574-2.541-4.248-2.236c0.326,0.305-2.258,3.761-3.274,4.917
			c-1.016,1.156,3.456,6.366,4.168,7.688c0.28,0.52,0.338,1.126,0.308,1.67C224.951,121.498,229.396,121.136,233.804,121.855z"/>
		<path fill="#FFFFFF" d="M214.487,119.577l2.445,4.581c0.92-0.402,1.852-0.759,2.794-1.073l-5.544-10.318L214.487,119.577z"/>
		<path fill="#FFFFFF" d="M189.619,146.452l6.201,0.33c1.115-2.772,2.469-5.379,4.034-7.783c-0.814,0.078-1.223-0.211-1.223-0.211
			l6.559-22.542c0.031,0.072,0.073,0.14,0.132,0.198c0.117,0.117,0.269,0.178,0.423,0.183c0.004,0,0.008-0.002,0.012-0.002
			l-0.321,1.132c-0.15,0.152-0.195,0.359-0.157,0.554l-2.581,9.091c0,0,0.712,2.135,0.813,2.44c0.07,0.21,1.728,0.692,2.753,0.972
			c-0.066,0.058-0.113,0.101-0.121,0.109c-0.169,0.171-0.212,0.413-0.144,0.628c0.624-0.601,1.265-1.175,1.919-1.728
			c-0.359,0.153-0.665,0.315-0.915,0.466l-0.057-0.704c0.143-0.13,1.076-0.908,2.797-1.225c0.657-0.492,1.329-0.954,2.009-1.397
			c-0.553-0.018-1.164,0.002-1.815,0.089c-1.442,0.193-2.466,0.678-3.11,1.078l-0.057-0.695c0.008-0.007,0.018-0.009,0.026-0.017
			c0.01-0.01,1.073-1.035,3.189-1.318c1.224-0.164,2.309-0.059,3.034,0.068c0.503-0.3,1.012-0.586,1.525-0.859
			c-0.056-0.046-0.119-0.087-0.192-0.111c-0.082-0.027-2.033-0.675-4.534-0.34c-1.485,0.199-2.53,0.708-3.168,1.114l-0.056-0.693
			c0.028-0.019,0.059-0.03,0.084-0.054c0.01-0.01,1.073-1.035,3.189-1.318c2.184-0.293,3.929,0.273,3.965,0.285
			c0.327,0.112,0.683-0.064,0.794-0.393c0.111-0.328-0.065-0.684-0.393-0.795c-0.082-0.027-2.033-0.675-4.534-0.34
			c-1.529,0.205-2.594,0.739-3.226,1.15l-0.056-0.692c0.049-0.027,0.1-0.05,0.142-0.091c0.01-0.01,1.073-1.035,3.189-1.318
			c2.184-0.293,3.929,0.273,3.965,0.285c0.327,0.112,0.683-0.064,0.794-0.393c0.111-0.328-0.065-0.684-0.393-0.795
			c-0.082-0.027-2.033-0.675-4.534-0.34c-1.572,0.211-2.661,0.771-3.284,1.186l-0.056-0.691c0.072-0.03,0.141-0.071,0.2-0.129
			c0.01-0.01,1.073-1.035,3.189-1.318c2.184-0.293,3.929,0.273,3.965,0.285c0.327,0.112,0.683-0.064,0.794-0.393
			c0.111-0.328-0.065-0.684-0.393-0.795c-0.082-0.027-2.033-0.675-4.534-0.34c-1.62,0.217-2.729,0.805-3.342,1.224l-0.058-0.711
			c0.094-0.029,0.185-0.073,0.26-0.147c0.01-0.01,1.073-1.035,3.189-1.318c2.184-0.293,3.929,0.273,3.965,0.285
			c0.327,0.112,0.683-0.064,0.794-0.393c0.111-0.328-0.065-0.684-0.393-0.795c-0.082-0.027-2.033-0.675-4.534-0.34
			c-1.679,0.225-2.802,0.846-3.4,1.266l-0.06-0.743c0.116-0.023,0.229-0.068,0.32-0.157c0.01-0.01,1.073-1.035,3.189-1.318
			c2.184-0.293,3.929,0.273,3.965,0.285c0.327,0.112,0.683-0.064,0.794-0.393c0.111-0.328-0.065-0.684-0.393-0.795
			c-0.082-0.027-2.033-0.675-4.534-0.34c-2.217,0.297-3.477,1.288-3.815,1.588l0.307-1.057c0.134-0.016,0.264-0.063,0.368-0.165
			c0.01-0.01,1.073-1.035,3.189-1.318c2.184-0.293,3.929,0.273,3.965,0.285c0.327,0.112,0.683-0.064,0.794-0.393
			c0.111-0.328-0.065-0.684-0.393-0.795c-0.082-0.027-2.033-0.675-4.534-0.34c-1.266,0.17-2.218,0.566-2.868,0.931l0.283-0.971
			c0.515-0.323,1.387-0.745,2.634-0.912c2.184-0.293,3.929,0.273,3.965,0.285c0.327,0.112,0.683-0.064,0.794-0.393
			c0.111-0.328-0.065-0.684-0.393-0.795c-0.082-0.027-2.033-0.675-4.534-0.34c-0.79,0.106-1.444,0.303-1.993,0.523l0.268-0.92
			c0.657-0.22,1.469-0.412,2.376-0.452c2.357-0.103,3.692,0.518,3.692,0.518l-0.194-0.648l-2.138-0.842c0,0,0.453-0.907,0.972-1.425
			c0.518-0.518,1.166-2.582,1.166-2.582s0.324,0.639,5.7,3.23c5.377,2.591,26.494,16.907,27.336,17.944
			c0.842,1.036,3.628,2.332,3.693,2.462c0.065,0.13-0.065-5.506-0.001-5.701c0.065-0.194-20.34-14.316-26.43-17.555
			c-4.435-2.359-5.457-4.446-7.255-4.822c-1.798-0.375-19.159,0.957-25.704,0.526c0.28-0.394,25.317-2.116,28.295-4.041
			c1.56-1.008,12.437-13.947,12.956-15.372c0.518-1.425-13.02,2.526-15.158,3.004c-2.138,0.477-13.992,7.555-13.992,7.555
			l-4.988,1.166l-12.761,7.514l-0.713,0.777c0,0,0.065,1.101,0,1.425c-0.065,0.324,0.324,0.854,0.324,0.854
			s-2.138,2.191-3.304,4.004c-1.166,1.814-1.296,4.729-1.296,4.729l-3.304,1.166c0,0-0.842-1.555-1.166-2.785
			c-0.324-1.231-0.453-5.247-0.648-6.284s-1.101-0.907-1.814-0.648c-0.713,0.259-5.571,9.069-6.024,10.041
			c-0.453,0.972,0.269,4.959,1.101,5.7c0.541,0.482,5.159-0.007,6.109-0.137c0.95-0.13,3.973-0.993,4.405-0.605
			c0.432,0.389-7.73,1.727-7.73,1.727l0.389,12.783c0,0,0,0.691-0.432,1.555c-0.432,0.864-1.166,2.807,0.086,5.7
			c1.252,2.893,4.059,3.8,4.059,3.8s0.518-0.216,0.777,0.13c0.259,0.345,1.209,0.95,1.209,0.95s9.242,2.289,10.019,2.332
			c0.777,0.043,2.007-1.023,2.256-2.315c0.249-1.292-1.565-2.306-1.565-2.306l0.173-0.804c0,0,5.83-28.389,7.047-30.289
			c1.217-1.9,4.138-4.491,4.138-4.491l6.624,1.029l0.254,0.43l-1.39-0.118l-8.434,26.893c0,0-0.813-0.813-1.193-1.016
			c-0.234-0.125-2.285-0.527-3.986-0.837c-1.077,5.038-1.885,8.973-1.885,8.973l-0.173,0.804c0,0,1.814,1.014,1.565,2.306
			C190.214,145.578,189.948,146.06,189.619,146.452z M201.981,94.849c0.188-0.17,7.392-6.547,9.222-7.462
			c1.83-0.915,4.576-1.83,5.843-1.197c1.267,0.634,1.76,1.408,1.76,1.408s-1.197,4.787-2.886,5.28
			C214.23,93.371,200.53,96.158,201.981,94.849z M191.413,110.46c-0.614,1.842-2.232,9.767-2.232,9.767s-0.726,0.502-0.949-0.279
			c-0.223-0.781,0.558-3.962-0.056-4.967c-0.614-1.005-0.837-2.121-0.558-3.628s1.339-5.135,1.339-5.302
			c0-0.167-1.06-2.846-0.446-2.4c0.329,0.239,0.446,1.284,0.893,1.172c0.446-0.112,5.748,0.893,5.748,0.893
			S192.027,108.618,191.413,110.46z"/>
		<path fill="#FFFFFF" d="M323.657,107.858c0-1.613-8.234-8.081-8.234-8.081s-13.153,6.391-14.799,5.559
			c-1.646-0.832-2.808-7.399-2.808-7.399l-3.662,2.808c0,0-1.557,9.287-1.761,13.106c5.507,8.148-0.789,15.098-4.085,15.895
			c-1.78,0.431-18.283,3.535-18.283,3.535s0.707,5.853,1.191,7.595c0.484,1.742,2.198,1.7,2.198,1.7s34.182-6.1,39.121-7.649
			c0.186-0.058,0.374-0.154,0.563-0.268c0.07-0.586,0.15-1.173,0.243-1.761c1.483-9.397,5.001-16.447,9.721-21.394
			C323.431,109.85,323.657,108.554,323.657,107.858z"/>
		<path fill="#FFFFFF" d="M326.057,108.759c0.063-0.765,0.101-1.587,0.079-2.377c-0.073-2.642-7.999-7.412-7.999-7.412l-1.835,0.514
			c0,0,6.985,5.32,8.012,7.375c0.325,0.65,0.165,2.076-0.14,3.539C324.786,109.822,325.411,109.271,326.057,108.759z"/>
		<path fill="#FFFFFF" d="M272.194,144.352c-1.96-0.039-2.783-6.702-3.37-14.422s-3.566-14.579-4.311-16.303
			s-2.236-5.697-2.746-5.697c-0.509,0-1.064-0.784-1.215-1.489c-0.151-0.705-0.832-11.013-2.704-19.596
			c-1.872-8.584-3.592-13.297-7.08-14.826c-3.488-1.528-19.543,5.121-19.543,5.121c6.976-0.196,13.144,18.381,13.693,20.576
			s2.978,6.114,2.978,6.114s0.549,0.784,1.672,7.76c0.847,5.259,1.063,13.869,1.118,17.79c4.48,3.635,8.066,8.408,10.265,14.101
			c2.853,0.342,7.873,0.984,7.873,1.265c0,0.392,1.489,3.292,2.351,3.684s3.135,0,3.135,0l38.473-7.961
			c-0.014-1.496,0.049-3.011,0.188-4.539l-1.691,0.507C311.28,136.435,274.154,144.391,272.194,144.352z"/>
	</g>
	<path fill="#FFFFFF" d="M165.304,85.293c-3.22-2.621-16.045-1.855-19.991-0.312c-0.789,0.309-2.207,0.692-3.849,1.136
		c-5.658,1.529-14.209,3.84-17.401,8.457c-1.141,1.649-1.642,1.771-1.644,1.772c-0.111,0.002-0.467-0.126-0.706-0.213
		c-0.973-0.355-2.601-0.949-4.775-0.042c-1.2,0.501-5.109-1.209-7.695-2.34c-3.364-1.471-6.535-2.862-9.022-2.67
		c-2.12,0.163-5.277,1.31-8.62,2.525c-3.277,1.191-8.226,2.994-9.742,2.613c-3.313-0.828-11.625-5.445-13.404-7.224
		c-1.885-1.885-4.822-2.712-7.413-3.442c-0.689-0.194-1.352-0.379-1.947-0.577c-1.313-0.837-5.405-6.806-8.123-10.769
		c-3.02-4.405-5.628-8.208-7.233-9.707c-2.895-2.705-5.523-3.79-9.502-5.431c-1.021-0.421-2.145-0.885-3.4-1.429
		C24.356,54.831,7.83,47.175,0.958,43.59v4.491c8.885,4.521,25.185,11.885,28.288,13.23c1.28,0.555,2.424,1.027,3.466,1.457
		c3.701,1.527,5.935,2.449,8.297,4.656c1.284,1.2,4.019,5.188,6.665,9.046c5.626,8.206,8.112,11.613,10.063,12.271
		c0.675,0.228,1.433,0.441,2.222,0.664c2.12,0.597,4.522,1.273,5.669,2.419c2.208,2.208,11.243,7.272,15.262,8.277
		c2.511,0.626,6.412-0.675,12.078-2.734c2.943-1.069,5.986-2.175,7.561-2.296c1.492-0.125,4.475,1.193,7.113,2.347
		c4.144,1.812,8.058,3.524,10.836,2.367c0.732-0.305,1.11-0.168,1.866,0.107c0.734,0.268,1.431,0.436,2.118,0.436
		c1.576,0,3.099-0.885,4.892-3.478c2.36-3.413,10.369-5.577,15.155-6.871c1.827-0.494,3.27-0.884,4.263-1.272
		c3.666-1.435,14.459-1.43,16.009-0.311c2.883,2.346,8.529,4.468,10.512,5.034l1.729-3.75
		C172.229,89.097,167.258,86.883,165.304,85.293z"/>
	<path fill="#FFFFFF" d="M480.958,96.425c-5.245-0.798-14.59-2.207-18.324-2.696c-3.073-0.402-6.642-8.26-8.166-11.616
		c-0.604-1.332-1.042-2.294-1.408-2.867c-1.525-2.387-8.908-4.64-13.173-5.77l-0.527-0.14l-0.524,0.147
		c-1.484,0.416-9.021,2.634-11.611,5.498c-1.143,1.263-5.643,3.496-8.622,4.974c-2.991,1.484-4.724,2.359-5.546,3.083
		c-0.446,0.324-2.458-0.021-3.425-0.187c-1.098-0.188-2.136-0.365-3.046-0.305c-1.564,0.06-12.906-2.901-16.126-4.207
		c-2.542-1.031-5.152-0.027-7.916,1.037c-1.562,0.601-3.177,1.223-4.827,1.494c-2.509,0.413-7.199,1.759-12.165,3.184
		c-4.432,1.271-9.015,2.586-11.496,3.057c-3.437,0.651-15.695-3.414-22.618-6.128l-3.73,2.906
		c1.942,0.762,21.417,8.234,27.092,7.152c2.663-0.504,7.127-1.785,11.854-3.142c4.637-1.33,9.433-2.706,11.712-3.081
		c2.054-0.338,3.945-1.066,5.614-1.708c2.006-0.771,3.903-1.498,4.976-1.063c2.778,1.125,15.284,4.648,17.884,4.491
		c0.452-0.024,1.296,0.116,2.115,0.256c2.195,0.376,4.927,0.844,6.74-0.75c0.472-0.416,2.907-1.624,4.686-2.506
		c4.777-2.37,8.277-4.179,9.811-5.874c1.269-1.403,5.964-3.221,9.202-4.179c4.923,1.342,9.585,3.125,10.296,3.915
		c0.212,0.333,0.682,1.367,1.137,2.367c3.042,6.698,6.419,13.291,11.289,13.927c3.849,0.504,13.758,2.002,18.843,2.776V96.425z"/>
	<path fill="#FFFFFF" d="M333.847,90.845c-1.624,0-3.124,0.52-4.353,1.396c0.761-0.259,1.574-0.406,2.422-0.406
		c4.152,0,7.518,3.366,7.518,7.518c0,2.528-1.252,4.76-3.165,6.122c2.962-1.009,5.096-3.808,5.096-7.112
		C341.365,94.211,337.999,90.845,333.847,90.845z"/>
	<path fill="#FFFFFF" d="M354.928,80.031c-2.67,0-5.136,0.855-7.157,2.295c1.251-0.426,2.587-0.668,3.982-0.668
		c6.826,0,12.36,5.534,12.36,12.36c0,4.156-2.058,7.825-5.203,10.065c4.87-1.659,8.378-6.261,8.378-11.692
		C367.288,85.565,361.754,80.031,354.928,80.031z"/>
</g>
</svg>
