<?xml version="1.0" encoding="utf-8"?>
<!-- Generator: Adobe Illustrator 17.0.0, SVG Export Plug-In . SVG Version: 6.00 Build 0)  -->
<!DOCTYPE svg PUBLIC "-//W3C//DTD SVG 1.1//EN" "http://www.w3.org/Graphics/SVG/1.1/DTD/svg11.dtd">
<svg version="1.1" id="Layer_1" xmlns="http://www.w3.org/2000/svg" xmlns:xlink="http://www.w3.org/1999/xlink" x="0px" y="0px"
	 width="480px" height="273.371px" viewBox="0 0 480 273.371" enable-background="new 0 0 480 273.371" xml:space="preserve">
<g>
	<rect y="0" fill="#79B242" width="480" height="273.371"/>
	<g>
		<path fill="#FFFFFF" d="M322.883,65.145l-0.236-0.089c-0.707-0.267-1.504,0.094-1.771,0.801l-20.582,54.595
			c-0.267,0.707,0.094,1.504,0.801,1.771l0.236,0.089c0.707,0.267,1.504-0.094,1.771-0.801l20.582-54.595
			C323.951,66.208,323.591,65.412,322.883,65.145z"/>
		<path fill="#FFFFFF" d="M430.353,10.503l-0.236-0.089c-0.707-0.267-1.504,0.094-1.771,0.801L407.765,65.81
			c-0.267,0.707,0.094,1.504,0.801,1.77l0.236,0.089c0.707,0.267,1.504-0.094,1.771-0.801l20.582-54.595
			C431.421,11.567,431.06,10.77,430.353,10.503z"/>
		<path fill="#FFFFFF" d="M444.834,133.706l-0.236-0.089c-0.707-0.267-1.504,0.094-1.771,0.801l-20.582,54.595
			c-0.267,0.707,0.094,1.504,0.801,1.771l0.236,0.089c0.707,0.267,1.504-0.094,1.771-0.801l20.582-54.595
			C445.902,134.769,445.541,133.972,444.834,133.706z"/>
		<path fill="#FFFFFF" d="M328.657,173.185l-0.236-0.089c-0.707-0.267-1.504,0.094-1.771,0.801l-20.582,54.595
			c-0.267,0.707,0.094,1.504,0.801,1.771l0.236,0.089c0.707,0.267,1.504-0.094,1.771-0.801l20.582-54.595
			C329.725,174.248,329.364,173.451,328.657,173.185z"/>
		<path fill="#FFFFFF" d="M223.745,191.218l-0.236-0.089c-0.707-0.267-1.504,0.094-1.771,0.801l-20.582,54.595
			c-0.267,0.707,0.094,1.504,0.801,1.771l0.236,0.089c0.707,0.267,1.504-0.094,1.771-0.801l20.582-54.595
			C224.813,192.281,224.452,191.484,223.745,191.218z"/>
		<path fill="#FFFFFF" d="M45.245,191.218l-0.236-0.089c-0.707-0.267-1.504,0.094-1.771,0.801l-20.582,54.595
			c-0.267,0.707,0.094,1.504,0.801,1.771l0.236,0.089c0.707,0.267,1.504-0.094,1.771-0.801l20.582-54.595
			C46.313,192.281,45.952,191.484,45.245,191.218z"/>
		<path fill="#FFFFFF" d="M4.085,81.814l-0.236-0.089c-0.707-0.267-1.504,0.094-1.771,0.801l-20.582,54.595
			c-0.267,0.707,0.094,1.504,0.801,1.771l0.236,0.089c0.707,0.267,1.504-0.094,1.771-0.801L4.886,83.585
			C5.152,82.878,4.792,82.081,4.085,81.814z"/>
		<path fill="#FFFFFF" d="M112.445,19.166l-0.236-0.089c-0.707-0.267-1.504,0.094-1.771,0.801L89.857,74.472
			c-0.267,0.707,0.094,1.504,0.801,1.771l0.236,0.089c0.707,0.267,1.504-0.094,1.771-0.801l20.582-54.595
			C113.513,20.229,113.152,19.432,112.445,19.166z"/>
		<path fill="#FFFFFF" d="M158.838,104.99l-0.236-0.089c-0.707-0.267-1.504,0.094-1.771,0.801l-20.582,54.595
			c-0.267,0.707,0.094,1.504,0.801,1.771l0.236,0.089c0.707,0.267,1.504-0.094,1.771-0.801l20.582-54.595
			C159.906,106.053,159.545,105.257,158.838,104.99z"/>
		<path fill="#FFFFFF" d="M243.957,26.152l-0.236-0.089c-0.707-0.267-1.504,0.094-1.771,0.801l-20.582,54.595
			c-0.267,0.707,0.094,1.504,0.801,1.771l0.236,0.089c0.707,0.267,1.504-0.094,1.771-0.801l20.582-54.595
			C245.025,27.215,244.664,26.418,243.957,26.152z"/>
	</g>
	<g>
		<path fill="#79B242" d="M266.5,188.543h-3l-67.166,2.587l-2.04,1.128l-14.377-7.371l5.917-28.261l22.861-38.999l4.249-2.81
			l3.802-4.211l2.775-2.613l0.313-10.962l-5-1.312l-2.637-0.311L151.75,79.983l-4.375-0.701l-8.526,2.198l1.114-1.498l3.495-2.638
			l15.146-5.146l13.646-2.688l32.777-30.253l8.657-2.931l14.76-0.339l2.421-0.016l13.328,0.337l6.733,3.434l3.74,0.348
			l49.001,24.877l17.142,14.059l1.956,2.153l-8.599-2.153L303.5,82.031l-38.75,6.188l-10.084,5.464l-7.326,2.732l-1.652-0.207
			l-3.063,0.125c0,0-1.938,0.719-2.063,0.719s-1.438,4.188-1.438,4.188l0.594,4.688l0.993,1.747l3.614,3.088l0.737,2.884
			l2.704,0.941l3.946,2.54L266,133.529l8.439,20.675L266.5,188.543z"/>
		<path fill="#FFFFFF" d="M241.604,110.056c-0.044,0.006-0.089,0.012-0.135,0.012c-0.073,0-0.147-0.008-0.22-0.024
			c-0.083-0.018-0.159-0.049-0.232-0.086c-6.051-0.954-16.627-0.922-22.003,0.056c-0.03,0.01-0.059,0.023-0.091,0.03
			c-0.062,0.014-0.124,0.02-0.185,0.022c-0.806,0.157-1.481,0.337-1.992,0.539c-0.731,0.602-1.525,1.456-2.014,2.353
			c-0.221,0.406-0.545,0.779-0.888,1.094c-0.291,0.266-0.593,0.518-0.899,0.763c3.024-0.399,5.809-0.098,8.826,0.228
			c2.27,0.245,4.617,0.499,7.354,0.499c0.025,0,0.049,0,0.074,0c3.047-0.005,5.89-0.291,8.64-0.568
			c3.409-0.343,6.701-0.674,9.929-0.387c-0.985-0.662-2.942-2.735-3.441-3.825C243.648,110.49,242.718,110.254,241.604,110.056z"/>
		<path fill="#FFFFFF" d="M191.026,71.171c8.408-1.757,16.834-3.029,25.201-3.812c0.078-0.017,0.157-0.024,0.236-0.022
			c5.627-0.521,11.227-0.823,16.777-0.897c3.17-0.042,6.343-0.007,9.515,0.097c0.207-0.062,0.429-0.055,0.635,0.019
			c10.41,0.373,20.812,1.527,31.049,3.452c-8.793-16.397-17.202-26.64-26.375-32.157c-0.019-0.012-0.038-0.024-0.057-0.037
			c-2.999-2.087-5.347-1.606-7.617-1.141c-0.811,0.166-1.66,0.34-2.497,0.339c-2.26,0.708-5.415,1.024-8.506,1.024
			c-3.264,0-6.455-0.35-8.448-0.958c-0.792-0.097-1.563-0.244-2.324-0.39c-2.68-0.515-5.212-1.001-8.36,0.946
			c-4.315,2.831-8.075,7.344-11.497,13.798C196.028,56.584,193.493,63.053,191.026,71.171z"/>
		<path fill="#FFFFFF" d="M276.829,70.191c5.867-1.558,16.938,0.448,23.211,1.835c7.744,1.713,20.194,6.86,20.769,7
			c-0.84-0.769-1.724-1.491-2.556-2.269c-0.986-0.922-1.97-1.844-2.955-2.767c-0.984-0.923-1.96-1.855-2.953-2.767
			c-0.991-0.91-1.84-1.983-2.97-2.731c-1.029-0.681-1.666-1.737-2.697-2.472c-1.543-1.1-2.886-2.525-4.342-3.78
			c-6.617-5.701-13.647-10.796-21.551-14.596c-5.624-2.704-11.502-4.658-17.716-5.312c-2.969-0.312-5.772-1.059-8.403-2.242
			C262.252,46.409,269.421,56.17,276.829,70.191z"/>
		<path fill="#FFFFFF" d="M228.444,35.988c0.802,0.016,1.615,0.012,2.421-0.016c-0.002-1.562,0.007-3.124,0.006-4.686
			c-0.003-2.497,0.006-4.994-0.026-7.49c-0.014-1.082-0.779-1.572-1.663-1.153c-0.588,0.279-0.537,0.806-0.544,1.304
			c-0.058,3.98-0.27,7.957-0.195,11.939C228.443,35.923,228.444,35.954,228.444,35.988z"/>
		<path fill="#FFFFFF" d="M242.714,68.561c-3.149-0.103-6.3-0.139-9.447-0.097c-5.447,0.072-10.943,0.365-16.465,0.872
			c-4.251,3.085-4.821,9.262-1.55,17.01c0.157,0.372,0.078,0.801-0.199,1.091c-0.223,0.235-0.601,0.221-0.838,0
			c-0.917-0.855-1.862-0.305-2.23,0.004c-0.224,0.188-0.352,0.92,0.025,2.368c0.691,2.656,1.918,4.68,2.826,5.91
			c0.307,0.416,0.991,1.187,1.379,1.618c0.19,0.211,0.427,0.372,0.693,0.469c0.684,0.25,1.709,0.582,1.771,0.602
			c0.004,0.119,0.016,0.406,0.047,1.04c0.145,2.992,0.283,5.833,0.797,8.545c2.128-1.077,5.549-2.048,10.976-2.048
			c4.883,0,8.106,0.786,10.216,1.728c0.466-2.616,0.599-5.352,0.737-8.227c0.044-0.903,0.054-1.222,0.111-2.15
			c0.549-0.09,1.278-0.276,1.965-0.56c1.375-0.569,2.741-2.079,3.149-2.962c0.319-0.692,0.725-1.451,0.918-2.345
			c0.65-3.017,0.616-4.35,0.456-4.893c-0.043-0.147-0.292-0.313-0.535-0.399c-0.194-0.068-0.413-0.025-0.564,0.114
			c-0.103,0.095-0.248,0.201-0.375,0.185c-0.664-0.084-1.031-0.687-0.893-1.253C247.515,77.618,246.516,72.029,242.714,68.561z"/>
		<path fill="#FFFFFF" d="M323.205,81.622c-0.013-0.019-0.029-0.04-0.045-0.062c-0.23-0.298-0.545-0.519-0.898-0.651
			c-0.97-0.364-3.19-1.189-4.532-1.627c-1.11-0.362-7.918-3.021-18.127-5.279c-9.956-2.202-17.813-2.888-21.919-1.941l0.203,0.503
			c0.204,0.504,0.007,1.104-0.484,1.337c-0.142,0.067-0.29,0.099-0.436,0.099c-0.4,0-0.78-0.239-0.939-0.633l-0.435-1.075
			c-9.896-1.939-19.949-3.148-30.027-3.619c2.883,3.709,3.712,8.989,2.412,15.492c0.276,0.047,0.554,0.151,0.817,0.334
			c1.308,0.912,1.508,3.236,0.629,7.313c-0.224,1.039-0.531,1.985-0.913,2.811c-0.316,0.684-0.711,1.284-1.172,1.792
			c2.159,0.422,4.245,1.108,6.364,1.674c0.775,0.207,1.403,0.474,1.435,1.417c0.011,0.313,0.144,0.633,0.551,0.571
			c0.43-0.065,0.337-0.427,0.343-0.724c0.008-0.39-0.133-0.794,0.262-1.119c2.33-1.917,4.765-3.61,7.729-4.468
			c6.567-1.901,13.252-3.12,20.079-3.352c6.205-0.211,12.412-0.154,18.482,1.499c0.654,0.178,1.305,0.184,1.7,0.871
			c0.187,0.326,0.515,0.805,0.955,0.481c0.571-0.421-0.023-0.795-0.259-1.074c-1.221-1.446-1.623-3.038-1.166-4.898
			c0.269-1.097,0.855-1.962,1.563-2.788c2.43-2.837,5.635-4.368,9.24-4.32c2.656,0.035,5.516,0.283,7.764,2.196
			c0.256,0.218,0.524,0.323,0.809,0.061C323.478,82.178,323.389,81.887,323.205,81.622z"/>
		<path fill="#FFFFFF" d="M162.168,72.101c5.707-1.32,11.071-2.124,15.512-2.325c4.734-0.215,8.51,0.234,11.249,1.334
			c4.697-15.605,9.79-25.74,16.098-31.852c-1.584,0.812-3.27,1.439-5.129,1.642c-8.827,0.969-17.114,3.557-24.781,8.164
			c-8.247,4.955-15.542,11.068-22.356,17.792c-3.866,3.815-7.567,7.797-11.435,11.609c-0.487,0.48-0.928,0.998-1.364,1.517
			c0,0,0,0.001,0.001,0.001C142.931,77.769,152.699,74.29,162.168,72.101z"/>
		<path fill="#FFFFFF" d="M285.493,170.62c-0.008-2.465-0.312-4.903-1.398-7.187c-0.343-0.722-0.661-1.533-0.688-2.313
			c-0.073-2.095-0.975-3.893-1.72-5.772c-0.513-1.293-1.041-2.669,0.159-3.975c0.504-0.548,0.37-1.12-0.358-1.465
			c-0.53-0.251-0.963-0.528-1.008-1.243c-0.189-3.003-0.805-5.927-1.59-8.833c-0.588-2.173-1.158-4.359-1.281-6.641
			c-0.094-1.741-0.137-3.509-0.788-5.175c-0.509-1.302-1.116-2.481-2.748-2.599c-0.155-0.011-0.308-0.128-0.452-0.214
			c-1.433-0.859-2.983-1.412-4.611-1.758c-0.992-0.211-1.975-0.455-2.871-0.952c-1.781-0.987-3.675-1.683-5.623-2.252
			c-1.36-0.397-2.715-0.822-3.948-1.547c-0.605-0.356-1.222-0.686-1.853-0.984c-4.777-1.244-11.883-1.205-16.674-0.723
			c-2.799,0.281-5.692,0.572-8.839,0.578c-0.025,0-0.05,0-0.075,0c-2.849,0-5.358-0.271-7.574-0.511
			c-4.253-0.459-8.553-0.84-13.226,0.679c-0.178,0.094-0.355,0.188-0.533,0.28c-4.488,2.326-9.312,3.95-13.808,6.288
			c-1.67,0.869-3.261,1.947-5.154,2.298c-1.73,0.321-3.06,1.524-4.699,2.043c-0.485,0.154-0.792,0.611-1.033,1.071
			c-0.476,0.909-0.869,1.893-0.83,2.892c0.071,1.821-0.423,3.523-0.727,5.276c-0.29,1.673-0.74,3.274-1.252,4.884
			c-0.673,2.118-1.308,4.266-1.477,6.497c-0.083,1.091-0.311,2.052-1.143,2.816c-0.568,0.521-0.725,1.22-0.304,1.834
			c0.619,0.903,0.286,1.534-0.311,2.237c-1.086,1.277-1.96,2.648-1.947,4.436c0.005,0.705-0.329,1.37-0.646,2.009
			c-1.567,3.157-2.743,6.451-3.39,9.919c-0.426,2.282-0.884,4.495-2.04,6.602c-1.737,3.164-1.694,6.564-0.219,9.855
			c0.7,1.563,1.605,3.042,2.505,4.505c1.137,1.848,4.354,3.022,6.487,2.485c0.748-0.188,1.466-0.481,2.259-0.525
			c1.647-0.091,3.318-0.104,4.931-0.404c3.198-0.595,6.458-1.055,9.3-2.819c0.166-8.251-1.056-17.153-3.681-26.905
			c-0.145-0.54,0.175-1.095,0.714-1.241c0.541-0.146,1.095,0.175,1.241,0.714c3.815,14.173,4.724,26.618,2.763,37.923h70.036
			c-1.961-11.305-1.051-23.75,2.763-37.923c0.145-0.54,0.7-0.86,1.241-0.714c0.54,0.145,0.86,0.701,0.714,1.241
			c-2.221,8.251-3.436,15.892-3.658,23.046c0.085,0.022,0.176,0.047,0.276,0.078c1.353,0.416,2.674,0.957,4.088,1.13
			c1.23,0.15,2.35,0.54,3.403,1.193c1.533,0.952,3.204,1.182,4.963,0.822c1.676-0.343,2.868-1.585,4.32-2.345
			c0.292-0.153,0.403-0.531,0.492-0.862c0.48-1.79,1.167-3.525,1.482-5.36c0.438-2.551,1.147-5.083,0.726-7.71
			C285.926,173.745,285.498,172.233,285.493,170.62z"/>
		<path fill="#FFFFFF" d="M188.66,93.633c3.459,0.935,6.829,2.114,9.999,3.815c0.687,0.369,1.188,0.776,0.759,1.657
			c-0.13,0.266-0.232,0.639,0.166,0.776c0.399,0.137,0.549-0.245,0.618-0.511c0.223-0.861,0.863-1.184,1.611-1.505
			c3.324-1.428,6.849-1.947,10.383-2.457c-0.792-1.317-1.614-3.033-2.148-5.09c-0.561-2.157-0.352-3.607,0.639-4.433
			c0.584-0.487,1.31-0.614,1.985-0.583c-1.24-3.483-1.739-6.768-1.446-9.592c0.245-2.363,1.044-4.408,2.339-6.051
			c-7.666,0.82-15.374,2.054-23.066,3.695l-0.129,1.287c-0.052,0.522-0.493,0.912-1.006,0.912c-0.259,0-0.542-0.1-0.758-0.345
			c-0.196-0.223-0.275-0.525-0.246-0.82l0.126-1.264c-4.788-2.096-14.132-1.763-25.863,0.95c-5.163,1.194-10.125,2.704-14.03,4.13
			l0.001,0c-0.161,0-7.632,2.557-9.373,3.12c-0.376,0.122-0.717,0.331-1,0.607c-0.018,0.018-0.036,0.035-0.052,0.05
			c-0.373,0.355-0.567,0.814-0.076,1.222c0.479,0.398,3.652-1.4,5.998-2.541c1.832-0.892,4.04-0.926,5.639,0.337
			c0.141,0.111,0.278,0.231,0.412,0.36c2.856,2.76,3.291,6.587,1.091,9.914c-0.209,0.317-0.491,0.649-0.067,0.961
			c0.381,0.28,0.617-0.006,0.83-0.262c0.242-0.291,0.485-0.584,0.697-0.898c0.238-0.353,0.532-0.604,0.954-0.689
			c2.244-0.45,4.458-1.07,6.782-1.023c3.681,0.075,7.318,0.577,10.97,0.981C177.244,90.99,182.991,92.101,188.66,93.633z"/>
	</g>
</g>
</svg>
