<svg version="1.1" id="Layer_1" xmlns="http://www.w3.org/2000/svg" xmlns:xlink="http://www.w3.org/1999/xlink" x="0px" y="0px"
	 width="480px" height="273.371px" viewBox="0 0 480 273.371" enable-background="new 0 0 480 273.371" xml:space="preserve">
  <g class="si_icon_anim">
		<path fill="#FFFFFF" d="M322.883,65.145l-0.236-0.089c-0.707-0.267-1.504,0.094-1.771,0.801l-20.582,54.595
			c-0.267,0.707,0.094,1.504,0.801,1.771l0.236,0.089c0.707,0.267,1.504-0.094,1.771-0.801l20.582-54.595
			C323.951,66.208,323.591,65.411,322.883,65.145z"/>
		<path fill="#FFFFFF" d="M430.353,10.503l-0.236-0.089c-0.707-0.267-1.504,0.094-1.771,0.801L407.765,65.81
			c-0.267,0.707,0.094,1.504,0.801,1.77l0.236,0.089c0.707,0.267,1.504-0.094,1.771-0.801l20.582-54.595
			C431.421,11.567,431.06,10.77,430.353,10.503z"/>
		<path fill="#FFFFFF" d="M444.834,133.706l-0.236-0.089c-0.707-0.267-1.504,0.094-1.771,0.801l-20.582,54.595
			c-0.267,0.707,0.094,1.504,0.801,1.771l0.236,0.089c0.707,0.267,1.504-0.094,1.771-0.801l20.582-54.595
			C445.902,134.769,445.541,133.972,444.834,133.706z"/>
		<path fill="#FFFFFF" d="M328.657,173.185l-0.236-0.089c-0.707-0.267-1.504,0.094-1.771,0.801l-20.582,54.595
			c-0.267,0.707,0.094,1.504,0.801,1.771l0.236,0.089c0.707,0.267,1.504-0.094,1.771-0.801l20.582-54.595
			C329.725,174.248,329.364,173.451,328.657,173.185z"/>
		<path fill="#FFFFFF" d="M223.745,191.218l-0.236-0.089c-0.707-0.267-1.504,0.094-1.771,0.801l-20.582,54.595
			c-0.267,0.707,0.094,1.504,0.801,1.771l0.236,0.089c0.707,0.267,1.504-0.094,1.771-0.801l20.582-54.595
			C224.813,192.281,224.452,191.484,223.745,191.218z"/>
		<path fill="#FFFFFF" d="M45.245,191.218l-0.236-0.089c-0.707-0.267-1.504,0.094-1.771,0.801l-20.582,54.595
			c-0.267,0.707,0.094,1.504,0.801,1.771l0.236,0.089c0.707,0.267,1.504-0.094,1.771-0.801l20.582-54.595
			C46.313,192.281,45.952,191.484,45.245,191.218z"/>

		<path fill="#FFFFFF" d="M112.445,19.166l-0.236-0.089c-0.707-0.267-1.504,0.094-1.771,0.801L89.857,74.472
			c-0.267,0.707,0.094,1.504,0.801,1.771l0.236,0.089c0.707,0.267,1.504-0.094,1.771-0.801l20.582-54.595
			C113.513,20.229,113.152,19.432,112.445,19.166z"/>
		<path fill="#FFFFFF" d="M158.838,104.99l-0.236-0.089c-0.707-0.267-1.504,0.094-1.771,0.801l-20.582,54.595
			c-0.267,0.707,0.094,1.504,0.801,1.771l0.236,0.089c0.707,0.267,1.504-0.094,1.771-0.801l20.582-54.595
			C159.906,106.053,159.545,105.257,158.838,104.99z"/>
		<path fill="#FFFFFF" d="M243.957,26.152l-0.236-0.089c-0.707-0.267-1.504,0.094-1.771,0.801l-20.582,54.595
			c-0.267,0.707,0.094,1.504,0.801,1.771l0.236,0.089c0.707,0.267,1.504-0.094,1.771-0.801l20.582-54.595
			C245.025,27.215,244.664,26.418,243.957,26.152z"/>
  </g>
</svg>