<?xml version="1.0" encoding="utf-8"?>
<!-- Generator: Adobe Illustrator 17.0.0, SVG Export Plug-In . SVG Version: 6.00 Build 0)  -->
<!DOCTYPE svg PUBLIC "-//W3C//DTD SVG 1.1//EN" "http://www.w3.org/Graphics/SVG/1.1/DTD/svg11.dtd">
<svg version="1.1" id="Layer_1" xmlns="http://www.w3.org/2000/svg" xmlns:xlink="http://www.w3.org/1999/xlink" x="0px" y="0px"
	 width="480px" height="273.371px" viewBox="0 0 480 273.371" enable-background="new 0 0 480 273.371" xml:space="preserve">
<path fill="#79B242" d="M210.894,97.677c-8.852-1.554-20.542-5.271-20.542-5.271c-0.135-0.27,0-21.623,0-21.623
	s1.96-5.271,2.635-5.203c0.676,0.068,14.596,1.622,19.461,1.96c4.865,0.338,27.84,2.568,28.313,2.703
	c0.473,0.135,4.595,5.744,4.798,7.028c0.203,1.284,0.541,23.718,0.541,23.718S219.746,99.231,210.894,97.677z"/>
<g>
	<rect y="0" fill="#72C6EF" width="480" height="273.371"/>
	<polygon fill="#FFFFFF" points="383.375,160.083 300.297,200.114 311.25,201.592 389.68,160.956 	"/>
	<polygon fill="#FFFFFF" points="18.249,162.062 143.152,147.215 139.925,145.247 5.5,160.342 	"/>
	<path fill="#FFFFFF" d="M37.751,25.049c0,0-3.668,11.771-4.952,16.48c-0.381,1.396,0.203,5.723-0.591,10.045
		c-0.225,1.228-2.292,4.989-2.561,6.303c-1.972,9.661-3.027,18.461-3.027,21.112c0,4.281-6.034,15.918-6.034,15.918
		s2.201-0.736,1.773,3.545c-0.428,4.281-6.894,16.742-6.894,16.742s-3.4,16.023-3.829,18.592c-0.428,2.569,4.709,5.137,8.562,6.421
		c2.348,0.783,10.419,0.611,17.528,0.261c1.724-0.085-0.338,10.274,1.177,10.179c1.104-0.069,4.395-0.426,7.288-0.788
		c3.151-0.394,1.567-10.023,2.261-10.081c5.137-0.428,12.415-1.284,15.412-0.428s8.562,5.565,7.706-1.284
		c-0.856-6.85-2.997-19.693-5.137-24.402S58.3,96.542,60.44,97.398c2.14,0.856,5.993,5.993,4.709,2.14
		c-1.284-3.853-2.569-6.421-5.565-11.987c-2.997-5.565-4.709-5.993-5.993-10.702s-2.997-8.99-2.14-13.271S49.738,52.02,49.738,52.02
		s-1.712-2.997-3.425-6.85c-1.712-3.853-4.646-2.997-4.677-7.278C41.604,33.611,38.748,20.025,37.751,25.049z"/>
	<path fill="#FFFFFF" d="M83.006,94.128c0,0,2.165,5.01,2.923,7.014c0.225,0.594-0.12,2.436,0.349,4.275
		c0.133,0.523,1.353,2.123,1.511,2.682c1.164,4.111,1.786,7.856,1.786,8.985c0,1.822,3.561,6.774,3.561,6.774
		s-1.299-0.313-1.046,1.509c0.253,1.822,4.069,7.125,4.069,7.125s2.007,6.819,2.26,7.912c0.253,1.093-2.779,2.186-5.053,2.733
		c-1.386,0.333-6.149,0.26-10.345,0.111c-1.018-0.036,0.2,4.372-0.695,4.332c-0.652-0.029-2.594-0.181-4.301-0.335
		c-1.86-0.168-0.925-4.266-1.335-4.29c-3.032-0.182-7.327-0.547-9.096-0.182s-5.053,2.368-4.548-0.547
		c0.505-2.915,1.769-8.381,3.032-10.385c1.263-2.004,4.801-7.288,3.537-6.923s-3.537,2.551-2.779,0.911
		c0.758-1.64,1.516-2.733,3.285-5.101c1.769-2.368,2.779-2.551,3.537-4.555c0.758-2.004,1.769-3.826,1.263-5.648
		c-0.505-1.822,1.011-4.919,1.011-4.919s1.011-1.275,2.021-2.915c1.011-1.64,2.742-1.275,2.761-3.097
		C80.732,97.771,82.417,91.989,83.006,94.128z"/>
	<path fill="#FFFFFF" d="M383.602,69.37c0,0,1.67,3.864,2.254,5.409c0.173,0.458-0.092,1.879,0.269,3.297
		c0.103,0.403,1.043,1.638,1.166,2.069c0.898,3.171,1.378,6.059,1.378,6.93c0,1.405,2.747,5.225,2.747,5.225
		s-1.002-0.241-0.807,1.164c0.195,1.405,3.138,5.495,3.138,5.495s1.548,5.259,1.743,6.102c0.195,0.843-2.144,1.686-3.898,2.108
		c-1.069,0.257-4.743,0.201-7.979,0.086c-0.785-0.028,0.154,3.372-0.536,3.341c-0.503-0.023-2.001-0.14-3.317-0.259
		c-1.435-0.129-0.713-3.29-1.029-3.309c-2.339-0.141-5.651-0.422-7.016-0.141c-1.364,0.281-3.897,1.827-3.508-0.422
		c0.39-2.248,1.364-6.464,2.339-8.009c0.974-1.546,3.703-5.621,2.728-5.34c-0.974,0.281-2.728,1.967-2.144,0.703
		c0.585-1.265,1.169-2.108,2.533-3.934c1.364-1.827,2.144-1.967,2.728-3.513s1.364-2.951,0.974-4.356s0.78-3.794,0.78-3.794
		s0.779-0.984,1.559-2.248c0.78-1.265,2.115-0.984,2.129-2.389C381.848,72.18,383.148,67.721,383.602,69.37z"/>
	<g>
		<polygon fill="#72C6EF" points="127.025,134.384 125.308,136.467 126.56,139.42 127.008,140.819 126,145.247 126,152.342 
			126.354,156.842 127.164,160.259 127.917,161.967 134.469,163.596 143.136,165.208 149.667,166.325 151.5,166.325 
			153.667,160.075 155.663,150.947 156.983,146.853 158.417,145.924 164.5,144.425 169.583,143.175 176.417,141.675 
			179.833,140.759 189.333,138.786 196.083,136.009 198.25,132.898 199.833,129.528 201.083,125.176 200.5,122.705 192.333,124.601 
			186.653,127.509 180.083,131.009 174.583,132.898 167.75,134.926 145.333,134.342 137.583,133.592 132.25,132.898 
			127.947,133.783 		"/>
		<polygon fill="#72C6EF" points="145,116.342 145,114.342 147.75,110.831 154.047,103.717 160.516,96.295 166.078,90.545 
			170.797,86.045 171.961,85.373 173.902,84.717 186.651,82.434 199,81.325 208.5,81.325 222.5,81.325 225.364,81.959 228,81.379 
			234.5,80.325 243.5,80.325 250.5,80.325 251.703,85.959 253,99.467 253,107.342 252.75,120.672 251.641,131.592 251.063,140.467 
			249.719,149.717 247.984,157.364 246.617,160.957 242.246,162.467 233.573,164.467 228.499,165.467 228,160.957 227.875,156.609 
			226.313,146.855 224.125,143.915 216.5,141.717 214.25,133.139 212.875,128.092 210,122.494 206.25,116.342 191.537,119.217 		"/>
		<polygon fill="#72C6EF" points="156.858,70.169 156.815,70.544 155.634,73.359 155.652,73.983 156.501,76.134 156.756,76.38 
			186.651,73.465 212.999,72.175 229.666,72.342 242.833,73.341 251.266,75.009 259,76.384 259,104.342 259,124.342 
			260.583,144.524 355.708,126.342 357.37,99.009 357.969,80.342 360.529,77.798 360.441,75.169 358.121,70.169 279.501,51.342 
			261,52.842 261,59.342 251.516,62.342 226.189,61.592 182.438,64.444 		"/>
		<path fill="#FFFFFF" d="M249.669,81.922c-1.614-0.2-13.968-1.617-17.812,1.219c-4.229,3.119-12.489,14.216-14.703,18.645
			c-0.966,1.931-1.556,3.655-1.77,5.149c1.905-3.378,3.808-6.321,4.234-6.974l0.369-0.565c0,0,8.776-12.929,11.791-14.017
			c5.379-1.94,12.566-1.235,12.566-1.235s3.263,0,3.307,4.101c0.044,4.101-0.132,16.182-0.75,18.827
			c-0.617,2.646-2.055,6.867-3.748,8.157c-0.929,0.708-2.11,1.247-3.466,1.674c-0.038,1.343-0.438,1.905-0.745,2.335
			c-0.039,0.055-0.077,0.108-0.113,0.161c-0.518,0.778-4.796,2.002-8.102,2.114c-0.063,0.002-0.126,0.003-0.187,0.003
			c-1.061,0-1.904-0.317-2.509-0.943c-0.528-0.547-0.767-1.227-0.873-1.778c-0.829,0.084-1.659,0.171-2.48,0.268
			c-0.087,0.01-0.172,0.02-0.258,0.03l-0.031,0.154l-0.082,0.088c-0.158,0.169-1.154,1.01-5.33,1.01c-0.953,0-1.819,0.08-2.6,0.16
			c0.169,0.539,0.457,1.666,0.457,3.093c0,1.016,0.114,3.259,0.214,5.238c0.13,2.553,0.154,3.174,0.134,3.38
			c0.02,0.05,0.073,0.149,0.12,0.238c0.316,0.594,0.973,1.829,0.92,3.858c-0.053,1.993,0.015,3.683,0.05,4.368
			c0.378-0.073,1.048-0.172,1.87-0.172c2.426,0,6.18,0.866,7.717,5.85c2.28,7.394,1.684,15.986,1.678,16.072l-0.009,0.055
			c-0.123,0.443-0.177,0.935-0.128,1.111c1.019-0.055,8.491-1.665,13.446-2.774c0.935-0.407,2.006-0.973,2.128-1.178
			c0.199-0.398,1.168-3.169,1.438-4.115l0.067-0.229c1.931-6.636,2.761-11.857,3.118-15.068c0.79-7.11,0.78-9.307,0.632-9.898
			c-0.09-0.359,0.09-0.849,0.298-1.417c0.182-0.496,0.388-1.057,0.388-1.498c0-0.167,0.037-0.701,0.098-1.586
			c0.3-4.327,1.213-17.493,0.458-28.595C250.705,85.946,249.876,82.61,249.669,81.922z"/>
		<path fill="#FFFFFF" d="M279.25,154.308l0.03-0.063c0.19-0.397,0.104-0.742-0.12-1.241c-0.222-0.492-0.15-0.871,0.152-2.463
			l0.133-0.708c0.167-0.897,0.305-2.588,0.009-5.551l-0.012-0.12c-0.026-0.274-0.209-0.649-0.338-0.877l-1.189,0.132v-11.249
			c0-2.435-1.103-2.615-1.24-2.627c-0.458,0.04-8.118,0.707-9.84,0.82c-1.51,0.099-1.647,3.079-1.648,3.109
			c0,0.07-0.035,8.06-0.002,10.168c0.027,1.732-0.172,1.949-0.397,2.031c-0.001,0-0.002,0.001-0.003,0.001
			c-0.022,0.098-0.028,0.263,0.065,0.496c0.347,0.869,0.353,3.412,0.325,4.85c-0.04,2.096-0.351,3.167-0.537,3.807
			c-0.032,0.111-0.06,0.207-0.081,0.292c-0.083,0.334,0.13,0.86,0.286,1.244c0.062,0.153,0.118,0.293,0.155,0.41
			c0.203,0.644-1.407,3.488-1.639,3.797c-0.104,0.138-0.262,0.271-0.44,0.392l14.945-3.507l-0.206-0.285
			C277.762,157.089,278.127,156.659,279.25,154.308z"/>
		<path fill="#FFFFFF" d="M214.044,67.1c0.414,0,0.993-0.004,1.696-0.009c4.229-0.028,13.029-0.086,17.868,0.48
			c5.563,0.65,29.883,4.189,30.129,4.225l-0.081,0.557c-0.245-0.035-24.558-3.573-30.113-4.223
			c-4.804-0.562-13.58-0.503-17.799-0.476c-0.705,0.005-1.284,0.009-1.7,0.009c-2.691,0-34.077,2.431-46.801,4.034
			c-9.766,1.23-11.125,2.008-11.313,2.208c0.008,0.027,0.015,0.058,0.015,0.095h-0.277c0.078,0.904,0.467,1.715,0.841,2.142
			l-0.049-0.277c27.865-4.919,70.394-5.464,70.816-5.468c5.869-0.064,19.909,2.056,28.298,3.319c3.666,0.552,6.561,0.987,7.09,0.987
			l0.308,0.001c1.755,0.011,3.273,0.02,3.353-2.451c0.084-2.607-2.534-2.8-2.646-2.807c-0.306-0.044-28.348-4.139-35.3-4.787
			c-5.218-0.488-10.814-0.096-21.963,0.683c-3.875,0.271-8.266,0.578-13.566,0.913c-20.485,1.297-35.76,4.596-35.912,4.629
			l-0.06-0.275l0,0c-0.302,0.402-1.073,1.509-1.207,2.683c-0.004,0.033-0.002,0.066-0.005,0.1c0.581-0.406,2.676-1.141,11.507-2.253
			C180.053,69.516,211.099,67.1,214.044,67.1z"/>
		<path fill="#FFFFFF" d="M272.49,65.522l72.309,11.647c0.467,0.075,0.942-0.058,1.302-0.365c0.361-0.307,0.567-0.755,0.567-1.228
			v-1.271c0-1.158-0.825-2.161-1.961-2.385l-73.238-14.446c-0.15-0.029-0.3-0.044-0.449-0.044c-0.529,0-1.044,0.182-1.461,0.525
			c-0.535,0.44-0.841,1.089-0.841,1.781v1.358C268.717,63.307,270.304,65.17,272.49,65.522z"/>
		<path fill="#FFFFFF" d="M312.602,74.299l-5.164-0.809c-0.096-0.015-0.192-0.023-0.288-0.023c-0.439,0-0.865,0.156-1.204,0.445
			c-0.412,0.353-0.648,0.866-0.648,1.408v63.839c0,0.554,0.245,1.075,0.672,1.428s0.984,0.496,1.529,0.392l5.164-0.989
			c0.872-0.167,1.504-0.932,1.504-1.82V76.13C314.169,75.211,313.51,74.441,312.602,74.299z"/>
		<path fill="#FFFFFF" d="M314.039,149.821c1.121-0.179,2.129-1.024,3.088-2.275c0.959-1.251,0.943-4.371,1.804-8.06
			c0.313-1.34,0.571-2.353,0.985-3.139l-5.184,0.899v0.925c0,1.157-0.825,2.155-1.961,2.373l-5.164,0.989
			c-0.152,0.029-0.306,0.043-0.458,0.043c-0.557,0-1.099-0.192-1.536-0.554c-0.557-0.461-0.877-1.14-0.877-1.862v-0.18
			l-24.983,4.334c0.113,0.238,0.224,0.529,0.249,0.794l0.012,0.117c0.244,2.432,0.238,4.353-0.015,5.711l-0.134,0.709
			c-0.287,1.512-0.336,1.806-0.191,2.127c0.219,0.488,0.427,1.062,0.115,1.715l-0.03,0.063c-0.707,1.48-1.195,2.38-1.528,2.814
			l33.875-7.949C312.105,149.415,312.918,150,314.039,149.821z"/>
		<path fill="#FFFFFF" d="M360.89,128.809l0.072,0.416l-23.476,4.073c0.022,0.027,0.045,0.049,0.068,0.077
			c1.3,1.625,0.634,8.678,0.601,9.003c-0.033,0.325-0.13,1.008-0.114,1.316c0.016,0.309,0.341,0.228,1.398,0.146
			c1.056-0.081,1.641-0.894,1.918-1.138c0.276-0.244,14.723-3.998,17.112-4.843c2.389-0.845,2.389-2.535,2.486-3.055
			c0.097-0.52-0.098-0.829-0.13-1.186c-0.033-0.358,0.471-1.609,0.601-2.584C361.556,130.06,361.037,128.972,360.89,128.809z"/>
		<path fill="#FFFFFF" d="M329.672,138.332c0.325-0.049,0,0,0.926-0.098c0.176-1.797,0.534-3.04,0.961-3.908l-3.401,0.59
			C329.312,136.298,329.471,138.362,329.672,138.332z"/>
		<path fill="#FFFFFF" d="M206.377,64.779c11.178-0.781,16.789-1.173,22.054-0.682c6.966,0.65,35.023,4.748,35.306,4.789
			c0.014,0,3.252,0.241,3.15,3.385c-0.097,3.018-2.216,3.01-3.919,2.996l-0.305-0.001c-0.012,0-0.03-0.001-0.043-0.002
			c0.029,4.769,0.384,63.83,0.416,70.093l1.435-0.249l0.093-0.11c0.034-0.203,0.069-0.598,0.057-1.352
			c-0.033-2.113,0.002-10.109,0.002-10.19c0.006-0.153,0.161-3.526,2.175-3.659c1.76-0.115,9.769-0.814,9.849-0.821l0.014-0.001
			l0.015,0c0.073,0.001,1.802,0.064,1.802,3.191v10.51l26.257-4.555V75.32c0-0.707,0.308-1.376,0.846-1.836
			c0.537-0.46,1.246-0.66,1.945-0.551l5.164,0.809c1.183,0.186,2.042,1.19,2.042,2.387v60.259l5.908-1.025
			c0.781-0.753,1.981-1.213,4.043-1.582c1.145-0.205,2.008,0.002,2.666,0.418l4.819-0.836c0.848-1.354,3.463-1.452,4.513-0.783
			l24.136-4.187l0.021,0.12c0.018-0.177,0.07-0.4,0.051-0.646c-0.033-0.423-0.276-0.589-0.276-0.589s0.299-36.106-0.069-49.479
			l-0.361,0.011c-0.177-5.848-3.019-6.39-3.048-6.395c-0.773-0.18-75.346-17.655-80.807-18.396c-5.551-0.752-7.65,0.43-10.881,2.583
			c-3.209,2.139-2.834,12.695-2.83,12.801l-0.563,0.022c-0.018-0.447-0.391-10.978,3.08-13.292c3.247-2.164,5.529-3.451,11.27-2.673
			c5.487,0.744,80.087,18.225,80.84,18.401c0.096,0.014,2.367,0.411,3.204,4.307c-0.04-0.809-0.085-1.425-0.137-1.81
			c-0.704-5.298-4.393-5.097-4.393-5.097s-37.823-8.752-41.579-9.556c-3.756-0.805-10.194-2.28-36.013-10.931
			c-25.819-8.651-34.437-6.907-37.086-6.639c-2.649,0.268-10.194,1.744-10.395,1.777c-0.201,0.034-1.643-0.939-14.921-0.168
			c-13.278,0.771-25.886,3.051-36.314,5.969c-10.428,2.917-15.156,6.337-17.738,8.081c-2.582,1.744-3.688,7.846-3.756,8.048
			c-0.067,0.201-0.704,0.671-0.838,1.375c-0.116,0.609-0.107,3.146-0.297,4.082c1.698-0.358,16.438-3.378,35.831-4.606
			C198.112,65.357,202.502,65.05,206.377,64.779z M290.583,104.877c-0.361,0.364-0.841,0.564-1.353,0.564h-18.138
			c-1.05,0-1.905-0.855-1.905-1.905V78.789c0-0.545,0.234-1.065,0.642-1.426c0.408-0.362,0.954-0.532,1.494-0.465l17.931,2.187
			c0.946,0.115,1.666,0.921,1.674,1.874l0.207,22.561C291.139,104.031,290.943,104.513,290.583,104.877z M334.442,94.197
			c0,0.592-0.492,1.067-1.084,1.045l-7.553-0.276c-0.562-0.021-1.007-0.482-1.007-1.045v-9.089c0-0.623,0.541-1.107,1.159-1.039
			l7.553,0.827c0.53,0.058,0.932,0.506,0.932,1.039V94.197z M352.112,83.229v16.398c0,0.589-0.486,1.061-1.074,1.045l-9.031-0.248
			c-0.566-0.016-1.017-0.479-1.017-1.045V82.104c0-0.629,0.551-1.115,1.175-1.038l9.031,1.124
			C351.719,82.256,352.112,82.701,352.112,83.229z M268.154,59.734c0-0.861,0.382-1.669,1.047-2.216
			c0.666-0.547,1.533-0.765,2.377-0.598l73.238,14.446c1.4,0.276,2.415,1.512,2.415,2.938v1.271c0,0.639-0.279,1.242-0.765,1.656
			c-0.397,0.338-0.897,0.52-1.41,0.52c-0.115,0-0.231-0.009-0.347-0.028L272.4,66.078c-2.461-0.396-4.246-2.493-4.246-4.985V59.734z
			"/>
		<path fill="#FFFFFF" d="M223.617,118.805l0.204-1.02l4.137-0.436l-0.035,0.502c-0.001,0.012-0.074,1.323,0.72,2.14
			c0.466,0.48,1.158,0.705,2.056,0.678c3.439-0.116,7.1-1.39,7.438-1.753c0.03-0.046,0.073-0.107,0.118-0.169
			c0.314-0.439,0.705-0.986,0.561-2.759c-0.098-1.21-0.315-1.414-0.324-1.422c-0.274-0.199-0.389-0.565-0.282-0.911
			c0.036-0.116,0.071-0.233,0.091-0.313c0.05-0.256,0.205-2.856-0.108-3.793c-0.192-0.575-0.408-0.811-0.565-0.984
			c-0.128-0.141-0.274-0.3-0.274-0.551c0-0.049-0.03-0.174-0.053-0.265c-0.056-0.231-0.114-0.47-0.043-0.686
			c0.039-0.117,0.109-0.202,0.171-0.277c0.123-0.149,0.197-0.238,0.073-0.536c-0.069-0.165-0.118-0.395-0.18-0.686
			c-0.252-1.179-0.675-3.152-2.79-3.618c-2.892-0.636-5.858-0.551-6.291-0.266c-0.473,0.707-0.785,2.165-0.785,2.831
			c0,0.149-0.063,0.293-0.177,0.405c-0.628,0.617-4.378,0.64-6.558,0.601l-0.408-0.008l-0.007-0.408
			c-0.027-1.727-0.168-3.789-0.349-4.11l-0.001-0.002c-2.741,4.272-8.604,14.149-8.039,16.803c0.485,2.275,1.622,2.158,4.113,1.9
			c0.865-0.089,1.845-0.191,2.946-0.191C222.174,119.502,223.319,118.983,223.617,118.805z M220.717,107.21h6.741v7.869
			l-0.447-0.026c-0.013-0.001-1.342-0.077-2.252-0.077c-0.29,0-0.67,0.018-1.074,0.036c-1.278,0.059-1.915,0.071-2.245-0.07
			c-0.291-0.125-0.502-0.215-0.642-3.776c-0.065-1.665-0.081-3.338-0.081-3.533V107.21z"/>
		<path fill="#FFFFFF" d="M139.567,138.872c-1.289-0.382-2.702,0.551-3.156,2.084c-0.08,0.27-0.123,0.541-0.136,0.806
			c-1.46-0.164-2.458-0.273-2.645-0.29c-1.785-0.166-2.229,3.64-2.563,7.763s1.269,10.438,1.449,10.474s14.3,3.009,16.417,3.38
			c2.117,0.371,2.34-3.083,3.529-7.652c1.189-4.569,2.563-7.392,3.083-9.249c0.52-1.857-0.817-1.969-1.374-2.229
			c-0.334-0.156-7.34-0.991-13.084-1.652C141.523,140.786,140.848,139.251,139.567,138.872z"/>
		<path fill="#FFFFFF" d="M182.474,136.358c0.296-0.296,1.613-4.315,2.418-6.83c-5.168,2.256-10.129,4.525-11.262,5.045
			c0.495,1.056,1.092,2.085,1.738,2.131C176.581,136.791,182.041,136.791,182.474,136.358z"/>
		<path fill="#FFFFFF" d="M194.694,132.198c0.712-0.712,1.955-5.242,2.575-7.597c-1.67,0.423-5.496,1.97-9.609,3.73
			c-0.777,2.024-1.483,4.382-0.593,4.477C187.716,132.878,193.741,133.151,194.694,132.198z"/>
		<g>
			<g>
				<path fill="#FFFFFF" d="M264.096,154.666c0.178-0.613,0.476-1.639,0.515-3.661c0.045-2.34-0.061-4.071-0.285-4.63
					c-0.054-0.135-0.081-0.255-0.099-0.367l-1.679,0.291l-0.145-0.832l0.07-0.012c-0.029-5.736-0.391-65.819-0.417-70.238
					c-1.099-0.122-3.404-0.469-6.567-0.945c-8.262-1.243-22.017-3.314-27.974-3.314c-0.08,0-0.158,0-0.235,0.001
					c-10.897,0.106-47.169,1.332-70.521,5.424c0.053,0.072-0.05,0.19,0.084,1.636c0.201,2.18,1.073,2.146,3.621,3.973
					c2.548,1.827,11.334,2.599,11.468,2.901c0.134,0.302-0.503,0.402-1.576,1.274c-1.073,0.872-7.243,7.008-9.825,9.825
					s-14.62,16.665-14.888,16.967c-0.268,0.302-6.472,5.231-8.349,7.142c-1.097,1.117-2.868,3.708-4.233,5.805
					c0.911,0.413-0.944,1.76-2.044,7.441c-0.132,0.528,31.626,3.32,36.188,3.062c0.423-0.024,10.764-4.433,19.446-8.253
					c6.56-2.886,11.347-4.435,12.378-4.552c3.298-0.375-0.24,6.898-1.936,9.95c-5.475,1.493-18.823,5.055-26.624,5.59
					c-10.008,0.688-40.042-3.42-41.088-4.019c-0.526-0.301-1.188-0.66-1.435-1.342c-0.159,0.107-0.318,0.215-0.478,0.324
					c0.287,0.738,0.257,2.287,0.881,2.643c1.474,0.842,27.327,3.841,38.907,3.841c1.061,0,2.004-0.025,2.795-0.079
					c7.608-0.522,20.865-4.696,26.65-6.267c-0.184,0.314-0.317,0.527-0.374,0.605c-1.205,1.635-10.632,3.607-14.849,4.898
					s-23.624,4.914-24.313,6.033c-0.689,1.119-1.98,5.078-2.84,7.832c-0.861,2.754-1.865,7.728-2.754,10.587
					c-0.636,2.045-1.036,1.896-1.036,1.896s-21.305-4.107-22.319-4.477c-0.515-0.188-1.365-5.259-1.576-10.357
					c-0.205-4.946,0.918-9.837,1.003-10.473c0.172-1.291-2.152-3.787-1.205-5.25c0.154-0.238,0.405-0.669,0.719-1.216
					c-0.865,0.603-1.688,1.22-2.208,1.722c-1.536,1.484-2.755,9.113-2.755,9.961c0,0.848,0.716,1.325,0.716,1.325v2.914
					c0,0-1.14,0.583-1.511,1.219s0.318,6.729,1.007,8.636c0.689,1.907,1.96,2.914,1.854,3.391c-0.106,0.477,0.265,1.431,0.265,1.431
					c0.207,0.404,1.346,0.925,3.119,1.512c0,0,16.125,4.043,21.954,5.129c0.098,0.018,0.193,0.036,0.285,0.054
					c5.863,1.118,11.233,2.002,14.142,2.316c6.909,0.746,24.045,0.492,26.689,0.43c2.644-0.062,1.968-1.353,3.444-7.134
					c3.695-14.47,5.965-17.219,7.995-19.31c2.221-2.289,6.088-3.69,9.288-4.243s7.623-1.66,11.928,0.984
					c4.284,2.632,3.33,16.834,3.321,19.637l0.002,0.004l-0.002,0.037c0,0,0,0,0,0.001c0,0.292-0.013,0.556-0.037,0.794l-0.12,2.609
					c0.226-0.066,0.48-0.135,0.771-0.205c2.275-0.553,16.112-4.305,16.112-4.305s0.615,0.123,1.476,0.246
					c0.861,0.123,8.917-0.738,11.438-1.291s5.104-1.168,5.104-1.168h0.13c0.442-0.174,1.134-0.512,1.341-0.788
					c0.38-0.507,1.595-2.894,1.549-3.303c-0.03-0.091-0.081-0.216-0.137-0.353c-0.195-0.481-0.439-1.08-0.31-1.593
					C264.032,154.887,264.062,154.784,264.096,154.666z M164.791,170.041c-1.054-0.422-5.103-6.422-3.555-6.445
					c0.133-0.002,7.72,0.33,14.168,0.562c-0.872,1.064-1.201,2.673-0.734,4.276c0.264,0.906,0.744,1.678,1.347,2.256
					C171.372,170.592,165.546,170.343,164.791,170.041z M181.826,170.674c-0.109,0.022-0.363,0.037-0.731,0.048
					c0.954-1.06,1.329-2.736,0.843-4.404c-0.224-0.771-0.606-1.443-1.086-1.983c1.515,0.04,2.665,0.057,3.191,0.039
					C185.51,164.324,182.888,170.463,181.826,170.674z M203.691,111.702c-3.141,2.201-5.247,4.762-13.492,5.203
					c-8.245,0.441-22.663-0.05-26.676-0.268c-4.012-0.217-17.549-0.306-17.46-2.025c0.023-0.443,9.877-13.139,15.432-18.915
					c5.556-5.776,9.127-9.744,10.758-10.229c1.631-0.485,4.497-1.455,20.503-2.646c16.005-1.19,29.101-0.75,29.101-0.75
					s4.497-0.088,2.998,1.808C223.356,85.776,206.833,109.5,203.691,111.702z M251.578,125.871c-0.058,0.843-0.097,1.4-0.097,1.547
					c0,0.541-0.224,1.152-0.422,1.692c-0.154,0.42-0.328,0.895-0.281,1.086c0.232,0.925,0.023,4.322-0.618,10.097
					c-0.359,3.233-1.195,8.489-3.137,15.164l-0.065,0.226c-0.283,0.991-1.263,3.787-1.477,4.214
					c-0.229,0.459-1.776,1.168-2.431,1.452l-0.05,0.016c-10.903,2.442-13.173,2.776-13.707,2.776c-0.124,0-0.154-0.018-0.177-0.032
					c-0.454-0.272-0.284-1.199-0.134-1.747c0.035-0.535,0.529-8.753-1.656-15.838c-2.182-7.076-8.95-5.306-9.237-5.227l-0.333,0.091
					l-0.023-0.344c-0.001-0.021-0.139-2.126-0.07-4.747c0.049-1.88-0.561-3.027-0.854-3.579c-0.144-0.27-0.22-0.414-0.181-0.571
					c0.017-0.225-0.062-1.779-0.138-3.282c-0.101-1.985-0.215-4.236-0.215-5.266c0-1.456-0.324-2.598-0.467-3.034
					c-2.299,0.233-4.097,0.291-4.712-2.596c-0.388-1.82,1.519-5.98,3.637-9.857c0.007-1.83,0.65-4.039,1.92-6.577
					c2.236-4.472,10.59-15.687,14.873-18.846c4.277-3.156,17.82-1.38,18.395-1.302l0.159,0.021l0.063,0.148
					c0.04,0.095,1.001,2.486,1.897,15.643C252.794,108.338,251.879,121.534,251.578,125.871z"/>
			</g>
		</g>
	</g>
	<g>
		<path fill="#FFFFFF" d="M321.551,136.782c-0.847,0.776-1.217,1.871-1.619,3.524c0.21-0.067,0.424-0.098,0.64-0.085
			c1.984,0.113,3.397,3.642,3.156,7.883c-0.241,4.241-2.045,7.588-4.029,7.475c-1.532-0.087-2.722-2.211-3.075-5.126
			c-0.554,0.45-1.13,0.751-1.74,0.848c-1.121,0.179-1.934-0.406-1.934-0.406l-8.27,1.941c0.716,3.712,2.385,6.302,4.467,6.42
			c2.28,0.13,7.826,0.541,10.123,0.672c3.021,0.172,5.768-4.924,6.135-11.381C325.731,142.791,324.057,137.9,321.551,136.782z"/>
		<path fill="#FFFFFF" d="M333.844,134.09c-0.802,0.215-1.805,0.728-2.462,3.86c0.424-0.329,0.536-0.274,0.999-0.247
			c1.914,0.109,3.278,3.514,3.045,7.606c-0.233,4.092-1.973,7.321-3.888,7.212c-1.914-0.109-3.278-3.514-3.045-7.606
			c0.112-1.973,0.47-3.328,0.981-4.614c-0.315-0.925-0.673-5.498-4.617-4.792c-1.262,0.226-2.201,0.486-2.919,0.826
			c2.603,0.964,4.362,5.949,4.028,11.837c-0.176,3.093-0.899,5.872-1.935,7.911c2.422,0.174,5.707,0.427,7.298,0.523
			c2.779,0.169,5.306-4.841,5.644-11.191C337.256,140.104,335.917,135.54,333.844,134.09z"/>
		<path fill="#FFFFFF" d="M216.67,147.654c-1.094-0.168-3.773-0.579-6.25-0.96c-2.702,0.715-5.537,1.977-7.316,3.81
			c-2.029,2.091-4.3,4.839-7.994,19.31c-1.452,5.688-0.823,7.029-3.322,7.129c1.64,4.273,4.508,7.242,8.121,7.797
			c1.941,0.298,8.872,1.362,10.813,1.66c6.771,1.04,13.591-6.791,15.234-17.491C227.598,158.209,223.441,148.693,216.67,147.654z
			 M221.757,168.18c-1.007,6.558-5.188,11.358-9.338,10.721c-4.15-0.637-6.698-6.47-5.691-13.029s5.188-11.358,9.338-10.721
			C220.216,155.789,222.764,161.622,221.757,168.18z"/>
		<path fill="#FFFFFF" d="M149.353,172.458c-5.243-0.976-18.811-4.344-21.489-5.012c0.954,4.205,3.329,7.273,6.502,7.76
			c1.401,0.215,6.405,0.983,7.807,1.199c2.699,0.414,5.408-1.125,7.494-3.886c-0.01-0.002-0.019-0.004-0.029-0.006
			C149.546,172.494,149.451,172.476,149.353,172.458z"/>
	</g>
	<path fill="#72C6EF" d="M292.25,122.905"/>
</g>
</svg>
