<?xml version="1.0" encoding="utf-8"?>
<!-- Generator: Adobe Illustrator 17.0.0, SVG Export Plug-In . SVG Version: 6.00 Build 0)  -->
<!DOCTYPE svg PUBLIC "-//W3C//DTD SVG 1.1//EN" "http://www.w3.org/Graphics/SVG/1.1/DTD/svg11.dtd">
<svg version="1.1" id="Layer_1" xmlns="http://www.w3.org/2000/svg" xmlns:xlink="http://www.w3.org/1999/xlink" x="0px" y="0px"
	 width="480px" height="273.371px" viewBox="0 0 480 273.371" enable-background="new 0 0 480 273.371" xml:space="preserve">
<g>
	<rect y="0" fill="#B195A5" width="480" height="273.371"/>
	<path fill="#FFFFFF" d="M186.248,70.395c-3.31-9.898-5.678-15.2-6.555-16.063c-1.196-1.177-3.624-1.544-5.401-1.298
		c-3.432,0.475-5.696,0.995-9.055,2.587c-1.027,2.694-7.34,18.931-11.762,22.9c-0.174,0.157-0.377,0.317-0.598,0.48
		c1.463,0.391,3.069,0.819,4.766,1.27c-0.014-0.681,0.045-1.304,0.267-1.913c0.509-1.395,1.98-3.172,6.093-3.72
		c1.695-0.226,12.01-1.225,13.542-0.439c1.847,0.946,2.597,2.807,2.843,3.419c0.444,1.101,0.546,3.306,0.642,6.301
		c0.027,0.853,0.059,1.847,0.11,2.505c0.73,0.186,1.416,0.359,2.047,0.518l4.309-12.724
		C187.107,72.997,186.69,71.718,186.248,70.395z"/>
	<path fill="#FFFFFF" d="M185.008,87.394c1.388,0.339,2.307,0.548,2.578,0.578c0.004,0,0.008,0,0.012,0
		c1.105,0,2.947-0.215,3.174-1.618c0.051-0.667-0.828-4.167-2.33-9.101L185.008,87.394z"/>
	<path fill="#FFFFFF" d="M152.226,77.132c3.447-3.095,8.47-15.119,10.497-20.217c-6.38,3.767-17.842,16.397-19.011,18.51
		c0.203,0.716,0.768,1.295,1.49,1.504c0.467,0.136,2.437,0.67,5.29,1.435C151.201,77.906,151.839,77.479,152.226,77.132z"/>
	<path fill="#FFFFFF" d="M179.163,83.98c-0.065-2.019-0.153-4.784-0.507-5.662c-0.2-0.496-0.728-1.807-1.936-2.441
		c-1.056-0.324-8.601,0.099-12.469,0.615c-1.759,0.235-3.983,0.86-4.585,2.509c-0.236,0.647-0.172,1.441-0.037,2.79
		c0.116,1.16,0.186,1.859,0.664,2.623c0.512,0.818,1.13,1.228,1.56,1.428c0.772,0.36,1.497,0.315,2.136,0.275l0.083-0.005
		c0.197-0.012,0.495-0.043,0.84-0.078c0.931-0.096,2.261-0.234,3.701-0.234c3.078,0,6.659,0.628,7.933,3.627
		c0.358,0.842,1.611,2.97,2.633,4.654c0.073-0.24,0.148-0.476,0.222-0.706c0.425-1.303,0.856-2.392,1.3-3.277
		c-0.348-0.594-0.914-1.596-1.209-2.323C179.286,87.271,179.238,86.334,179.163,83.98z"/>
	<path fill="#FFFFFF" d="M165.103,87.893c-0.381,0.039-0.683,0.071-0.919,0.085l-0.081,0.005c-0.731,0.045-1.838,0.113-3.04-0.447
		c-0.944-0.44-1.758-1.177-2.356-2.131c-0.658-1.053-0.797-2.047-0.912-3.168c-2.576-0.686-4.962-1.323-6.974-1.862
		c-0.624,0.4-1.261,0.812-1.876,1.25c-7.499,5.339-7.476,40.396-6.807,54.312l32.136,10.421c-0.986-5.139-0.195-17.213,0.118-21.335
		c0.679-8.965,2.083-20.565,4.101-28.483c-0.728-1.174-3.087-5.011-3.669-6.381C173.494,87.025,167.614,87.633,165.103,87.893z"/>
	<path fill="#FFFFFF" d="M237.435,81.828c0.782-0.014,1.406-0.025,1.839-0.031c7.285-0.094,14.325-0.132,21.09-0.132
		c13.509,0,25.926,0.15,37.038,0.305c1.577,0.022,3.046,0.044,4.413,0.064c7.495,0.111,12.783,0.19,14.581-0.117
		c-0.538-0.47-1.498-1.157-2.374-1.784c-0.615-0.44-1.312-0.939-2.058-1.493c-11.417-8.466-26.017-17.454-36.332-22.364
		c-5.626-2.678-29.844-5.19-51.826-5.376c-14.336-0.121-29.593,1.151-35.488,1.704c-0.237,0.022-0.363,0.171-0.417,0.258
		c-0.054,0.087-0.131,0.266-0.045,0.489c5.58,14.425,10.252,24.427,11.902,25.48c3.068,1.958,5.761,2.372,6.513,2.452
		C215.132,82.229,231.335,81.938,237.435,81.828z"/>
	<path fill="#FFFFFF" d="M369.111,159.211c3.171-4.415,4.057-6.386,4.09-6.837c-1.24-5.804-0.662-10.639-0.152-14.906
		c0.673-5.635,1.16-9.707-2.915-13.195c-0.873-0.747-2.689-2.302-3.091-4.423c-0.141-0.743-0.201-1.711-0.265-2.737
		c-0.065-1.039-0.173-2.768-0.401-3.175c-0.083-0.083-0.206-0.232-0.356-0.425c-1.501,2.557-5.039,4.871-9.472,6.191
		c-4.979,1.483-8.377,5.846-9.961,8.941l3.292-22.57c3.052-1.134,6.869-2.609,8.754-3.646c-0.306-0.498-0.497-0.828-0.525-0.911
		c-0.417-1.265-7.297-8.822-12.888-10.989c-4.734-1.835-8.355-2.683-11.266-3.364c-2.176-0.51-3.895-0.912-5.259-1.557
		c-2.307-1.09-3.782-2.342-4.663-3.089l-0.08-0.068c-6.123-5.188-16.928-12.738-32.114-22.44c-5.177-3.308-9.267-5.92-14.943-7.357
		c-14.579-3.689-31.32-4.654-38.468-5.066c-0.918-0.053-1.693-0.098-2.303-0.138c-5.127-0.342-37.107,0.397-53.24,0.779
		c-3.151,0.075-5.934,0.17-8.491,0.416c-11.832,2.718-17.801,7.87-18.84,8.793c-1.758,1.56-3.477,3.143-5.093,4.682
		c-2.364,2.613-4.927,5.728-7.792,9.446c-0.389,0.469-0.786,0.931-1.183,1.392c-0.291,0.338-0.581,0.676-0.869,1.016
		c-0.46,0.545-0.861,1.025-1.214,1.448c-2.001,2.393-2.501,2.278-3.771,2.939c-0.774,0.403-1.549,0.443-3.359,0.905
		c-0.17,0.047-0.354,0.099-0.557,0.157c-5.862,1.674-7.524,4.552-8.098,5.873c-1.002,2.306-2.578,14.355-3.115,16.196
		c-0.402,1.379-0.675,1.464-1.246,3.115c0,0-0.713,1.899-0.979,4.272c-0.372,3.323,1.539,18.081,1.802,19.289
		c0.222,1.022,0.751,1.915,1.17,2.501c0.18,0.251,0.576,0.117,0.571-0.191c-0.035-1.877-0.113-6.019-0.139-6.486
		c-0.27-4.91,0.045-8.109,0.245-10.84c0,0,0.206-2.815,1.691-6.763c0.405-1.077,0.979-2.394,2.225-2.848
		c0.199-0.073,0.819-0.288,1.513-0.089c0.542,0.156,1.036,0.49,1.486,0.941c2.338,1.685,3.536,4.322,4.365,7.438
		c0.049,0.184,0.088,0.333,0.119,0.439c0.742,2.576,1.025,4.486,1.539,7.953c0.121,0.812,0.158,1.122,0.249,1.869
		c0.095,0.787,0.255,2.105,0.643,5.089c0.238,1.825,0.382,2.903,0.471,3.566c0.14,1.043,0.148,1.105,0.159,1.417
		c0.011,0.336,0.016,0.679,0.021,1.032c0.021,1.432,0.042,2.912,0.487,4.742c0.135,0.556,0.307,1.135,0.79,1.577
		c0.428,0.391,0.991,0.499,1.403,0.577c0.19,0.036,0.355,0.068,0.511,0.125c3.221,1.173,34.513,11.665,40.479,13.415
		c0.001-0.591-0.01-1.396-0.022-2.227c-0.113-7.858-0.376-26.258,5.12-36.471c1.86-3.455,3.706-4.08,4.494-4.346l0.033-0.011
		c2.053-0.697,4.226-0.302,5.575,0.298c3.084,1.374,5.909,4.523,8.169,9.107c2.524,5.119,4.212,11.681,5.016,19.505
		c0.299,2.905,2.635,19.542,3.114,22.942c1.303,0.357,4.518,1.202,6.79,1.51c7.797,1.059,42.821,1.146,79.735,0.197
		c18.996-0.488,35.576-1.179,47.947-1.998C365.74,160.832,368.681,159.58,369.111,159.211z M192.617,86.653
		c-0.329,2.027-2.157,3.188-5.018,3.188c-0.015,0-0.031,0-0.046,0c-0.267-0.001-1.628-0.308-3.706-0.818
		c-0.215,0.107-0.622,0.42-1.155,1.328c-0.007,0.026-0.01,0.053-0.019,0.078l-2.281,6.235c-1.954,7.483-3.351,18.646-4.058,27.504
		c-1.146,14.35-0.626,22.103,0.108,23.025c0.285,0.314,0.322,0.777,0.092,1.134c-0.175,0.271-0.474,0.426-0.785,0.426
		c-0.097,0-0.194-0.015-0.29-0.046l-34.509-11.19c-0.368-0.119-0.625-0.454-0.645-0.84c-0.007-0.123-0.63-12.409-0.056-25.381
		c0.781-17.657,3.343-28.152,7.613-31.192c0.18-0.128,0.36-0.253,0.541-0.376c-2.254-0.605-3.653-0.982-3.722-1.003
		c-1.471-0.427-2.593-1.679-2.858-3.189c-0.076-0.431-0.141-0.802,2.34-3.744c1.47-1.744,3.39-3.847,5.407-5.923
		c3.093-3.184,8.881-8.839,12.892-10.946c0.577-0.303,1.122-0.578,1.644-0.831c0.002-0.001,0.005-0.002,0.007-0.003
		c3.747-1.81,6.249-2.395,9.923-2.904c2.236-0.31,5.256,0.132,6.969,1.817c1.896,1.865,5.583,12.505,7.08,16.993
		c0.064,0.193,0.595,1.788,1.273,3.928c0.01,0.03,0.021,0.059,0.029,0.09C190.804,78.493,192.84,85.278,192.617,86.653z
		 M198.75,80.406c-2.813-1.795-9.126-17.299-12.639-26.381c-0.276-0.714-0.203-1.496,0.199-2.146c0.402-0.65,1.07-1.064,1.831-1.135
		c5.924-0.555,21.264-1.835,35.679-1.712c22.593,0.191,46.687,2.736,52.614,5.557c10.413,4.957,25.138,14.02,36.642,22.551
		c0.733,0.544,1.424,1.038,2.033,1.474c2.651,1.898,3.862,2.764,3.465,3.968c-0.371,1.127-1.601,1.425-7.538,1.425
		c-2.302,0-5.309-0.045-9.25-0.103c-1.366-0.02-2.834-0.042-4.411-0.064c-16.664-0.231-36.269-0.454-58.078-0.173
		c-0.43,0.006-1.051,0.017-1.829,0.031c-6.132,0.11-22.419,0.403-31.398-0.555C205.216,83.05,202.162,82.584,198.75,80.406z
		 M275.086,127.058c-7.685-1.815-12.423-2.459-31.119-3.536c-10.476-0.603-18.979-2.91-25.271-6.856
		c-4.859-3.047-7.36-6.448-8.603-8.763c-2.386-4.447-1.948-8.313-1.928-8.475c0.032-0.263,0.174-0.5,0.391-0.652
		c0.217-0.152,0.488-0.205,0.746-0.145c0.219,0.05,22,5.055,33.627,6.434c2.565,0.304,5.925,0.702,9.629,1.14
		c4.061,0.48,8.412,0.995,12.565,1.487l15.185,21.081C278.984,128.161,277.284,127.577,275.086,127.058z M335.562,133.933
		c-6.381,0.704-14.218,1.009-19.669,1.141c-3.201,0.078-6.442,0.116-9.558,0.116c-3.946,0-7.691-0.062-10.903-0.184
		c-3.842-0.147-6.24-0.343-7.754-0.569l-18.958-26.319c8.503,1.01,15.459,1.844,16.163,1.958c1.755,0.283,35.107-0.479,57.223-1.063
		c0.988-0.449,2.809-1.119,4.922-1.892l-3.707,25.419C341.837,133.032,339.444,133.505,335.562,133.933z"/>
	<g>
		<path fill="#FFFFFF" d="M210.48,164.061c-0.354-0.102-0.616-0.402-0.667-0.768c-0.117-0.83-2.873-20.359-3.208-23.617
			c-1.197-11.638-4.283-19.156-7.634-23.372h-3.546c-6.882,0-12.696,14.184-12.696,30.973c0,16.789,5.814,30.973,12.696,30.973
			h21.321c4.937,0,9.233-3.167,10.691-7.88c0.431-1.392,0.819-2.713,1.169-3.966c-4.904-0.145-8.529-0.35-10.489-0.616
			C215.084,165.377,210.667,164.114,210.48,164.061z M194.422,173.603c-4.66,0-8.437-11.545-8.437-25.786
			c0-14.241,3.778-25.786,8.437-25.786c4.66,0,8.437,11.545,8.437,25.786C202.859,162.058,199.082,173.603,194.422,173.603z"/>
		<path fill="#FFFFFF" d="M138.739,141.927c-0.523-0.1-1.496-0.285-2.315-1.034c-0.085-0.078-0.163-0.158-0.237-0.239
			c-0.961,5.108-2.755,8.528-4.863,8.56c-3.247,0.049-6.001-7.955-6.152-17.879c-0.151-9.923,2.36-18.008,5.607-18.057
			c0.322-0.005,0.638,0.075,0.948,0.223c-0.062-0.234-0.127-0.47-0.198-0.715c-0.033-0.115-0.076-0.277-0.129-0.476
			c-0.361-1.356-0.735-2.536-1.12-3.551c-1.818,0.667-3.562,2.806-4.911,6.103c-1.763,4.306-2.683,10.029-2.59,16.116
			c0.202,13.299,4.956,22.178,9.288,22.179c0.016,0,0.032,0,0.048,0l15.535-0.236c3.422-0.052,6.37-2.254,7.403-5.497
			c-7.868-2.632-14.859-5.003-16.094-5.452C138.911,141.957,138.832,141.944,138.739,141.927z"/>
		<path fill="#FFFFFF" d="M347.026,163.944c-7.854,0.532-17.475,1.012-28.39,1.419c5.536,4.729,10.97,6.91,14.001,6.91h7.863
			c2.947,0,6.742-0.875,9.905-2.284c3.529-1.572,5.871-3.571,6.594-5.63c0.15-0.426,0.293-0.842,0.433-1.254
			C354.624,163.38,351.203,163.661,347.026,163.944z"/>
	</g>
	<polygon fill="#FFFFFF" points="51.833,137.137 117.833,188.637 132.259,189.075 58.75,137.137 	"/>
</g>
</svg>
