<?xml version="1.0" encoding="utf-8"?>
<!-- Generator: Adobe Illustrator 17.0.0, SVG Export Plug-In . SVG Version: 6.00 Build 0)  -->
<!DOCTYPE svg PUBLIC "-//W3C//DTD SVG 1.1//EN" "http://www.w3.org/Graphics/SVG/1.1/DTD/svg11.dtd">
<svg version="1.1" id="Layer_1" xmlns="http://www.w3.org/2000/svg" xmlns:xlink="http://www.w3.org/1999/xlink" x="0px" y="0px"
	 width="480px" height="273.371px" viewBox="0 0 480 273.371" enable-background="new 0 0 480 273.371" xml:space="preserve">
<rect y="0" fill="#79B242" width="480" height="273.371"/>
<g>
	<path fill="#FFFFFF" d="M349.579,102.53c-0.59-0.027-1.598-0.028-2.741-0.019c-0.755,1.746-1.372,3.412-1.818,4.609
		c-1.475,3.959-2.639,12.575-3.182,14.205c-0.543,1.63-1.242,1.179-1.708,1.645c-0.354,0.354-2.722,0.17-3.841,0.061
		c-1.057,0.218-2.258,0.127-3.37,0.037c0.207,8.429,2.638,15.741,5.913,15.894c1.781,0.083,7.354-0.079,9.052,0
		c3.712,0.173,7.101-7.843,7.569-17.903C355.922,110.998,353.291,102.703,349.579,102.53z M353.51,121.438
		c-0.314,6.762-2.48,12.154-4.836,12.045c-2.357-0.11-4.012-5.68-3.698-12.441c0.314-6.762,2.48-12.154,4.836-12.045
		C352.168,109.106,353.824,114.677,353.51,121.438z"/>
	<path fill="#FFFFFF" d="M262.189,129.665c-1.021-0.259-9.703-1.196-15.05-1.533c-3.003,3.474-5.515,7.768-7.092,12.517
		c-5.297,15.947-5.297,23.245-7.184,23.921c-1.034,0.37-3.44,2.546-5.87,4.615c1.124,8.212,4.485,13.99,9.226,14.527
		c3.478,0.394,14.417,0.984,17.733,1.359c7.249,0.821,14.97-10.916,17.244-26.216C273.471,143.554,269.235,131.452,262.189,129.665z
		 M267.335,159.143c-1.529,10.283-6.499,18.197-11.101,17.676c-4.602-0.521-7.093-9.28-5.564-19.564
		c1.529-10.283,6.499-18.197,11.1-17.676C266.373,140.1,268.864,148.859,267.335,159.143z"/>
</g>
<polygon fill="#FFFFFF" points="2.167,153.198 506.833,42.865 2.167,145.531 "/>
<path fill="#79B242" d="M155.894,138.156c-8.852-1.554-20.542-5.271-20.542-5.271c-0.135-0.27,0-21.623,0-21.623
	s1.96-5.271,2.635-5.203c0.676,0.068,14.596,1.622,19.461,1.96c4.865,0.338,27.84,2.568,28.313,2.703
	c0.473,0.135,4.595,5.744,4.798,7.028c0.203,1.284,0.541,23.718,0.541,23.718S164.746,139.71,155.894,138.156z"/>
<path fill="#79B242" d="M325.192,122.572c-4.735,1.844-11.336,4.348-19.62,7.441c-14.103,5.267-28.39,10.489-28.533,10.541
	l-0.555,0.203l0.009-0.591c0.176-11.981,0.403-35.163,0.008-37.141c-0.193-0.966-0.816-3.516-1.537-6.469
	c-1.195-4.894-2.3-10.493-2.74-11.97c-1.167-3.919,2.114-11.378,5.184-18.257c2.827-6.332,5.464-12.042,6.929-13.073
	c5.751-4.048,35.62-4.411,35.764-4.42c0.123-0.003,2.726-0.087,3.848,2.157c1.006,2.012,8.669,24.311,9.161,25.743
	c0.242,0.405,2.166,3.657,2.565,5.153c0.427,1.6,0.311,13.942,0.012,17.531l-0.158,1.877c-0.232,2.741-0.522,6.153-0.46,6.547
	c0.011,0.042,0.034,0.121,0.063,0.22c0.205,0.7,0.631,2.158,0.339,3.229c-0.31,1.136-1.105,6.255-1.105,7.115
	C334.366,118.8,334.366,118.999,325.192,122.572z"/>
<g>
	<path fill="#FFFFFF" d="M357.251,70.51l-25.427-1.323c0.635,2.038,1.589,4.914,2.28,6.168L357.251,70.51z"/>
	<path fill="#FFFFFF" d="M366.78,97.069c-0.854-0.31-0.699-1.009-0.699-2.639c0-1.63,0.854-5.977,0.699-10.479
		c-0.155-4.502-0.216-8.886-2.173-13.04c-1.32-2.801-4.269-2.562-5.511-2.562c-1.242,0-27.944-1.397-27.944-1.397
		s0.162,0.563,0.418,1.405l29.185,1.43c0.206,0.005,0.376,0.164,0.395,0.37c0.019,0.206-0.12,0.393-0.322,0.435l-26.239,5.493
		c1.061,1.564,2.408,4.257,2.695,5.692c0.311,1.552,0.543,10.556,0.155,14.437c-0.388,3.881-0.311,10.712-0.466,11.333
		c-0.155,0.621,0.466,0.215,0.466,1.427c0,1.212-0.071,5.404-0.812,6.258c-0.741,0.854-0.818,1.32-0.508,2.251
		c0.31,0.931-0.149,2.846-1.087,3.26c0,0,3.959,0.466,4.424,0c0.466-0.466,1.164-0.854,1.708-2.484
		c0.543-1.63,1.708-10.246,3.182-14.205c1.475-3.959,4.813-13.04,8.849-13.196c4.036-0.155,6.21,6.287,6.21,11.022
		s-0.699,8.383-1.32,9.392c-0.262,0.426-0.563,0.742-0.826,0.973c1.879-1.351,7.251-5.268,7.89-6.343
		c0.776-1.305,2.096-5.264,2.096-6.506C367.245,98.155,367.633,97.379,366.78,97.069z"/>
	<path fill="#FFFFFF" d="M357.26,112.246c-0.403,0.29-0.648,0.464-0.648,0.464S356.899,112.562,357.26,112.246z"/>
	<path fill="#FFFFFF" d="M301.646,82.929l0-0.07c-0.008-0.166-0.016-0.345-0.025-0.52c-0.01-0.193-0.019-0.357-0.028-0.516
		c-0.011-0.172-0.02-0.323-0.031-0.467l-0.004-0.05c-0.01-0.134-0.02-0.262-0.031-0.382c-0.012-0.139-0.023-0.25-0.035-0.353
		l-0.005-0.042c-0.012-0.108-0.023-0.192-0.034-0.267c-0.013-0.089-0.024-0.149-0.035-0.202c-0.014-0.061-0.019-0.086-0.026-0.104
		l-0.001-0.002c-0.08-0.188-0.409-0.649-0.967-1.262c-0.358-0.393-0.735-0.764-1.088-1.074c-0.091-0.08-0.182-0.157-0.273-0.23
		c-0.124-0.101-0.244-0.188-0.36-0.269c-0.406-0.282-0.575-0.306-0.605-0.308c-0.193-0.013-0.819-0.021-1.675-0.023l-0.385,0
		c-0.532,0-1.133,0.003-1.767,0.009c-0.476,0.005-0.97,0.011-1.468,0.019c-0.83,0.014-1.671,0.033-2.454,0.058l-0.462,0.016
		c-2.514,0.093-2.977,0.211-3.059,0.246c-1.57,0.893-1.908,3.879-1.967,5.579c-0.012,0.353-0.016,0.717-0.01,1.082
		c0.003,0.155,0.007,0.298,0.012,0.423c0.014,0.366,0.033,0.587,0.033,0.592l0.048,0.551l-3.577-0.783l-3.308-10.335
		c-1.902,4.707-2.43,6.251-2.527,6.702c-0.454,2.084,0.456,6.692,1.05,8.475l0.1,0.299c0.929,2.804,1.597,4.306,1.985,4.466
		l0.035-0.01c0.048-0.013,4.736-1.224,8.453-2.149l-0.107-0.948c-0.011-0.079-0.01-0.102-0.01-0.103v-0.37l0.368-0.036
		c0,0,1.316-0.127,3.004-0.283l2.49-0.227c2.651-0.236,4.223-0.356,4.672-0.356c3.049,0,3.98-0.501,4.05-0.798
		c0.127-0.539,0.14-3.321,0.029-5.974L301.646,82.929z"/>
	<path fill="#FFFFFF" d="M335.165,116.06c0.98-2.763,1.291-3.924,1.248-5.549c-0.021-0.799-0.525-1.383-0.302-2.965
		c0.676-4.798,0.541-23.786,0.405-25.543c-0.135-1.757-2.297-5.136-3.108-6.825c-0.811-1.689-6.96-20.002-7.636-21.691
		s-1.12-3.737-3.595-5.365c-3.954-2.6-18.704-2.541-32.624-2.879c-13.92-0.338-39.598,0.878-53.45,1.96
		c-13.852,1.081-16.826,2.635-25.07,5.609c-8.244,2.973-31.421,27.299-31.421,27.299s-2.027,0.473-6.014,1.554
		s-17.096,4.595-23.178,7.028c-6.082,2.433-9.122,4.73-10.068,5.473c-0.946,0.743-3.852,1.216-5.06,1.892
		c-1.209,0.676-3.319,5-3.319,5s-0.878,19.258-0.878,19.461c0,0.203-0.27,0.676-0.338,0.692c-0.068,0.017-1.149,1.875-1.419,2.551
		c-0.27,0.675,0.068,5.406,0.135,5.609c0.068,0.203-0.743-0.068-1.351,0.27c-0.608,0.338-1.622,1.554-1.622,1.554
		s0.541,9.528,0.743,10.744c0.203,1.216,0.608,3.379,1.487,4.527c0.878,1.149,2.568,2.568,3.243,3.649
		c0.676,1.081,5.271,3.784,5.271,3.784s0.541,0.608,0.946,1.96c0.405,1.351,2.162,3.311,2.162,3.311
		c3.108,3.852,11.352,6.217,17.028,7.501c5.676,1.284,36.084,5.946,44.161,6.082c8.077,0.135,16.654-1.216,19.29-2.297
		c2.635-1.081,8.649-7.771,10.406-8.447c1.757-0.676,1.757-7.974,6.69-23.921s19.664-26.759,28.651-18.65
		c8.987,8.109,4.933,28.516,5.609,27.772s2.703-2.838,2.973-3.108c0.27-0.27,58.315-22.569,58.586-22.637
		c0.27-0.068,1.014-1.216,1.487-1.892C335.706,118.898,334.808,117.067,335.165,116.06z M155.894,138.156
		c-8.852-1.554-20.542-5.271-20.542-5.271c-0.135-0.27,0-21.623,0-21.623s1.96-5.271,2.635-5.203
		c0.676,0.068,14.596,1.622,19.461,1.96c4.865,0.338,27.84,2.568,28.313,2.703c0.473,0.135,4.595,5.744,4.798,7.028
		c0.203,1.284,0.541,23.718,0.541,23.718S164.746,139.71,155.894,138.156z M227.147,120.186c-0.447,1.118-0.492,10.155-0.492,10.155
		s0.224,2.237-2.595,2.639c-2.818,0.403-18.744,0.626-18.744,0.626l-0.224-17.268c0,0-4.105-5.76-3.487-5.78
		c0,0,21.694-0.707,23.349-0.886c1.655-0.179,5.413-0.716,5.413-0.716s1.432-0.635,1.476,0.801c0.045,1.436,0.403,3.896,0.403,3.896
		S227.595,119.068,227.147,120.186z M266.281,84.472c0,0-10.966,0.685-17.918,0.783c-6.952,0.098-31.234-0.587-40.144-0.881
		c-8.91-0.294-21.638-0.881-22.422-0.979c-0.783-0.098-1.077-0.685-1.664-0.881c-0.587-0.196-3.525,0.098-3.525-0.685
		c0-0.783-1.169,0.495,0-0.783c0.443-0.485,14.197-14.295,16.449-16.547s12.043-10.281,13.022-10.574
		c0.979-0.294,10.77-0.685,11.064-0.685c0.294,0,0.881,0.881,0.881,0.881l31.821,0.196c0,0,2.056-1.077,3.819-1.077
		c1.762,0,19.778,1.077,20.072,0.979c0.294-0.098,1.273,0.196,0.979,0.881C278.422,55.784,266.281,84.472,266.281,84.472z
		 M325.192,122.572c-4.735,1.844-11.336,4.348-19.62,7.441c-14.103,5.267-28.39,10.489-28.533,10.541l-0.555,0.203l0.009-0.591
		c0.176-11.981,0.403-35.163,0.008-37.141c-0.193-0.966-0.816-3.516-1.537-6.469c-1.195-4.894-2.3-10.493-2.74-11.97
		c-1.167-3.919,2.114-11.378,5.184-18.257c2.827-6.332,5.464-12.042,6.929-13.073c5.751-4.048,35.62-4.411,35.764-4.42
		c0.123-0.003,2.726-0.087,3.848,2.157c1.006,2.012,8.669,24.311,9.161,25.743c0.242,0.405,2.166,3.657,2.565,5.153
		c0.427,1.6,0.311,13.942,0.012,17.531l-0.158,1.877c-0.232,2.741-0.522,6.153-0.46,6.547c0.011,0.042,0.034,0.121,0.063,0.22
		c0.205,0.7,0.631,2.158,0.339,3.229c-0.31,1.136-1.105,6.255-1.105,7.115C334.366,118.8,334.366,118.999,325.192,122.572z"/>
	<path fill="#FFFFFF" d="M312.805,114.508c-0.098-1.121-0.136-4.529-0.18-8.474c-0.079-6.989-0.186-16.56-0.695-18.255
		c-0.785-2.617-2.831-5.593-2.852-5.622l-0.05-0.072l-0.016-0.086c-0.002-0.012-0.077-0.415-0.077-0.415s-9.012-30.315-9.208-30.721
		c-4.681,0.481-12.691,1.43-14.921,3.159c-1.254,0.973-4.874,8.235-7.756,15.715c-2.369,6.15-4.887,10.95-4.021,14.749
		c0.332,1.457,1.592,7.246,2.723,11.878c0.723,2.962,1.347,5.52,1.544,6.503c0.48,2.402,0.083,31.986,0.016,36.722
		c11.102-4.059,24.893-9.156,36.057-13.37c-0.188-0.959-0.406-2.567,0.009-3.502c0.335-0.753,0.031-3.144-0.238-5.253
		C313.017,116.471,312.886,115.445,312.805,114.508z M302.412,89.097c-0.144,0.611-0.802,1.425-4.842,1.425
		c-0.292,0-1.327,0.061-4.599,0.353l-0.724,0.066c-0.354,0.361-0.711,0.605-1.059,0.667c-0.462,0.082-11.859,3.25-12.257,3.353
		c-0.084,0.032-0.171,0.048-0.259,0.048c-0.106,0-0.213-0.023-0.319-0.07c-0.067-0.03-0.134-0.074-0.2-0.125
		c-0.841-0.156-1.877-3.429-2.415-5.041c-0.579-1.738-1.545-6.47-1.062-8.69c0.008-0.035,0.017-0.074,0.028-0.117
		c0.011-0.063,0.019-0.131,0.032-0.19c0.165-0.758,1.143-3.335,2.991-7.876c0,0,4.665-11.113,5.885-13.385
		c1.221-2.272,1.348-3.738,5.62-4.806c2.238-0.559,6.192-0.947,8.813-1.334c0.594-0.088,8.226,27.435,8.64,28.678l-0.195,0.041
		c0,0-3.207,0.66-4.028,0.823C302.548,84.988,302.591,88.336,302.412,89.097z"/>
	<path fill="#FFFFFF" d="M334.877,99.352c0.319-3.831,0.385-15.854,0.012-17.254c-0.388-1.454-2.478-4.946-2.499-4.981l-0.036-0.077
		c-0.081-0.237-8.14-23.696-9.133-25.683c-0.82-1.64-2.728-1.709-3.035-1.709c-0.026,0-0.041,0.001-0.042,0.001
		c-0.136,0.009-12.121,0.28-19.553,1.132c0.228,0.477,0.428,1.094,0.62,1.621c0.029,0.157,8.574,29.294,8.587,29.366
		c0.332,0.49,2.149,3.238,2.912,5.779c0.542,1.806,0.645,11.051,0.729,18.48c0.044,3.929,0.082,7.322,0.177,8.412
		c0.08,0.921,0.21,1.939,0.335,2.923c0.323,2.535,0.601,4.725,0.174,5.686c-0.289,0.651-0.15,1.942,0.021,2.879
		c10.373-3.92,18.317-7.02,19.413-7.704c0.077-1.338,0.844-6.105,1.127-7.144c0.232-0.849-0.165-2.206-0.335-2.786
		c-0.033-0.112-0.059-0.202-0.074-0.263c-0.092-0.367,0.064-2.354,0.441-6.801L334.877,99.352z M325.564,77.896
		c-2.506,0.665-8.145,1.897-13.786,3.089c-0.047,0.01-8.543-27.952-8.812-28.699c3.419-0.202,11.273-0.773,14.339-0.756
		c2.357,0.014,3.929-0.084,4.619,1.373c1.738,3.669,7.309,19.972,7.309,19.972S330.295,76.641,325.564,77.896z"/>
	<path fill="#FFFFFF" d="M182.815,72.178c-0.712,0.008-2.873,2.314-3.026,2.568s-0.178,0.865-0.178,0.865v3.916l6.764-7.052
		C186.375,72.474,183.527,72.169,182.815,72.178z"/>
</g>
</svg>
